<svg width="305" height="43" viewBox="0 0 305 43" fill="none" xmlns="http://www.w3.org/2000/svg">
<circle cx="6.5" cy="6.5" r="6.5" fill="#134AFF"/>
<circle cx="21.5" cy="6.5" r="6.5" fill="#134AFF"/>
<circle cx="36.5" cy="6.5" r="6.5" fill="#134AFF"/>
<circle cx="51.5" cy="6.5" r="6.5" fill="#134AFF"/>
<circle cx="66.5" cy="6.5" r="6.5" fill="#134AFF"/>
<circle cx="81.5" cy="6.5" r="6.5" fill="#134AFF"/>
<circle cx="96.5" cy="6.5" r="6.5" fill="#134AFF"/>
<circle cx="111.5" cy="6.5" r="6.5" fill="#134AFF"/>
<circle cx="126.5" cy="6.5" r="6.5" fill="#134AFF"/>
<circle cx="141.5" cy="6.5" r="6.5" fill="#134AFF"/>
<circle cx="156.5" cy="6.5" r="6.5" fill="#134AFF"/>
<circle cx="171.5" cy="6.5" r="6.5" fill="#134AFF"/>
<circle cx="186.5" cy="6.5" r="6.5" fill="#134AFF"/>
<circle cx="201.5" cy="6.5" r="6.5" fill="#134AFF"/>
<circle cx="216.5" cy="6.5" r="6.5" fill="#134AFF"/>
<circle cx="231.5" cy="6.5" r="6.5" fill="#134AFF"/>
<circle cx="246.5" cy="6.5" r="6.5" fill="#134AFF"/>
<circle cx="261.5" cy="6.5" r="6.5" fill="#DCE4FF"/>
<circle cx="276.5" cy="6.5" r="6.5" fill="#DCE4FF"/>
<circle cx="291.5" cy="6.5" r="6.5" fill="#DCE4FF"/>
<circle cx="6.5" cy="21.5" r="6.5" fill="#134AFF"/>
<circle cx="21.5" cy="21.5" r="6.5" fill="#134AFF"/>
<circle cx="36.5" cy="21.5" r="6.5" fill="#134AFF"/>
<circle cx="51.5" cy="21.5" r="6.5" fill="#134AFF"/>
<circle cx="66.5" cy="21.5" r="6.5" fill="#134AFF"/>
<circle cx="81.5" cy="21.5" r="6.5" fill="#134AFF"/>
<circle cx="96.5" cy="21.5" r="6.5" fill="#134AFF"/>
<circle cx="111.5" cy="21.5" r="6.5" fill="#134AFF"/>
<circle cx="126.5" cy="21.5" r="6.5" fill="#134AFF"/>
<circle cx="141.5" cy="21.5" r="6.5" fill="#134AFF"/>
<circle cx="156.5" cy="21.5" r="6.5" fill="#134AFF"/>
<circle cx="171.5" cy="21.5" r="6.5" fill="#134AFF"/>
<circle cx="186.5" cy="21.5" r="6.5" fill="#134AFF"/>
<circle cx="201.5" cy="21.5" r="6.5" fill="#134AFF"/>
<circle cx="216.5" cy="21.5" r="6.5" fill="#134AFF"/>
<circle cx="231.5" cy="21.5" r="6.5" fill="#134AFF"/>
<circle cx="246.5" cy="21.5" r="6.5" fill="#DCE4FF"/>
<circle cx="261.5" cy="21.5" r="6.5" fill="#DCE4FF"/>
<circle cx="276.5" cy="21.5" r="6.5" fill="#DCE4FF"/>
<circle cx="291.5" cy="21.5" r="6.5" fill="#DCE4FF"/>
<circle cx="6.5" cy="36.5" r="6.5" fill="#134AFF"/>
<circle cx="21.5" cy="36.5" r="6.5" fill="#134AFF"/>
<circle cx="36.5" cy="36.5" r="6.5" fill="#134AFF"/>
<circle cx="51.5" cy="36.5" r="6.5" fill="#134AFF"/>
<circle cx="66.5" cy="36.5" r="6.5" fill="#134AFF"/>
<circle cx="81.5" cy="36.5" r="6.5" fill="#134AFF"/>
<circle cx="96.5" cy="36.5" r="6.5" fill="#134AFF"/>
<circle cx="111.5" cy="36.5" r="6.5" fill="#134AFF"/>
<circle cx="126.5" cy="36.5" r="6.5" fill="#134AFF"/>
<circle cx="141.5" cy="36.5" r="6.5" fill="#134AFF"/>
<circle cx="156.5" cy="36.5" r="6.5" fill="#134AFF"/>
<circle cx="171.5" cy="36.5" r="6.5" fill="#134AFF"/>
<circle cx="186.5" cy="36.5" r="6.5" fill="#134AFF"/>
<circle cx="201.5" cy="36.5" r="6.5" fill="#134AFF"/>
<circle cx="216.5" cy="36.5" r="6.5" fill="#134AFF"/>
<circle cx="231.5" cy="36.5" r="6.5" fill="#134AFF"/>
<circle cx="246.5" cy="36.5" r="6.5" fill="#DCE4FF"/>
<circle cx="261.5" cy="36.5" r="6.5" fill="#DCE4FF"/>
<circle cx="276.5" cy="36.5" r="6.5" fill="#DCE4FF"/>
<circle cx="291.5" cy="36.5" r="6.5" fill="#DCE4FF"/>
</svg>
