<svg width="259" height="40" viewBox="0 0 259 40" fill="none" xmlns="http://www.w3.org/2000/svg">
<circle cx="5.5" cy="5.5" r="5.5" fill="#134AFF"/>
<circle cx="19.5" cy="5.5" r="5.5" fill="#134AFF"/>
<circle cx="33.5" cy="5.5" r="5.5" fill="#134AFF"/>
<circle cx="47.5" cy="5.5" r="5.5" fill="#134AFF"/>
<circle cx="61.5" cy="5.5" r="5.5" fill="#134AFF"/>
<circle cx="75.5" cy="5.5" r="5.5" fill="#134AFF"/>
<circle cx="89.5" cy="5.5" r="5.5" fill="#134AFF"/>
<circle cx="103.5" cy="5.5" r="5.5" fill="#134AFF"/>
<circle cx="117.5" cy="5.5" r="5.5" fill="#134AFF"/>
<circle cx="131.5" cy="5.5" r="5.5" fill="#134AFF"/>
<circle cx="145.5" cy="5.5" r="5.5" fill="#134AFF"/>
<circle cx="159.5" cy="5.5" r="5.5" fill="#134AFF"/>
<circle cx="173.5" cy="5.5" r="5.5" fill="#134AFF"/>
<circle cx="187.5" cy="5.5" r="5.5" fill="#134AFF"/>
<circle cx="201.5" cy="5.5" r="5.5" fill="#F0F0FF"/>
<circle cx="215.5" cy="5.5" r="5.5" fill="#F0F0FF"/>
<circle cx="229.5" cy="5.5" r="5.5" fill="#F0F0FF"/>
<circle cx="243.5" cy="5.5" r="5.5" fill="#F0F0FF"/>
<circle cx="5.5" cy="19.5" r="5.5" fill="#134AFF"/>
<circle cx="19.5" cy="19.5" r="5.5" fill="#134AFF"/>
<circle cx="33.5" cy="19.5" r="5.5" fill="#134AFF"/>
<circle cx="47.5" cy="19.5" r="5.5" fill="#134AFF"/>
<circle cx="61.5" cy="19.5" r="5.5" fill="#134AFF"/>
<circle cx="75.5" cy="19.5" r="5.5" fill="#134AFF"/>
<circle cx="89.5" cy="19.5" r="5.5" fill="#134AFF"/>
<circle cx="103.5" cy="19.5" r="5.5" fill="#134AFF"/>
<circle cx="117.5" cy="19.5" r="5.5" fill="#134AFF"/>
<circle cx="131.5" cy="19.5" r="5.5" fill="#134AFF"/>
<circle cx="145.5" cy="19.5" r="5.5" fill="#134AFF"/>
<circle cx="159.5" cy="19.5" r="5.5" fill="#134AFF"/>
<circle cx="173.5" cy="19.5" r="5.5" fill="#134AFF"/>
<circle cx="187.5" cy="19.5" r="5.5" fill="#134AFF"/>
<circle cx="201.5" cy="19.5" r="5.5" fill="#F0F0FF"/>
<circle cx="215.5" cy="19.5" r="5.5" fill="#F0F0FF"/>
<circle cx="229.5" cy="19.5" r="5.5" fill="#F0F0FF"/>
<circle cx="243.5" cy="19.5" r="5.5" fill="#F0F0FF"/>
<circle cx="5.5" cy="33.5" r="5.5" fill="#134AFF"/>
<circle cx="19.5" cy="33.5" r="5.5" fill="#134AFF"/>
<circle cx="33.5" cy="33.5" r="5.5" fill="#134AFF"/>
<circle cx="47.5" cy="33.5" r="5.5" fill="#134AFF"/>
<circle cx="61.5" cy="33.5" r="5.5" fill="#134AFF"/>
<circle cx="75.5" cy="33.5" r="5.5" fill="#134AFF"/>
<circle cx="89.5" cy="33.5" r="5.5" fill="#134AFF"/>
<circle cx="103.5" cy="33.5" r="5.5" fill="#134AFF"/>
<circle cx="117.5" cy="33.5" r="5.5" fill="#134AFF"/>
<circle cx="131.5" cy="33.5" r="5.5" fill="#134AFF"/>
<circle cx="145.5" cy="33.5" r="5.5" fill="#134AFF"/>
<circle cx="159.5" cy="33.5" r="5.5" fill="#134AFF"/>
<circle cx="173.5" cy="33.5" r="5.5" fill="#134AFF"/>
<circle cx="187.5" cy="33.5" r="5.5" fill="#F0F0FF"/>
<circle cx="201.5" cy="33.5" r="5.5" fill="#F0F0FF"/>
<circle cx="215.5" cy="33.5" r="5.5" fill="#F0F0FF"/>
<circle cx="229.5" cy="33.5" r="5.5" fill="#F0F0FF"/>
<circle cx="243.5" cy="33.5" r="5.5" fill="#F0F0FF"/>
</svg>
