<svg width="16" height="14" viewBox="0 0 16 14" fill="none" xmlns="http://www.w3.org/2000/svg">
<g clip-path="url(#clip0_1085_39324)">
<path d="M1.29775 8.62775C1.07369 8.36762 0.951596 8.02341 0.957217 7.66767C0.962838 7.31192 1.09573 6.97244 1.32789 6.72077C1.56004 6.4691 1.87332 6.3249 2.20169 6.31858C2.53007 6.31225 2.84789 6.44428 3.08815 6.68685L6.67135 10.5686C6.79355 10.695 6.89121 10.8465 6.95858 11.0143C7.02595 11.1821 7.06167 11.3628 7.06365 11.5458C7.06563 11.7287 7.03382 11.9103 6.9701 12.0797C6.90637 12.2492 6.81202 12.4032 6.69258 12.5325C6.57315 12.6619 6.43104 12.7642 6.27461 12.8332C6.11818 12.9022 5.9506 12.9367 5.7817 12.9345C5.6128 12.9324 5.446 12.8937 5.29111 12.8207C5.13622 12.7477 4.99636 12.6419 4.87975 12.5095L1.29775 8.62775Z" fill="white"/>
<path d="M13.1643 1.75061C13.282 1.62317 13.4216 1.52207 13.5753 1.4531C13.729 1.38413 13.8938 1.34863 14.0601 1.34863C14.2265 1.34863 14.3912 1.38413 14.5449 1.4531C14.6986 1.52207 14.8383 1.62317 14.9559 1.75061C15.0736 1.87805 15.1669 2.02934 15.2305 2.19585C15.2942 2.36236 15.327 2.54083 15.327 2.72106C15.327 2.90129 15.2942 3.07975 15.2305 3.24626C15.1669 3.41277 15.0736 3.56406 14.9559 3.69151L6.89433 12.4262C6.77764 12.5585 6.63771 12.6642 6.48277 12.7371C6.32784 12.8099 6.16102 12.8485 5.99212 12.8505C5.82322 12.8525 5.65566 12.818 5.49928 12.7488C5.34289 12.6797 5.20085 12.5774 5.08149 12.4479C4.96214 12.3184 4.86788 12.1644 4.80426 11.9949C4.74064 11.8254 4.70894 11.6438 4.71103 11.4608C4.71312 11.2779 4.74896 11.0972 4.81643 10.9294C4.8839 10.7617 4.98165 10.6102 5.10393 10.484L13.1643 1.75061Z" fill="white"/>
</g>
<defs>
<clipPath id="clip0_1085_39324">
<rect width="15.6" height="13" fill="white" transform="translate(0.199219 0.5)"/>
</clipPath>
</defs>
</svg>
