<svg width="64" height="65" viewBox="0 0 64 65" fill="none" xmlns="http://www.w3.org/2000/svg">
<path d="M32 64.5C49.6731 64.5 64 50.1731 64 32.5C64 14.8269 49.6731 0.5 32 0.5C14.3269 0.5 0 14.8269 0 32.5C0 50.1731 14.3269 64.5 32 64.5Z" fill="#EEEEEE"/>
<mask id="mask0_2036_3199" style="mask-type:luminance" maskUnits="userSpaceOnUse" x="14" y="14" width="35" height="36">
<path d="M49 14.5H14V49.5H49V14.5Z" fill="white"/>
</mask>
<g mask="url(#mask0_2036_3199)">
<path d="M31.5003 49.5005C41.1654 49.5005 49.0005 41.6654 49.0005 32.0003C49.0005 22.3351 41.1654 14.5 31.5003 14.5C21.8351 14.5 14 22.3351 14 32.0003C14 41.6654 21.8351 49.5005 31.5003 49.5005Z" fill="#60B57D"/>
<path d="M30.1 22.587C30.1994 22.6697 30.2624 22.7881 30.2753 22.9167C30.2883 23.0454 30.2501 23.1739 30.1692 23.2747C30.0882 23.3755 29.9708 23.4405 29.8424 23.4556C29.714 23.4706 29.5848 23.4347 29.4827 23.3554C28.198 22.3236 27.1279 21.9827 26.4679 22.3197C25.6998 22.7114 25.4019 23.9717 25.557 25.7303L25.5802 25.9678C25.5933 26.088 25.6084 26.2102 25.6253 26.3345L25.6621 26.5859C25.7078 26.8799 25.7639 27.1842 25.8309 27.4978C26.7561 27.3543 27.7518 27.2606 28.7975 27.2217C29.235 26.6582 29.6947 26.1123 30.1755 25.5853L30.4076 25.3351C30.9881 24.7181 31.5704 24.1657 32.1434 23.6878L32.3721 23.5004C34.4632 21.8209 36.4096 21.1563 37.6683 21.9736C38.7648 22.6849 39.0588 24.2963 38.6513 26.4556C38.6403 26.5201 38.6166 26.5818 38.5815 26.6371C38.5464 26.6923 38.5007 26.7401 38.4469 26.7774C38.3932 26.8148 38.3326 26.8411 38.2685 26.8548C38.2045 26.8685 38.1384 26.8693 38.0741 26.8572C38.0098 26.845 37.9485 26.8202 37.8939 26.7841C37.8393 26.7481 37.7924 26.7015 37.756 26.6471C37.7195 26.5927 37.6943 26.5316 37.6817 26.4674C37.6692 26.4032 37.6696 26.3371 37.6828 26.273C38.0239 24.4646 37.7993 23.2334 37.1318 22.8003C36.2639 22.237 34.6515 22.8855 32.8334 24.4001L32.6305 24.5719C32.5271 24.661 32.4247 24.7514 32.3234 24.8429L32.117 25.032C31.9044 25.2301 31.696 25.4328 31.4921 25.6398L31.2822 25.8554C31.2472 25.8918 31.2122 25.9286 31.1771 25.9655L30.9665 26.1907L30.756 26.4219L30.5453 26.6592C30.475 26.7393 30.4047 26.8204 30.3347 26.9026L30.1242 27.1517L30.0833 27.2013C30.5736 27.2039 31.0725 27.2181 31.5779 27.2444L31.7741 27.2553L32.164 27.2802C32.4876 27.3029 32.8076 27.3302 33.1234 27.3621L33.5005 27.4024C33.5629 27.4095 33.6253 27.4168 33.6875 27.4241L34.0581 27.4708C34.3653 27.5114 34.6679 27.5562 34.9653 27.6053L35.3196 27.666L35.6689 27.7307L36.0128 27.7992C37.1503 28.0338 38.1962 28.3307 39.1177 28.6788L39.3906 28.7848C41.811 29.7519 43.3026 31.0833 43.2261 32.5549C43.1626 33.7714 42.0722 34.7758 40.2442 35.4953C40.1838 35.5204 40.1189 35.5332 40.0534 35.5329C39.9879 35.5327 39.9232 35.5193 39.8629 35.4938C39.8026 35.4682 39.748 35.4309 39.7023 35.3839C39.6567 35.337 39.6208 35.2815 39.5968 35.2206C39.5728 35.1596 39.5612 35.0945 39.5627 35.0291C39.5641 34.9636 39.5786 34.8991 39.6053 34.8393C39.632 34.7795 39.6703 34.7256 39.718 34.6808C39.7658 34.636 39.8219 34.6011 39.8833 34.5782C41.3905 33.9849 42.2036 33.2361 42.2417 32.5036C42.2906 31.566 41.1687 30.5963 39.3013 29.8141L39.0689 29.7192C38.9116 29.6566 38.7494 29.5954 38.5826 29.5356L38.3288 29.4469C38.2432 29.4178 38.1564 29.3889 38.0685 29.3605L37.8013 29.2764L37.5279 29.1946C37.4818 29.1812 37.4355 29.168 37.3889 29.1547L37.1061 29.0768C37.0586 29.0641 37.0107 29.0514 36.9626 29.0388L36.671 28.965C36.3695 28.8908 36.0666 28.8225 35.7625 28.7602L35.449 28.6978L35.2904 28.6677L34.9694 28.6103L34.6437 28.5559L34.4791 28.5299L34.1466 28.4807C34.035 28.4648 33.9228 28.4497 33.8098 28.435L33.4687 28.3928L33.1238 28.3542C32.9491 28.3358 32.7742 28.319 32.5992 28.3037L32.2451 28.2745C32.1264 28.2655 32.0072 28.2573 31.8874 28.2496L31.5266 28.2286L31.1657 28.212L30.8075 28.1997C30.3978 28.1882 29.9878 28.1851 29.578 28.1904L29.2963 28.1956L29.1856 28.3425C29.1165 28.4353 29.0479 28.5285 28.9798 28.6221L28.7753 28.9067C28.4642 29.3453 28.1649 29.7921 27.8776 30.2467L27.6879 30.5508C27.4887 30.8741 27.2958 31.2012 27.1093 31.532C27.1261 31.5733 27.1432 31.6147 27.1605 31.6561L27.2945 31.9725C27.3172 32.0254 27.3402 32.0783 27.3634 32.1314L27.5051 32.4501L27.6519 32.7703L27.8039 33.0914L27.9612 33.4135L28.1233 33.7364L28.2894 34.0575L28.458 34.3738L28.6288 34.6855L28.7149 34.8395L28.8888 35.144C28.947 35.2446 29.0057 35.3444 29.0645 35.4434L29.2419 35.7376C29.3014 35.8347 29.361 35.9311 29.421 36.0265L29.6015 36.3102L29.7832 36.5883C29.9327 36.8141 30.0856 37.0376 30.242 37.2587L30.427 37.5166C30.5487 37.6841 30.6725 37.85 30.7985 38.0142L30.9847 38.2535L31.171 38.4866C31.2021 38.5249 31.2332 38.5629 31.2643 38.6006L31.4505 38.8237L31.6364 39.0402C31.8167 39.2471 32.0018 39.4498 32.1915 39.648L32.375 39.8363L32.5574 40.0173C32.6466 40.1044 32.7371 40.1903 32.8288 40.2749L33.0079 40.437C33.0953 40.5147 33.1839 40.5909 33.2738 40.6658L33.4488 40.8082C34.6386 41.755 35.6929 42.1374 36.3929 41.7803C37.0501 41.4453 37.3638 40.4667 37.3406 39.0791L37.3347 38.8679C37.3318 38.7955 37.3281 38.7231 37.3237 38.6508L37.3075 38.4279C37.3013 38.3517 37.2942 38.2755 37.2865 38.1994L37.2602 37.9653C37.2554 37.9256 37.2505 37.886 37.2453 37.8463L37.2117 37.6045L37.1729 37.3577L37.1291 37.1062C37.0895 36.889 37.0458 36.6726 36.998 36.4571L36.9367 36.19L36.8706 35.9189C36.8591 35.8734 36.8473 35.8277 36.8356 35.7819L36.7619 35.505L36.6833 35.2245L36.642 35.083L36.5558 34.7975L36.4648 34.5089C36.418 34.3637 36.3694 34.2176 36.3189 34.0703L36.2154 33.7746L36.107 33.4763C36.0322 33.2742 35.955 33.0729 35.8754 32.8727L35.7521 32.5678L35.624 32.2611L35.5581 32.1072L35.4226 31.798L35.282 31.4874C35.2582 31.4356 35.2342 31.3836 35.21 31.3317L35.0623 31.0194C35.0372 30.9672 35.0119 30.915 34.9864 30.8629C34.9568 30.8046 34.9391 30.7409 34.9343 30.6757C34.9295 30.6105 34.9377 30.5449 34.9585 30.4829C34.9793 30.4209 35.0122 30.3636 35.0554 30.3144C35.0985 30.2653 35.151 30.2252 35.2098 30.1965C35.2686 30.1679 35.3326 30.1512 35.3979 30.1475C35.4632 30.1438 35.5286 30.1531 35.5902 30.1749C35.6519 30.1968 35.7086 30.2306 35.7571 30.2746C35.8055 30.3186 35.8447 30.3717 35.8724 30.431L36.0359 30.7714C36.0895 30.8846 36.1423 30.9978 36.1939 31.1108L36.3468 31.449C36.4947 31.7816 36.6365 32.1169 36.7723 32.4547L36.9031 32.7864C36.9246 32.8415 36.9456 32.8966 36.9665 32.9515L37.089 33.2801C37.109 33.3346 37.1287 33.389 37.1482 33.4435L37.2624 33.7683C37.3357 33.9813 37.4061 34.1952 37.4736 34.4101L37.5707 34.7266C38.7328 38.6106 38.5838 41.7696 36.8406 42.6584C35.4306 43.3776 33.4314 42.3787 31.419 40.2719L31.2108 40.0501C31.0695 39.8968 30.9308 39.7411 30.7947 39.5832L30.5871 39.3385C30.0339 38.6762 29.4858 37.9362 28.955 37.1309L28.7567 36.8259C28.2452 36.0259 27.7708 35.2027 27.3351 34.3591L27.2453 34.1842C27.1859 34.0677 27.1272 33.9509 27.0692 33.8337L26.8987 33.4838C26.7659 33.2071 26.6371 32.9286 26.5123 32.6482L26.4328 32.8055C26.4082 32.8547 26.384 32.904 26.3599 32.9532L26.218 33.2467L26.0817 33.5382L25.9507 33.8272C25.9294 33.8752 25.9083 33.9232 25.8874 33.9709L25.7649 34.2562C25.7449 34.3036 25.7253 34.3506 25.7057 34.3978L25.5914 34.6788C25.5728 34.7253 25.5545 34.7718 25.5364 34.8182L25.4306 35.0943C25.4135 35.1401 25.3966 35.1858 25.38 35.2313L25.2827 35.5024L25.1911 35.7699C25.1467 35.9025 25.1046 36.0339 25.0645 36.1636L24.9872 36.4211L24.9159 36.6741C24.9045 36.716 24.8933 36.7575 24.8824 36.7989L24.8198 37.045C24.7714 37.2419 24.7279 37.44 24.6891 37.6389L24.6471 37.8673C24.3682 39.4846 24.55 40.6774 25.2411 41.126C25.9373 41.5775 27.2281 41.234 28.8208 40.0842C28.8732 40.0451 28.9329 40.0169 28.9963 40.0011C29.0597 39.9853 29.1256 39.9823 29.1902 39.9923C29.2548 40.0022 29.3168 40.0249 29.3725 40.059C29.4283 40.0931 29.4767 40.1379 29.5149 40.1909C29.5532 40.2439 29.5805 40.3039 29.5953 40.3676C29.6102 40.4312 29.6122 40.4972 29.6013 40.5616C29.5904 40.626 29.5668 40.6877 29.5318 40.7429C29.4969 40.7981 29.4513 40.8458 29.3978 40.8833C27.5101 42.2461 25.8413 42.6902 24.7047 41.9527C23.3312 41.0614 23.2346 38.7047 24.1488 35.7727L24.2436 35.4777C24.309 35.2797 24.3788 35.0794 24.4531 34.8768L24.5677 34.5715C24.73 34.1499 24.9044 33.7331 25.0906 33.3215L25.2372 33.0029L25.3899 32.6822C25.5889 32.2718 25.7978 31.8662 26.0163 31.4658C25.9868 31.3903 25.9575 31.315 25.9287 31.2398L25.8011 30.9014C25.6389 30.463 25.4887 30.0201 25.3505 29.5735L25.2529 29.2489C25.1935 29.0462 25.137 28.8427 25.0834 28.6383C25.0225 28.6505 24.9624 28.6629 24.9026 28.6755L24.6347 28.7345L24.3731 28.7964C24.33 28.8069 24.2874 28.8176 24.2449 28.8284L23.9933 28.8944L23.749 28.9633C23.6686 28.9867 23.5894 29.0106 23.5116 29.0348L23.2815 29.1089C23.2061 29.1341 23.1318 29.1596 23.059 29.1856L22.844 29.2648C21.3671 29.8271 20.4675 30.565 20.4255 31.3686C20.3873 32.1012 21.1184 32.9304 22.5561 33.6768C22.6146 33.706 22.6668 33.7466 22.7095 33.7961C22.7522 33.8456 22.7846 33.9032 22.8049 33.9654C22.8251 34.0276 22.8328 34.0932 22.8274 34.1583C22.8221 34.2235 22.8038 34.287 22.7736 34.345C22.7435 34.4031 22.7021 34.4546 22.6519 34.4965C22.6016 34.5383 22.5436 34.5698 22.481 34.589C22.4185 34.6083 22.3528 34.6148 22.2877 34.6084C22.2226 34.602 22.1595 34.5826 22.1019 34.5516C20.3584 33.6462 19.3778 32.534 19.4414 31.3175C19.5296 29.6213 21.6706 28.3268 24.855 27.6731C24.2105 24.5935 24.5385 22.1974 26.0199 21.4419C27.1149 20.883 28.5456 21.3382 30.1 22.587ZM32.8006 31.7542C32.9641 32.511 32.4831 33.2567 31.7264 33.4205C30.9695 33.584 30.2239 33.103 30.0601 32.3462C29.8968 31.5894 30.3775 30.8437 31.1344 30.68C31.8911 30.5164 32.6368 30.9974 32.8006 31.7542ZM28.0294 28.2533L27.9405 28.2595C27.8726 28.2644 27.8049 28.2695 27.7376 28.2749L27.417 28.3026L27.1012 28.3337C27.049 28.3392 26.997 28.3449 26.9452 28.3507L26.6368 28.3872L26.4846 28.4067L26.1841 28.4483L26.0649 28.4665L26.107 28.6238C26.1744 28.8685 26.2458 29.112 26.3213 29.3542L26.4162 29.6522L26.4657 29.8026L26.5685 30.1052C26.5968 30.1868 26.6257 30.2687 26.6551 30.351C26.8127 30.0888 26.9741 29.8287 27.1391 29.571L27.2457 29.4059C27.4986 29.0161 27.7598 28.6318 28.0294 28.2533Z" fill="white"/>
</g>
</svg>
