<svg width="32" height="32" viewBox="0 0 32 32" fill="none" xmlns="http://www.w3.org/2000/svg">
<ellipse cx="1.40621" cy="1.40544" rx="1.40621" ry="1.40544" transform="matrix(-4.37462e-08 1 -1 -0.000135183 25.9746 14.2803)" fill="white"/>
<ellipse cx="1.40621" cy="1.40544" rx="1.40621" ry="1.40544" transform="matrix(-4.37462e-08 1 -1 -0.000135183 22.5371 14.2803)" fill="white"/>
<ellipse cx="1.40621" cy="1.40544" rx="1.40621" ry="1.40544" transform="matrix(-4.37462e-08 1 -1 -0.000135183 19.0996 14.2803)" fill="white"/>
<ellipse cx="1.40621" cy="1.40544" rx="1.40621" ry="1.40544" transform="matrix(-4.37462e-08 1 -1 -0.000135183 15.6602 14.2803)" fill="white"/>
<ellipse cx="1.40621" cy="1.40544" rx="1.40621" ry="1.40544" transform="matrix(-4.37462e-08 1 -1 -0.000135183 12.2266 14.2803)" fill="white"/>
<ellipse cx="1.40621" cy="1.40544" rx="1.40621" ry="1.40544" transform="matrix(-4.37462e-08 1 -1 -0.000135183 8.78711 14.2803)" fill="white"/>
<ellipse cx="1.40621" cy="1.40544" rx="1.40621" ry="1.40544" transform="matrix(-4.37462e-08 1 -1 -0.000135183 22.5352 10.8428)" fill="white"/>
<ellipse cx="1.40621" cy="1.40544" rx="1.40621" ry="1.40544" transform="matrix(-4.3714e-08 1 -1 -0.000135285 19.0996 7.71875)" fill="white"/>
<ellipse cx="1.40621" cy="1.40544" rx="1.40621" ry="1.40544" transform="matrix(-4.37462e-08 1 -1 -0.000135183 19.0996 21.4678)" fill="white"/>
<ellipse cx="1.40621" cy="1.40544" rx="1.40621" ry="1.40544" transform="matrix(-4.37462e-08 1 -1 -0.000135183 22.2246 18.0303)" fill="white"/>
</svg>
