<svg width="210" height="77" viewBox="0 0 210 77" fill="none" xmlns="http://www.w3.org/2000/svg">
<path d="M207.917 38.5007C207.917 58.3378 191.837 74.4188 172 74.4188C152.163 74.4188 136.083 58.3378 136.083 38.5007C136.083 18.6637 152.163 2.58261 172 2.58261C191.837 2.58261 207.917 18.6637 207.917 38.5007Z" fill="url(#paint0_linear_100_3345)" stroke="white" stroke-width="4.16523"/>
<path d="M185.907 40.4633C185.727 39.9336 185.254 39.5647 184.643 39.4762C184.355 39.4345 184.026 39.4522 183.635 39.5303C182.955 39.6664 182.45 39.7183 182.082 39.7283C183.472 37.4512 184.603 34.8546 185.254 32.4102C186.306 28.4578 185.744 26.6572 185.087 25.8428C183.347 23.687 180.809 22.529 177.748 22.4935C176.115 22.4742 174.681 22.7869 173.933 23.0118C173.237 22.8927 172.488 22.8261 171.702 22.8138C170.23 22.791 168.929 23.1024 167.817 23.7424C167.201 23.5405 166.213 23.2559 165.072 23.0743C162.389 22.647 160.227 22.9799 158.645 24.0638C156.729 25.3762 155.841 27.6563 156.006 30.8409C156.058 31.852 156.641 34.9284 157.559 37.8459C158.087 39.5229 158.649 40.9154 159.231 41.9853C160.057 43.5024 160.94 44.3958 161.932 44.7167C162.487 44.8962 163.497 45.022 164.559 44.1641C164.694 44.3222 164.873 44.4793 165.112 44.6253C165.414 44.8104 165.785 44.9618 166.154 45.0514C167.487 45.3744 168.734 45.2937 169.799 44.8409C169.806 45.0245 169.811 45.2 169.815 45.3515C169.822 45.5973 169.829 45.8383 169.838 46.0637C169.901 47.5875 170.008 48.7723 170.325 49.6014C170.342 49.6469 170.366 49.7164 170.39 49.7902C170.548 50.2594 170.813 51.0449 171.485 51.66C172.181 52.2973 173.023 52.4927 173.794 52.4927C174.18 52.4927 174.549 52.4435 174.873 52.3762C176.027 52.1364 177.337 51.7711 178.284 50.4622C179.18 49.2248 179.616 47.3611 179.695 44.4245C179.705 44.3415 179.714 44.2622 179.723 44.1866L179.742 44.0314L179.953 44.0494L180.008 44.053C181.183 44.1049 182.619 43.8633 183.502 43.4657C184.199 43.1519 186.433 42.0079 185.907 40.4633Z" fill="white"/>
<path d="M183.903 40.763C180.409 41.462 180.169 40.3147 180.169 40.3147C183.857 35.006 185.399 28.2673 184.069 26.618C180.438 22.1191 174.154 24.2468 174.05 24.3019L174.016 24.3079C173.326 24.1689 172.553 24.0861 171.685 24.0724C170.104 24.0473 168.905 24.4743 167.995 25.1436C167.995 25.1436 156.785 20.6642 157.307 30.7772C157.418 32.9286 160.486 47.0561 164.146 42.7889C165.483 41.2285 166.776 39.9092 166.776 39.9092C167.418 40.3228 168.186 40.5338 168.992 40.4581L169.054 40.4066C169.035 40.6003 169.044 40.7898 169.079 41.0141C168.136 42.0358 168.414 42.2151 166.529 42.5915C164.622 42.9727 165.742 43.6513 166.474 43.8289C167.36 44.0439 169.412 44.3485 170.798 42.4664L170.743 42.6811C171.112 42.9682 171.371 44.5478 171.328 45.9799C171.284 47.4119 171.255 48.3951 171.546 49.163C171.838 49.931 172.128 51.6589 174.605 51.144C176.675 50.7136 177.748 49.5985 177.898 47.7383C178.003 46.416 178.243 46.6115 178.258 45.4291L178.451 44.8695C178.672 43.0769 178.486 42.4985 179.761 42.7675L180.071 42.7939C181.01 42.8353 182.239 42.6474 182.96 42.3224C184.512 41.6234 185.433 40.4564 183.902 40.763H183.903Z" fill="#336791"/>
<path d="M168.654 31.7385C168.34 31.696 168.055 31.7354 167.91 31.8413C167.829 31.9009 167.804 31.97 167.797 32.0175C167.779 32.1434 167.87 32.2826 167.926 32.3544C168.084 32.5576 168.315 32.6973 168.544 32.7281C168.577 32.7327 168.61 32.7347 168.643 32.7347C169.024 32.7347 169.37 32.4468 169.401 32.2343C169.439 31.9681 169.041 31.7907 168.654 31.7387V31.7385ZM179.084 31.747C179.054 31.5384 178.671 31.4789 178.308 31.5279C177.945 31.5769 177.593 31.7357 177.623 31.9448C177.646 32.1074 177.949 32.3849 178.307 32.3849C178.338 32.3849 178.368 32.383 178.399 32.3788C178.638 32.3466 178.814 32.1993 178.897 32.1144C179.024 31.985 179.097 31.8407 179.084 31.747Z" fill="white"/>
<path d="M185.065 40.6833C184.931 40.2926 184.503 40.1669 183.79 40.3096C181.675 40.733 180.918 40.4397 180.669 40.2621C182.313 37.8329 183.666 34.8964 184.395 32.1568C184.741 30.859 184.932 29.6537 184.947 28.6714C184.965 27.5931 184.775 26.8008 184.385 26.3168C182.81 24.3656 180.5 23.3189 177.703 23.2902C175.78 23.2693 174.155 23.7465 173.84 23.8808C173.177 23.7208 172.454 23.6226 171.667 23.61C170.224 23.5874 168.976 23.9226 167.943 24.6059C167.494 24.4439 166.334 24.0577 164.916 23.8361C162.464 23.4533 160.516 23.7434 159.126 24.6987C157.467 25.8388 156.701 27.8767 156.849 30.7558C156.899 31.7244 157.468 34.7041 158.366 37.5577C159.548 41.3136 160.833 43.4398 162.185 43.8772C162.343 43.9284 162.525 43.9642 162.727 43.9642C163.22 43.9642 163.824 43.7486 164.453 43.0151C165.221 42.1223 166.014 41.2512 166.833 40.4029C167.365 40.6795 167.949 40.834 168.546 40.8495C168.547 40.8647 168.548 40.8798 168.55 40.8949C168.447 41.0138 168.346 41.1344 168.248 41.2566C167.834 41.7661 167.748 41.8721 166.416 42.1381C166.038 42.214 165.031 42.4151 165.017 43.0992C165.001 43.8466 166.206 44.1605 166.343 44.1938C166.822 44.31 167.283 44.3673 167.723 44.3673C168.792 44.3673 169.733 44.0264 170.485 43.3668C170.462 46.0314 170.576 48.657 170.906 49.457C171.176 50.1119 171.836 51.7124 173.921 51.7123C174.227 51.7123 174.564 51.6778 174.934 51.6007C177.11 51.1484 178.054 50.2157 178.42 48.1594C178.615 47.0605 178.951 44.4363 179.109 43.0287C179.442 43.1296 179.871 43.1757 180.335 43.1756C181.302 43.1756 182.417 42.9763 183.117 42.6613C183.903 42.3072 185.322 41.4383 185.065 40.6833ZM179.884 31.1716C179.876 31.5872 179.817 31.9644 179.755 32.3582C179.688 32.7817 179.618 33.2196 179.601 33.7511C179.583 34.2684 179.65 34.8062 179.714 35.3263C179.844 36.3768 179.978 37.4584 179.461 38.5255C179.375 38.3779 179.299 38.2254 179.232 38.0687C179.168 37.9176 179.028 37.675 178.835 37.3391C178.083 36.0315 176.323 32.9695 177.224 31.72C177.492 31.3481 178.174 30.9657 179.884 31.1716ZM177.811 24.1317C180.317 24.1853 182.299 25.0947 183.703 26.8343C184.779 28.1686 183.594 34.2401 180.162 39.478C180.128 39.4355 180.093 39.3931 180.058 39.3508L180.015 39.2981C180.902 37.8777 180.728 36.4722 180.574 35.2262C180.51 34.7148 180.451 34.2318 180.466 33.7781C180.482 33.2973 180.547 32.8848 180.611 32.486C180.688 31.9946 180.768 31.4861 180.746 30.8867C180.762 30.8238 180.769 30.7495 180.76 30.6613C180.704 30.0865 180.028 28.3661 178.649 26.809C177.894 25.9573 176.794 25.0042 175.292 24.3614C175.938 24.2315 176.822 24.1104 177.811 24.1317ZM163.788 42.4782C163.095 43.2865 162.616 43.1315 162.459 43.0807C161.433 42.7489 160.243 40.6465 159.194 37.3126C158.286 34.4279 157.756 31.5271 157.714 30.7137C157.581 28.1412 158.224 26.3484 159.625 25.3849C161.904 23.8171 165.652 24.7555 167.157 25.2314C167.136 25.2521 167.113 25.2715 167.092 25.2926C164.621 27.7131 164.679 31.8487 164.685 32.1015C164.685 32.199 164.694 32.3371 164.705 32.5271C164.748 33.2227 164.827 34.5172 164.615 35.9833C164.419 37.3457 164.852 38.6791 165.803 39.6418C165.901 39.7404 166.003 39.8342 166.111 39.923C165.687 40.3628 164.767 41.3354 163.788 42.4782ZM166.428 39.0608C165.662 38.2849 165.313 37.2056 165.473 36.0995C165.696 34.5508 165.614 33.202 165.569 32.4774C165.563 32.376 165.558 32.2871 165.555 32.217C165.916 31.9065 167.588 31.0372 168.781 31.3023C169.326 31.4232 169.657 31.7828 169.795 32.4013C170.509 35.6033 169.89 36.9379 169.392 38.0104C169.29 38.2313 169.193 38.4402 169.11 38.6562L169.046 38.8232C168.884 39.2455 168.733 39.6381 168.639 40.0109C167.824 40.0087 167.031 39.6709 166.428 39.0607V39.0608ZM166.553 43.3791C166.315 43.3214 166.101 43.2213 165.976 43.1382C166.081 43.0904 166.267 43.0252 166.591 42.9605C168.158 42.6477 168.4 42.4269 168.928 41.7762C169.049 41.6269 169.187 41.4579 169.377 41.2519L169.377 41.2516C169.66 40.944 169.79 40.9962 170.025 41.0907C170.215 41.1671 170.401 41.3986 170.476 41.6534C170.511 41.7737 170.551 42.002 170.421 42.1798C169.317 43.6788 167.708 43.6595 166.553 43.3791ZM174.753 50.7797C172.836 51.178 172.157 50.2295 171.71 49.1451C171.422 48.4451 171.28 45.2883 171.38 41.8021C171.382 41.7557 171.375 41.7109 171.362 41.6688C171.35 41.5855 171.332 41.5032 171.308 41.4224C171.158 40.9152 170.794 40.4909 170.356 40.3149C170.182 40.2451 169.863 40.1169 169.48 40.212C169.562 39.8853 169.703 39.5162 169.857 39.1166L169.922 38.9486C169.994 38.7591 170.085 38.5628 170.182 38.3549C170.702 37.2329 171.416 35.6959 170.642 32.2239C170.352 30.9234 169.383 30.2883 167.916 30.4358C167.036 30.5241 166.231 30.8684 165.829 31.0659C165.743 31.1083 165.664 31.1493 165.59 31.1892C165.702 29.8789 166.126 27.4301 167.71 25.8807C168.707 24.9054 170.035 24.4237 171.653 24.4497C174.841 24.5003 176.885 26.0872 178.039 27.4097C179.033 28.5492 179.572 29.6971 179.787 30.3163C178.171 30.1569 177.072 30.4662 176.515 31.2387C175.303 32.9191 177.178 36.1805 178.079 37.748C178.244 38.0352 178.387 38.2835 178.432 38.389C178.725 39.0788 179.105 39.5393 179.382 39.8755C179.467 39.9785 179.55 40.0784 179.613 40.1657C179.123 40.3025 178.244 40.6187 178.324 42.1991C178.26 42.9922 177.8 46.705 177.567 48.0168C177.259 49.7498 176.601 50.3953 174.753 50.7798V50.7797ZM182.753 41.8997C182.252 42.125 181.415 42.2939 180.619 42.3303C179.741 42.3702 179.293 42.2348 179.188 42.1515C179.139 41.1666 179.517 41.0637 179.917 40.9548C179.98 40.9377 180.041 40.921 180.1 40.9009C180.137 40.93 180.177 40.9588 180.221 40.9871C180.927 41.4392 182.187 41.4879 183.965 41.1319L183.985 41.1281C183.745 41.3456 183.335 41.6375 182.753 41.8997Z" fill="white"/>
<path d="M69 40C69 57.397 54.897 71.5 37.5 71.5C20.103 71.5 6 57.397 6 40C6 22.603 20.103 8.5 37.5 8.5C54.897 8.5 69 22.603 69 40ZM13.56 40C13.56 53.2217 24.2783 63.94 37.5 63.94C50.7217 63.94 61.44 53.2217 61.44 40C61.44 26.7783 50.7217 16.06 37.5 16.06C24.2783 16.06 13.56 26.7783 13.56 40Z" fill="#FF0000"/>
<path d="M12.076 36.3576L8.67568 35.5543L8.80623 35.0068L9.89761 35.2646L10.0559 34.6008C10.1485 34.2127 10.3263 33.9279 10.5895 33.7464C10.8527 33.5648 11.1599 33.5155 11.5111 33.5985L11.5174 33.6C11.8686 33.683 12.1208 33.8644 12.2739 34.1443C12.4271 34.4243 12.4574 34.7582 12.3649 35.1463L12.076 36.3576ZM10.5101 34.7081L10.3518 35.372L11.7523 35.7028L11.9106 35.039C11.9642 34.8145 11.9433 34.6224 11.8482 34.4625C11.7509 34.3022 11.5971 34.1972 11.3869 34.1475L11.3806 34.146C11.1682 34.0958 10.9831 34.1219 10.8254 34.2242C10.6683 34.3245 10.5632 34.4857 10.5101 34.7081ZM12.8098 33.2805L9.40947 32.4771L9.54002 31.9297L12.9403 32.7331L12.8098 33.2805Z" fill="white"/>
<path d="M11.7542 39.8482L11.7163 40.4095L8.22855 40.1768L8.27451 39.4961L11.0629 38.438L11.0664 38.3864L8.44573 36.9607L8.48974 36.3091L11.9775 36.5419L11.9396 37.1031L9.45804 36.9375L9.4539 36.9988L11.7643 38.2547L11.7351 38.687L9.2768 39.6214L9.27266 39.6826L11.7542 39.8482Z" fill="white"/>
<path d="M13.0868 43.6804L8.43614 44.0333L8.39337 43.4725L8.94964 43.4303L8.94571 43.3787C8.81094 43.3177 8.69417 43.2368 8.59542 43.1363C8.49452 43.0359 8.41403 42.9188 8.35395 42.7851C8.29387 42.6513 8.25769 42.5039 8.2454 42.3427C8.22295 42.0484 8.27891 41.787 8.41329 41.5585C8.54534 41.3281 8.74154 41.1425 9.00187 41.0017C9.26221 40.8609 9.57349 40.7768 9.93571 40.7493L9.94218 40.7488C10.3066 40.7212 10.6281 40.7573 10.9068 40.8572C11.1855 40.957 11.4076 41.1109 11.573 41.3188C11.7384 41.5245 11.8322 41.7745 11.8547 42.0689C11.8668 42.2279 11.8535 42.3802 11.8147 42.5257C11.7736 42.6693 11.712 42.7993 11.6298 42.9158C11.5474 43.0301 11.4462 43.1242 11.326 43.1981L11.33 43.2497L13.0441 43.1197L13.0868 43.6804ZM11.3665 42.2356C11.3502 42.0229 11.2847 41.8452 11.1697 41.7027C11.0526 41.5603 10.894 41.4567 10.6938 41.392C10.4914 41.3252 10.2554 41.302 9.98593 41.3225L9.97946 41.323C9.7078 41.3436 9.47805 41.4021 9.29023 41.4985C9.10224 41.5927 8.96224 41.7189 8.87022 41.8772C8.77604 42.0356 8.73706 42.2211 8.75329 42.4339C8.76935 42.6444 8.83602 42.822 8.9533 42.9665C9.07058 43.111 9.22936 43.2168 9.42964 43.2837C9.62991 43.3506 9.86481 43.3738 10.1343 43.3534L10.1408 43.3529C10.4081 43.3326 10.6368 43.2742 10.8268 43.1777C11.0146 43.0813 11.1555 42.9528 11.2495 42.7923C11.3436 42.6317 11.3825 42.4461 11.3665 42.2356Z" fill="white"/>
<path d="M12.2883 45.6297C12.3557 45.9524 12.3431 46.2466 12.2505 46.5122C12.1554 46.7762 11.9889 46.9999 11.751 47.1834C11.5128 47.3648 11.2115 47.4932 10.8473 47.5687L10.8409 47.57C10.4746 47.6459 10.1459 47.648 9.85476 47.5764C9.56322 47.5025 9.32207 47.3633 9.13133 47.1586C8.94015 46.9518 8.81088 46.687 8.74353 46.3643C8.67574 46.0395 8.68835 45.7453 8.78136 45.4818C8.87437 45.2183 9.04002 44.9959 9.2783 44.8145C9.51614 44.631 9.81823 44.5012 10.1846 44.4253L10.1909 44.424C10.5551 44.3485 10.883 44.3477 11.1746 44.4215C11.4657 44.4932 11.7077 44.6312 11.9005 44.8355C12.0913 45.0402 12.2205 45.3049 12.2883 45.6297ZM11.7992 45.7311C11.7543 45.516 11.6654 45.3441 11.5325 45.2154C11.3996 45.0867 11.2297 45.0031 11.0228 44.9645C10.8155 44.9239 10.5774 44.9314 10.3085 44.9872L10.3021 44.9885C10.0311 45.0446 9.80861 45.1325 9.63475 45.2522C9.46046 45.3697 9.33918 45.5137 9.27091 45.684C9.20053 45.8548 9.18778 46.0478 9.23269 46.2629C9.27759 46.4781 9.36649 46.65 9.49939 46.7787C9.63017 46.9078 9.79921 46.9927 10.0065 47.0333C10.2134 47.0719 10.4523 47.0631 10.7234 47.0069L10.7297 47.0056C10.9987 46.9498 11.2203 46.8632 11.3946 46.7457C11.5684 46.6261 11.6905 46.4808 11.7609 46.31C11.8313 46.1392 11.8441 45.9462 11.7992 45.7311Z" fill="white"/>
<path d="M14.6279 49.6959L13.5754 50.0948C13.6977 50.4332 13.7381 50.7543 13.6967 51.058C13.6533 51.3625 13.5341 51.6323 13.3392 51.8675C13.1436 52.1006 12.8789 52.2804 12.5452 52.4069L12.5392 52.4092C12.2035 52.5364 11.8848 52.5777 11.583 52.5331C11.2805 52.4864 11.0124 52.3634 10.7788 52.1639C10.5432 51.9652 10.3591 51.6985 10.2267 51.3639L9.15901 51.7685L8.96527 51.2613L10.033 50.8567C9.91063 50.5182 9.87157 50.1978 9.91577 49.8953C9.95717 49.5916 10.0757 49.3232 10.2714 49.09C10.4643 48.8556 10.7286 48.6748 11.0642 48.5476L11.0703 48.5453C11.406 48.4181 11.7251 48.3778 12.0276 48.4244C12.3294 48.469 12.5971 48.5911 12.8307 48.7906C13.0635 48.9881 13.2472 49.2537 13.3816 49.5875L14.4341 49.1886L14.6279 49.6959ZM13.1234 50.2661L10.6786 51.1926C10.7719 51.4246 10.9021 51.6079 11.0693 51.7427C11.2345 51.8783 11.4252 51.9592 11.6413 51.9856C11.8566 52.01 12.0886 51.9751 12.3374 51.8808L12.3434 51.8785C12.5901 51.785 12.7858 51.6579 12.9304 51.4971C13.0742 51.3342 13.1636 51.1471 13.1986 50.9357C13.2316 50.7251 13.2065 50.5018 13.1234 50.2661ZM12.9297 49.7588C12.8344 49.5276 12.7046 49.3453 12.5401 49.2118C12.3749 49.0762 12.1847 48.9962 11.9693 48.9719C11.7512 48.9462 11.5188 48.9802 11.2721 49.0737L11.266 49.076C11.0193 49.1695 10.8241 49.2976 10.6802 49.4604C10.5356 49.6212 10.4468 49.8069 10.4139 50.0176C10.3781 50.227 10.4018 50.4496 10.4849 50.6854L12.9297 49.7588Z" fill="white"/>
<path d="M11.3515 53.873L11.7579 53.6429L12.3171 54.6227L14.953 53.1304L15.2318 53.6189L12.5959 55.1112L13.1551 56.091L12.7487 56.3211L11.3515 53.873Z" fill="white"/>
<path d="M16.8345 55.9726C16.965 56.1496 17.0487 56.334 17.0856 56.5261C17.1212 56.7163 17.1069 56.8991 17.0427 57.0742C16.9773 57.2477 16.8591 57.3969 16.6881 57.522L16.6829 57.5258C16.4317 57.7096 16.1701 57.7647 15.8983 57.6912C15.6235 57.6171 15.3562 57.4241 15.0964 57.112L14.2736 56.1275L14.6373 55.8614L15.4198 56.7912C15.5894 56.9957 15.7491 57.1193 15.8988 57.162C16.0472 57.203 16.1912 57.1724 16.3307 57.0703L16.336 57.0665C16.479 56.9618 16.551 56.8264 16.5519 56.6601C16.5511 56.4951 16.4905 56.3311 16.3703 56.168C16.2564 56.0136 16.1248 55.8989 15.9754 55.8239C15.8243 55.7501 15.6706 55.7184 15.5143 55.7286C15.3567 55.737 15.2107 55.7904 15.0764 55.8887L14.1972 56.5319C14.0227 56.6596 13.9292 56.8095 13.9165 56.9817C13.9008 57.1534 13.9704 57.3442 14.1252 57.5541C14.2494 57.7224 14.3816 57.838 14.522 57.9008C14.6607 57.965 14.7984 57.9751 14.9351 57.9311L14.9449 57.928L15.2789 58.3807L15.2613 58.3896C15.0951 58.4738 14.9212 58.5075 14.7396 58.4908C14.555 58.4736 14.3746 58.4093 14.1984 58.2978C14.0205 58.1876 13.8579 58.0328 13.7107 57.8333C13.5418 57.6043 13.4367 57.3835 13.3953 57.1707C13.3525 56.9563 13.3718 56.7566 13.4529 56.5716C13.5311 56.3863 13.6678 56.2221 13.8632 56.0792L15.7944 54.6663L16.1283 55.1191L15.7123 55.4235L15.743 55.4651C15.8859 55.4513 16.0236 55.4614 16.1561 55.4954C16.2873 55.5276 16.4103 55.5832 16.525 55.6622C16.6379 55.7425 16.7411 55.846 16.8345 55.9726Z" fill="white"/>
<path d="M18.0287 59.6019C18.2783 59.4004 18.5054 59.2569 18.71 59.1714C18.9132 59.0843 19.0969 59.0553 19.2613 59.0844C19.4242 59.112 19.5723 59.1963 19.7057 59.3373C19.7471 59.3812 19.7795 59.4217 19.8029 59.459C19.8278 59.4947 19.8452 59.5242 19.8552 59.5473L19.4841 59.8955C19.4768 59.8815 19.4623 59.8583 19.4403 59.8256C19.4168 59.7945 19.391 59.764 19.3628 59.7342C19.2887 59.6559 19.1988 59.6205 19.093 59.6281C18.9871 59.6358 18.8719 59.6743 18.7474 59.7439C18.6197 59.8133 18.4892 59.9032 18.3557 60.0137L16.7357 61.3291L15.1689 59.6723L17.7173 57.2821L18.104 57.691L15.896 59.7619L16.7294 60.6432L18.0287 59.6019Z" fill="white"/>
<path d="M22.1221 61.4329L19.9036 64.1303L17.7169 62.3469L19.9354 59.6495L20.3718 60.0054L18.4496 62.3424L19.7636 63.4141L21.6858 61.0771L22.1221 61.4329Z" fill="white"/>
<path d="M24.8738 63.1356C25.1659 63.2944 25.3819 63.4954 25.5218 63.7385C25.6599 63.9807 25.7214 64.25 25.7065 64.5465C25.6887 64.8439 25.592 65.1525 25.4166 65.4724L25.4151 65.4752C25.2417 65.7912 25.0337 66.0381 24.7911 66.2157C24.5465 66.3922 24.284 66.4915 24.0036 66.5135C23.7232 66.5354 23.4445 66.4711 23.1676 66.3206C22.8888 66.169 22.6852 65.9747 22.5566 65.7377C22.4262 65.4998 22.3712 65.2364 22.3916 64.9478C22.4091 64.6601 22.5014 64.3638 22.6685 64.0591L22.7743 63.8661L25.2322 65.2026L25.0158 65.5971L22.8111 64.3984L23.2535 64.1709L23.1461 64.3667C23.0142 64.6071 22.9418 64.8244 22.9288 65.0188C22.9157 65.2132 22.952 65.3827 23.0375 65.5275C23.122 65.6742 23.2468 65.7924 23.4118 65.8821C23.5768 65.9718 23.747 66.0116 23.9225 66.0014C24.0951 65.992 24.2624 65.9294 24.4244 65.8136C24.5864 65.6978 24.7302 65.5254 24.8558 65.2964L24.9632 65.1005C25.0826 64.8829 25.1478 64.6764 25.1589 64.481C25.1691 64.2875 25.1287 64.1119 25.0378 63.9544C24.9459 63.7988 24.807 63.6705 24.6211 63.5694C24.4827 63.4941 24.3519 63.4476 24.2287 63.4297C24.1055 63.4119 23.9947 63.4143 23.8961 63.4368C23.7976 63.4594 23.7184 63.4938 23.6586 63.5399L23.6333 63.5592L23.1383 63.2901L23.1564 63.2705C23.24 63.1808 23.343 63.1054 23.4652 63.0441C23.5845 62.9837 23.7191 62.9426 23.8689 62.9209C24.0177 62.901 24.178 62.9071 24.35 62.9392C24.519 62.9722 24.6937 63.0376 24.8738 63.1356Z" fill="white"/>
<path d="M30.2968 65.5719L29.0798 68.841L28.551 68.6459L28.9416 67.5966L28.3002 67.36C27.9253 67.2217 27.6637 67.0113 27.5153 66.7289C27.3669 66.4466 27.3556 66.1365 27.4813 65.7989L27.4835 65.7929C27.6092 65.4552 27.8207 65.2275 28.1182 65.1096C28.4156 64.9916 28.7517 65.0019 29.1266 65.1402L30.2968 65.5719ZM28.4628 66.9233L29.1041 67.1599L29.6053 65.8135L28.964 65.5769C28.7472 65.4969 28.5534 65.4943 28.3826 65.5693C28.2111 65.6462 28.0877 65.7858 28.0124 65.988L28.0101 65.9941C27.9341 66.1982 27.9374 66.3845 28.0199 66.5529C28.1004 66.7206 28.248 66.8441 28.4628 66.9233ZM27.3241 64.4751L26.1072 67.7442L25.5783 67.5491L26.7953 64.28L27.3241 64.4751Z" fill="white"/>
<path d="M31.3388 65.8475L31.0195 67.3932L32.7153 67.7402L33.0346 66.1945L33.5871 66.3075L32.882 69.722L32.3294 69.6089L32.6211 68.1963L30.9253 67.8493L30.6336 69.262L30.081 69.149L30.7862 65.7345L31.3388 65.8475Z" fill="white"/>
<path d="M37.0296 65.4594L36.6858 70.0959L36.1231 70.0546L36.1642 69.5L36.1125 69.4963C36.0318 69.62 35.9342 69.7231 35.8197 69.8054C35.705 69.89 35.5769 69.9519 35.4352 69.9912C35.2936 70.0305 35.1419 70.0443 34.9802 70.0324C34.6849 70.0108 34.4339 69.9167 34.2273 69.7503C34.0184 69.5859 33.8635 69.3649 33.7627 69.0873C33.6619 68.8098 33.6249 68.4905 33.6517 68.1293L33.6522 68.1229C33.6791 67.7596 33.7629 67.4481 33.9036 67.1882C34.0442 66.9284 34.23 66.7324 34.4609 66.6002C34.6897 66.4678 34.9517 66.4125 35.2471 66.4341C35.4066 66.4458 35.5557 66.4816 35.6943 66.5415C35.8306 66.6033 35.9504 66.6835 36.0537 66.7818C36.1548 66.88 36.233 66.9938 36.2885 67.1232L36.3402 67.127L36.4669 65.4181L37.0296 65.4594ZM35.3396 66.9402C35.1262 66.9245 34.9402 66.9627 34.7816 67.0549C34.6229 67.1491 34.4965 67.2901 34.4024 67.4777C34.3059 67.6673 34.2477 67.8964 34.2278 68.1651L34.2273 68.1715C34.2072 68.4424 34.231 68.6775 34.2986 68.877C34.364 69.0763 34.4683 69.2331 34.6116 69.3473C34.7547 69.4637 34.933 69.5297 35.1464 69.5454C35.3577 69.5609 35.5438 69.5216 35.7046 69.4274C35.8655 69.3333 35.9941 69.1926 36.0904 69.0051C36.1866 68.8177 36.2447 68.5896 36.2647 68.3209L36.2651 68.3145C36.2849 68.0479 36.2611 67.8138 36.1937 67.6122C36.1261 67.4128 36.0197 67.2548 35.8744 67.1382C35.7292 67.0217 35.5509 66.9556 35.3396 66.9402Z" fill="white"/>
<path d="M38.9454 66.5182C39.1657 66.5075 39.3664 66.5399 39.5476 66.6153C39.7266 66.6908 39.8716 66.8036 39.9828 66.9536C40.0918 67.1036 40.1514 67.2841 40.1616 67.4951L40.1619 67.5015C40.1769 67.8115 40.0785 68.0589 39.8666 68.2439C39.6527 68.4311 39.3433 68.5464 38.9385 68.5896L37.6594 68.729L37.6376 68.2802L38.8487 68.1441C39.1136 68.1162 39.3054 68.052 39.4239 67.9513C39.5402 67.8508 39.5943 67.7144 39.5859 67.5423L39.5856 67.5358C39.5771 67.3593 39.5035 67.2248 39.3648 67.1322C39.2262 67.0418 39.0554 67.0015 38.8524 67.0113C38.6602 67.0206 38.4914 67.0665 38.346 67.149C38.2007 67.2337 38.0891 67.3437 38.0113 67.479C37.9312 67.6145 37.8952 67.7651 37.9032 67.9308L37.9557 69.0156C37.9661 69.2309 38.0399 69.3913 38.1771 69.4968C38.3122 69.6047 38.5104 69.6523 38.7717 69.6397C38.9812 69.6296 39.1511 69.5836 39.2813 69.5018C39.4117 69.4222 39.4963 69.3135 39.5351 69.1757L39.5378 69.1659L40.1015 69.1387L40.0992 69.1582C40.0778 69.3426 40.0099 69.5056 39.8956 69.647C39.7791 69.7907 39.6255 69.9049 39.4348 69.9896C39.2442 70.0764 39.0247 70.1258 38.7763 70.1378C38.4912 70.1516 38.2482 70.1169 38.0472 70.0338C37.844 69.9508 37.6875 69.8246 37.5775 69.6552C37.4655 69.488 37.4037 69.2839 37.392 69.0428L37.2768 66.6601L37.8405 66.6329L37.8653 67.1463L37.9171 67.1438C37.9846 67.0175 38.0692 66.9088 38.1709 66.8176C38.2704 66.7265 38.3849 66.6552 38.5144 66.6037C38.6441 66.5543 38.7878 66.5258 38.9454 66.5182Z" fill="white"/>
<path d="M41.0507 69.9515L40.974 69.4925L42.0908 69.3072L41.5935 66.3299L42.1503 66.2375L42.6476 69.2149L43.7644 69.0296L43.8411 69.4887L41.0507 69.9515Z" fill="white"/>
<path d="M44.4763 65.682C44.7963 65.5898 45.0921 65.5808 45.3636 65.655C45.6331 65.7298 45.8674 65.8775 46.0666 66.0981C46.2643 66.3214 46.4139 66.6079 46.5154 66.9576L46.5164 66.9607C46.6167 67.3062 46.6434 67.627 46.5965 67.9231C46.5476 68.2197 46.4312 68.4741 46.2473 68.6863C46.0635 68.8985 45.8199 69.0483 45.5165 69.1357C45.211 69.2238 44.9288 69.2289 44.6697 69.1511C44.4086 69.0739 44.1832 68.9258 43.9935 68.707C43.8024 68.4907 43.6584 68.2161 43.5617 67.8829L43.5004 67.6719L46.1935 66.8957L46.3187 67.3271L43.9031 68.0233L44.0567 67.5519L44.1189 67.7661C44.1952 68.0288 44.2975 68.2337 44.4257 68.3806C44.5539 68.5275 44.6997 68.6223 44.863 68.6649C45.0268 68.7096 45.1991 68.7059 45.3799 68.6538C45.5607 68.6017 45.7099 68.5105 45.8274 68.3802C45.9435 68.2526 46.0181 68.0909 46.0514 67.8952C46.0846 67.6995 46.0649 67.4765 45.9922 67.2261L45.93 67.012C45.8609 66.774 45.7612 66.5819 45.6309 66.4356C45.5011 66.2914 45.3483 66.1953 45.1722 66.1474C44.9968 66.1015 44.8072 66.108 44.6036 66.1667C44.4519 66.2104 44.3259 66.2691 44.2257 66.3428C44.1256 66.4166 44.0484 66.496 43.9943 66.5811C43.9402 66.6662 43.9082 66.746 43.8984 66.8206L43.894 66.8522L43.3516 67.0085L43.3507 66.9818C43.3467 66.8597 43.3665 66.734 43.4101 66.6048C43.4522 66.4784 43.5188 66.3549 43.6099 66.2345C43.7016 66.1161 43.82 66.008 43.965 65.9101C44.1085 65.815 44.2789 65.7389 44.4763 65.682Z" fill="white"/>
<path d="M49.0648 64.066L50.4432 67.2659L49.9242 67.4877L48.8962 65.1011L48.6218 65.2184L48.8919 64.878L48.2868 68.1875L47.7678 68.4094L46.3894 65.2095L46.9083 64.9877L47.9364 67.3742L48.2108 67.2569L47.9407 67.5973L48.5458 64.2878L49.0648 64.066Z" fill="white"/>
<path d="M51.3889 61.4239L53.7711 65.4158L53.2856 65.7032L53.0006 65.2257L52.956 65.2522C52.9608 65.3996 52.9399 65.5396 52.8933 65.6724C52.8478 65.8071 52.7782 65.9309 52.6845 66.044C52.5909 66.157 52.4743 66.2549 52.3347 66.3375C52.0798 66.4884 51.8198 66.5546 51.5546 66.5363C51.2886 66.521 51.0345 66.4285 50.7923 66.2588C50.55 66.0892 50.3361 65.8489 50.1506 65.538L50.1473 65.5324C49.9606 65.2197 49.8504 64.9168 49.8165 64.6238C49.7826 64.3308 49.8225 64.0643 49.936 63.8242C50.0477 63.5853 50.231 63.3904 50.4859 63.2395C50.6236 63.158 50.7665 63.1022 50.9147 63.0721C51.0621 63.0449 51.2065 63.0421 51.3478 63.0637C51.4872 63.0863 51.6168 63.1348 51.7367 63.2091L51.7813 63.1827L50.9033 61.7114L51.3889 61.4239ZM50.8527 63.6009C50.6685 63.71 50.5378 63.8474 50.4606 64.0134C50.3844 64.1811 50.3617 64.3687 50.3922 64.576C50.422 64.7863 50.506 65.007 50.644 65.2384L50.6473 65.2439C50.7865 65.4771 50.9411 65.656 51.1112 65.7808C51.2794 65.9066 51.4552 65.9753 51.6384 65.9871C51.8228 66.0007 52.007 65.9529 52.1912 65.8439C52.3735 65.736 52.5037 65.5976 52.5817 65.4287C52.6596 65.2598 52.6843 65.0712 52.6556 64.8627C52.6269 64.6543 52.5435 64.4345 52.4054 64.2031L52.4021 64.1976C52.2652 63.9681 52.1111 63.7901 51.9399 63.6635C51.7698 63.5388 51.5917 63.4702 51.4055 63.4578C51.2192 63.4453 51.035 63.493 50.8527 63.6009Z" fill="white"/>
<path d="M54.6727 60.4195L56.8303 63.1575L54.6028 64.8984L52.4453 62.1604L52.8897 61.813L54.7591 64.1853L56.0976 63.1391L54.2282 60.7669L54.6727 60.4195Z" fill="white"/>
<path d="M56.0382 59.07C56.2703 58.8346 56.523 58.6813 56.7962 58.61C57.0694 58.5417 57.3487 58.5549 57.6339 58.6496C57.9177 58.7457 58.1922 58.9235 58.4574 59.1828L58.462 59.1873C58.7288 59.4482 58.913 59.719 59.0147 59.9998C59.115 60.2821 59.1325 60.5591 59.0675 60.8309C59.0009 61.1042 58.8515 61.3586 58.6194 61.594C58.3858 61.8309 58.1332 61.9842 57.8615 62.054C57.5898 62.1237 57.3121 62.1105 57.0283 62.0143C56.7431 61.9197 56.467 61.742 56.2003 61.4811L56.1957 61.4766C55.9304 61.2173 55.7477 60.9465 55.6475 60.6641C55.5458 60.3834 55.5267 60.1063 55.5902 59.833C55.6553 59.5612 55.8046 59.3069 56.0382 59.07ZM56.3944 59.4183C56.2397 59.5752 56.1455 59.7444 56.1118 59.926C56.0781 60.1076 56.1026 60.2948 56.1852 60.4874C56.2664 60.6815 56.4049 60.8744 56.6007 61.0659L56.6053 61.0704C56.8027 61.2634 56.9996 61.3985 57.196 61.4757C57.3909 61.5545 57.5784 61.5747 57.7586 61.5363C57.9403 61.4995 58.1085 61.4026 58.2633 61.2457C58.418 61.0888 58.5122 60.9195 58.5459 60.7379C58.5811 60.5578 58.5582 60.3707 58.477 60.1765C58.3944 59.9839 58.2544 59.7911 58.057 59.5981L58.0524 59.5936C57.8565 59.4021 57.6612 59.2669 57.4663 59.1882C57.2699 59.1109 57.0808 59.0907 56.8991 59.1276C56.7174 59.1645 56.5491 59.2613 56.3944 59.4183Z" fill="white"/>
<path d="M58.2323 54.7671L61.9508 57.5654L61.6101 58.0144L61.1653 57.6797L61.134 57.721C61.1943 57.8556 61.2281 57.9931 61.2352 58.1336C61.2441 58.2754 61.2265 58.4163 61.1826 58.5562C61.1387 58.6961 61.0678 58.8306 60.9699 58.9596C60.791 59.1953 60.5753 59.3546 60.3228 59.4376C60.0707 59.5235 59.8003 59.5336 59.5117 59.4677C59.2231 59.4019 58.934 59.26 58.6444 59.0421L58.6392 59.0382C58.3479 58.8189 58.131 58.58 57.9886 58.3215C57.8462 58.063 57.7821 57.8013 57.7963 57.5363C57.8093 57.2731 57.9051 57.0236 58.084 56.7879C58.1806 56.6606 58.2918 56.5551 58.4176 56.4714C58.5439 56.3907 58.6765 56.3338 58.8155 56.3005C58.9532 56.269 59.0916 56.2651 59.2307 56.2887L59.2621 56.2474L57.8915 55.216L58.2323 54.7671ZM58.5606 56.9844C58.4313 57.1547 58.3624 57.3312 58.3537 57.5139C58.3468 57.6979 58.3968 57.8801 58.5036 58.0605C58.6109 58.2439 58.7723 58.4167 58.9878 58.5789L58.993 58.5827C59.2102 58.7462 59.4212 58.8536 59.6259 58.905C59.8294 58.9581 60.0182 58.9556 60.1923 58.8975C60.3682 58.8406 60.5207 58.7271 60.65 58.5567C60.7779 58.3882 60.846 58.211 60.8542 58.0253C60.8625 57.8396 60.8138 57.6557 60.7083 57.4736C60.6027 57.2914 60.4422 57.1193 60.2267 56.9571L60.2215 56.9532C60.0077 56.7924 59.7976 56.6856 59.5911 56.6329C59.3864 56.5815 59.1954 56.5851 59.0182 56.6437C58.8411 56.7022 58.6885 56.8158 58.5606 56.9844Z" fill="white"/>
<path d="M60.8982 52.6011L63.9339 54.3239L62.5313 56.7742L59.4956 55.0515L59.7755 54.5625L62.4057 56.0551L63.2485 54.5827L60.6183 53.0901L60.8982 52.6011Z" fill="white"/>
<path d="M63.0899 46.8193L66.427 47.8517L66.2592 48.389L65.1881 48.0577L64.9847 48.7093C64.8658 49.0902 64.6688 49.3623 64.3938 49.5255C64.1188 49.6888 63.809 49.7171 63.4643 49.6105L63.4581 49.6086C63.1135 49.5019 62.8743 49.3038 62.7407 49.0141C62.6071 48.7244 62.5998 48.3891 62.7187 48.0082L63.0899 46.8193ZM64.5389 48.5714L64.7423 47.9198L63.3679 47.4945L63.1644 48.1462C63.0957 48.3665 63.1033 48.5596 63.1873 48.7255C63.2733 48.8921 63.4195 49.0074 63.6259 49.0712L63.6321 49.0731C63.8405 49.1376 64.0269 49.1241 64.1912 49.0328C64.3549 48.9434 64.4708 48.7896 64.5389 48.5714ZM62.147 49.8396L65.4841 50.872L65.3163 51.4094L61.9792 50.3769L62.147 49.8396Z" fill="white"/>
<path d="M63.6434 43.3487L63.7197 42.7913L67.183 43.2604L67.0905 43.9364L64.2363 44.8028L64.2293 44.8541L66.746 46.4545L66.6574 47.1017L63.1941 46.6326L63.2704 46.0752L65.7345 46.4089L65.7429 46.348L63.5241 44.9381L63.5829 44.5087L66.0992 43.7434L66.1076 43.6825L63.6434 43.3487Z" fill="white"/>
<path d="M62.5987 39.4441L67.2621 39.408L67.2664 39.9704L66.7086 39.9748L66.709 40.0265C66.8392 40.0966 66.9502 40.1852 67.0418 40.2922C67.1356 40.3992 67.2078 40.5215 67.2586 40.6591C67.3094 40.7966 67.3354 40.9462 67.3366 41.1078C67.3388 41.403 67.2651 41.6601 67.1154 41.8789C66.9679 42.0998 66.7595 42.2717 66.4901 42.3945C66.2208 42.5173 65.9045 42.5801 65.5413 42.5829L65.5348 42.5829C65.1694 42.5857 64.8512 42.5279 64.58 42.4093C64.3088 42.2907 64.0978 42.1221 63.947 41.9034C63.7962 41.6869 63.7196 41.4311 63.7174 41.1358C63.7162 40.9764 63.7399 40.8253 63.7886 40.6827C63.8394 40.5422 63.9098 40.4167 63.9998 40.3061C64.0898 40.1976 64.1972 40.1106 64.3221 40.045L64.3217 39.9932L62.6029 40.0066L62.5987 39.4441ZM64.2159 41.0027C64.2175 41.216 64.2707 41.3977 64.3757 41.5477C64.4827 41.6978 64.6339 41.8119 64.829 41.8901C65.0264 41.9705 65.2602 42.0096 65.5305 42.0075L65.5369 42.0075C65.8094 42.0054 66.0425 41.9626 66.2365 41.8792C66.4305 41.798 66.5788 41.6815 66.6814 41.5299C66.7862 41.3782 66.8378 41.1957 66.8362 40.9824C66.8346 40.7712 66.7802 40.5895 66.6731 40.4373C66.566 40.2851 66.4149 40.1688 66.2197 40.0884C66.0245 40.0081 65.7918 39.9689 65.5215 39.971L65.515 39.9711C65.247 39.9731 65.0149 40.0159 64.8187 40.0993C64.6248 40.1827 64.4754 40.3013 64.3706 40.4551C64.2658 40.609 64.2143 40.7915 64.2159 41.0027Z" fill="white"/>
<path d="M63.5078 37.5419C63.4627 37.2153 63.4954 36.9226 63.6059 36.6639C63.7189 36.407 63.9003 36.1951 64.1501 36.0281C64.4002 35.8633 64.7095 35.7557 65.078 35.7051L65.0844 35.7042C65.4551 35.6534 65.7831 35.6736 66.0686 35.7649C66.3544 35.8584 66.5854 36.0138 66.7617 36.231C66.9382 36.4503 67.049 36.7233 67.0941 37.0499C67.1395 37.3786 67.1068 37.6712 66.996 37.9278C66.8852 38.1845 66.7047 38.3952 66.4546 38.56C66.2048 38.7269 65.8945 38.8358 65.5239 38.8866L65.5175 38.8875C65.149 38.9381 64.8219 38.9166 64.5361 38.8232C64.2506 38.7318 64.0187 38.5777 63.8403 38.3608C63.664 38.1435 63.5532 37.8706 63.5078 37.5419ZM64.0027 37.474C64.0327 37.6917 64.1097 37.8693 64.2334 38.0067C64.3572 38.1441 64.5209 38.2391 64.7246 38.2916C64.9287 38.3463 65.1667 38.355 65.4388 38.3176L65.4452 38.3167C65.7194 38.2791 65.9474 38.2065 66.129 38.099C66.3109 37.9936 66.4417 37.8582 66.5215 37.6928C66.6034 37.5272 66.6293 37.3355 66.5992 37.1178C66.5692 36.9001 66.4923 36.7225 66.3685 36.585C66.2469 36.4473 66.0841 36.3511 65.8801 36.2965C65.6763 36.2439 65.4374 36.2365 65.1631 36.2741L65.1567 36.275C64.8846 36.3123 64.6576 36.3837 64.4757 36.4891C64.2941 36.5967 64.1624 36.7333 64.0804 36.8989C63.9985 37.0646 63.9726 37.2563 64.0027 37.474Z" fill="white"/>
<path d="M61.4767 33.3293L62.5539 33.0029C62.455 32.6568 62.4366 32.3337 62.4987 32.0335C62.5629 31.7327 62.7002 31.4715 62.9107 31.2502C63.1219 31.0308 63.3982 30.8694 63.7397 30.7659L63.7459 30.7641C64.0895 30.66 64.4102 30.6404 64.7082 30.7055C65.0068 30.7726 65.2658 30.9136 65.4852 31.1285C65.7067 31.3428 65.872 31.6214 65.9812 31.9643L67.074 31.6331L67.2325 32.1524L66.1398 32.4836C66.2386 32.8296 66.2557 33.152 66.1909 33.4508C66.1288 33.751 65.9922 34.0108 65.781 34.2301C65.5726 34.4508 65.2966 34.6133 64.953 34.7174L64.9468 34.7193C64.6033 34.8234 64.2822 34.8419 63.9836 34.7748C63.6856 34.7097 63.4269 34.5697 63.2075 34.3548C62.9888 34.1419 62.8237 33.8644 62.7125 33.5221L61.6352 33.8486L61.4767 33.3293ZM63.0165 32.8627L65.5186 32.1045C65.4415 31.8667 65.3242 31.6749 65.1666 31.529C65.011 31.3825 64.8264 31.2888 64.6126 31.2477C64.3995 31.2088 64.1656 31.2278 63.9111 31.305L63.9049 31.3069C63.6524 31.3834 63.4485 31.4969 63.2932 31.6475C63.1386 31.8002 63.0366 31.9808 62.9873 32.1894C62.9399 32.3973 62.9497 32.6218 63.0165 32.8627ZM63.175 33.382C63.2542 33.6191 63.3713 33.8099 63.5262 33.9543C63.6817 34.1008 63.866 34.1935 64.0792 34.2325C64.295 34.2729 64.5292 34.2549 64.7817 34.1783L64.7879 34.1765C65.0404 34.1 65.2439 33.9854 65.3985 33.8327C65.5538 33.6821 65.6551 33.5028 65.7024 33.2949C65.7524 33.0884 65.744 32.8646 65.6772 32.6237L63.175 33.382Z" fill="white"/>
<path d="M65.0262 29.3955L64.605 29.5974L64.1142 28.5817L61.3825 29.8914L61.1378 29.385L63.8694 28.0753L63.3786 27.0597L63.7997 26.8578L65.0262 29.3955Z" fill="white"/>
<path d="M59.7001 26.9421C59.582 26.7567 59.5111 26.5669 59.4874 26.3728C59.4649 26.1805 59.4917 25.9992 59.5677 25.8288C59.6449 25.6602 59.773 25.5193 59.9521 25.4062L59.9576 25.4027C60.2208 25.2364 60.4854 25.1992 60.7516 25.2911C61.0207 25.3837 61.2742 25.5945 61.5119 25.9235L62.2655 26.9617L61.8844 27.2025L61.1674 26.2215C61.0121 26.006 60.8613 25.8719 60.7149 25.8191C60.5697 25.7681 60.4239 25.7888 60.2777 25.8811L60.2722 25.8846C60.1224 25.9793 60.0413 26.1096 60.029 26.2754C60.0186 26.44 60.0677 26.6078 60.1766 26.7787C60.2796 26.9405 60.4031 27.0639 60.5469 27.1489C60.6926 27.2328 60.8438 27.2749 61.0004 27.2754C61.1582 27.2776 61.3075 27.2343 61.4482 27.1454L62.3694 26.5634C62.5521 26.448 62.6557 26.3048 62.6801 26.1338C62.7075 25.9635 62.6512 25.7684 62.5111 25.5485C62.3987 25.3721 62.2747 25.2478 62.139 25.1756C62.005 25.1021 61.8683 25.0827 61.7289 25.1172L61.7189 25.1197L61.4167 24.6453L61.4349 24.6376C61.6065 24.5649 61.7822 24.5431 61.9622 24.5721C62.1452 24.6018 62.3208 24.6783 62.4889 24.8015C62.6589 24.9235 62.8105 25.089 62.9437 25.2981C63.0965 25.538 63.1863 25.7656 63.2131 25.9806C63.241 26.1975 63.2082 26.3955 63.1146 26.5744C63.0239 26.7541 62.8763 26.9085 62.6716 27.0379L60.6484 28.3162L60.3462 27.8417L60.7821 27.5663L60.7543 27.5227C60.6107 27.5267 60.474 27.5073 60.3442 27.4644C60.2155 27.4233 60.0967 27.3595 59.9877 27.2728C59.8805 27.185 59.7846 27.0748 59.7001 26.9421Z" fill="white"/>
<path d="M58.763 23.2186C58.5003 23.4027 58.2639 23.5304 58.0539 23.6018C57.8452 23.6749 57.6599 23.6913 57.4979 23.651C57.3373 23.6124 57.1953 23.5183 57.0719 23.3685C57.0336 23.3219 57.004 23.2793 56.9833 23.2405C56.9609 23.2032 56.9455 23.1726 56.9371 23.1488L57.3312 22.8267C57.3375 22.8411 57.3504 22.8653 57.3701 22.8994C57.3914 22.9321 57.4151 22.9642 57.4411 22.9958C57.5097 23.079 57.597 23.1204 57.7031 23.12C57.8092 23.1196 57.9267 23.089 58.0558 23.0281C58.1879 22.9675 58.3243 22.8866 58.465 22.7855L60.1712 21.5833L61.621 23.3428L58.915 25.5543L58.5571 25.12L60.9017 23.204L60.1305 22.2681L58.763 23.2186Z" fill="white"/>
<path d="M54.7896 21.1047L57.1875 18.5644L59.247 20.4923L56.8491 23.0326L56.4381 22.6479L58.5158 20.4469L57.2782 19.2884L55.2005 21.4894L54.7896 21.1047Z" fill="white"/>
<path d="M52.1659 19.2316C51.8854 19.0533 51.6837 18.8381 51.5607 18.586C51.4396 18.3351 51.3966 18.0622 51.4318 17.7674C51.47 17.4719 51.5875 17.1706 51.7844 16.8634L51.7862 16.8607C51.9808 16.5571 52.2052 16.325 52.4594 16.1643C52.7155 16.0047 52.9842 15.9235 53.2655 15.9207C53.5467 15.9178 53.8203 16.0009 54.0862 16.1699C54.354 16.3401 54.5439 16.5478 54.6559 16.7929C54.7697 17.0392 54.8066 17.3056 54.7665 17.5922C54.7293 17.8781 54.6169 18.1674 54.4293 18.46L54.3105 18.6454L51.9499 17.1451L52.1929 16.7661L54.3103 18.1119L53.8533 18.3088L53.9739 18.1207C54.1219 17.8899 54.2091 17.6779 54.2354 17.4849C54.2617 17.2919 54.2372 17.1202 54.1617 16.97C54.0875 16.8179 53.9711 16.6915 53.8126 16.5908C53.6542 16.49 53.487 16.4388 53.3113 16.4371C53.1385 16.4347 52.9673 16.4858 52.7977 16.5903C52.6282 16.6949 52.4729 16.8571 52.3319 17.0771L52.2113 17.2652C52.0773 17.4742 51.9981 17.6758 51.9736 17.87C51.9503 18.0624 51.9785 18.2402 52.0584 18.4035C52.1394 18.565 52.2692 18.7025 52.4477 18.816C52.5807 18.9005 52.708 18.9558 52.8296 18.982C52.9513 19.0081 53.0621 19.0133 53.1619 18.9975C53.2618 18.9816 53.3431 18.9528 53.4059 18.9108L53.4326 18.8932L53.908 19.1954L53.8885 19.2137C53.7989 19.2975 53.6911 19.3658 53.5649 19.4186C53.4417 19.4708 53.3047 19.5026 53.1538 19.5141C53.004 19.5238 52.8444 19.5068 52.675 19.4631C52.5086 19.4187 52.3389 19.3416 52.1659 19.2316Z" fill="white"/>
<path d="M46.9259 16.4286L48.364 13.2496L48.8782 13.4802L48.4167 14.5006L49.0403 14.7802C49.4048 14.9437 49.6514 15.1713 49.7801 15.4631C49.9088 15.755 49.8988 16.065 49.7503 16.3933L49.7476 16.3992C49.5991 16.7276 49.3725 16.9404 49.0677 17.0379C48.7629 17.1353 48.4283 17.1023 48.0638 16.9389L46.9259 16.4286ZM48.8482 15.2049L48.2246 14.9252L47.6323 16.2346L48.2559 16.5142C48.4667 16.6087 48.6599 16.6244 48.8354 16.5612C49.0118 16.4961 49.1445 16.3652 49.2334 16.1686L49.2361 16.1627C49.3259 15.9642 49.3354 15.7781 49.2646 15.6045C49.1958 15.4317 49.057 15.2985 48.8482 15.2049ZM49.8164 17.7248L51.2544 14.5458L51.7687 14.7764L50.3306 17.9554L49.8164 17.7248Z" fill="white"/>
<path d="M45.8909 16.0948L46.3152 14.5743L44.6473 14.113L44.2229 15.6335L43.6794 15.4832L44.6169 12.1243L45.1604 12.2746L44.7725 13.6643L46.4405 14.1256L46.8283 12.7359L47.3718 12.8862L46.4343 16.2451L45.8909 16.0948Z" fill="white"/>
<path d="M40.21 16.0822L40.8707 11.4793L41.4292 11.5587L41.3502 12.1093L41.4016 12.1166C41.4906 11.9986 41.595 11.9024 41.7148 11.8279C41.835 11.7514 41.9671 11.6983 42.1111 11.6687C42.2551 11.6391 42.4073 11.6357 42.5678 11.6585C42.8609 11.7001 43.1049 11.811 43.2995 11.9911C43.4967 12.1694 43.636 12.4004 43.7175 12.6841C43.7991 12.9679 43.8141 13.289 43.7627 13.6475L43.7617 13.6539C43.71 14.0146 43.605 14.3198 43.4469 14.5695C43.2888 14.8192 43.09 15.0021 42.8506 15.1184C42.6134 15.2349 42.3482 15.2723 42.055 15.2306C41.8967 15.2081 41.7504 15.1623 41.6162 15.0932C41.4845 15.0222 41.3705 14.9341 41.2742 14.829C41.1801 14.7242 41.1098 14.6053 41.0634 14.4724L41.012 14.4651L40.7685 16.1616L40.21 16.0822ZM41.9974 14.7195C42.2092 14.7496 42.3974 14.7241 42.5619 14.6429C42.7267 14.5596 42.8624 14.4276 42.9692 14.2468C43.0784 14.0642 43.1521 13.8395 43.1904 13.5728L43.1913 13.5663C43.2299 13.2975 43.2223 13.0612 43.1686 12.8576C43.117 12.6543 43.0237 12.4908 42.8886 12.3671C42.7538 12.2412 42.5805 12.1633 42.3686 12.1332C42.1589 12.1034 41.9706 12.1299 41.8037 12.2129C41.6367 12.2959 41.4988 12.4276 41.39 12.6081C41.2811 12.7886 41.2075 13.0122 41.1692 13.279L41.1683 13.2854C41.1303 13.55 41.138 13.7851 41.1915 13.9909C41.2452 14.1945 41.3405 14.3594 41.4775 14.4855C41.6144 14.6117 41.7877 14.6897 41.9974 14.7195Z" fill="white"/>
<path d="M38.3531 14.8919C38.1326 14.8875 37.9346 14.8415 37.759 14.754C37.5856 14.6665 37.4486 14.5441 37.348 14.3869C37.2496 14.2298 37.2025 14.0456 37.2068 13.8345L37.2069 13.828C37.2132 13.5177 37.3283 13.2775 37.5523 13.1073C37.7785 12.9351 38.095 12.8411 38.5019 12.8254L39.7874 12.7733L39.7783 13.2226L38.5609 13.276C38.2947 13.2859 38.0991 13.337 37.9739 13.4293C37.851 13.5217 37.7878 13.6541 37.7843 13.8265L37.7841 13.833C37.7806 14.0097 37.8448 14.1489 37.9768 14.2507C38.1088 14.3503 38.2765 14.4021 38.4796 14.4061C38.672 14.4099 38.8435 14.3756 38.9942 14.3031C39.1449 14.2285 39.2638 14.1263 39.3507 13.9966C39.4398 13.8668 39.4861 13.719 39.4894 13.5531L39.5114 12.4671C39.5157 12.2517 39.4531 12.0866 39.3235 11.9719C39.1962 11.8552 39.0017 11.7942 38.7401 11.789C38.5305 11.7848 38.3579 11.8192 38.2223 11.8919C38.0868 11.9625 37.995 12.0652 37.9469 12.2001L37.9435 12.2097L37.3793 12.1986L37.3829 12.1792C37.4169 11.9967 37.4958 11.8387 37.6196 11.7054C37.7456 11.5699 37.9066 11.4664 38.1026 11.3948C38.2988 11.3211 38.5211 11.2867 38.7697 11.2916C39.055 11.2973 39.2951 11.3484 39.4899 11.4449C39.6869 11.5415 39.8344 11.6781 39.9325 11.8547C40.0327 12.0291 40.0804 12.237 40.0755 12.4783L40.0273 14.8636L39.4632 14.8524L39.4735 14.3385L39.4217 14.3375C39.3457 14.4588 39.2539 14.5616 39.1462 14.6457C39.0407 14.7298 38.9216 14.7932 38.7888 14.8358C38.6561 14.8763 38.5109 14.895 38.3531 14.8919Z" fill="white"/>
<path d="M36.4967 11.332L36.5417 11.7952L35.415 11.9042L35.7072 14.9088L35.1455 14.9631L34.8532 11.9585L33.7265 12.0674L33.6815 11.6042L36.4967 11.332Z" fill="white"/>
<path d="M32.7974 15.3638C32.4719 15.4341 32.1762 15.423 31.9104 15.3305C31.6468 15.2375 31.4232 15.0742 31.2396 14.8405C31.0576 14.6042 30.928 14.3082 30.8506 13.9524L30.8499 13.9493C30.7734 13.5977 30.7687 13.2758 30.8358 12.9836C30.9049 12.6909 31.0384 12.445 31.2364 12.2457C31.4343 12.0465 31.6875 11.9136 31.9961 11.847C32.3069 11.7799 32.5888 11.794 32.8419 11.8892C33.0971 11.984 33.3118 12.1471 33.486 12.3784C33.6619 12.6071 33.7867 12.891 33.8604 13.2299L33.9071 13.4447L31.1675 14.0361L31.0721 13.5971L33.5295 13.0666L33.344 13.5266L33.2966 13.3087C33.2385 13.0413 33.1504 12.8299 33.0326 12.6746C32.9147 12.5193 32.7758 12.4149 32.6159 12.3612C32.4555 12.3055 32.2833 12.2975 32.0994 12.3372C31.9155 12.3769 31.7605 12.4577 31.6343 12.5797C31.5098 12.6992 31.4243 12.8554 31.3777 13.0484C31.3311 13.2414 31.3356 13.4653 31.391 13.72L31.4383 13.9379C31.491 14.1801 31.5773 14.3785 31.6973 14.5334C31.8168 14.6861 31.9627 14.7924 32.1351 14.8522C32.307 14.9098 32.4965 14.9163 32.7036 14.8716C32.8579 14.8383 32.9876 14.7883 33.0926 14.7215C33.1976 14.6548 33.28 14.5808 33.3398 14.4995C33.3996 14.4183 33.4369 14.3408 33.4519 14.267L33.4584 14.2359L34.0101 14.1168L34.0092 14.1434C34.0048 14.2656 33.9765 14.3896 33.9242 14.5155C33.8735 14.6389 33.7987 14.7575 33.6995 14.8715C33.5999 14.9834 33.4744 15.0832 33.3231 15.171C33.1735 15.2562 32.9982 15.3205 32.7974 15.3638Z" fill="white"/>
<path d="M28.102 16.6528L26.9458 13.3663L27.4787 13.1802L28.341 15.6314L28.6227 15.5331L28.33 15.8543L29.16 12.5933L29.6929 12.4073L30.8491 15.6938L30.3162 15.8799L29.4539 13.4287L29.1721 13.527L29.4649 13.2058L28.6348 16.4668L28.102 16.6528Z" fill="white"/>
<path d="M25.59 19.132L23.4865 14.9872L23.9906 14.7334L24.2422 15.2291L24.2886 15.2058C24.2938 15.0584 24.3242 14.9201 24.3798 14.7908C24.4344 14.6595 24.5123 14.5407 24.6135 14.4343C24.7147 14.3278 24.8377 14.2382 24.9825 14.1652C25.2471 14.032 25.5111 13.9836 25.7744 14.0199C26.0387 14.0533 26.2858 14.1629 26.5159 14.3486C26.7459 14.5344 26.9429 14.7887 27.1067 15.1115L27.1096 15.1173C27.2744 15.442 27.3637 15.7517 27.3775 16.0463C27.3912 16.341 27.3332 16.6042 27.2035 16.836C27.0757 17.0668 26.8796 17.2488 26.615 17.382C26.4721 17.4539 26.3257 17.4999 26.1758 17.5199C26.0268 17.5369 25.8826 17.5299 25.7432 17.4988C25.6057 17.4667 25.4796 17.4095 25.3651 17.3273L25.3188 17.3506L26.0941 18.8783L25.59 19.132ZM26.2738 16.9964C26.465 16.9002 26.6048 16.7719 26.6932 16.6116C26.7806 16.4494 26.8162 16.2638 26.7999 16.0549C26.7845 15.8431 26.7159 15.6171 26.594 15.3769L26.5911 15.3711C26.4682 15.129 26.3262 14.9399 26.165 14.8039C26.0058 14.667 25.8352 14.5864 25.6532 14.5622C25.4702 14.5361 25.2831 14.5712 25.0919 14.6675C24.9027 14.7627 24.7634 14.892 24.674 15.0552C24.5847 15.2184 24.5472 15.4049 24.5616 15.6148C24.576 15.8247 24.6441 16.0497 24.766 16.2899L24.7689 16.2957C24.8898 16.534 25.0314 16.7221 25.1935 16.86C25.3546 16.996 25.5277 17.0765 25.7126 17.1017C25.8975 17.1268 26.0846 17.0917 26.2738 16.9964Z" fill="white"/>
<path d="M22.2561 19.9077L20.291 17.0292L22.6322 15.4438L24.5974 18.3223L24.1302 18.6386L22.4276 16.1447L21.0207 17.0974L22.7233 19.5913L22.2561 19.9077Z" fill="white"/>
<path d="M20.8084 21.1671C20.5608 21.3862 20.2982 21.522 20.0208 21.5745C19.7435 21.624 19.4658 21.5919 19.1877 21.4781C18.9112 21.3628 18.6495 21.1668 18.4027 20.8901L18.3984 20.8852C18.1501 20.6068 17.9848 20.3241 17.9025 20.0371C17.8219 19.7486 17.8233 19.471 17.9068 19.2043C17.9919 18.9361 18.1583 18.6925 18.406 18.4734C18.6553 18.253 18.9178 18.1172 19.1936 18.066C19.4695 18.0149 19.7456 18.047 20.0221 18.1622C20.3003 18.276 20.5635 18.4721 20.8117 18.7505L20.8161 18.7553C21.0629 19.0321 21.2266 19.3147 21.3073 19.6032C21.3896 19.8903 21.3897 20.168 21.3076 20.4363C21.2241 20.703 21.0577 20.9467 20.8084 21.1671ZM20.4769 20.7954C20.642 20.6494 20.7476 20.4869 20.7936 20.308C20.8396 20.1291 20.828 19.9408 20.7588 19.743C20.6911 19.5438 20.5661 19.342 20.3839 19.1376L20.3796 19.1328C20.1959 18.9268 20.0087 18.7786 19.818 18.6882C19.629 18.5964 19.4433 18.5635 19.2609 18.5895C19.0771 18.6139 18.9026 18.6991 18.7375 18.8452C18.5724 18.9912 18.4668 19.1537 18.4208 19.3325C18.3733 19.5098 18.3834 19.6981 18.4511 19.8973C18.5204 20.0951 18.6468 20.297 18.8305 20.503L18.8348 20.5078C19.0171 20.7121 19.2028 20.8602 19.3918 20.9521C19.5825 21.0425 19.7697 21.0755 19.9535 21.0511C20.1374 21.0267 20.3118 20.9415 20.4769 20.7954Z" fill="white"/>
<path d="M18.3172 25.3048L14.7989 22.2602L15.1696 21.8354L15.5905 22.1996L15.6245 22.1605C15.5735 22.0221 15.5493 21.8826 15.5518 21.7419C15.5527 21.5999 15.5798 21.4605 15.6332 21.3239C15.6866 21.1873 15.7665 21.0579 15.873 20.9359C16.0676 20.7129 16.2937 20.5686 16.5513 20.5031C16.8087 20.4344 17.0792 20.4428 17.3626 20.5281C17.646 20.6134 17.9247 20.7746 18.1988 21.0117L18.2037 21.016C18.4793 21.2545 18.6793 21.5076 18.8037 21.7751C18.928 22.0427 18.974 22.3082 18.9417 22.5716C18.9108 22.8334 18.7981 23.0757 18.6035 23.2987C18.4984 23.4192 18.3802 23.5168 18.249 23.5918C18.1175 23.6637 17.9813 23.7115 17.8404 23.7352C17.7009 23.7573 17.5625 23.7519 17.4253 23.7188L17.3912 23.7579L18.6879 24.88L18.3172 25.3048ZM18.1415 23.0703C18.2821 22.9092 18.363 22.7378 18.3841 22.5561C18.4036 22.373 18.3662 22.1878 18.272 22.0006C18.1775 21.8103 18.0283 21.6269 17.8244 21.4505L17.8196 21.4463C17.614 21.2684 17.4109 21.1469 17.2101 21.0817C17.0108 21.0149 16.8222 21.0046 16.6445 21.0507C16.4652 21.0955 16.3052 21.1985 16.1646 21.3596C16.0254 21.5191 15.9454 21.6912 15.9245 21.8759C15.9035 22.0606 15.9395 22.2474 16.0323 22.4363C16.1252 22.6252 16.2735 22.8078 16.4774 22.9843L16.4823 22.9885C16.6846 23.1635 16.8869 23.2843 17.0893 23.3509C17.2901 23.4161 17.4808 23.4255 17.6616 23.3791C17.8424 23.3328 18.0023 23.2298 18.1415 23.0703Z" fill="white"/>
<path d="M15.5059 27.2971L12.5953 25.3721L14.1625 23.0227L17.073 24.9477L16.7603 25.4165L14.2386 23.7487L13.2968 25.1604L15.8186 26.8283L15.5059 27.2971Z" fill="white"/>
<ellipse cx="40.8642" cy="27.8888" rx="1.42864" ry="1.38881" fill="#FF0000"/>
<ellipse cx="40.8642" cy="30.6666" rx="1.42864" ry="1.38881" fill="#FF0000"/>
<ellipse cx="40.8642" cy="33.4523" rx="1.42864" ry="1.38881" fill="#FF0000"/>
<ellipse cx="40.8642" cy="36.2223" rx="1.42864" ry="1.38881" fill="#FF0000"/>
<ellipse cx="40.8642" cy="39.0001" rx="1.42864" ry="1.38881" fill="#FF0000"/>
<ellipse cx="40.8642" cy="41.7853" rx="1.42864" ry="1.38881" fill="#FF0000"/>
<ellipse cx="40.8642" cy="44.548" rx="1.42864" ry="1.38881" fill="#FF0000"/>
<ellipse cx="38.0009" cy="30.6666" rx="1.42864" ry="1.38881" fill="#FF0000"/>
<ellipse cx="38.0009" cy="33.4523" rx="1.42864" ry="1.38881" fill="#FF0000"/>
<ellipse cx="38.0009" cy="36.2223" rx="1.42864" ry="1.38881" fill="#FF0000"/>
<ellipse cx="38.0009" cy="39.0001" rx="1.42864" ry="1.38881" fill="#FF0000"/>
<ellipse cx="38.0009" cy="41.7853" rx="1.42864" ry="1.38881" fill="#FF0000"/>
<ellipse cx="38.0009" cy="44.548" rx="1.42864" ry="1.38881" fill="#FF0000"/>
<ellipse cx="38.0009" cy="47.3331" rx="1.42864" ry="1.38881" fill="#FF0000"/>
<ellipse cx="32.2851" cy="36.2223" rx="1.42864" ry="1.38881" fill="#FF0000"/>
<ellipse cx="43.7188" cy="41.7704" rx="1.42864" ry="1.38881" transform="rotate(180 43.7188 41.7704)" fill="#FF0000"/>
<ellipse cx="32.2851" cy="39.0001" rx="1.42864" ry="1.38881" fill="#FF0000"/>
<ellipse cx="43.7188" cy="39.0077" rx="1.42864" ry="1.38881" transform="rotate(180 43.7188 39.0077)" fill="#FF0000"/>
<ellipse cx="29.4286" cy="39.0001" rx="1.42864" ry="1.38881" fill="#FF0000"/>
<ellipse cx="46.5714" cy="39.0077" rx="1.42864" ry="1.38881" transform="rotate(180 46.5714 39.0077)" fill="#FF0000"/>
<ellipse cx="35.1484" cy="33.4523" rx="1.42864" ry="1.38881" fill="#FF0000"/>
<ellipse cx="35.1484" cy="36.2223" rx="1.42864" ry="1.38881" fill="#FF0000"/>
<ellipse cx="35.1484" cy="39.0001" rx="1.42864" ry="1.38881" fill="#FF0000"/>
<ellipse cx="35.1484" cy="41.7853" rx="1.42864" ry="1.38881" fill="#FF0000"/>
<ellipse cx="35.1484" cy="44.548" rx="1.42864" ry="1.38881" fill="#FF0000"/>
<ellipse cx="35.1484" cy="47.3331" rx="1.42864" ry="1.38881" fill="#FF0000"/>
<ellipse cx="35.1484" cy="50.1115" rx="1.42864" ry="1.38881" fill="#FF0000"/>
<ellipse cx="78.0471" cy="37.5761" rx="1.04707" ry="1.1269" fill="#FF0000"/>
<ellipse cx="81.8879" cy="37.5761" rx="1.04707" ry="1.1269" fill="#FF0000"/>
<ellipse cx="85.7258" cy="37.5761" rx="1.04707" ry="1.1269" fill="#FF0000"/>
<ellipse cx="89.5725" cy="37.5761" rx="1.04707" ry="1.1269" fill="#FF0000"/>
<ellipse cx="93.4143" cy="37.5761" rx="1.04707" ry="1.1269" fill="#FF0000"/>
<ellipse cx="116.608" cy="37.5761" rx="1.04707" ry="1.1269" fill="#0075FF"/>
<ellipse cx="120.441" cy="37.5761" rx="1.04707" ry="1.1269" fill="#0075FF"/>
<ellipse cx="124.282" cy="37.5761" rx="1.04707" ry="1.1269" fill="#0075FF"/>
<ellipse cx="128.119" cy="37.5761" rx="1.04707" ry="1.1269" fill="#0075FF"/>
<ellipse cx="131.953" cy="37.5761" rx="1.04707" ry="1.1269" fill="#0075FF"/>
<ellipse cx="99.6926" cy="37.6297" rx="1.21212" ry="1.30454" fill="#0075FF"/>
<ellipse cx="99.6926" cy="47.1957" rx="1.21212" ry="1.30454" fill="#0075FF"/>
<ellipse cx="102.113" cy="35.0267" rx="1.21212" ry="1.30454" fill="#0075FF"/>
<ellipse cx="102.113" cy="44.5926" rx="1.21212" ry="1.30454" fill="#0075FF"/>
<ellipse cx="104.55" cy="29.8045" rx="1.21212" ry="1.30454" fill="#0075FF"/>
<ellipse cx="104.55" cy="35.0267" rx="1.21212" ry="1.30454" fill="#0075FF"/>
<ellipse cx="104.55" cy="40.2411" rx="1.21212" ry="1.30454" fill="#0075FF"/>
<ellipse cx="104.55" cy="32.4071" rx="1.21212" ry="1.30454" fill="#0075FF"/>
<ellipse cx="104.55" cy="37.6297" rx="1.21212" ry="1.30454" fill="#0075FF"/>
<ellipse cx="106.971" cy="37.6297" rx="1.21212" ry="1.30454" fill="#0075FF"/>
<ellipse cx="109.392" cy="37.6297" rx="1.21212" ry="1.30454" fill="#0075FF"/>
<ellipse cx="104.55" cy="42.8519" rx="1.21212" ry="1.30454" fill="#0075FF"/>
<ellipse cx="109.392" cy="47.1952" rx="1.21212" ry="1.30454" fill="#0075FF"/>
<ellipse cx="106.971" cy="42.8519" rx="1.21212" ry="1.30454" fill="#0075FF"/>
<ellipse cx="111.815" cy="47.1952" rx="1.21212" ry="1.30454" fill="#0075FF"/>
<ellipse cx="109.392" cy="44.5926" rx="1.21212" ry="1.30454" fill="#0075FF"/>
<ellipse cx="106.971" cy="29.8045" rx="1.21212" ry="1.30454" fill="#0075FF"/>
<ellipse cx="106.971" cy="32.4071" rx="1.21212" ry="1.30454" fill="#0075FF"/>
<defs>
<linearGradient id="paint0_linear_100_3345" x1="172" y1="0.5" x2="172" y2="76.5014" gradientUnits="userSpaceOnUse">
<stop stop-color="#2A56FF"/>
<stop offset="1" stop-color="#1120D5"/>
</linearGradient>
</defs>
</svg>
