<svg width="64" height="64" viewBox="0 0 64 64" fill="none" xmlns="http://www.w3.org/2000/svg">
<circle cx="32" cy="32" r="32" fill="white"/>
<path d="M63.9888 31.9906C63.9888 49.514 49.7221 63.7196 32.1233 63.7196C14.5245 63.7196 0.257812 49.514 0.257812 31.9906C0.257812 14.4672 14.5245 0.261719 32.1233 0.261719C49.7221 0.261719 63.9888 14.4672 63.9888 31.9906ZM7.97542 31.9906C7.97542 45.27 18.7868 56.035 32.1233 56.035C45.4598 56.035 56.2711 45.27 56.2711 31.9906C56.2711 18.7113 45.4598 7.94625 32.1233 7.94625C18.7868 7.94625 7.97542 18.7113 7.97542 31.9906Z" fill="#FF0000"/>
<path d="M6.22174 27.624L2.82298 26.8141L2.95451 26.2669L4.04539 26.5268L4.20489 25.8632C4.29812 25.4754 4.4765 25.1909 4.74002 25.0098C5.00354 24.8288 5.31081 24.7801 5.66183 24.8638L5.66813 24.8653C6.01915 24.9489 6.27098 25.1308 6.42363 25.4111C6.57629 25.6913 6.606 26.0253 6.51277 26.4132L6.22174 27.624ZM4.6589 25.9714L4.4994 26.635L5.89926 26.9686L6.05876 26.305C6.11268 26.0807 6.09221 25.8885 5.99734 25.7284C5.90037 25.5679 5.74679 25.4626 5.5366 25.4125L5.5303 25.411C5.318 25.3604 5.13293 25.3861 4.97507 25.4881C4.81771 25.5881 4.71232 25.7492 4.6589 25.9714ZM6.96103 24.5482L3.56228 23.7383L3.69381 23.1911L7.09256 24.001L6.96103 24.5482Z" fill="white"/>
<path d="M5.89208 31.1624L5.85319 31.7236L2.3659 31.484L2.41306 30.8035L5.20332 29.7507L5.20689 29.6991L2.58874 28.2683L2.63389 27.6168L6.12117 27.8564L6.08228 28.4176L3.60107 28.2472L3.59683 28.3084L5.905 29.5689L5.87504 30.0011L3.41511 30.9306L3.41087 30.9919L5.89208 31.1624Z" fill="white"/>
<path d="M7.21874 35.0378L2.56736 35.3815L2.52556 34.8206L3.08192 34.7795L3.07808 34.7279C2.94341 34.6666 2.82678 34.5855 2.72821 34.4848C2.62748 34.3842 2.54719 34.267 2.48734 34.1331C2.4275 33.9992 2.39157 33.8517 2.37956 33.6905C2.35762 33.3962 2.41404 33.1349 2.54881 32.9067C2.68127 32.6765 2.87779 32.4913 3.13838 32.351C3.39896 32.2108 3.71039 32.1273 4.07267 32.1005L4.07914 32.1C4.44357 32.0731 4.76505 32.1099 5.04357 32.2103C5.32209 32.3107 5.54391 32.465 5.70903 32.6732C5.874 32.8792 5.96745 33.1295 5.98939 33.4238C6.00124 33.5829 5.98765 33.7351 5.94862 33.8806C5.90727 34.0241 5.8454 34.154 5.763 34.2703C5.68044 34.3844 5.57902 34.4783 5.45875 34.552L5.4626 34.6036L7.17694 34.477L7.21874 35.0378ZM5.50087 33.5896C5.48501 33.3768 5.41973 33.1991 5.30501 33.0563C5.18814 32.9137 5.0297 32.8098 4.8297 32.7446C4.62738 32.6775 4.39145 32.6539 4.12189 32.6738L4.11542 32.6743C3.84372 32.6943 3.61387 32.7524 3.42588 32.8484C3.23772 32.9422 3.0975 33.0682 3.0052 33.2262C2.91074 33.3845 2.87144 33.5699 2.8873 33.7827C2.90299 33.9933 2.96935 34.1709 3.08639 34.3157C3.20342 34.4605 3.36202 34.5665 3.56218 34.6338C3.76234 34.7011 3.9972 34.7248 4.26675 34.7049L4.27322 34.7045C4.54061 34.6847 4.76938 34.6267 4.95953 34.5306C5.14752 34.4346 5.28867 34.3064 5.38296 34.146C5.47726 33.9857 5.51656 33.8002 5.50087 33.5896Z" fill="white"/>
<path d="M6.42499 37.0247C6.49178 37.3475 6.47866 37.6416 6.38562 37.907C6.29003 38.1708 6.12314 38.3942 5.88497 38.5772C5.64636 38.7581 5.34487 38.8859 4.9805 38.9607L4.97415 38.962C4.60766 39.0372 4.27892 39.0386 3.98792 38.9664C3.69649 38.892 3.45557 38.7522 3.26518 38.5472C3.07435 38.34 2.94554 38.075 2.87874 37.7522C2.81151 37.4272 2.82464 37.1331 2.91811 36.8698C3.01159 36.6065 3.17763 36.3844 3.41624 36.2035C3.65441 36.0204 3.95674 35.8913 4.32323 35.8162L4.32958 35.8149C4.69395 35.7401 5.02185 35.7399 5.31329 35.8143C5.60428 35.8866 5.84604 36.025 6.03855 36.2297C6.22894 36.4347 6.35776 36.6997 6.42499 37.0247ZM5.93563 37.1251C5.8911 36.9099 5.8025 36.7378 5.66981 36.6088C5.53713 36.4799 5.36739 36.3959 5.16058 36.357C4.95333 36.3159 4.71519 36.323 4.44615 36.3782L4.43979 36.3795C4.16863 36.4351 3.94602 36.5226 3.77195 36.6419C3.59745 36.759 3.47591 36.9027 3.40734 37.073C3.33665 37.2436 3.32357 37.4366 3.3681 37.6518C3.41263 37.867 3.50123 38.0391 3.63392 38.168C3.76448 38.2974 3.93338 38.3826 4.14063 38.4237C4.34744 38.4626 4.58643 38.4543 4.85758 38.3986L4.86394 38.3973C5.13298 38.3422 5.35475 38.256 5.52926 38.1388C5.70333 38.0195 5.8257 37.8745 5.89639 37.7039C5.96708 37.5332 5.98016 37.3403 5.93563 37.1251Z" fill="white"/>
<path d="M8.7761 41.1478L7.72278 41.5446C7.84452 41.8833 7.88442 42.2044 7.84247 42.508C7.7985 42.8124 7.67885 43.0819 7.48351 43.3167C7.28741 43.5494 7.0224 43.7287 6.6885 43.8545L6.68243 43.8568C6.3465 43.9833 6.02768 44.024 5.72596 43.9788C5.42348 43.9316 5.15561 43.808 4.92233 43.6081C4.68704 43.4089 4.50346 43.1419 4.37161 42.8071L3.30312 43.2096L3.11026 42.7021L4.17875 42.2995C4.05701 41.9609 4.01851 41.6404 4.06325 41.338C4.10519 41.0344 4.22422 40.7662 4.42032 40.5335C4.61364 40.2995 4.87826 40.1192 5.21418 39.9927L5.22025 39.9904C5.55618 39.8638 5.87539 39.8242 6.17787 39.8714C6.47958 39.9166 6.74708 40.0392 6.98035 40.2391C7.21286 40.437 7.39605 40.703 7.52993 41.0371L8.58324 40.6403L8.7761 41.1478ZM7.2705 41.715L4.8239 42.6367C4.91672 42.8688 5.04663 43.0524 5.21363 43.1875C5.37861 43.3234 5.56913 43.4047 5.78521 43.4315C6.00052 43.4563 6.23262 43.4218 6.48153 43.3281L6.48761 43.3258C6.73449 43.2328 6.93039 43.106 7.07529 42.9455C7.21942 42.783 7.30917 42.5961 7.34454 42.3848C7.37788 42.1742 7.3532 41.9509 7.2705 41.715ZM7.07764 41.2075C6.98279 40.9761 6.85326 40.7935 6.68905 40.6597C6.52408 40.5238 6.33393 40.4435 6.11862 40.4187C5.90053 40.3926 5.66803 40.4261 5.42115 40.5191L5.41508 40.5214C5.16819 40.6144 4.97268 40.7422 4.82854 40.9047C4.68364 41.0652 4.59452 41.2507 4.56118 41.4613C4.52505 41.6706 4.54833 41.8932 4.63104 42.1291L7.07764 41.2075Z" fill="white"/>
<path d="M5.51287 45.3522L5.91972 45.1229L6.47722 46.1037L9.11608 44.6165L9.39403 45.1055L6.75518 46.5927L7.31268 47.5735L6.90583 47.8028L5.51287 45.3522Z" fill="white"/>
<path d="M11.0136 47.4914C11.1438 47.6685 11.2271 47.8532 11.2637 48.0452C11.2989 48.2356 11.2843 48.4183 11.2198 48.5933C11.154 48.7666 11.0355 48.9156 10.8643 49.0403L10.8591 49.0441C10.6914 49.1663 10.5188 49.2308 10.3412 49.2374C10.162 49.2453 9.98212 49.1977 9.80165 49.0945C9.62119 48.9913 9.44506 48.8356 9.27327 48.6274L8.45213 47.6414L8.81637 47.376L9.5973 48.3072C9.76654 48.512 9.92598 48.6359 10.0756 48.6789C10.224 48.7201 10.368 48.6898 10.5078 48.588L10.513 48.5842C10.6563 48.4798 10.7285 48.3445 10.7297 48.1783C10.7292 48.0133 10.6689 47.8492 10.5489 47.6859C10.4353 47.5313 10.3039 47.4163 10.1547 47.341C10.0037 47.267 9.85005 47.2349 9.6937 47.2449C9.53608 47.253 9.39 47.3061 9.25549 47.4041L8.37501 48.0457C8.20031 48.1729 8.10647 48.3227 8.09349 48.4948C8.07749 48.6665 8.14672 48.8574 8.30118 49.0676C8.425 49.2361 8.55706 49.3519 8.69735 49.415C8.83589 49.4795 8.97359 49.4898 9.11046 49.4461L9.12024 49.443L9.45341 49.8963L9.43577 49.9052C9.2694 49.989 9.09545 50.0224 8.9139 50.0054C8.72933 49.9878 8.54904 49.9232 8.373 49.8114C8.19523 49.7009 8.03294 49.5457 7.88614 49.346C7.71764 49.1167 7.61287 48.8957 7.57183 48.6829C7.52951 48.4683 7.5491 48.2687 7.63061 48.084C7.7091 47.8987 7.84617 47.7349 8.04184 47.5923L9.97575 46.1832L10.3089 46.6366L9.89226 46.9402L9.9229 46.9818C10.0659 46.9683 10.2036 46.9787 10.336 47.0129C10.4672 47.0453 10.59 47.1012 10.7046 47.1804C10.8174 47.2609 10.9204 47.3646 11.0136 47.4914Z" fill="white"/>
<path d="M12.2261 51.1517C12.4761 50.9506 12.7034 50.8076 12.9082 50.7224C13.1116 50.6357 13.2954 50.6071 13.4597 50.6366C13.6226 50.6644 13.7705 50.749 13.9036 50.8902C13.945 50.9342 13.9774 50.9748 14.0006 51.0121C14.0255 51.0479 14.0429 51.0774 14.0528 51.1005L13.681 51.4479C13.6738 51.434 13.6593 51.4107 13.6374 51.378C13.6139 51.3468 13.5881 51.3163 13.56 51.2865C13.4861 51.208 13.3962 51.1725 13.2904 51.1799C13.1845 51.1873 13.0692 51.2257 12.9445 51.295C12.8168 51.3642 12.686 51.4539 12.5523 51.564L10.9298 52.8763L9.3659 51.2168L11.919 48.8314L12.305 49.241L10.0929 51.3077L10.9248 52.1905L12.2261 51.1517Z" fill="white"/>
<path d="M16.3474 53.0161L14.1238 55.7092L11.9403 53.9218L14.164 51.2287L14.5997 51.5854L12.6731 53.9188L13.9851 54.9928L15.9117 52.6594L16.3474 53.0161Z" fill="white"/>
<path d="M19.1462 54.753C19.438 54.9124 19.6536 55.1137 19.7931 55.3572C19.9306 55.5995 19.9917 55.869 19.9762 56.1655C19.9578 56.4628 19.8606 56.7713 19.6846 57.0908L19.6831 57.0936C19.5092 57.4093 19.3007 57.6558 19.0577 57.8329C18.8128 58.009 18.5501 58.1078 18.2697 58.1293C17.9892 58.1507 17.7107 58.0859 17.4341 57.9348C17.1556 57.7827 16.9523 57.588 16.8242 57.3508C16.6942 57.1126 16.6396 56.8492 16.6606 56.5606C16.6786 56.2729 16.7715 55.9768 16.9391 55.6724L17.0454 55.4796L19.5007 56.8206L19.2836 57.2148L17.0811 56.0119L17.5239 55.7853L17.4162 55.9809C17.2839 56.221 17.2111 56.4382 17.1977 56.6326C17.1843 56.8269 17.2202 56.9966 17.3055 57.1415C17.3897 57.2884 17.5142 57.4068 17.6791 57.4968C17.8439 57.5868 18.0141 57.6269 18.1896 57.617C18.3621 57.608 18.5295 57.5457 18.6918 57.4302C18.854 57.3146 18.9981 57.1425 19.1241 56.9138L19.2319 56.7181C19.3517 56.5007 19.4173 56.2943 19.4288 56.0989C19.4393 55.9054 19.3992 55.7298 19.3086 55.5721C19.217 55.4164 19.0784 55.2878 18.8927 55.1863C18.7544 55.1108 18.6237 55.064 18.5005 55.0459C18.3774 55.0279 18.2665 55.03 18.1679 55.0524C18.0693 55.0748 17.9901 55.109 17.9303 55.155L17.9048 55.1743L17.4104 54.9043L17.4285 54.8847C17.5123 54.7952 17.6154 54.7199 17.7378 54.6589C17.8572 54.5987 17.9918 54.5578 18.1417 54.5364C18.2905 54.5168 18.4508 54.5232 18.6227 54.5557C18.7917 54.5889 18.9662 54.6547 19.1462 54.753Z" fill="white"/>
<path d="M24.614 57.2188L23.3911 60.4857L22.8626 60.2895L23.2551 59.241L22.6142 59.0031C22.2396 58.8641 21.9784 58.6533 21.8305 58.3706C21.6826 58.0879 21.6719 57.7779 21.7982 57.4405L21.8004 57.4344C21.9267 57.097 22.1387 56.8696 22.4363 56.7523C22.7339 56.6349 23.07 56.6458 23.4446 56.7848L24.614 57.2188ZM22.7776 58.5667L23.4185 58.8046L23.9221 57.459L23.2813 57.2212C23.0646 57.1408 22.8708 57.1379 22.6999 57.2125C22.5282 57.2892 22.4046 57.4285 22.3289 57.6305L22.3267 57.6366C22.2503 57.8407 22.2532 58.027 22.3354 58.1955C22.4155 58.3633 22.5629 58.4871 22.7776 58.5667ZM21.6435 56.1163L20.4206 59.3832L19.8921 59.1871L21.1149 55.9202L21.6435 56.1163Z" fill="white"/>
<path d="M25.6941 57.5054L25.3721 59.0506L27.0672 59.4008L27.3892 57.8557L27.9416 57.9698L27.2303 61.383L26.678 61.2689L26.9722 59.8567L25.2771 59.5065L24.9828 60.9186L24.4305 60.8045L25.1418 57.3913L25.6941 57.5054Z" fill="white"/>
<path d="M31.427 57.1321L31.075 61.768L30.5124 61.7256L30.5545 61.1711L30.5028 61.1672C30.4218 61.2908 30.3241 61.3937 30.2094 61.4758C30.0946 61.5601 29.9664 61.6218 29.8247 61.6609C29.683 61.6999 29.5313 61.7133 29.3696 61.7012C29.0743 61.6789 28.8235 61.5844 28.6172 61.4176C28.4086 61.2527 28.2541 61.0314 28.1538 60.7537C28.0535 60.4759 28.017 60.1565 28.0445 59.7955L28.045 59.789C28.0725 59.4258 28.1569 59.1144 28.298 58.8548C28.4391 58.5953 28.6252 58.3996 28.8564 58.2679C29.0853 58.136 29.3475 58.0811 29.6428 58.1034C29.8023 58.1154 29.9513 58.1514 30.0898 58.2116C30.226 58.2737 30.3457 58.3541 30.4488 58.4526C30.5497 58.551 30.6277 58.6649 30.6829 58.7945L30.7347 58.7984L30.8644 57.0897L31.427 57.1321ZM29.7344 58.6096C29.521 58.5935 29.335 58.6314 29.1762 58.7232C29.0174 58.8171 28.8907 58.9578 28.7962 59.1452C28.6995 59.3347 28.6409 59.5637 28.6205 59.8323L28.62 59.8388C28.5994 60.1096 28.6228 60.3448 28.69 60.5444C28.7551 60.7438 28.8591 60.9008 29.0022 61.0153C29.1451 61.132 29.3232 61.1984 29.5366 61.2144C29.7479 61.2303 29.934 61.1914 30.0951 61.0976C30.2561 61.0038 30.3849 60.8633 30.4815 60.676C30.5781 60.4888 30.6366 60.2608 30.657 59.9921L30.6575 59.9857C30.6778 59.7192 30.6544 59.4851 30.5873 59.2833C30.5201 59.0837 30.4139 58.9255 30.2689 58.8087C30.1238 58.6918 29.9457 58.6255 29.7344 58.6096Z" fill="white"/>
<path d="M33.3777 58.1934C33.598 58.1832 33.7987 58.216 33.9797 58.2917C34.1585 58.3676 34.3034 58.4806 34.4143 58.6308C34.5231 58.7811 34.5824 58.9617 34.5922 59.1727L34.5925 59.1791C34.6021 59.3858 34.5607 59.5646 34.4682 59.7156C34.3757 59.8687 34.2364 59.9916 34.0503 60.0844C33.8641 60.1771 33.6364 60.2372 33.3671 60.2648L32.0878 60.4016L32.0668 59.9528L33.2782 59.8191C33.5431 59.7918 33.7349 59.7279 33.8536 59.6275C33.9702 59.5272 34.0244 59.3909 34.0164 59.2187L34.0161 59.2123C34.0079 59.0358 33.9345 58.9011 33.796 58.8083C33.6575 58.7176 33.4868 58.6769 33.2838 58.6863C33.0915 58.6952 32.9227 58.7408 32.7771 58.823C32.6317 58.9074 32.52 59.0172 32.4419 59.1524C32.3616 59.2877 32.3253 59.4382 32.333 59.6039L32.3836 60.6888C32.3937 60.9041 32.4672 61.0646 32.6041 61.1705C32.7391 61.2786 32.9372 61.3266 33.1985 61.3145C33.408 61.3048 33.578 61.2592 33.7084 61.1777C33.8389 61.0983 33.9237 60.9898 33.9627 60.8521L33.9655 60.8422L34.5292 60.8162L34.5269 60.8357C34.5052 61.02 34.437 61.1828 34.3224 61.324C34.2057 61.4675 34.0519 61.5814 33.861 61.6657C33.6702 61.7522 33.4507 61.8012 33.2023 61.8126C32.9172 61.8258 32.6742 61.7907 32.4733 61.7072C32.2703 61.6238 32.114 61.4973 32.0043 61.3277C31.8926 61.1602 31.8311 60.956 31.8199 60.7149L31.7088 58.332L32.2725 58.3059L32.2964 58.8193L32.3483 58.8169C32.416 58.6908 32.5008 58.5823 32.6026 58.4913C32.7022 58.4004 32.8169 58.3293 32.9465 58.278C33.0763 58.2289 33.22 58.2007 33.3777 58.1934Z" fill="white"/>
<path d="M35.5129 61.6254L35.437 61.1663L36.5542 60.9832L36.0621 58.005L36.619 57.9137L37.1112 60.892L38.2284 60.7089L38.3042 61.1681L35.5129 61.6254Z" fill="white"/>
<path d="M38.9804 57.354C39.3006 57.2624 39.5964 57.254 39.8678 57.3287C40.1371 57.4041 40.3712 57.5522 40.57 57.7733C40.7674 57.9969 40.9165 58.2837 41.0174 58.6335L41.0183 58.6366C41.1181 58.9823 41.1443 59.3032 41.0968 59.5991C41.0474 59.8956 40.9305 60.1498 40.7463 60.3616C40.5621 60.5734 40.3182 60.7227 40.0146 60.8095C39.709 60.897 39.4267 60.9015 39.1678 60.8232C38.9068 60.7455 38.6816 60.597 38.4923 60.3778C38.3015 60.1612 38.158 59.8863 38.0619 59.553L38.0009 59.3418L40.6955 58.571L40.8201 59.0026L38.403 59.694L38.5575 59.223L38.6193 59.4372C38.6952 59.7001 38.7971 59.9051 38.9251 60.0523C39.0531 60.1994 39.1986 60.2945 39.3618 60.3374C39.5256 60.3825 39.698 60.3791 39.8789 60.3274C40.0597 60.2756 40.2091 60.1847 40.3269 60.0547C40.4432 59.9273 40.5181 59.7658 40.5517 59.5702C40.5853 59.3745 40.5659 59.1515 40.4937 58.901L40.4318 58.6868C40.3631 58.4487 40.2638 58.2564 40.1337 58.1098C40.0042 57.9654 39.8515 57.869 39.6755 57.8207C39.5001 57.7745 39.3106 57.7806 39.1068 57.8389C38.955 57.8823 38.829 57.9408 38.7287 58.0143C38.6283 58.0878 38.551 58.1671 38.4968 58.2521C38.4425 58.3371 38.4104 58.4168 38.4004 58.4914L38.396 58.5229L37.8533 58.6782L37.8524 58.6515C37.8487 58.5294 37.8687 58.4037 37.9125 58.2747C37.9548 58.1483 38.0216 58.025 38.113 57.9047C38.2049 57.7865 38.3235 57.6787 38.4686 57.5811C38.6123 57.4862 38.7829 57.4105 38.9804 57.354Z" fill="white"/>
<path d="M43.61 55.7318L44.9829 58.9341L44.4635 59.1548L43.4396 56.7665L43.1649 56.8832L43.4357 56.5434L42.8246 59.8514L42.3052 60.0722L40.9323 56.8699L41.4518 56.6492L42.4757 59.0375L42.7503 58.9208L42.4796 59.2606L43.0906 55.9526L43.61 55.7318Z" fill="white"/>
<path d="M45.9733 53.0748L48.3486 57.0708L47.8624 57.3573L47.5783 56.8793L47.5336 56.9056C47.5382 57.053 47.5171 57.1931 47.4702 57.3258C47.4244 57.4603 47.3546 57.584 47.2607 57.6969C47.1668 57.8097 47.05 57.9073 46.9103 57.9896C46.6552 58.14 46.395 58.2058 46.1298 58.187C45.8638 58.1711 45.6098 58.0782 45.3679 57.9081C45.1259 57.738 44.9125 57.4973 44.7275 57.1861L44.7242 57.1805C44.5381 56.8674 44.4283 56.5644 44.395 56.2713C44.3616 55.9783 44.402 55.7119 44.516 55.4721C44.6281 55.2334 44.8118 55.0388 45.067 54.8885C45.2048 54.8072 45.3478 54.7517 45.4961 54.7219C45.6436 54.695 45.788 54.6924 45.9292 54.7143C46.0686 54.7372 46.1981 54.7859 46.3179 54.8604L46.3626 54.8341L45.4872 53.3613L45.9733 53.0748ZM45.4331 55.2505C45.2487 55.3592 45.1177 55.4964 45.0402 55.6622C44.9638 55.8298 44.9407 56.0173 44.9709 56.2246C45.0003 56.4349 45.0838 56.6558 45.2215 56.8874L45.2248 56.893C45.3635 57.1264 45.5178 57.3056 45.6877 57.4306C45.8557 57.5568 46.0314 57.6259 46.2146 57.6379C46.399 57.6519 46.5833 57.6045 46.7677 57.4958C46.9503 57.3883 47.0807 57.2501 47.159 57.0814C47.2372 56.9127 47.2622 56.7241 47.2339 56.5157C47.2056 56.3072 47.1226 56.0872 46.9849 55.8557L46.9816 55.8501C46.8451 55.6204 46.6913 55.4421 46.5203 55.3152C46.3504 55.1902 46.1724 55.1213 45.9862 55.1084C45.8 55.0956 45.6156 55.143 45.4331 55.2505Z" fill="white"/>
<path d="M49.2917 52.0532L51.4444 54.795L49.2136 56.5315L47.0609 53.7898L47.506 53.4433L49.3712 55.8188L50.7117 54.7752L48.8466 52.3997L49.2917 52.0532Z" fill="white"/>
<path d="M50.6857 50.6786C50.9182 50.4437 51.1712 50.2909 51.4445 50.2201C51.7179 50.1524 51.9972 50.1661 52.2823 50.2612C52.5659 50.3579 52.8401 50.5362 53.1048 50.796L53.1094 50.8005C53.3757 51.0618 53.5595 51.333 53.6607 51.6139C53.7604 51.8964 53.7774 52.1734 53.7118 52.4451C53.6447 52.7183 53.4949 52.9723 53.2624 53.2073C53.0283 53.4437 52.7754 53.5966 52.5035 53.6658C52.2317 53.7351 51.954 53.7213 51.6704 53.6247C51.3853 53.5295 51.1096 53.3513 50.8433 53.0899L50.8387 53.0854C50.5739 52.8256 50.3917 52.5545 50.292 52.272C50.1908 51.991 50.1722 51.714 50.2362 51.4408C50.3018 51.1692 50.4516 50.9151 50.6857 50.6786ZM51.0413 51.0276C50.8862 51.1842 50.7917 51.3533 50.7577 51.5348C50.7236 51.7163 50.7478 51.9035 50.8301 52.0962C50.9109 52.2905 51.049 52.4836 51.2445 52.6754L51.2491 52.68C51.4461 52.8733 51.6428 53.0088 51.839 53.0864C52.0338 53.1655 52.2213 53.1861 52.4016 53.148C52.5834 53.1115 52.7518 53.015 52.9068 52.8583C53.0618 52.7017 53.1564 52.5326 53.1904 52.3511C53.226 52.1711 53.2034 51.9839 53.1226 51.7896C53.0403 51.5969 52.9006 51.4038 52.7036 51.2105L52.699 51.2059C52.5035 51.0141 52.3084 50.8786 52.1136 50.7995C51.9173 50.7219 51.7283 50.7013 51.5465 50.7379C51.3647 50.7744 51.1963 50.8709 51.0413 51.0276Z" fill="white"/>
<path d="M52.9122 46.3487L56.6256 49.1539L56.284 49.6022L55.8398 49.2667L55.8084 49.3079C55.8685 49.4426 55.902 49.5802 55.9089 49.7207C55.9175 49.8626 55.8997 50.0034 55.8555 50.1432C55.8114 50.2831 55.7402 50.4174 55.642 50.5463C55.4627 50.7816 55.2467 50.9405 54.994 51.0229C54.7417 51.1084 54.4714 51.118 54.1829 51.0516C53.8944 50.9853 53.6055 50.8428 53.3163 50.6244L53.3111 50.6204C53.0202 50.4007 52.8038 50.1614 52.6618 49.9026C52.5199 49.6439 52.4563 49.382 52.4711 49.1171C52.4845 48.8539 52.5808 48.6046 52.7601 48.3692C52.857 48.2421 52.9684 48.1368 53.0944 48.0534C53.2207 47.9729 53.3535 47.9162 53.4925 47.8832C53.6303 47.852 53.7687 47.8483 53.9078 47.8722L53.9392 47.8309L52.5706 46.7971L52.9122 46.3487ZM53.2363 48.5666C53.1068 48.7367 53.0375 48.913 53.0285 49.0957C53.0212 49.2797 53.0709 49.4619 53.1774 49.6425C53.2843 49.8262 53.4454 49.9992 53.6606 50.1618L53.6657 50.1657C53.8827 50.3296 54.0935 50.4374 54.2981 50.4891C54.5015 50.5426 54.6903 50.5405 54.8646 50.4826C55.0405 50.4261 55.1933 50.3128 55.3229 50.1428C55.4511 49.9744 55.5196 49.7974 55.5281 49.6117C55.5367 49.426 55.4884 49.242 55.3832 49.0597C55.278 48.8774 55.1177 48.705 54.9026 48.5424L54.8974 48.5385C54.6839 48.3772 54.474 48.2701 54.2676 48.217C54.0629 48.1652 53.8719 48.1685 53.6946 48.2267C53.5174 48.285 53.3646 48.3983 53.2363 48.5666Z" fill="white"/>
<path d="M55.605 44.1534L58.6375 45.8818L57.2303 48.3295L54.1979 46.6011L54.4786 46.1127L57.106 47.6102L57.9516 46.1393L55.3242 44.6418L55.605 44.1534Z" fill="white"/>
<path d="M57.8316 38.3085L61.1667 39.3473L60.998 39.8843L59.9275 39.5509L59.7229 40.2022C59.6033 40.5828 59.4059 40.8545 59.1306 41.0173C58.8553 41.18 58.5454 41.2078 58.2009 41.1005L58.1948 41.0985C57.8503 40.9913 57.6116 40.7926 57.4785 40.5027C57.3454 40.2127 57.3387 39.8774 57.4582 39.4968L57.8316 38.3085ZM59.2774 40.0634L59.482 39.4121L58.1084 38.9843L57.9038 39.6355C57.8346 39.8557 57.8418 40.0489 57.9255 40.215C58.0112 40.3817 58.1572 40.4972 58.3635 40.5615L58.3697 40.5634C58.578 40.6283 58.7644 40.6152 58.9289 40.5241C59.0927 40.4351 59.2089 40.2815 59.2774 40.0634ZM56.8832 41.3271L60.2183 42.3659L60.0496 42.903L56.7145 41.8641L56.8832 41.3271Z" fill="white"/>
<path d="M58.3989 34.791L58.4762 34.2336L61.9385 34.7095L61.8448 35.3853L58.9892 36.2462L58.9821 36.2975L61.4959 37.9029L61.4062 38.5499L57.9438 38.074L58.0211 37.5167L60.4845 37.8553L60.493 37.7944L58.2768 36.3801L58.3363 35.9509L60.8539 35.1904L60.8624 35.1295L58.3989 34.791Z" fill="white"/>
<path d="M57.3613 30.8435L62.0248 30.8166L62.028 31.3791L61.4702 31.3823L61.4705 31.434C61.6007 31.5044 61.7115 31.5932 61.8029 31.7004C61.8965 31.8076 61.9685 31.93 62.0191 32.0677C62.0696 32.2053 62.0953 32.3549 62.0963 32.5165C62.098 32.8118 62.0238 33.0687 61.8737 33.2872C61.7258 33.5079 61.5171 33.6793 61.2476 33.8016C60.978 33.9238 60.6616 33.986 60.2984 33.9881L60.2919 33.9881C59.9266 33.9902 59.6084 33.9317 59.3374 33.8126C59.0665 33.6935 58.8558 33.5244 58.7053 33.3055C58.5549 33.0887 58.4788 32.8327 58.4771 32.5374C58.4761 32.378 58.5001 32.227 58.549 32.0845C58.6001 31.9441 58.6707 31.8187 58.7609 31.7082C58.8511 31.6 58.9587 31.5131 59.0837 31.4478L59.0834 31.396L57.3646 31.406L57.3613 30.8435ZM58.9757 32.4053C58.977 32.6186 59.0299 32.8004 59.1346 32.9507C59.2414 33.1009 59.3923 33.2153 59.5874 33.2939C59.7846 33.3747 60.0183 33.4143 60.2886 33.4127L60.2951 33.4127C60.5675 33.4111 60.8007 33.3688 60.9948 33.2858C61.189 33.2049 61.3375 33.0888 61.4404 32.9373C61.5454 32.7859 61.5973 32.6035 61.5961 32.3901C61.5949 32.1789 61.5408 31.9971 61.434 31.8447C61.3272 31.6924 61.1762 31.5758 60.9812 31.495C60.7861 31.4142 60.5535 31.3746 60.2832 31.3762L60.2767 31.3762C60.0086 31.3778 59.7765 31.4201 59.5802 31.5031C59.3861 31.5861 59.2365 31.7044 59.1315 31.858C59.0264 32.0117 58.9745 32.1941 58.9757 32.4053Z" fill="white"/>
<path d="M58.2664 28.9039C58.2219 28.5773 58.2551 28.2847 58.3661 28.0262C58.4795 27.7695 58.6613 27.5579 58.9114 27.3915C59.1618 27.2272 59.4713 27.1202 59.8399 27.0703L59.8463 27.0695C60.217 27.0194 60.5451 27.0402 60.8304 27.1321C61.116 27.2262 61.3468 27.382 61.5227 27.5995C61.6988 27.8192 61.8092 28.0924 61.8537 28.4191C61.8985 28.7478 61.8653 29.0404 61.754 29.2968C61.6428 29.5532 61.4619 29.7635 61.2115 29.9278C60.9614 30.0943 60.651 30.2025 60.2803 30.2526L60.2738 30.2535C59.9052 30.3033 59.5781 30.2812 59.2925 30.1872C59.0072 30.0953 58.7755 29.9407 58.5975 29.7234C58.4216 29.5059 58.3112 29.2327 58.2664 28.9039ZM58.7614 28.837C58.7911 29.0548 58.8677 29.2325 58.9913 29.3702C59.1148 29.5078 59.2784 29.6031 59.482 29.6561C59.6859 29.7111 59.924 29.7203 60.1961 29.6835L60.2026 29.6826C60.4769 29.6455 60.7049 29.5734 60.8867 29.4662C61.0688 29.3611 61.1999 29.226 61.2799 29.0608C61.3621 28.8953 61.3884 28.7037 61.3587 28.486C61.329 28.2682 61.2524 28.0905 61.1289 27.9528C61.0075 27.8148 60.8448 27.7183 60.6409 27.6633C60.4373 27.6103 60.1983 27.6024 59.924 27.6395L59.9176 27.6404C59.6454 27.6771 59.4183 27.7481 59.2362 27.8531C59.0544 27.9603 58.9224 28.0967 58.8402 28.2621C58.758 28.4276 58.7318 28.6192 58.7614 28.837Z" fill="white"/>
<path d="M56.2267 24.6331L57.3046 24.3088C57.2064 23.9626 57.1885 23.6395 57.2511 23.3394C57.3158 23.0387 57.4536 22.7779 57.6646 22.557C57.8761 22.3381 58.1527 22.1772 58.4944 22.0744L58.5006 22.0725C58.8444 21.9691 59.1652 21.9502 59.4631 22.0158C59.7616 22.0835 60.0204 22.225 60.2394 22.4404C60.4605 22.6551 60.6254 22.934 60.734 23.2771L61.8274 22.9481L61.9851 23.4677L60.8916 23.7966C60.9899 24.1428 61.0064 24.4652 60.9411 24.7639C60.8785 25.0639 60.7414 25.3234 60.5298 25.5423C60.321 25.7626 60.0447 25.9245 59.7009 26.0279L59.6947 26.0298C59.3509 26.1332 59.0298 26.1511 58.7313 26.0834C58.4334 26.0178 58.1749 25.8773 57.9559 25.662C57.7375 25.4487 57.573 25.1708 57.4623 24.8284L56.3844 25.1527L56.2267 24.6331ZM57.7675 24.1696L60.2711 23.4163C60.1944 23.1784 60.0774 22.9864 59.9201 22.8402C59.7648 22.6934 59.5803 22.5993 59.3666 22.5579C59.1535 22.5185 58.9196 22.5371 58.6649 22.6137L58.6587 22.6156C58.406 22.6916 58.2019 22.8048 58.0464 22.9551C57.8915 23.1074 57.7892 23.2878 57.7394 23.4963C57.6918 23.7041 57.7011 23.9285 57.7675 24.1696ZM57.9251 24.6891C58.0039 24.9264 58.1206 25.1174 58.2753 25.2621C58.4306 25.4089 58.6147 25.502 58.8278 25.5414C59.0436 25.5822 59.2778 25.5646 59.5305 25.4886L59.5367 25.4867C59.7893 25.4107 59.9931 25.2966 60.148 25.1442C60.3035 24.9939 60.4051 24.8149 60.4528 24.607C60.5032 24.4006 60.4952 24.1769 60.4288 23.9359L57.9251 24.6891Z" fill="white"/>
<path d="M59.7682 20.6716L59.3467 20.8727L58.8576 19.8562L56.1233 21.1605L55.8795 20.6537L58.6137 19.3494L58.1247 18.3329L58.5462 18.1318L59.7682 20.6716Z" fill="white"/>
<path d="M54.4259 18.178C54.3081 17.9924 54.2375 17.8025 54.2142 17.6084C54.1921 17.4161 54.2191 17.2348 54.2955 17.0646C54.373 16.8962 54.5014 16.7556 54.6807 16.6428L54.6862 16.6393C54.8619 16.5288 55.0385 16.4763 55.216 16.4817C55.3954 16.486 55.5716 16.5458 55.7445 16.661C55.9175 16.7763 56.0826 16.9436 56.2397 17.163L56.9915 18.2026L56.6099 18.4426L55.8946 17.4604C55.7397 17.2446 55.5891 17.1101 55.4428 17.0571C55.2976 17.0058 55.1519 17.0262 55.0055 17.1183L55 17.1218C54.8499 17.2161 54.7686 17.3462 54.756 17.512C54.7453 17.6766 54.7941 17.8445 54.9027 18.0156C55.0055 18.1775 55.1287 18.3012 55.2724 18.3864C55.418 18.4706 55.5691 18.513 55.7257 18.5138C55.8835 18.5163 56.0329 18.4733 56.1738 18.3847L57.0961 17.8045C57.2791 17.6894 57.3829 17.5464 57.4076 17.3755C57.4353 17.2053 57.3793 17.0101 57.2396 16.7899C57.1276 16.6134 57.0038 16.4889 56.8682 16.4163C56.7344 16.3426 56.5977 16.3229 56.4582 16.3572L56.4482 16.3597L56.1468 15.8847L56.165 15.8771C56.3367 15.8047 56.5126 15.7832 56.6925 15.8126C56.8754 15.8427 57.0509 15.9194 57.2188 16.0429C57.3886 16.1653 57.5399 16.3311 57.6727 16.5404C57.8251 16.7806 57.9145 17.0083 57.9409 17.2234C57.9685 17.4403 57.9353 17.6382 57.8413 17.8169C57.7503 17.9964 57.6024 18.1506 57.3974 18.2795L55.3717 19.5538L55.0704 19.0788L55.5068 18.8043L55.4791 18.7606C55.3355 18.7643 55.1988 18.7446 55.0691 18.7015C54.9405 18.6602 54.8217 18.5961 54.7128 18.5093C54.6058 18.4213 54.5101 18.3109 54.4259 18.178Z" fill="white"/>
<path d="M53.4712 14.4221C53.2081 14.6057 52.9715 14.733 52.7613 14.804C52.5525 14.8766 52.3672 14.8927 52.2053 14.8521C52.0447 14.8133 51.9029 14.7188 51.7798 14.5689C51.7415 14.5222 51.712 14.4795 51.6913 14.4407C51.669 14.4033 51.6536 14.3727 51.6453 14.3489L52.04 14.0276C52.0463 14.042 52.0592 14.0662 52.0788 14.1003C52.1 14.133 52.1237 14.1652 52.1497 14.1969C52.2181 14.2802 52.3053 14.3218 52.4114 14.3216C52.5175 14.3214 52.6351 14.291 52.7643 14.2303C52.8965 14.1699 53.0331 14.0894 53.174 13.9885L54.8825 12.7896L56.3292 14.5517L53.6189 16.7579L53.2618 16.323L55.6101 14.4115L54.8406 13.4743L53.4712 14.4221Z" fill="white"/>
<path d="M49.4719 12.2728L51.8748 9.73711L53.9308 11.6687L51.5279 14.2044L51.1177 13.819L53.1995 11.622L51.964 10.4613L49.8822 12.6582L49.4719 12.2728Z" fill="white"/>
<path d="M46.8067 10.3628C46.5265 10.184 46.3252 9.96847 46.2027 9.71615C46.0821 9.46499 46.0396 9.19203 46.0754 8.89726C46.1141 8.60184 46.2322 8.30073 46.4297 7.99394L46.4314 7.99121C46.6266 7.68805 46.8514 7.45635 47.106 7.29611C47.3624 7.13704 47.6312 7.05633 47.9125 7.05399C48.1937 7.05165 48.4672 7.13524 48.7328 7.30475C49.0002 7.47542 49.1897 7.68343 49.3013 7.92878C49.4147 8.1753 49.451 8.4418 49.4104 8.72829C49.3727 9.01413 49.2598 9.30319 49.0716 9.59546L48.9524 9.78063L46.5946 8.27594L46.8383 7.89743L48.9532 9.24713L48.4959 9.44318L48.6168 9.25529C48.7652 9.02474 48.8528 8.81297 48.8795 8.62C48.9062 8.42702 48.8819 8.25532 48.8068 8.10492C48.7328 7.9527 48.6167 7.82609 48.4584 7.72508C48.3001 7.62407 48.1331 7.57254 47.9573 7.57049C47.7845 7.56779 47.6132 7.61855 47.4435 7.72278C47.2737 7.82702 47.1182 7.98897 46.9768 8.20862L46.8558 8.39651C46.7214 8.60528 46.6418 8.80674 46.617 9.00088C46.5933 9.1932 46.6212 9.3711 46.7008 9.53457C46.7815 9.69622 46.911 9.83394 47.0893 9.94772C47.2221 10.0325 47.3493 10.088 47.4709 10.1144C47.5926 10.1408 47.7033 10.1462 47.8032 10.1306C47.9031 10.1149 47.9845 10.0862 48.0473 10.0443L48.074 10.0268L48.5489 10.3298L48.5294 10.3481C48.4397 10.4317 48.3317 10.4998 48.2054 10.5524C48.0821 10.6044 47.945 10.636 47.7941 10.6472C47.6443 10.6566 47.4847 10.6393 47.3154 10.5953C47.1491 10.5506 46.9795 10.4731 46.8067 10.3628Z" fill="white"/>
<path d="M41.5229 7.52756L42.9668 4.35122L43.4806 4.5828L43.0172 5.60229L43.6402 5.8831C44.0044 6.04725 44.2506 6.27535 44.3788 6.56742C44.5069 6.85949 44.4964 7.16954 44.3473 7.49759L44.3446 7.50348C44.1955 7.83152 43.9685 8.04398 43.6635 8.14085C43.3585 8.23772 43.024 8.20409 42.6598 8.03995L41.5229 7.52756ZM43.4474 6.3074L42.8243 6.02658L42.2296 7.33483L42.8526 7.61565C43.0633 7.71059 43.2564 7.72663 43.4321 7.66378C43.6086 7.59896 43.7415 7.46834 43.8308 7.27191L43.8335 7.26601C43.9237 7.06761 43.9335 6.88154 43.8631 6.70778C43.7946 6.53491 43.656 6.40145 43.4474 6.3074ZM44.4109 8.82916L45.8548 5.65283L46.3686 5.8844L44.9247 9.06073L44.4109 8.82916Z" fill="white"/>
<path d="M40.4503 7.18018L40.8774 5.6604L39.2104 5.1959L38.7833 6.71568L38.2401 6.56432L39.1836 3.20712L39.7268 3.35847L39.3364 4.74745L41.0034 5.21195L41.3938 3.82297L41.937 3.97433L40.9935 7.33153L40.4503 7.18018Z" fill="white"/>
<path d="M34.7295 7.14982L35.3984 2.54814L35.9568 2.6286L35.8768 3.17901L35.9281 3.18641C36.0173 3.06858 36.1219 2.97258 36.2419 2.89839C36.3622 2.82207 36.4943 2.76924 36.6384 2.7399C36.7824 2.71057 36.9347 2.70746 37.0951 2.73058C37.3882 2.77281 37.6319 2.88417 37.8262 3.06464C38.023 3.24329 38.162 3.47458 38.243 3.75852C38.324 4.04245 38.3385 4.36362 38.2864 4.72203L38.2855 4.72843C38.2331 5.08897 38.1276 5.39394 37.969 5.64335C37.8105 5.89276 37.6114 6.07534 37.3718 6.1911C37.1343 6.30716 36.8691 6.34408 36.576 6.30184C36.4177 6.27903 36.2715 6.23292 36.1375 6.1635C36.0059 6.09226 35.892 6.00398 35.7959 5.89865C35.702 5.79364 35.6319 5.67464 35.5857 5.54165L35.5344 5.53426L35.2879 7.23029L34.7295 7.14982ZM36.5193 5.79054C36.7311 5.82106 36.9193 5.79591 37.0839 5.71508C37.2488 5.63213 37.3848 5.50035 37.4919 5.31976C37.6014 5.13734 37.6755 4.91279 37.7143 4.64612L37.7152 4.63972C37.7543 4.37091 37.7472 4.13465 37.6938 3.93093C37.6425 3.72752 37.5495 3.56383 37.4146 3.43984C37.2801 3.31373 37.1069 3.23541 36.8951 3.20489C36.6855 3.17468 36.4971 3.2009 36.33 3.28354C36.163 3.36619 36.0248 3.49766 35.9156 3.67795C35.8064 3.85823 35.7324 4.08171 35.6937 4.34838L35.6927 4.35478C35.6543 4.61932 35.6616 4.85452 35.7147 5.06037C35.7681 5.26409 35.8631 5.42916 35.9998 5.55558C36.1365 5.68201 36.3096 5.76032 36.5193 5.79054Z" fill="white"/>
<path d="M32.8375 5.95468C32.6171 5.94988 32.4191 5.90353 32.2437 5.81564C32.0705 5.72779 31.9337 5.60517 31.8334 5.44778C31.7352 5.29043 31.6884 5.10618 31.6931 4.89502L31.6932 4.88856C31.6978 4.68171 31.7514 4.50612 31.854 4.36177C31.9567 4.21526 32.1041 4.10206 32.2961 4.02218C32.4882 3.94229 32.7194 3.89774 32.99 3.88855L34.2755 3.83894L34.2657 4.28819L33.0482 4.33927C32.782 4.34857 32.5862 4.39927 32.461 4.49139C32.3378 4.58356 32.2744 4.71583 32.2706 4.8882L32.2705 4.89467C32.2666 5.07135 32.3305 5.2107 32.4624 5.31274C32.5943 5.41262 32.7618 5.46477 32.965 5.46919C33.1573 5.47338 33.3289 5.4394 33.4797 5.36723C33.6305 5.29291 33.7496 5.19095 33.8367 5.06136C33.9261 4.93181 33.9726 4.78408 33.9762 4.61817L34.0001 3.53223C34.0048 3.31676 33.9425 3.15157 33.8131 3.03666C33.6859 2.91964 33.4916 2.85828 33.23 2.85258C33.0204 2.84802 32.8477 2.88198 32.7121 2.95447C32.5764 3.02481 32.4844 3.12736 32.4361 3.26211L32.4326 3.27174L31.8685 3.25945L31.8722 3.24013C31.9064 3.05764 31.9856 2.89985 32.1096 2.76674C32.2358 2.63153 32.397 2.52833 32.5932 2.45716C32.7895 2.38383 33.0119 2.34987 33.2604 2.35528C33.5457 2.3615 33.7857 2.41307 33.9804 2.51C34.1772 2.60699 34.3245 2.74385 34.4222 2.92059C34.5222 3.09522 34.5695 3.30319 34.5642 3.54451L34.5118 5.92971L33.9477 5.91742L33.959 5.40354L33.9071 5.40241C33.8309 5.52362 33.7389 5.62617 33.6311 5.71005C33.5255 5.79398 33.4062 5.85713 33.2734 5.8995C33.1406 5.93972 32.9953 5.95812 32.8375 5.95468Z" fill="white"/>
<path d="M30.9529 2.39416L30.9971 2.85748L29.8702 2.96419L30.1572 5.96934L29.5954 6.02254L29.3083 3.0174L28.1814 3.12411L28.1371 2.66079L30.9529 2.39416Z" fill="white"/>
<path d="M27.2089 6.42508C26.8832 6.49471 26.5876 6.48301 26.3219 6.38997C26.0584 6.29649 25.8351 6.13273 25.6519 5.89869C25.4703 5.6621 25.3412 5.36583 25.2644 5.00989L25.2638 5.00673C25.1879 4.65501 25.1838 4.33312 25.2513 4.04107C25.321 3.74857 25.4549 3.50291 25.6532 3.30409C25.8515 3.10527 26.105 2.97286 26.4137 2.90685C26.7246 2.84039 27.0065 2.85503 27.2594 2.95077C27.5145 3.04607 27.7289 3.20953 27.9027 3.44116C28.0782 3.67023 28.2026 3.95432 28.2757 4.29341L28.322 4.50823L25.5813 5.09418L25.4866 4.65505L27.945 4.12946L27.7587 4.589L27.7117 4.37102C27.654 4.10354 27.5664 3.89203 27.4488 3.73651C27.3312 3.58099 27.1924 3.47625 27.0326 3.42229C26.8723 3.36623 26.7001 3.35787 26.5161 3.39721C26.3322 3.43654 26.177 3.51709 26.0506 3.63885C25.9259 3.75805 25.84 3.9141 25.7931 4.107C25.7463 4.29989 25.7503 4.52376 25.8052 4.7786L25.8522 4.99659C25.9045 5.2388 25.9904 5.43744 26.1102 5.59251C26.2294 5.74547 26.3752 5.85202 26.5474 5.91213C26.7192 5.97015 26.9087 5.977 27.116 5.93269C27.2704 5.89969 27.4001 5.84991 27.5052 5.78338C27.6103 5.71684 27.6929 5.64301 27.7528 5.5619C27.8127 5.48078 27.8502 5.40336 27.8653 5.32964L27.8719 5.29849L28.4238 5.18049L28.4229 5.20712C28.4183 5.32929 28.3897 5.45327 28.3372 5.57906C28.2864 5.7023 28.2113 5.82081 28.1119 5.93459C28.0121 6.04626 27.8865 6.14583 27.735 6.23329C27.5852 6.3182 27.4098 6.38213 27.2089 6.42508Z" fill="white"/>
<path d="M22.4744 7.71733L21.3239 4.4288L21.8572 4.24384L22.7152 6.69651L22.9972 6.59872L22.7038 6.91939L23.5397 3.66027L24.0729 3.47531L25.2234 6.76384L24.6901 6.9488L23.8321 4.49613L23.5501 4.59392L23.8435 4.27325L23.0076 7.53238L22.4744 7.71733Z" fill="white"/>
<path d="M19.9202 10.209L17.824 6.06042L18.3285 5.80765L18.5793 6.30386L18.6257 6.28061C18.6311 6.13325 18.6618 5.99497 18.7177 5.86577C18.7725 5.73465 18.8506 5.61597 18.952 5.50975C19.0534 5.40353 19.1766 5.31411 19.3216 5.24147C19.5864 5.10879 19.8505 5.06085 20.1138 5.09766C20.378 5.13158 20.625 5.24163 20.8547 5.42781C21.0845 5.61398 21.281 5.86863 21.4443 6.19174L21.4472 6.19751C21.6114 6.52255 21.7001 6.83239 21.7134 7.12703C21.7266 7.42168 21.6681 7.68475 21.538 7.91624C21.4098 8.14677 21.2133 8.32837 20.9484 8.46106C20.8054 8.53272 20.6589 8.5784 20.5089 8.59809C20.3599 8.61488 20.2157 8.60758 20.0763 8.5762C19.9388 8.54384 19.8129 8.48642 19.6986 8.40392L19.6522 8.42717L20.4248 9.95618L19.9202 10.209ZM20.6079 8.07489C20.7993 7.97901 20.9393 7.85101 21.028 7.6909C21.1157 7.52886 21.1516 7.34338 21.1357 7.13445C21.1207 6.92263 21.0525 6.69651 20.931 6.4561L20.9281 6.45033C20.8056 6.20799 20.6639 6.01868 20.503 5.88239C20.344 5.74512 20.1735 5.66423 19.9916 5.63971C19.8086 5.61326 19.6215 5.64798 19.4301 5.74386C19.2406 5.83877 19.1011 5.96773 19.0114 6.13073C18.9218 6.29374 18.884 6.48019 18.898 6.69009C18.912 6.89999 18.9797 7.12514 19.1012 7.36555L19.1041 7.37132C19.2246 7.60981 19.3658 7.79816 19.5277 7.93638C19.6886 8.07267 19.8616 8.15356 20.0464 8.17904C20.2313 8.20451 20.4185 8.1698 20.6079 8.07489Z" fill="white"/>
<path d="M16.5518 10.9995L14.5917 8.11757L16.936 6.53676L18.8961 9.41866L18.4283 9.7341L16.7301 7.23716L15.3213 8.1871L17.0196 10.684L16.5518 10.9995Z" fill="white"/>
<path d="M15.0725 12.2822C14.8244 12.5008 14.5616 12.6361 14.284 12.6881C14.0066 12.7371 13.729 12.7044 13.451 12.5901C13.1747 12.4743 12.9134 12.2778 12.667 12.0006L12.6627 11.9958C12.4149 11.717 12.2502 11.434 12.1684 11.1468C12.0883 10.8582 12.0902 10.5806 12.1743 10.3141C12.2599 10.0461 12.4267 9.80279 12.6748 9.58422C12.9245 9.36422 13.1873 9.22892 13.4633 9.17833C13.7392 9.12774 14.0153 9.16032 14.2917 9.27607C14.5696 9.39038 14.8325 9.58695 15.0803 9.86578L15.0845 9.87061C15.3309 10.1478 15.4941 10.4307 15.5743 10.7193C15.656 11.0065 15.6556 11.2842 15.573 11.5524C15.489 11.8189 15.3222 12.0622 15.0725 12.2822ZM14.7416 11.9099C14.907 11.7642 15.0129 11.6019 15.0592 11.4231C15.1056 11.2443 15.0943 11.056 15.0254 10.8581C14.9581 10.6587 14.8335 10.4567 14.6516 10.252L14.6473 10.2472C14.464 10.0409 14.2771 9.89238 14.0866 9.80162C13.8977 9.70942 13.712 9.67616 13.5296 9.70184C13.3457 9.72591 13.1711 9.8108 13.0057 9.95652C12.8403 10.1022 12.7344 10.2645 12.688 10.4433C12.6402 10.6205 12.65 10.8087 12.7173 11.0081C12.7862 11.206 12.9123 11.4081 13.0956 11.6144L13.0999 11.6192C13.2818 11.8239 13.4672 11.9723 13.6561 12.0645C13.8467 12.1553 14.0339 12.1886 14.2177 12.1646C14.4016 12.1405 14.5762 12.0556 14.7416 11.9099Z" fill="white"/>
<path d="M12.5469 16.4442L9.03407 13.3933L9.40557 12.9692L9.82573 13.3341L9.85989 13.2951C9.80915 13.1566 9.78517 13.0171 9.78793 12.8764C9.78907 12.7344 9.81646 12.5951 9.8701 12.4585C9.92374 12.322 10.0039 12.1928 10.1107 12.071C10.3057 11.8484 10.5321 11.7045 10.7898 11.6394C11.0474 11.5713 11.3178 11.5801 11.6011 11.666C11.8844 11.7518 12.1628 11.9135 12.4364 12.1511L12.4413 12.1554C12.7165 12.3944 12.916 12.6478 13.0399 12.9156C13.1638 13.1834 13.2093 13.449 13.1765 13.7123C13.1451 13.974 13.0319 14.2162 12.8369 14.4388C12.7316 14.559 12.6132 14.6565 12.4818 14.7312C12.3502 14.8028 12.2139 14.8504 12.0729 14.8739C11.9333 14.8957 11.795 14.89 11.6578 14.8567L11.6237 14.8957L12.9184 16.0201L12.5469 16.4442ZM12.3753 14.2095C12.5162 14.0487 12.5974 13.8774 12.6189 13.6958C12.6387 13.5127 12.6017 13.3275 12.5078 13.1401C12.4136 12.9496 12.2648 12.766 12.0612 12.5892L12.0563 12.585C11.8511 12.4067 11.6482 12.2848 11.4476 12.2193C11.2483 12.1521 11.0598 12.1414 10.882 12.1873C10.7026 12.2317 10.5424 12.3343 10.4015 12.4952C10.262 12.6544 10.1816 12.8264 10.1604 13.011C10.1391 13.1957 10.1747 13.3826 10.2672 13.5716C10.3597 13.7607 10.5077 13.9436 10.7113 14.1204L10.7162 14.1246C10.9181 14.3 11.1202 14.4212 11.3225 14.4882C11.5232 14.5537 11.7139 14.5635 11.8948 14.5174C12.0756 14.4714 12.2358 14.3687 12.3753 14.2095Z" fill="white"/>
<path d="M9.70769 18.4636L6.80068 16.5333L8.37222 14.1869L11.2792 16.1172L10.9656 16.5854L8.44696 14.9129L7.50259 16.3229L10.0213 17.9954L9.70769 18.4636Z" fill="white"/>
<ellipse cx="35.1897" cy="21.1835" rx="1.42795" ry="1.42179" fill="#FF0000"/>
<ellipse cx="35.1897" cy="24.0273" rx="1.42795" ry="1.42179" fill="#FF0000"/>
<ellipse cx="35.1897" cy="26.8788" rx="1.42795" ry="1.42179" fill="#FF0000"/>
<ellipse cx="35.1897" cy="29.7148" rx="1.42795" ry="1.42179" fill="#FF0000"/>
<ellipse cx="35.1897" cy="32.5585" rx="1.42795" ry="1.42179" fill="#FF0000"/>
<ellipse cx="35.1897" cy="35.4101" rx="1.42795" ry="1.42179" fill="#FF0000"/>
<ellipse cx="35.1897" cy="38.2382" rx="1.42795" ry="1.42179" fill="#FF0000"/>
<ellipse cx="32.3303" cy="24.0273" rx="1.42795" ry="1.42179" fill="#FF0000"/>
<ellipse cx="32.3303" cy="26.8788" rx="1.42795" ry="1.42179" fill="#FF0000"/>
<ellipse cx="32.3303" cy="29.7148" rx="1.42795" ry="1.42179" fill="#FF0000"/>
<ellipse cx="32.3303" cy="32.5585" rx="1.42795" ry="1.42179" fill="#FF0000"/>
<ellipse cx="32.3303" cy="35.4101" rx="1.42795" ry="1.42179" fill="#FF0000"/>
<ellipse cx="32.3303" cy="38.2382" rx="1.42795" ry="1.42179" fill="#FF0000"/>
<ellipse cx="32.3303" cy="41.0898" rx="1.42795" ry="1.42179" fill="#FF0000"/>
<ellipse cx="26.6154" cy="29.7148" rx="1.42795" ry="1.42179" fill="#FF0000"/>
<ellipse cx="38.0447" cy="35.3946" rx="1.42795" ry="1.42179" transform="rotate(180 38.0447 35.3946)" fill="#FF0000"/>
<ellipse cx="26.6154" cy="32.5585" rx="1.42795" ry="1.42179" fill="#FF0000"/>
<ellipse cx="38.0447" cy="32.5665" rx="1.42795" ry="1.42179" transform="rotate(180 38.0447 32.5665)" fill="#FF0000"/>
<ellipse cx="23.76" cy="32.5585" rx="1.42795" ry="1.42179" fill="#FF0000"/>
<ellipse cx="40.8963" cy="32.5665" rx="1.42795" ry="1.42179" transform="rotate(180 40.8963 32.5665)" fill="#FF0000"/>
<ellipse cx="29.4787" cy="26.8788" rx="1.42795" ry="1.42179" fill="#FF0000"/>
<ellipse cx="29.4787" cy="29.7148" rx="1.42795" ry="1.42179" fill="#FF0000"/>
<ellipse cx="29.4787" cy="32.5585" rx="1.42795" ry="1.42179" fill="#FF0000"/>
<ellipse cx="29.4787" cy="35.4101" rx="1.42795" ry="1.42179" fill="#FF0000"/>
<ellipse cx="29.4787" cy="38.2382" rx="1.42795" ry="1.42179" fill="#FF0000"/>
<ellipse cx="29.4787" cy="41.0898" rx="1.42795" ry="1.42179" fill="#FF0000"/>
<ellipse cx="29.4787" cy="43.9335" rx="1.42795" ry="1.42179" fill="#FF0000"/>
</svg>
