<svg width="12" height="15" viewBox="0 0 12 15" fill="none" xmlns="http://www.w3.org/2000/svg">
<ellipse cx="7.71373" cy="1.2766" rx="0.85728" ry="0.778069" fill="white"/>
<ellipse cx="7.71373" cy="2.8269" rx="0.85728" ry="0.778069" fill="white"/>
<ellipse cx="7.71373" cy="4.38598" rx="0.85728" ry="0.778069" fill="white"/>
<ellipse cx="7.71373" cy="5.94506" rx="0.85728" ry="0.778069" fill="white"/>
<ellipse cx="7.71373" cy="7.49535" rx="0.85728" ry="0.778069" fill="white"/>
<ellipse cx="7.71373" cy="9.05444" rx="0.85728" ry="0.778069" fill="white"/>
<ellipse cx="7.71373" cy="10.614" rx="0.85728" ry="0.778069" fill="white"/>
<ellipse cx="5.99986" cy="2.8269" rx="0.85728" ry="0.778069" fill="white"/>
<ellipse cx="5.99986" cy="4.38598" rx="0.85728" ry="0.778069" fill="white"/>
<ellipse cx="5.99986" cy="5.94506" rx="0.85728" ry="0.778069" fill="white"/>
<ellipse cx="5.99986" cy="7.49535" rx="0.85728" ry="0.778069" fill="white"/>
<ellipse cx="5.99986" cy="9.05444" rx="0.85728" ry="0.778069" fill="white"/>
<ellipse cx="5.99986" cy="10.614" rx="0.85728" ry="0.778069" fill="white"/>
<ellipse cx="5.99986" cy="12.1638" rx="0.85728" ry="0.778069" fill="white"/>
<ellipse cx="2.57115" cy="5.94506" rx="0.85728" ry="0.778069" fill="white"/>
<ellipse cx="9.43081" cy="9.05787" rx="0.85728" ry="0.778069" transform="rotate(180 9.43081 9.05787)" fill="white"/>
<ellipse cx="2.57115" cy="7.49535" rx="0.85728" ry="0.778069" fill="white"/>
<ellipse cx="9.43081" cy="7.4983" rx="0.85728" ry="0.778069" transform="rotate(180 9.43081 7.4983)" fill="white"/>
<ellipse cx="0.85728" cy="7.49535" rx="0.85728" ry="0.778069" fill="white"/>
<ellipse cx="11.1447" cy="7.4983" rx="0.85728" ry="0.778069" transform="rotate(180 11.1447 7.4983)" fill="white"/>
<ellipse cx="4.28697" cy="4.38598" rx="0.85728" ry="0.778069" fill="white"/>
<ellipse cx="4.28697" cy="5.94506" rx="0.85728" ry="0.778069" fill="white"/>
<ellipse cx="4.28697" cy="7.49535" rx="0.85728" ry="0.778069" fill="white"/>
<ellipse cx="4.28697" cy="9.05444" rx="0.85728" ry="0.778069" fill="white"/>
<ellipse cx="4.28697" cy="10.614" rx="0.85728" ry="0.778069" fill="white"/>
<ellipse cx="4.28697" cy="12.1638" rx="0.85728" ry="0.778069" fill="white"/>
<ellipse cx="4.28697" cy="13.7229" rx="0.85728" ry="0.778069" fill="white"/>
</svg>
