<svg width="64" height="64" viewBox="0 0 64 64" fill="none" xmlns="http://www.w3.org/2000/svg">
<ellipse cx="5.04707" cy="31.0761" rx="1.04707" ry="1.1269" fill="#FF0000"/>
<ellipse cx="8.88886" cy="31.0761" rx="1.04707" ry="1.1269" fill="#FF0000"/>
<ellipse cx="12.7268" cy="31.0761" rx="1.04707" ry="1.1269" fill="#FF0000"/>
<ellipse cx="16.5725" cy="31.0761" rx="1.04707" ry="1.1269" fill="#FF0000"/>
<ellipse cx="20.4143" cy="31.0761" rx="1.04707" ry="1.1269" fill="#FF0000"/>
<ellipse cx="43.6076" cy="31.0761" rx="1.04707" ry="1.1269" fill="#0075FF"/>
<ellipse cx="47.4396" cy="31.0761" rx="1.04707" ry="1.1269" fill="#0075FF"/>
<ellipse cx="51.2814" cy="31.0761" rx="1.04707" ry="1.1269" fill="#0075FF"/>
<ellipse cx="55.1193" cy="31.0761" rx="1.04707" ry="1.1269" fill="#0075FF"/>
<ellipse cx="58.9533" cy="31.0761" rx="1.04707" ry="1.1269" fill="#0075FF"/>
<ellipse cx="26.6926" cy="31.1297" rx="1.21212" ry="1.30454" fill="#0075FF"/>
<ellipse cx="26.6926" cy="40.6957" rx="1.21212" ry="1.30454" fill="#0075FF"/>
<ellipse cx="29.1145" cy="28.5267" rx="1.21212" ry="1.30454" fill="#0075FF"/>
<ellipse cx="29.1145" cy="38.0926" rx="1.21212" ry="1.30454" fill="#0075FF"/>
<ellipse cx="31.55" cy="23.3045" rx="1.21212" ry="1.30454" fill="#0075FF"/>
<ellipse cx="31.55" cy="28.5267" rx="1.21212" ry="1.30454" fill="#0075FF"/>
<ellipse cx="31.55" cy="33.7411" rx="1.21212" ry="1.30454" fill="#0075FF"/>
<ellipse cx="31.55" cy="25.9071" rx="1.21212" ry="1.30454" fill="#0075FF"/>
<ellipse cx="31.55" cy="31.1297" rx="1.21212" ry="1.30454" fill="#0075FF"/>
<ellipse cx="33.9699" cy="31.1297" rx="1.21212" ry="1.30454" fill="#0075FF"/>
<ellipse cx="36.3918" cy="31.1297" rx="1.21212" ry="1.30454" fill="#0075FF"/>
<ellipse cx="31.55" cy="36.3519" rx="1.21212" ry="1.30454" fill="#0075FF"/>
<ellipse cx="33.9699" cy="36.3519" rx="1.21212" ry="1.30454" fill="#0075FF"/>
<ellipse cx="38.8137" cy="40.6952" rx="1.21212" ry="1.30454" fill="#0075FF"/>
<ellipse cx="36.3918" cy="38.0926" rx="1.21212" ry="1.30454" fill="#0075FF"/>
<ellipse cx="33.9699" cy="23.3045" rx="1.21212" ry="1.30454" fill="#0075FF"/>
<ellipse cx="33.9699" cy="25.9071" rx="1.21212" ry="1.30454" fill="#0075FF"/>
</svg>
