<svg width="210" height="112" viewBox="0 0 210 112" fill="none" xmlns="http://www.w3.org/2000/svg">
<g clip-path="url(#clip0_124_10042)">
<path d="M195.054 58.7325C191.415 58.7325 188.58 57.971 186.55 56.4479C184.561 54.9248 183.165 52.8728 182.361 50.292C181.6 47.7112 181.219 44.8342 181.219 41.6611V23.5108C181.219 20.0416 181.6 17.0165 182.361 14.4357C183.165 11.8549 184.561 9.8664 186.55 8.47022C188.58 7.03174 191.415 6.3125 195.054 6.3125C198.269 6.3125 200.808 6.90482 202.669 8.08945C204.573 9.27408 205.927 10.9664 206.731 13.1664C207.577 15.3665 208 18.0108 208 21.0993V25.1609H201.209V21.5435C201.209 19.6396 201.104 17.9684 200.892 16.53C200.723 15.0492 200.215 13.9068 199.369 13.103C198.523 12.2991 197.106 11.8972 195.117 11.8972C193.086 11.8972 191.605 12.3414 190.675 13.2299C189.744 14.0761 189.13 15.303 188.834 16.9107C188.58 18.4761 188.453 20.3166 188.453 22.432V42.8034C188.453 45.3843 188.665 47.4362 189.088 48.9593C189.511 50.4401 190.209 51.4978 191.182 52.1324C192.155 52.7671 193.467 53.0844 195.117 53.0844C197.063 53.0844 198.459 52.6613 199.306 51.8151C200.152 50.9266 200.681 49.7209 200.892 48.1978C201.104 46.6747 201.209 44.8977 201.209 42.8669V39.0592H208V42.8669C208 45.9977 207.619 48.7689 206.858 51.1805C206.096 53.5498 204.784 55.4113 202.923 56.7652C201.061 58.0768 198.438 58.7325 195.054 58.7325Z" fill="#032183"/>
<path d="M151.68 58.1546V6.75H164.436C167.524 6.75 169.978 7.32116 171.797 8.46349C173.659 9.56351 175.013 11.1712 175.859 13.2866C176.705 15.4021 177.128 17.9617 177.128 20.9656C177.128 23.6733 176.642 26.0215 175.669 28.0099C174.738 29.9984 173.342 31.5427 171.48 32.6427C169.618 33.7004 167.291 34.2293 164.499 34.2293H158.851V58.1546H151.68ZM158.851 29.0888H162.151C164.224 29.0888 165.853 28.8561 167.038 28.3907C168.222 27.9253 169.068 27.1215 169.576 25.9791C170.084 24.7945 170.338 23.1445 170.338 21.0291C170.338 18.5752 170.147 16.6925 169.767 15.3809C169.428 14.0693 168.688 13.1597 167.545 12.652C166.403 12.1443 164.626 11.8905 162.214 11.8905H158.851V29.0888Z" fill="#032183"/>
<path d="M130.604 58.7325C127.135 58.7325 124.364 58.0556 122.291 56.7017C120.218 55.3479 118.737 53.4228 117.848 50.9266C116.96 48.3881 116.516 45.4266 116.516 42.0419V22.5589C116.516 19.1742 116.96 16.2761 117.848 13.8645C118.779 11.4107 120.26 9.54909 122.291 8.27984C124.364 6.96828 127.135 6.3125 130.604 6.3125C134.074 6.3125 136.824 6.96828 138.854 8.27984C140.885 9.5914 142.345 11.453 143.233 13.8645C144.164 16.2761 144.63 19.1742 144.63 22.5589V42.1054C144.63 45.4477 144.164 48.367 143.233 50.8632C142.345 53.3594 140.885 55.3056 138.854 56.7017C136.824 58.0556 134.074 58.7325 130.604 58.7325ZM130.604 53.0844C132.508 53.0844 133.947 52.7036 134.92 51.942C135.893 51.1382 136.549 50.0382 136.887 48.642C137.226 47.2035 137.395 45.5323 137.395 43.6285V21.0993C137.395 19.1954 137.226 17.5665 136.887 16.2127C136.549 14.8165 135.893 13.7588 134.92 13.0395C133.947 12.278 132.508 11.8972 130.604 11.8972C128.7 11.8972 127.241 12.278 126.225 13.0395C125.252 13.7588 124.597 14.8165 124.258 16.2127C123.92 17.5665 123.75 19.1954 123.75 21.0993V43.6285C123.75 45.5323 123.92 47.2035 124.258 48.642C124.597 50.0382 125.252 51.1382 126.225 51.942C127.241 52.7036 128.7 53.0844 130.604 53.0844Z" fill="#032183"/>
<path d="M88.7713 60.447V51.8162C88.5597 51.8585 88.2212 51.9008 87.7559 51.9431C87.2905 51.9854 86.8885 52.0065 86.5501 52.0065C83.9693 52.0065 81.7692 51.6046 79.95 50.8008C78.173 49.9969 76.8191 48.6007 75.8884 46.6122C74.9576 44.6237 74.4922 41.8948 74.4922 38.4256V25.6061C74.4922 22.1792 74.9364 19.4714 75.8249 17.4829C76.7134 15.4944 77.9826 14.0771 79.6327 13.2309C81.325 12.3425 83.3346 11.8982 85.6616 11.8982C86.2539 11.8982 86.8462 11.9194 87.4385 11.9617C88.0309 11.9617 88.4751 11.9828 88.7713 12.0251V2.125H95.9425V12.0251C96.3656 11.9828 96.8945 11.9617 97.5291 11.9617C98.1637 11.9194 98.7137 11.8982 99.1791 11.8982C101.591 11.8982 103.621 12.3425 105.272 13.2309C106.964 14.0771 108.233 15.5156 109.079 17.5464C109.968 19.5349 110.412 22.2215 110.412 25.6061V38.4256C110.412 41.8525 109.968 44.5603 109.079 46.5488C108.191 48.5373 106.964 49.9546 105.398 50.8008C103.833 51.6046 102.056 52.0065 100.068 52.0065C99.3906 52.0065 98.7137 51.9854 98.0368 51.9431C97.3598 51.9008 96.6618 51.8585 95.9425 51.8162V60.447H88.7713ZM86.9943 47.6911C87.3328 47.6911 87.6712 47.6911 88.0097 47.6911C88.3482 47.6488 88.602 47.6065 88.7713 47.5642V16.3406C88.3905 16.2983 88.0097 16.2771 87.6289 16.2771C87.2482 16.2348 86.8885 16.2137 86.5501 16.2137C85.1539 16.2137 84.0539 16.4887 83.25 17.0387C82.4462 17.5887 81.875 18.5406 81.5365 19.8945C81.1981 21.2484 81.0288 23.1522 81.0288 25.6061V38.4256C81.0288 40.8794 81.1769 42.7833 81.4731 44.1372C81.7692 45.4911 82.3404 46.4218 83.1866 46.9295C84.0327 47.4372 85.302 47.6911 86.9943 47.6911ZM98.2906 47.6911C99.8137 47.6911 100.977 47.4372 101.781 46.9295C102.585 46.4218 103.135 45.4911 103.431 44.1372C103.727 42.7833 103.875 40.8794 103.875 38.4256V25.6061C103.875 23.1522 103.727 21.2484 103.431 19.8945C103.135 18.5406 102.585 17.5887 101.781 17.0387C100.977 16.4887 99.7714 16.2137 98.1637 16.2137C97.7829 16.2137 97.4022 16.2348 97.0214 16.2771C96.6406 16.2771 96.281 16.2983 95.9425 16.3406V47.5642C96.2387 47.6065 96.5983 47.6488 97.0214 47.6911C97.4445 47.6911 97.8675 47.6911 98.2906 47.6911Z" fill="#032183"/>
<path d="M16.2559 62.0012C16.2559 62.0012 20.6044 51.926 20.7189 51.6682C20.8291 51.4062 20.7358 50.7934 19.9941 50.7511C19.1125 50.7004 16.2686 50.5229 13.3018 49.7791C11.6022 49.3523 9.73309 48.731 7.95723 47.8055C5.5117 46.5292 2.83307 44.6613 1.09535 41.1916C-0.176149 38.6559 -0.794947 34.1297 1.82011 29.3457C3.4773 26.3156 8.10133 20.0101 18.2649 15.5642C20.2611 14.6894 21.0834 14.4105 22.7321 13.8695C23.6094 13.5822 24.4401 13.9794 24.7622 14.4908C27.0382 18.0619 31.9081 25.745 31.9081 25.745C31.6538 25.8 29.5812 26.2479 27.3434 27.1354C23.6052 28.6146 19.8373 31.1756 17.7436 34.0536C13.9248 39.311 15.8999 44.3908 20.9477 46.5799C22.7321 47.3533 23.8383 47.5562 24.9657 47.7633C27.941 48.3084 31.4673 47.9069 32.2429 47.7928C33.0821 47.6703 33.489 48.114 33.6628 48.5028C33.7984 48.8071 33.7348 49.1621 33.7221 49.2931C33.5907 50.6708 33.2474 53.8278 32.9507 56.6086C32.8702 57.3778 32.5015 57.9525 31.4249 58.2103C30.3823 58.4596 28.653 58.9034 26.9153 59.3345C22.1896 60.5093 16.2601 61.9969 16.2601 61.9969" fill="#032183"/>
<path d="M44.1719 0C44.1719 0 39.8233 10.0751 39.7089 10.3329C39.5987 10.595 39.6919 11.2077 40.4336 11.25C41.3152 11.3007 44.1591 11.4782 47.126 12.222C48.8256 12.6489 50.6947 13.2701 52.4705 14.1956C54.9161 15.4719 57.5947 17.3399 59.3324 20.8096C60.6039 23.3452 61.2227 27.8715 58.6076 32.6555C56.9505 35.6856 52.3264 41.991 42.1629 46.4369C40.1666 47.3117 39.3444 47.5907 37.6957 48.1316C36.8183 48.419 35.9876 48.0217 35.6655 47.5104C33.3895 43.9393 28.5197 36.2561 28.5197 36.2561C28.774 36.2012 30.8465 35.7532 33.0844 34.8657C36.8226 33.3866 40.5905 30.8255 42.6842 27.9475C46.5029 22.6902 44.5279 17.6104 39.48 15.4212C37.6957 14.6478 36.5895 14.445 35.4621 14.2379C32.4868 13.6927 28.9605 14.0942 28.1848 14.2083C27.3456 14.3309 26.9388 13.8871 26.765 13.4983C26.6294 13.194 26.6929 12.839 26.7057 12.708C26.837 11.3303 27.1804 8.17337 27.477 5.39257C27.5576 4.62341 27.9263 4.04865 29.0028 3.79086C30.0455 3.54151 31.7747 3.09777 33.5124 2.6667C38.2382 1.49183 44.1676 0.00422615 44.1676 0.00422615" fill="#032183"/>
</g>
<path d="M201.738 104.867L206.596 96.9282H208.407V107.815H206.596V99.8762L201.738 107.815H199.947V96.9282H201.738V104.867Z" fill="#032183"/>
<path d="M190.962 96.9282V107.815H189.161V96.9282H190.962ZM197.874 96.9282L192.88 103.166H190.358L190.086 101.536H192.15L195.683 96.9282H197.874ZM195.936 107.815L192.062 102.885L193.22 101.536L198.224 107.815H195.936Z" fill="#032183"/>
<path d="M183.7 96.9282V107.815H181.889V96.9282H183.7ZM187.234 96.9282V98.4374H178.424V96.9282H187.234Z" fill="#032183"/>
<path d="M167.774 102.492V102.261C167.774 101.476 167.885 100.748 168.105 100.077C168.326 99.4 168.644 98.8131 169.059 98.3167C169.475 97.8137 169.978 97.4246 170.568 97.1496C171.159 96.8679 171.821 96.7271 172.554 96.7271C173.294 96.7271 173.959 96.8679 174.55 97.1496C175.147 97.4246 175.653 97.8137 176.068 98.3167C176.49 98.8131 176.811 99.4 177.032 100.077C177.253 100.748 177.363 101.476 177.363 102.261V102.492C177.363 103.277 177.253 104.005 177.032 104.676C176.811 105.346 176.49 105.933 176.068 106.436C175.653 106.933 175.15 107.322 174.559 107.603C173.975 107.878 173.313 108.016 172.574 108.016C171.834 108.016 171.169 107.878 170.578 107.603C169.987 107.322 169.481 106.933 169.059 106.436C168.644 105.933 168.326 105.346 168.105 104.676C167.885 104.005 167.774 103.277 167.774 102.492ZM169.575 102.261V102.492C169.575 103.036 169.637 103.549 169.76 104.032C169.884 104.508 170.069 104.93 170.315 105.299C170.568 105.668 170.883 105.96 171.259 106.175C171.636 106.383 172.074 106.487 172.574 106.487C173.067 106.487 173.498 106.383 173.868 106.175C174.245 105.96 174.556 105.668 174.803 105.299C175.049 104.93 175.234 104.508 175.358 104.032C175.487 103.549 175.552 103.036 175.552 102.492V102.261C175.552 101.724 175.487 101.218 175.358 100.742C175.234 100.259 175.046 99.8327 174.793 99.4637C174.546 99.0881 174.235 98.793 173.859 98.5783C173.489 98.3637 173.054 98.2564 172.554 98.2564C172.061 98.2564 171.626 98.3637 171.25 98.5783C170.88 98.793 170.568 99.0881 170.315 99.4637C170.069 99.8327 169.884 100.259 169.76 100.742C169.637 101.218 169.575 101.724 169.575 102.261Z" fill="#032183"/>
<path d="M163.967 92.189H165.447C165.447 92.8463 165.35 93.3695 165.155 93.7585C164.96 94.1409 164.694 94.436 164.357 94.6439C164.026 94.8519 163.649 95.0095 163.228 95.1168C162.812 95.2241 162.381 95.3281 161.933 95.4287C161.375 95.5495 160.856 95.7406 160.375 96.0022C159.902 96.2571 159.493 96.6193 159.149 97.0889C158.811 97.5584 158.561 98.1688 158.399 98.92C158.243 99.6713 158.201 100.6 158.273 101.707V102.633H156.793V101.707C156.793 100.466 156.907 99.3828 157.134 98.4572C157.367 97.5316 157.695 96.7501 158.117 96.1129C158.539 95.4757 159.038 94.9693 159.616 94.5936C160.2 94.218 160.843 93.9598 161.543 93.8189C162.05 93.7183 162.484 93.611 162.848 93.4969C163.211 93.3762 163.487 93.2152 163.675 93.014C163.87 92.8128 163.967 92.5378 163.967 92.189ZM161.835 97.5517C162.523 97.5517 163.137 97.6758 163.675 97.9239C164.214 98.1721 164.672 98.5176 165.048 98.9603C165.424 99.403 165.71 99.9262 165.905 100.53C166.106 101.127 166.206 101.777 166.206 102.482V102.703C166.206 103.461 166.099 104.165 165.885 104.816C165.677 105.46 165.369 106.023 164.96 106.506C164.558 106.983 164.065 107.355 163.481 107.623C162.903 107.891 162.244 108.026 161.505 108.026C160.765 108.026 160.103 107.891 159.519 107.623C158.941 107.355 158.448 106.983 158.039 106.506C157.63 106.023 157.319 105.46 157.104 104.816C156.897 104.165 156.793 103.461 156.793 102.703V102.482C156.793 102.314 156.822 102.15 156.881 101.989C156.939 101.828 157.01 101.663 157.095 101.496C157.186 101.328 157.267 101.15 157.338 100.962C157.578 100.359 157.906 99.7987 158.321 99.2822C158.743 98.7657 159.246 98.3499 159.83 98.0346C160.421 97.7127 161.089 97.5517 161.835 97.5517ZM161.485 99.0709C160.823 99.0709 160.278 99.2286 159.85 99.5438C159.428 99.8591 159.113 100.278 158.905 100.802C158.698 101.318 158.594 101.878 158.594 102.482V102.703C158.594 103.213 158.652 103.696 158.769 104.152C158.886 104.608 159.061 105.014 159.295 105.369C159.535 105.718 159.837 105.993 160.2 106.194C160.57 106.396 161.005 106.496 161.505 106.496C162.004 106.496 162.436 106.396 162.799 106.194C163.163 105.993 163.461 105.718 163.695 105.369C163.928 105.014 164.104 104.608 164.22 104.152C164.337 103.696 164.396 103.213 164.396 102.703V102.482C164.396 102.026 164.337 101.593 164.22 101.184C164.104 100.775 163.925 100.412 163.685 100.097C163.451 99.7819 163.15 99.5338 162.78 99.3527C162.416 99.1649 161.985 99.0709 161.485 99.0709Z" fill="#032183"/>
<path d="M152.578 105.953V100.349C152.578 99.9199 152.493 99.5476 152.325 99.2323C152.162 98.9104 151.916 98.6622 151.585 98.4878C151.254 98.3134 150.845 98.2262 150.358 98.2262C149.904 98.2262 149.505 98.3067 149.161 98.4677C148.824 98.6287 148.557 98.8399 148.363 99.1015C148.175 99.3631 148.08 99.6448 148.08 99.9467H146.28C146.28 99.5577 146.377 99.172 146.572 98.7896C146.766 98.4073 147.045 98.0619 147.409 97.7533C147.779 97.4381 148.22 97.1899 148.733 97.0088C149.252 96.821 149.829 96.7271 150.465 96.7271C151.231 96.7271 151.906 96.8612 152.49 97.1295C153.081 97.3978 153.542 97.8036 153.873 98.3469C154.21 98.8835 154.379 99.5577 154.379 100.369V105.44C154.379 105.802 154.408 106.188 154.466 106.597C154.531 107.006 154.625 107.359 154.749 107.654V107.815H152.87C152.779 107.6 152.708 107.315 152.656 106.959C152.604 106.597 152.578 106.262 152.578 105.953ZM152.889 101.214L152.909 102.522H151.088C150.576 102.522 150.118 102.566 149.716 102.653C149.314 102.734 148.976 102.858 148.703 103.025C148.431 103.193 148.223 103.404 148.08 103.659C147.938 103.908 147.866 104.199 147.866 104.535C147.866 104.877 147.941 105.189 148.09 105.47C148.239 105.752 148.463 105.977 148.762 106.144C149.067 106.305 149.44 106.386 149.881 106.386C150.433 106.386 150.92 106.265 151.342 106.024C151.763 105.782 152.098 105.487 152.344 105.138C152.597 104.79 152.734 104.451 152.753 104.122L153.522 105.018C153.477 105.299 153.353 105.611 153.152 105.953C152.951 106.295 152.682 106.624 152.344 106.939C152.013 107.248 151.617 107.506 151.157 107.714C150.702 107.915 150.19 108.016 149.619 108.016C148.905 108.016 148.278 107.872 147.74 107.583C147.208 107.295 146.792 106.909 146.494 106.426C146.202 105.937 146.056 105.39 146.056 104.786C146.056 104.203 146.166 103.69 146.387 103.247C146.607 102.797 146.925 102.425 147.341 102.13C147.756 101.828 148.256 101.6 148.84 101.446C149.424 101.292 150.076 101.214 150.796 101.214H152.889Z" fill="#032183"/>
<path d="M136.974 99.021V112H135.163V96.9283H136.818L136.974 99.021ZM144.07 102.281V102.492C144.07 103.284 143.979 104.018 143.798 104.696C143.616 105.366 143.35 105.95 142.999 106.446C142.655 106.943 142.23 107.328 141.724 107.603C141.218 107.878 140.637 108.016 139.982 108.016C139.313 108.016 138.723 107.902 138.21 107.674C137.697 107.446 137.263 107.114 136.906 106.678C136.549 106.242 136.263 105.719 136.049 105.108C135.841 104.498 135.698 103.81 135.621 103.046V101.919C135.698 101.114 135.845 100.393 136.059 99.7555C136.273 99.1183 136.555 98.575 136.906 98.1256C137.263 97.6695 137.694 97.324 138.2 97.0893C138.706 96.8478 139.291 96.7271 139.953 96.7271C140.614 96.7271 141.202 96.8612 141.714 97.1295C142.227 97.3911 142.659 97.7667 143.009 98.2564C143.36 98.746 143.622 99.3329 143.798 100.017C143.979 100.695 144.07 101.449 144.07 102.281ZM142.26 102.492V102.281C142.26 101.738 142.204 101.228 142.094 100.752C141.984 100.269 141.812 99.8461 141.578 99.4839C141.351 99.115 141.059 98.8265 140.702 98.6186C140.345 98.4039 139.92 98.2966 139.427 98.2966C138.973 98.2966 138.577 98.3771 138.239 98.5381C137.908 98.6991 137.626 98.9171 137.392 99.1921C137.159 99.4604 136.967 99.7689 136.818 100.118C136.675 100.46 136.568 100.815 136.497 101.184V103.79C136.627 104.26 136.808 104.702 137.042 105.118C137.275 105.527 137.587 105.859 137.976 106.114C138.366 106.362 138.856 106.487 139.446 106.487C139.933 106.487 140.352 106.383 140.702 106.175C141.059 105.96 141.351 105.668 141.578 105.299C141.812 104.93 141.984 104.508 142.094 104.032C142.204 103.549 142.26 103.036 142.26 102.492Z" fill="#032183"/>
<path d="M128.982 102.613H127.045V101.466H128.836C129.336 101.466 129.731 101.402 130.024 101.274C130.316 101.14 130.523 100.956 130.647 100.721C130.77 100.486 130.831 100.211 130.831 99.8961C130.831 99.6144 130.76 99.3494 130.617 99.1012C130.481 98.8464 130.26 98.6418 129.955 98.4875C129.65 98.3265 129.242 98.246 128.729 98.246C128.313 98.246 127.937 98.3232 127.6 98.4774C127.262 98.625 126.993 98.8296 126.792 99.0912C126.597 99.3461 126.5 99.6345 126.5 99.9565H124.699C124.699 99.2924 124.88 98.7223 125.244 98.246C125.614 97.7631 126.104 97.3908 126.714 97.1292C127.33 96.8676 128.002 96.7368 128.729 96.7368C129.339 96.7368 129.884 96.8072 130.364 96.9481C130.851 97.0823 131.263 97.2835 131.601 97.5518C131.938 97.8134 132.194 98.1421 132.37 98.5378C132.551 98.9268 132.642 99.3796 132.642 99.8961C132.642 100.265 132.558 100.614 132.389 100.942C132.22 101.271 131.977 101.563 131.659 101.818C131.341 102.066 130.955 102.261 130.501 102.401C130.053 102.542 129.547 102.613 128.982 102.613ZM127.045 101.908H128.982C129.611 101.908 130.166 101.972 130.647 102.1C131.127 102.22 131.529 102.401 131.854 102.643C132.178 102.884 132.421 103.183 132.584 103.538C132.752 103.887 132.837 104.29 132.837 104.746C132.837 105.255 132.736 105.715 132.535 106.124C132.34 106.527 132.061 106.869 131.698 107.15C131.334 107.432 130.9 107.647 130.393 107.794C129.894 107.942 129.339 108.016 128.729 108.016C128.047 108.016 127.385 107.895 126.743 107.653C126.1 107.412 125.572 107.04 125.156 106.537C124.741 106.027 124.533 105.38 124.533 104.595H126.334C126.334 104.923 126.435 105.235 126.636 105.53C126.837 105.826 127.116 106.064 127.473 106.245C127.836 106.426 128.255 106.516 128.729 106.516C129.235 106.516 129.657 106.436 129.994 106.275C130.332 106.114 130.585 105.899 130.754 105.631C130.929 105.363 131.016 105.071 131.016 104.756C131.016 104.347 130.939 104.018 130.783 103.77C130.627 103.522 130.387 103.34 130.062 103.226C129.744 103.106 129.336 103.045 128.836 103.045H127.045V101.908Z" fill="#032183"/>
<path d="M120.415 105.953V100.349C120.415 99.9199 120.33 99.5476 120.162 99.2323C119.999 98.9104 119.753 98.6622 119.422 98.4878C119.091 98.3134 118.682 98.2262 118.195 98.2262C117.741 98.2262 117.342 98.3067 116.998 98.4677C116.66 98.6287 116.394 98.8399 116.2 99.1015C116.011 99.3631 115.917 99.6448 115.917 99.9467H114.116C114.116 99.5577 114.214 99.172 114.409 98.7896C114.603 98.4073 114.882 98.0619 115.246 97.7533C115.616 97.4381 116.057 97.1899 116.57 97.0088C117.089 96.821 117.666 96.7271 118.302 96.7271C119.068 96.7271 119.743 96.8612 120.327 97.1295C120.918 97.3978 121.378 97.8036 121.709 98.3469C122.047 98.8835 122.216 99.5577 122.216 100.369V105.44C122.216 105.802 122.245 106.188 122.303 106.597C122.368 107.006 122.462 107.359 122.586 107.654V107.815H120.707C120.616 107.6 120.545 107.315 120.493 106.959C120.441 106.597 120.415 106.262 120.415 105.953ZM120.726 101.214L120.746 102.522H118.925C118.413 102.522 117.955 102.566 117.553 102.653C117.15 102.734 116.813 102.858 116.54 103.025C116.268 103.193 116.06 103.404 115.917 103.659C115.775 103.908 115.703 104.199 115.703 104.535C115.703 104.877 115.778 105.189 115.927 105.47C116.076 105.752 116.3 105.977 116.599 106.144C116.904 106.305 117.277 106.386 117.718 106.386C118.27 106.386 118.757 106.265 119.178 106.024C119.6 105.782 119.935 105.487 120.181 105.138C120.434 104.79 120.571 104.451 120.59 104.122L121.359 105.018C121.314 105.299 121.19 105.611 120.989 105.953C120.788 106.295 120.519 106.624 120.181 106.939C119.85 107.248 119.454 107.506 118.994 107.714C118.539 107.915 118.027 108.016 117.455 108.016C116.742 108.016 116.115 107.872 115.577 107.583C115.045 107.295 114.629 106.909 114.331 106.426C114.039 105.937 113.893 105.39 113.893 104.786C113.893 104.203 114.003 103.69 114.224 103.247C114.444 102.797 114.762 102.425 115.178 102.13C115.593 101.828 116.093 101.6 116.677 101.446C117.261 101.292 117.913 101.214 118.633 101.214H120.726Z" fill="#032183"/>
<path d="M104.811 99.021V112H103V96.9283H104.655L104.811 99.021ZM111.907 102.281V102.492C111.907 103.284 111.816 104.018 111.635 104.696C111.453 105.366 111.187 105.95 110.836 106.446C110.492 106.943 110.067 107.328 109.561 107.603C109.055 107.878 108.474 108.016 107.819 108.016C107.15 108.016 106.56 107.902 106.047 107.674C105.534 107.446 105.099 107.114 104.742 106.678C104.386 106.242 104.1 105.719 103.886 105.108C103.678 104.498 103.535 103.81 103.458 103.046V101.919C103.535 101.114 103.681 100.393 103.896 99.7555C104.11 99.1183 104.392 98.575 104.742 98.1256C105.099 97.6695 105.531 97.324 106.037 97.0893C106.543 96.8478 107.127 96.7271 107.789 96.7271C108.451 96.7271 109.039 96.8612 109.551 97.1295C110.064 97.3911 110.496 97.7667 110.846 98.2564C111.197 98.746 111.459 99.3329 111.635 100.017C111.816 100.695 111.907 101.449 111.907 102.281ZM110.097 102.492V102.281C110.097 101.738 110.041 101.228 109.931 100.752C109.821 100.269 109.649 99.8461 109.415 99.4839C109.188 99.115 108.896 98.8265 108.539 98.6186C108.182 98.4039 107.757 98.2966 107.264 98.2966C106.809 98.2966 106.414 98.3771 106.076 98.5381C105.745 98.6991 105.463 98.9171 105.229 99.1921C104.996 99.4604 104.804 99.7689 104.655 100.118C104.512 100.46 104.405 100.815 104.334 101.184V103.79C104.463 104.26 104.645 104.702 104.879 105.118C105.112 105.527 105.424 105.859 105.813 106.114C106.203 106.362 106.693 106.487 107.283 106.487C107.77 106.487 108.189 106.383 108.539 106.175C108.896 105.96 109.188 105.668 109.415 105.299C109.649 104.93 109.821 104.508 109.931 104.032C110.041 103.549 110.097 103.036 110.097 102.492Z" fill="#032183"/>
<path d="M201.903 74.294V87.2732H200.093V72.2012H201.748L201.903 74.294ZM209 77.5539V77.7652C209 78.5567 208.909 79.2911 208.727 79.9686C208.546 80.6394 208.28 81.2229 207.929 81.7193C207.585 82.2156 207.16 82.6013 206.654 82.8763C206.148 83.1514 205.567 83.2889 204.911 83.2889C204.243 83.2889 203.652 83.1748 203.14 82.9468C202.627 82.7187 202.192 82.3867 201.835 81.9507C201.478 81.5147 201.193 80.9915 200.979 80.3811C200.771 79.7707 200.628 79.0832 200.55 78.3185V77.1917C200.628 76.3868 200.774 75.6657 200.988 75.0285C201.203 74.3913 201.485 73.8479 201.835 73.3985C202.192 72.9424 202.624 72.597 203.13 72.3622C203.636 72.1207 204.22 72 204.882 72C205.544 72 206.131 72.1342 206.644 72.4025C207.157 72.6641 207.588 73.0397 207.939 73.5293C208.289 74.019 208.552 74.6059 208.727 75.2901C208.909 75.9675 209 76.7221 209 77.5539ZM207.189 77.7652V77.5539C207.189 77.0106 207.134 76.5008 207.024 76.0245C206.913 75.5416 206.742 75.119 206.508 74.7568C206.281 74.3879 205.989 74.0995 205.632 73.8915C205.275 73.6769 204.85 73.5696 204.357 73.5696C203.902 73.5696 203.506 73.6501 203.169 73.811C202.838 73.972 202.556 74.19 202.322 74.465C202.088 74.7333 201.897 75.0419 201.748 75.3907C201.605 75.7328 201.498 76.0883 201.426 76.4572V79.0631C201.556 79.5326 201.738 79.9753 201.972 80.3912C202.205 80.8003 202.517 81.1324 202.906 81.3873C203.295 81.6354 203.785 81.7595 204.376 81.7595C204.863 81.7595 205.281 81.6556 205.632 81.4476C205.989 81.233 206.281 80.9412 206.508 80.5723C206.742 80.2034 206.913 79.7808 207.024 79.3046C207.134 78.8216 207.189 78.3085 207.189 77.7652Z" fill="#032183"/>
<path d="M194.798 72.2012V83.0876H192.987V72.2012H194.798ZM198.331 72.2012V73.7104H189.521V72.2012H198.331Z" fill="#032183"/>
<path d="M186.143 76.92V78.4292H180.575V76.92H186.143ZM180.954 72.2012V83.0876H179.153V72.2012H180.954ZM187.603 72.2012V83.0876H185.792V72.2012H187.603Z" fill="#032183"/>
<path d="M172.797 83.2889C172.064 83.2889 171.399 83.1614 170.801 82.9065C170.211 82.6449 169.701 82.2794 169.273 81.8098C168.851 81.3403 168.527 80.7836 168.3 80.1397C168.073 79.4957 167.959 78.7914 167.959 78.0268V77.6042C167.959 76.7188 168.086 75.9306 168.339 75.2398C168.592 74.5422 168.936 73.9519 169.371 73.469C169.805 72.986 170.299 72.6205 170.85 72.3723C171.402 72.1241 171.973 72 172.563 72C173.316 72 173.965 72.1342 174.51 72.4025C175.062 72.6708 175.513 73.0464 175.863 73.5293C176.214 74.0056 176.474 74.569 176.642 75.2196C176.811 75.8636 176.895 76.5679 176.895 77.3325V78.1676H169.03V76.6484H175.094V76.5075C175.068 76.0245 174.971 75.555 174.802 75.0989C174.64 74.6428 174.381 74.2672 174.024 73.972C173.667 73.6769 173.18 73.5293 172.563 73.5293C172.155 73.5293 171.778 73.6199 171.434 73.801C171.09 73.9754 170.795 74.237 170.548 74.5858C170.302 74.9346 170.11 75.3605 169.974 75.8636C169.838 76.3666 169.77 76.9468 169.77 77.6042V78.0268C169.77 78.5432 169.838 79.0295 169.974 79.4857C170.117 79.9351 170.321 80.3308 170.587 80.6729C170.86 81.015 171.188 81.2833 171.571 81.4778C171.96 81.6723 172.401 81.7696 172.894 81.7696C173.53 81.7696 174.069 81.6354 174.51 81.3671C174.952 81.0988 175.338 80.74 175.669 80.2906L176.759 81.186C176.532 81.5415 176.243 81.8803 175.893 82.2022C175.542 82.5242 175.111 82.7858 174.598 82.987C174.092 83.1882 173.491 83.2889 172.797 83.2889Z" fill="#032183"/>
<path d="M156.765 83.0876V72.2012H158.566V81.5583H163.413V72.2012H165.224V83.0876H156.765ZM166.47 81.5583L166.295 86.3173H164.689V83.0876H163.316V81.5583H166.47Z" fill="#032183"/>
<defs>
<clipPath id="clip0_124_10042">
<rect width="209" height="62" fill="white"/>
</clipPath>
</defs>
</svg>
