<svg width="85" height="87" viewBox="0 0 85 87" fill="none" xmlns="http://www.w3.org/2000/svg">
<path d="M22.8647 87.0003C22.8647 87.0003 28.9812 72.8626 29.1421 72.5008C29.2971 72.1331 29.166 71.2733 28.1227 71.214C26.8827 71.1428 22.8826 70.8937 18.7096 69.85C16.3191 69.251 13.6901 68.3793 11.1922 67.0806C7.75249 65.2896 3.98486 62.6685 1.54067 57.7998C-0.247763 54.2416 -1.11813 47.8903 2.56007 41.1773C4.891 36.9253 11.3949 28.0774 25.6905 21.8388C28.4983 20.6112 29.6548 20.2198 31.9738 19.4607C33.2078 19.0575 34.3763 19.6149 34.8293 20.3325C38.0306 25.3435 44.8803 36.1247 44.8803 36.1247C44.5226 36.2018 41.6075 36.8304 38.4599 38.0758C33.2019 40.1514 27.9021 43.7451 24.9572 47.7836C19.5859 55.1608 22.364 62.2889 29.464 65.3608C31.9738 66.446 33.5297 66.7307 35.1155 67.0213C39.3004 67.7863 44.2603 67.2229 45.3513 67.0628C46.5316 66.8908 47.1039 67.5135 47.3484 68.0591C47.5391 68.486 47.4497 68.9842 47.4318 69.168C47.247 71.1013 46.7641 75.5312 46.3468 79.4333C46.2336 80.5126 45.7149 81.3191 44.2007 81.6808C42.7342 82.0307 40.3019 82.6534 37.8577 83.2583C31.2107 84.9069 22.8707 86.9943 22.8707 86.9943" fill="#032183"/>
<path d="M62.1349 0C62.1349 0 56.0184 14.1377 55.8575 14.4994C55.7025 14.8671 55.8336 15.727 56.8769 15.7863C58.1169 15.8575 62.117 16.1065 66.29 17.1503C68.6805 17.7492 71.3095 18.621 73.8074 19.9197C77.2471 21.7106 81.0147 24.3318 83.4589 29.2005C85.2474 32.7587 86.1177 39.1099 82.4395 45.823C80.1086 50.075 73.6047 58.9229 59.3091 65.1615C56.5013 66.3891 55.3448 66.7805 53.0258 67.5395C51.7918 67.9428 50.6233 67.3853 50.1703 66.6678C46.969 61.6567 40.1193 50.8755 40.1193 50.8755C40.477 50.7985 43.3921 50.1698 46.5397 48.9245C51.7977 46.8489 57.0975 43.2552 60.0424 39.2167C65.4137 31.8395 62.6356 24.7113 55.5356 21.6395C53.0258 20.5542 51.4699 20.2696 49.8841 19.979C45.6992 19.214 40.7393 19.7774 39.6483 19.9375C38.468 20.1094 37.8957 19.4868 37.6512 18.9412C37.4605 18.5142 37.5499 18.0161 37.5678 17.8322C37.7526 15.899 38.2355 11.4691 38.6528 7.56699C38.766 6.48768 39.2847 5.68117 40.7989 5.31943C42.2654 4.96954 44.6977 4.34687 47.1418 3.74198C53.7889 2.09338 62.1289 0.00593024 62.1289 0.00593024" fill="#032183"/>
</svg>
