<svg width="5" height="183" viewBox="0 0 5 183" fill="none" xmlns="http://www.w3.org/2000/svg">
<rect opacity="0.3" y="99" width="3" height="5" rx="1.5" transform="rotate(-90 0 99)" fill="#134AFF"/>
<rect opacity="0.3" y="111" width="3" height="5" rx="1.5" transform="rotate(-90 0 111)" fill="#134AFF"/>
<rect opacity="0.3" y="87" width="3" height="5" rx="1.5" transform="rotate(-90 0 87)" fill="#134AFF"/>
<rect opacity="0.5" y="75" width="3" height="5" rx="1.5" transform="rotate(-90 0 75)" fill="#134AFF"/>
<rect opacity="0.5" y="63" width="3" height="5" rx="1.5" transform="rotate(-90 0 63)" fill="#134AFF"/>
<rect opacity="0.5" y="51" width="3" height="5" rx="1.5" transform="rotate(-90 0 51)" fill="#134AFF"/>
<rect opacity="0.15" y="183" width="3" height="5" rx="1.5" transform="rotate(-90 0 183)" fill="#134AFF"/>
<rect opacity="0.5" y="39" width="3" height="5" rx="1.5" transform="rotate(-90 0 39)" fill="#134AFF"/>
<rect opacity="0.15" y="171" width="3" height="5" rx="1.5" transform="rotate(-90 0 171)" fill="#134AFF"/>
<rect opacity="0.5" y="27" width="3" height="5" rx="1.5" transform="rotate(-90 0 27)" fill="#134AFF"/>
<rect opacity="0.3" y="159" width="3" height="5" rx="1.5" transform="rotate(-90 0 159)" fill="#134AFF"/>
<rect opacity="0.5" y="15" width="3" height="5" rx="1.5" transform="rotate(-90 0 15)" fill="#134AFF"/>
<rect opacity="0.3" y="147" width="3" height="5" rx="1.5" transform="rotate(-90 0 147)" fill="#134AFF"/>
<rect opacity="0.5" y="3" width="3" height="5" rx="1.5" transform="rotate(-90 0 3)" fill="#134AFF"/>
<rect opacity="0.3" y="135" width="3" height="5" rx="1.5" transform="rotate(-90 0 135)" fill="#134AFF"/>
<rect opacity="0.3" y="123" width="3" height="5" rx="1.5" transform="rotate(-90 0 123)" fill="#134AFF"/>
</svg>
