<svg width="375" height="556" viewBox="0 0 375 556" fill="none" xmlns="http://www.w3.org/2000/svg">
<g clip-path="url(#clip0_2001_12549)">
<line x1="47.5" y1="-171.5" x2="47.5" y2="727.5" stroke="#DCE4FF"/>
<line x1="117.5" y1="-171.5" x2="117.5" y2="727.5" stroke="#DCE4FF"/>
<line x1="187.5" y1="-171.5" x2="187.5" y2="727.5" stroke="#DCE4FF"/>
<line x1="257.5" y1="-171.5" x2="257.5" y2="727.5" stroke="#DCE4FF"/>
<line x1="327.5" y1="-171.5" x2="327.5" y2="727.5" stroke="#DCE4FF"/>
<line x1="375" y1="8.5" y2="8.5" stroke="#DCE4FF"/>
<line x1="375" y1="68.5" y2="68.5" stroke="#DCE4FF"/>
<line x1="375" y1="128.5" y2="128.5" stroke="#DCE4FF"/>
<line x1="375" y1="188.5" y2="188.5" stroke="#DCE4FF"/>
<line x1="375" y1="248.5" y2="248.5" stroke="#DCE4FF"/>
<line x1="375" y1="308.5" y2="308.5" stroke="#DCE4FF"/>
<line x1="375" y1="368.5" y2="368.5" stroke="#DCE4FF"/>
<line x1="375" y1="428.5" y2="428.5" stroke="#DCE4FF"/>
<line x1="375" y1="488.5" y2="488.5" stroke="#DCE4FF"/>
<line x1="375" y1="548.5" y2="548.5" stroke="#DCE4FF"/>
<rect x="154" y="35" width="521" height="155" transform="rotate(90 154 35)" fill="url(#paint0_linear_2001_12549)"/>
<rect x="191" y="556" width="521" height="184" transform="rotate(-90 191 556)" fill="url(#paint1_linear_2001_12549)"/>
<rect x="375" y="144" width="376" height="102" transform="rotate(-180 375 144)" fill="url(#paint2_linear_2001_12549)"/>
<rect y="337" width="375" height="219" fill="url(#paint3_linear_2001_12549)"/>
</g>
<defs>
<linearGradient id="paint0_linear_2001_12549" x1="365.461" y1="-106.195" x2="405.021" y2="195.325" gradientUnits="userSpaceOnUse">
<stop stop-color="white" stop-opacity="0"/>
<stop offset="1" stop-color="white"/>
</linearGradient>
<linearGradient id="paint1_linear_2001_12549" x1="402.461" y1="388.388" x2="457.826" y2="743.859" gradientUnits="userSpaceOnUse">
<stop stop-color="white" stop-opacity="0"/>
<stop offset="1" stop-color="white"/>
</linearGradient>
<linearGradient id="paint2_linear_2001_12549" x1="585.448" y1="144" x2="585.448" y2="246" gradientUnits="userSpaceOnUse">
<stop stop-color="white" stop-opacity="0"/>
<stop offset="1" stop-color="white"/>
</linearGradient>
<linearGradient id="paint3_linear_2001_12549" x1="209.888" y1="337" x2="209.888" y2="556" gradientUnits="userSpaceOnUse">
<stop stop-color="white" stop-opacity="0"/>
<stop offset="1" stop-color="white"/>
</linearGradient>
<clipPath id="clip0_2001_12549">
<rect width="375" height="556" fill="white"/>
</clipPath>
</defs>
</svg>
