<svg width="1439" height="479" viewBox="0 0 1439 479" fill="none" xmlns="http://www.w3.org/2000/svg">
<line x1="173.5" y1="-135" x2="173.5" y2="478" stroke="#BDCFF5"/>
<line x1="263.5" y1="-135" x2="263.5" y2="478" stroke="#BDCFF5"/>
<line x1="353.5" y1="-135" x2="353.5" y2="478" stroke="#BDCFF5"/>
<line x1="443.5" y1="-135" x2="443.5" y2="478" stroke="#BDCFF5"/>
<line x1="533.5" y1="-135" x2="533.5" y2="478" stroke="#BDCFF5"/>
<line x1="623.5" y1="-135" x2="623.5" y2="478" stroke="#BDCFF5"/>
<line x1="713.5" y1="-135" x2="713.5" y2="478" stroke="#BDCFF5"/>
<line x1="803.5" y1="-135" x2="803.5" y2="478" stroke="#BDCFF5"/>
<line x1="893.5" y1="-135" x2="893.5" y2="478" stroke="#BDCFF5"/>
<line x1="983.5" y1="-135" x2="983.5" y2="478" stroke="#BDCFF5"/>
<line x1="1073.5" y1="-135" x2="1073.5" y2="478" stroke="#BDCFF5"/>
<line x1="1163.5" y1="-135" x2="1163.5" y2="478" stroke="#BDCFF5"/>
<line x1="1253.5" y1="-135" x2="1253.5" y2="478" stroke="#BDCFF5"/>
<line x1="1343.5" y1="-135" x2="1343.5" y2="478" stroke="#BDCFF5"/>
<line x1="1433.5" y1="-135" x2="1433.5" y2="478" stroke="#BDCFF5"/>
<line x1="1633" y1="49.5" x2="-67" y2="49.5" stroke="#BDCFF5"/>
<line x1="1633" y1="128.5" x2="-67" y2="128.5" stroke="#BDCFF5"/>
<line x1="1633" y1="207.5" x2="-67" y2="207.5" stroke="#BDCFF5"/>
<line x1="1633" y1="286.5" x2="-67" y2="286.5" stroke="#BDCFF5"/>
<line x1="1633" y1="365.5" x2="-67" y2="365.5" stroke="#BDCFF5"/>
<line x1="1633" y1="444.5" x2="-67" y2="444.5" stroke="#BDCFF5"/>
</svg>
