<svg width="390" height="83" viewBox="0 0 390 83" fill="none" xmlns="http://www.w3.org/2000/svg">
<circle cx="116" cy="17" r="12" fill="#134AFF"/>
<circle cx="116" cy="69" r="12" fill="#134AFF"/>
<circle cx="116" cy="42" r="12" fill="#134AFF"/>
<circle cx="168" cy="15" r="12" fill="#134AFF"/>
<circle cx="168" cy="69" r="12" fill="#134AFF"/>
<circle cx="298" cy="15" r="12" fill="#134AFF"/>
<circle cx="298" cy="69" r="12" fill="#F0F0FF"/>
<circle cx="168" cy="42" r="12" fill="#134AFF"/>
<circle cx="298" cy="42" r="12" fill="#F0F0FF"/>
<circle cx="220" cy="15" r="12" fill="#134AFF"/>
<circle cx="220" cy="69" r="12" fill="#134AFF"/>
<circle cx="350" cy="15" r="12" fill="#F0F0FF"/>
<circle cx="350" cy="69" r="12" fill="#F0F0FF"/>
<circle cx="246" cy="15" r="12" fill="#134AFF"/>
<circle cx="246" cy="69" r="12" fill="#134AFF"/>
<circle cx="376" cy="15" r="12" fill="#F0F0FF"/>
<circle cx="376" cy="69" r="12" fill="#F0F0FF"/>
<circle cx="220" cy="42" r="12" fill="#134AFF"/>
<circle cx="350" cy="42" r="12" fill="#F0F0FF"/>
<circle cx="246" cy="42" r="12" fill="#134AFF"/>
<circle cx="376" cy="42" r="12" fill="#F0F0FF"/>
<circle cx="64" cy="15" r="12" fill="#134AFF"/>
<circle cx="64" cy="69" r="12" fill="#134AFF"/>
<circle cx="64" cy="42" r="12" fill="#134AFF"/>
<circle cx="90" cy="15" r="12" fill="#134AFF"/>
<circle cx="90" cy="69" r="12" fill="#134AFF"/>
<circle cx="90" cy="42" r="12" fill="#134AFF"/>
<circle cx="142" cy="15" r="12" fill="#134AFF"/>
<circle cx="142" cy="69" r="12" fill="#134AFF"/>
<circle cx="272" cy="15" r="12" fill="#134AFF"/>
<circle cx="272" cy="69" r="12" fill="#134AFF"/>
<circle cx="142" cy="42" r="12" fill="#134AFF"/>
<circle cx="272" cy="42" r="12" fill="#134AFF"/>
<circle cx="194" cy="15" r="12" fill="#134AFF"/>
<circle cx="194" cy="69" r="12" fill="#134AFF"/>
<circle cx="324" cy="15" r="12" fill="#F0F0FF"/>
<circle cx="324" cy="69" r="12" fill="#F0F0FF"/>
<circle cx="194" cy="42" r="12" fill="#134AFF"/>
<circle cx="324" cy="42" r="12" fill="#F0F0FF"/>
<circle cx="38" cy="15" r="12" fill="#134AFF"/>
<circle cx="38" cy="69" r="12" fill="#134AFF"/>
<circle cx="12" cy="15" r="12" fill="#134AFF"/>
<circle cx="12" cy="69" r="12" fill="#134AFF"/>
<circle cx="12" cy="42" r="12" fill="#134AFF"/>
<circle cx="38" cy="42" r="12" fill="#134AFF"/>
</svg>
