<svg width="64" height="65" viewBox="0 0 64 65" fill="none" xmlns="http://www.w3.org/2000/svg">
<path d="M32 64.5C49.6731 64.5 64 50.1731 64 32.5C64 14.8269 49.6731 0.5 32 0.5C14.3269 0.5 0 14.8269 0 32.5C0 50.1731 14.3269 64.5 32 64.5Z" fill="#EEEEEE"/>
<path d="M31.6879 40.8943C39.5346 51.591 47.2136 37.9087 47.2023 29.6806C47.1891 19.9526 37.329 14.5156 31.6815 14.5156C22.6169 14.5155 13.9844 22.0069 13.9844 32.257C13.9844 43.6499 23.8798 49.9606 31.6815 49.9606C29.916 49.7064 24.0325 48.4458 23.9536 34.8944C23.9002 25.7292 26.9433 22.0674 31.6688 23.6782C31.7746 23.7174 36.881 25.7318 36.881 32.3122C36.881 38.8648 31.6879 40.8943 31.6879 40.8943Z" fill="url(#paint0_linear_2036_3198)"/>
<path d="M31.677 23.6694C26.4922 21.8823 20.1406 26.1557 20.1406 34.7149C20.1406 48.6907 30.4972 49.9592 31.7527 49.9592C40.8173 49.9592 49.4498 42.4676 49.4498 32.2178C49.4498 20.8248 39.5543 14.5142 31.7527 14.5142C33.9135 14.2149 43.3993 16.8528 43.3993 29.8174C43.3993 38.2721 36.3164 42.8748 31.7096 40.9083C31.6037 40.8691 26.4971 38.8547 26.4971 32.2743C26.4971 25.7216 31.677 23.6694 31.677 23.6694Z" fill="url(#paint1_linear_2036_3198)"/>
<defs>
<linearGradient id="paint0_linear_2036_3198" x1="19.2298" y1="19.7391" x2="45.7235" y2="43.0078" gradientUnits="userSpaceOnUse">
<stop/>
<stop offset="1" stop-color="white"/>
</linearGradient>
<linearGradient id="paint1_linear_2036_3198" x1="44.214" y1="44.7232" x2="15.5384" y2="25.141" gradientUnits="userSpaceOnUse">
<stop/>
<stop offset="1" stop-color="white"/>
</linearGradient>
</defs>
</svg>
