<svg width="39" height="39" viewBox="0 0 39 39" fill="none" xmlns="http://www.w3.org/2000/svg">
<path d="M19.5 2C10.3871 2 3 9.57336 3 18.9161C3 26.4328 7.78582 32.7967 14.4015 35H24.5985C31.2142 32.7967 36 26.4328 36 18.9161C36 9.57336 28.6129 2 19.5 2Z" fill="#CC8B09"/>
<path opacity="0.05" d="M25.0071 33.9964L24.9988 29.1648C24.9988 28.3823 24.8155 27.6181 24.4638 26.9256C29.1646 25.9814 31.4521 23.2023 31.4521 18.4448C31.4521 16.5656 30.898 14.9064 29.8055 13.5114C29.8888 13.2473 29.9505 12.9739 29.9888 12.6939C30.1455 11.5531 29.9696 10.8073 29.828 10.2073L29.8055 10.1106C29.6505 9.44725 29.4646 8.97392 29.4571 8.95392L29.3646 8.71892L29.2721 8.48392L29.0205 8.45725L28.768 8.43059C28.768 8.43059 28.6021 8.41309 28.3505 8.41309C28.0013 8.41309 27.4838 8.44809 26.9946 8.61392L26.8313 8.66892C26.2146 8.87642 25.6321 9.07309 24.8171 9.55975C24.5788 9.70225 24.318 9.86475 24.0388 10.0464C22.7771 9.73392 21.4196 9.57475 19.9988 9.57475C18.5638 9.57475 17.1946 9.73475 15.9246 10.0506C15.6421 9.86725 15.3796 9.70309 15.1396 9.55975C14.3246 9.07309 13.7421 8.87725 13.1255 8.66892L12.9621 8.61392C12.4746 8.44809 11.9563 8.41309 11.6071 8.41309C11.3555 8.41309 11.1896 8.43059 11.1896 8.43059L10.938 8.45725L10.688 8.48309L10.5946 8.71725L10.5005 8.95309C10.4921 8.97475 10.3063 9.44809 10.1513 10.1123L10.1288 10.2081C9.98713 10.8073 9.8113 11.5539 9.96796 12.6939C10.008 12.9823 10.0721 13.2648 10.1596 13.5364C9.0888 14.9248 8.5463 16.5748 8.5463 18.4448C8.5463 23.1906 10.8363 25.9681 15.5438 26.9198C15.3821 27.2431 15.2563 27.5848 15.1671 27.9398C15.003 27.9956 14.8521 28.0331 14.7188 28.0539C14.5205 28.0839 14.313 28.0989 14.103 28.0989C13.5313 28.0989 13.0821 27.9873 12.9071 27.8831C12.6463 27.7281 12.1805 27.2773 11.7288 26.6181C11.343 26.0556 10.7413 25.3198 10.0688 25.0123C9.48713 24.7464 8.8713 24.5939 8.37796 24.5939C8.26296 24.5939 8.15713 24.6023 8.06463 24.6173C7.6338 24.6856 7.2738 24.9223 7.07796 25.2673C6.9088 25.5648 6.88213 25.9114 7.00463 26.2181C7.18713 26.6748 7.7138 27.0389 8.1238 27.2639C8.32546 27.3748 8.7613 27.7798 9.01546 28.1881C9.2063 28.4948 9.29463 28.7131 9.41713 29.0148C9.48963 29.1939 9.56963 29.3889 9.67796 29.6248C10.0696 30.4764 11.2921 31.2281 11.4305 31.3106C12.1021 31.7131 13.2313 31.8423 14.0613 31.8798L14.1638 31.8823H14.1646C14.3646 31.8823 14.6396 31.8631 15.0013 31.8231V34.0006C15.003 34.4414 14.5538 34.5414 13.9596 34.5323L14.4155 34.6856C16.1613 35.3098 18.0363 35.6664 19.9988 35.6664C21.9613 35.6664 23.8363 35.3098 25.5846 34.6864L26.1705 34.4681C25.578 34.4481 25.0121 34.3514 25.0071 33.9964Z" fill="black"/>
<path opacity="0.07" d="M25.6494 34.6613C25.3111 34.7005 24.5819 34.5705 24.5819 33.9988V29.1622C24.5819 28.2505 24.3086 27.3697 23.8019 26.6188C28.7311 25.8213 31.0344 23.208 31.0344 18.4422C31.0344 16.578 30.4628 14.9471 29.3353 13.5905C29.4494 13.2863 29.5294 12.9655 29.5753 12.6346C29.7211 11.5713 29.5619 10.8963 29.4219 10.3005L29.3994 10.2038C29.2511 9.56965 29.0761 9.12298 29.0686 9.10465L28.9761 8.86965L28.7236 8.84298C28.7236 8.84298 28.5753 8.82715 28.3494 8.82715C28.0319 8.82715 27.5628 8.85798 27.1278 9.00632L26.9644 9.06132C26.3694 9.26215 25.8069 9.45132 25.0303 9.91465C24.7536 10.0796 24.4453 10.2738 24.1128 10.493C22.8353 10.1588 21.4528 9.98882 19.9986 9.98882C18.5303 9.98882 17.1361 10.1596 15.8494 10.4971C15.5136 10.2763 15.2036 10.0813 14.9253 9.91465C14.1486 9.45132 13.5861 9.26132 12.9911 9.06132L12.8278 9.00632C12.3936 8.85882 11.9236 8.82715 11.6061 8.82715C11.3803 8.82715 11.2319 8.84298 11.2319 8.84298L10.9803 8.86965L10.8861 9.10548C10.8786 9.12382 10.7036 9.57048 10.5553 10.2046L10.5328 10.3013C10.3919 10.8971 10.2328 11.5713 10.3794 12.6346C10.4261 12.9738 10.5094 13.3021 10.6278 13.613C9.52194 14.963 8.96194 16.5855 8.96194 18.4422C8.96194 23.1947 11.2669 25.8071 16.2003 26.6138C15.8711 27.1055 15.6411 27.6597 15.5228 28.2505C15.2478 28.3588 14.9986 28.4305 14.7803 28.4638C14.5611 28.4972 14.3328 28.5138 14.1019 28.5138C13.5269 28.5138 12.9744 28.4063 12.6936 28.2397C12.3269 28.0222 11.8128 27.478 11.3836 26.8521C11.0919 26.4272 10.5111 25.6713 9.89361 25.3897C9.36444 25.148 8.81194 25.0088 8.37611 25.0088C8.28444 25.0088 8.20111 25.0155 8.12777 25.0272C7.82277 25.0755 7.57111 25.2372 7.43777 25.4722C7.33111 25.6588 7.31361 25.8747 7.38861 26.0622C7.53777 26.4355 8.09027 26.7705 8.32111 26.8972C8.60027 27.0505 9.08694 27.5172 9.36611 27.9672C9.57527 28.3038 9.67444 28.548 9.80027 28.8563C9.87111 29.0305 9.94861 29.2205 10.0536 29.4496C10.3294 30.0488 11.1811 30.6763 11.6411 30.9522C12.2694 31.3288 13.4361 31.4338 14.0761 31.4622L14.1686 31.4638C14.4178 31.4638 14.8353 31.4263 15.4144 31.3513V33.9988C15.4144 34.648 14.5886 34.6738 14.3861 34.6738C14.3603 34.6738 14.8053 34.8272 14.8053 34.8272C16.4411 35.3638 18.1836 35.6638 19.9986 35.6638C21.8136 35.6638 23.5561 35.3638 25.1911 34.828C25.1911 34.828 25.6753 34.658 25.6494 34.6613Z" fill="black"/>
<path d="M31 18.0522C31 16.1578 30.3443 14.5865 29.2248 13.3547C29.3464 13.0882 29.473 12.7307 29.5359 12.2812C29.6801 11.2561 29.5099 10.6411 29.3657 10.0391C29.2214 9.4372 29.0512 9.01404 29.0512 9.01404C29.0512 9.01404 28.2781 8.93695 27.6232 9.15509C26.9683 9.37323 26.4048 9.53971 25.5922 10.0137C25.2123 10.2351 24.83 10.4779 24.5272 10.6747C23.2334 10.3237 21.8104 10.1433 20.3135 10.1433C18.8033 10.1433 17.3677 10.3245 16.0646 10.678C15.7611 10.4803 15.3762 10.236 14.9938 10.0129C14.1812 9.53889 13.6177 9.37241 12.9628 9.15427C12.3079 8.93613 11.5348 9.01322 11.5348 9.01322C11.5348 9.01322 11.3646 9.43638 11.2203 10.0383C11.0761 10.6403 10.9059 11.2553 11.0501 12.2804C11.1147 12.7413 11.2455 13.1054 11.3704 13.3736C10.2719 14.598 9.62793 16.1594 9.62793 18.0514C9.62793 22.9579 12.3381 25.1976 17.2763 25.7888C16.7002 26.3842 16.3137 27.1469 16.1837 27.9957C15.8592 28.1351 15.4852 28.2663 15.1254 28.3188C14.1997 28.4557 13.2211 28.3188 12.7498 28.0457C12.2786 27.7726 11.7193 27.1575 11.3 26.5589C10.9461 26.0537 10.4354 25.4674 9.97257 25.2607C9.36127 24.9876 8.76674 24.8851 8.43551 24.9359C8.10345 24.9876 7.94664 25.2263 8.01624 25.3977C8.08584 25.5682 8.4179 25.8249 8.76758 26.0127C9.11725 26.2005 9.65895 26.7131 9.97341 27.2084C10.3239 27.7611 10.3927 28.0801 10.6895 28.7116C10.8983 29.1561 11.6128 29.7113 12.1218 30.0098C12.5587 30.2665 13.4316 30.4125 14.3758 30.4543C14.702 30.469 15.4726 30.3756 16.1225 30.2853V33.3607C16.1225 33.8847 15.6319 34.2832 15.1238 34.1914C16.7547 34.7277 18.4964 35 20.3135 35C22.1298 35 23.8715 34.7277 25.5042 34.193C24.9968 34.2841 24.5063 33.8855 24.5063 33.3615V28.6017C24.5063 27.5118 24.0644 26.5269 23.355 25.7929C28.2571 25.2172 31 23.0309 31 18.0522ZM9.61283 25.7552C9.4837 25.6904 9.4141 25.5707 9.4577 25.4862C9.50131 25.4018 9.64218 25.3862 9.77132 25.451C9.90045 25.5157 9.97005 25.6355 9.92645 25.7199C9.88285 25.8044 9.74197 25.82 9.61283 25.7552ZM10.6292 26.3744C10.5612 26.4465 10.4153 26.4236 10.303 26.3235C10.1906 26.2235 10.1545 26.0832 10.2225 26.0111C10.2904 25.9389 10.4363 25.9619 10.5487 26.0619C10.661 26.162 10.6971 26.3022 10.6292 26.3744ZM11.2614 27.3995C11.1759 27.4585 11.0308 27.4036 10.9377 27.2765C10.8447 27.1493 10.8388 26.9976 10.9243 26.9386C11.0099 26.8795 11.1549 26.9345 11.248 27.0616C11.3402 27.1887 11.3469 27.3404 11.2614 27.3995ZM12.1696 28.1712C12.1117 28.263 11.9474 28.2671 11.8031 28.181C11.6589 28.0949 11.5885 27.9506 11.6463 27.8587C11.7042 27.7669 11.8685 27.7628 12.0128 27.8489C12.157 27.935 12.2274 28.0793 12.1696 28.1712ZM13.0282 28.9265C12.8496 28.9051 12.7171 28.7961 12.7322 28.6829C12.7465 28.5697 12.9033 28.4959 13.0811 28.5172C13.2597 28.5386 13.3922 28.6476 13.3771 28.7608C13.3628 28.8732 13.2068 28.9478 13.0282 28.9265ZM14.4127 29.1225C14.2223 29.1118 14.0739 29.0052 14.0815 28.8855C14.089 28.7657 14.2492 28.6763 14.4395 28.687C14.6299 28.6977 14.7783 28.8043 14.7707 28.924C14.7632 29.0446 14.603 29.1331 14.4127 29.1225ZM15.7191 28.9945C15.5162 28.9945 15.3519 28.8912 15.3519 28.7641C15.3519 28.637 15.5162 28.5336 15.7191 28.5336C15.9221 28.5336 16.0864 28.637 16.0864 28.7641C16.0864 28.8912 15.9212 28.9945 15.7191 28.9945Z" fill="#1A1D1C"/>
</svg>
