<svg width="24" height="24" viewBox="0 0 24 24" fill="none" xmlns="http://www.w3.org/2000/svg">
<path d="M5.63603 7.05003C6.02656 7.44056 6.65972 7.44056 7.05025 7.05003C7.44077 6.65951 7.44077 6.02634 7.05025 5.63582C6.65972 5.24529 6.02656 5.24529 5.63603 5.63582C5.24551 6.02634 5.24551 6.65951 5.63603 7.05003Z" fill="white"/>
<path d="M18.4064 16.9921L9.83625 8.42201C9.46916 8.05491 8.87398 8.05491 8.50689 8.422L8.42204 8.50686C8.05494 8.87395 8.05494 9.46913 8.42204 9.83622L16.9922 18.4064C17.3593 18.7735 17.9544 18.7735 18.3215 18.4064L18.4064 18.3215C18.7735 17.9544 18.7735 17.3592 18.4064 16.9921Z" fill="white"/>
<path d="M16.991 5.59349L5.59242 16.9921C5.22532 17.3592 5.22532 17.9543 5.59242 18.3214L5.67727 18.4063C6.04436 18.7734 6.63954 18.7734 7.00663 18.4063L18.4052 7.0077C18.7723 6.64061 18.7723 6.04543 18.4052 5.67834L18.3203 5.59349C17.9533 5.22639 17.3581 5.22639 16.991 5.59349Z" fill="white"/>
</svg>
