<svg width="64" height="64" viewBox="0 0 64 64" fill="none" xmlns="http://www.w3.org/2000/svg">
<circle cx="32" cy="32" r="32" fill="url(#paint0_linear_677_12987)"/>
<path d="M50.3624 35.6751C50.1402 35.0003 49.5582 34.5303 48.8055 34.4175C48.4505 34.3644 48.044 34.387 47.563 34.4864C46.7246 34.6599 46.1026 34.726 45.6487 34.7387C47.3621 31.8378 48.7554 28.5298 49.5574 25.4158C50.8544 20.3806 50.1614 18.0867 49.3515 17.0491C47.2081 14.3028 44.081 12.8275 40.3084 12.7823C38.2959 12.7577 36.5292 13.1561 35.6076 13.4426C34.7495 13.2908 33.8268 13.206 32.8587 13.1904C31.0439 13.1613 29.4405 13.558 28.0704 14.3734C27.3119 14.1162 26.0945 13.7536 24.6887 13.5222C21.3822 12.9779 18.7173 13.402 16.7681 14.7829C14.4077 16.4547 13.3135 19.3595 13.5159 23.4166C13.5802 24.7047 14.2987 28.6238 15.4301 32.3406C16.0803 34.477 16.7737 36.2511 17.491 37.6141C18.5081 39.5468 19.5965 40.6849 20.8184 41.0937C21.5032 41.3225 22.7475 41.4827 24.0562 40.3897C24.2221 40.5912 24.4435 40.7913 24.7372 40.9773C25.1102 41.2132 25.5663 41.4059 26.0219 41.5202C27.6635 41.9317 29.2012 41.8288 30.5131 41.2519C30.5212 41.4859 30.5274 41.7094 30.5327 41.9025C30.5413 42.2156 30.55 42.5226 30.5615 42.8097C30.6392 44.751 30.7709 46.2604 31.1612 47.3166C31.1826 47.3746 31.2114 47.4632 31.2418 47.5571C31.4365 48.1548 31.762 49.1555 32.5903 49.9392C33.448 50.7511 34.4854 51 35.4356 51C35.9121 51 36.3668 50.9373 36.7656 50.8517C38.1871 50.5461 39.8015 50.0807 40.9694 48.4132C42.0736 46.8368 42.6103 44.4626 42.7074 40.7215C42.72 40.6157 42.7316 40.5147 42.7427 40.4184L42.7659 40.2207L43.026 40.2437L43.0931 40.2482C44.5409 40.3144 46.3112 40.0065 47.3984 39.5001C48.2576 39.1003 51.0106 37.6428 50.3624 35.6751Z" fill="white"/>
<path d="M47.8907 36.0567C43.5857 36.9472 43.2897 35.4857 43.2897 35.4857C47.8349 28.7225 49.7351 20.1377 48.0955 18.0366C43.622 12.3052 35.8784 15.0158 35.7492 15.0861L35.7076 15.0936C34.857 14.9165 33.9053 14.8111 32.8354 14.7936C30.8876 14.7616 29.41 15.3057 28.2887 16.1583C28.2887 16.1583 14.4749 10.4517 15.1174 23.3353C15.2541 26.0761 19.0351 44.0739 23.5447 38.6377C25.193 36.6498 26.7857 34.9691 26.7857 34.9691C27.5767 35.496 28.5236 35.7648 29.5164 35.6683L29.5935 35.6027C29.5695 35.8494 29.5805 36.0908 29.6244 36.3766C28.4626 37.6782 28.804 37.9067 26.4816 38.3862C24.1315 38.8718 25.512 39.7364 26.4134 39.9625C27.5062 40.2364 30.0341 40.6246 31.7422 38.2268L31.6742 38.5004C32.1293 38.866 32.4489 40.8784 32.3954 42.7029C32.3418 44.5272 32.3061 45.7797 32.6646 46.758C33.0235 47.7364 33.3808 49.9376 36.434 49.2817C38.985 48.7334 40.307 47.3128 40.491 44.943C40.6214 43.2584 40.9169 43.5075 40.9354 42.0012L41.1724 41.2882C41.4455 39.0045 41.2158 38.2677 42.7874 38.6104L43.1695 38.6441C44.3261 38.6968 45.8402 38.4574 46.7289 38.0433C48.6422 37.1529 49.7771 35.6661 47.8904 36.0567H47.8907Z" fill="#336791"/>
<path d="M29.106 24.5702C28.7181 24.5161 28.3668 24.5662 28.189 24.7011C28.0891 24.7771 28.0582 24.865 28.0498 24.9256C28.0275 25.0859 28.1395 25.2633 28.2084 25.3548C28.4032 25.6137 28.6878 25.7917 28.9695 25.8309C29.0103 25.8367 29.051 25.8393 29.0914 25.8393C29.5611 25.8393 29.9883 25.4725 30.0259 25.2018C30.073 24.8627 29.5821 24.6367 29.106 24.5704V24.5702ZM41.9578 24.581C41.9208 24.3152 41.4492 24.2394 41.0016 24.3018C40.5546 24.3642 40.1212 24.5666 40.1574 24.8329C40.1863 25.0401 40.5594 25.3937 41.0009 25.3937C41.0382 25.3937 41.0758 25.3912 41.1138 25.3858C41.4085 25.3449 41.6247 25.1572 41.7275 25.0491C41.8839 24.8842 41.9745 24.7004 41.9578 24.581Z" fill="white"/>
<path d="M49.3226 35.9558C49.1585 35.458 48.6301 35.2979 47.7523 35.4797C45.146 36.0191 44.2127 35.6454 43.9062 35.4191C45.9321 32.3245 47.5986 28.5835 48.4977 25.0933C48.9235 23.44 49.1588 21.9046 49.178 20.6531C49.1993 19.2795 48.966 18.2701 48.4848 17.6535C46.5448 15.1677 43.6975 13.8343 40.2509 13.7977C37.8814 13.771 35.8795 14.3791 35.4914 14.5501C34.6741 14.3463 33.7832 14.2211 32.8132 14.2052C31.0344 14.1763 29.4969 14.6033 28.2239 15.4738C27.6709 15.2674 26.2419 14.7755 24.4943 14.4932C21.473 14.0054 19.0721 14.375 17.3588 15.5921C15.3145 17.0445 14.3707 19.6408 14.5535 23.3085C14.615 24.5425 15.3162 28.3385 16.4227 31.9739C17.8792 36.7588 19.4625 39.4675 21.1284 40.0247C21.3234 40.0899 21.5482 40.1355 21.7961 40.1355C22.4038 40.1355 23.1488 39.8609 23.924 38.9264C24.8695 37.789 25.8475 36.6793 26.8569 35.5986C27.5117 35.951 28.2311 36.1478 28.9669 36.1676C28.9684 36.1869 28.9703 36.2062 28.972 36.2253C28.8453 36.3768 28.7213 36.5304 28.6 36.6862C28.0902 37.3352 27.984 37.4703 26.343 37.8091C25.8761 37.9058 24.6363 38.162 24.6181 39.0335C24.5984 39.9857 26.0837 40.3856 26.2529 40.428C26.8427 40.576 27.4108 40.649 27.9526 40.649C29.2703 40.649 30.43 40.2147 31.3567 39.3744C31.3281 42.769 31.4693 46.1139 31.8758 47.1331C32.2087 47.9674 33.0219 50.0064 35.5907 50.0062C35.9676 50.0062 36.3825 49.9623 36.8389 49.8641C39.5199 49.2879 40.6842 48.0997 41.1345 45.4801C41.3755 44.08 41.7891 40.737 41.9836 38.9438C42.3941 39.0722 42.9226 39.131 43.494 39.1309C44.6856 39.1309 46.0606 38.877 46.9229 38.4756C47.8916 38.0245 49.6396 36.9176 49.3226 35.9558ZM42.9381 23.8383C42.9293 24.3677 42.8566 24.8483 42.7796 25.35C42.6967 25.8895 42.611 26.4473 42.5894 27.1245C42.5681 27.7835 42.6502 28.4686 42.7295 29.1312C42.8899 30.4695 43.0545 31.8473 42.4174 33.2069C42.3116 33.0188 42.2173 32.8245 42.1352 32.6249C42.056 32.4325 41.884 32.1233 41.6459 31.6954C40.7196 30.0296 38.5505 26.1287 39.6609 24.5369C39.9917 24.0632 40.8311 23.576 42.9381 23.8383ZM40.3841 14.8697C43.4723 14.9381 45.9151 16.0965 47.6446 18.3127C48.9712 20.0126 47.5105 27.7475 43.2818 34.4203C43.2392 34.3661 43.1965 34.3121 43.1535 34.2582L43.1 34.1911C44.1927 32.3815 43.979 30.591 43.7888 29.0036C43.7107 28.3522 43.6368 27.7369 43.6557 27.1589C43.6751 26.5463 43.7558 26.0209 43.834 25.5128C43.93 24.8868 44.0277 24.2389 44.0008 23.4753C44.0209 23.3952 44.029 23.3005 44.0184 23.1882C43.9497 22.4559 43.1159 20.2642 41.4165 18.2805C40.4869 17.1955 39.1312 15.9813 37.2803 15.1623C38.0764 14.9968 39.1651 14.8425 40.3841 14.8697ZM23.1037 38.2424C22.2496 39.2721 21.6599 39.0747 21.4659 39.01C20.2022 38.5873 18.7359 35.9089 17.4431 31.6617C16.3244 27.9867 15.6707 24.2912 15.6189 23.2549C15.4556 19.9777 16.2479 17.6937 17.9738 16.4662C20.7826 14.4689 25.4005 15.6644 27.2561 16.2707C27.2294 16.2971 27.2017 16.3218 27.1753 16.3487C24.1303 19.4323 24.2025 24.7008 24.21 25.0229C24.2097 25.1472 24.2202 25.3231 24.2344 25.5651C24.2868 26.4512 24.3843 28.1005 24.1238 29.9682C23.8817 31.7038 24.4153 33.4025 25.5874 34.6289C25.7077 34.7545 25.8341 34.8741 25.9662 34.9872C25.4445 35.5475 24.3106 36.7865 23.1037 38.2424ZM26.3576 33.8888C25.4129 32.9003 24.9839 31.5254 25.1803 30.1162C25.4553 28.1433 25.3539 26.425 25.2993 25.5018C25.2916 25.3726 25.2848 25.2594 25.2809 25.1701C25.7257 24.7746 27.7872 23.667 29.2573 24.0048C29.9281 24.1588 30.3369 24.6169 30.5068 25.4048C31.3863 29.4841 30.6232 31.1843 30.01 32.5506C29.8837 32.8321 29.7642 33.0981 29.6623 33.3733L29.5833 33.5861C29.3832 34.1241 29.1971 34.6243 29.0817 35.0992C28.0774 35.0963 27.1005 34.6661 26.3576 33.8886V33.8888ZM26.5118 39.3901C26.2185 39.3167 25.9547 39.1891 25.8 39.0833C25.9293 39.0223 26.1593 38.9393 26.5582 38.8568C28.4888 38.4584 28.787 38.1771 29.4381 37.3481C29.5873 37.1579 29.7566 36.9425 29.9909 36.6801L29.9912 36.6798C30.3402 36.2879 30.4999 36.3544 30.7894 36.4748C31.024 36.5721 31.2526 36.8671 31.3452 37.1916C31.3891 37.3449 31.4383 37.6358 31.2772 37.8622C29.9171 39.7719 27.9351 39.7473 26.5118 39.3901ZM36.6154 48.8182C34.2536 49.3256 33.4174 48.1172 32.8663 46.7358C32.5106 45.844 32.3358 41.8223 32.4598 37.381C32.4614 37.322 32.453 37.2649 32.4368 37.2112C32.4223 37.1052 32.4003 37.0003 32.3708 36.8974C32.1864 36.2512 31.7369 35.7106 31.1977 35.4865C30.9835 35.3975 30.5903 35.2342 30.1179 35.3554C30.2186 34.9391 30.3933 34.469 30.5828 33.9599L30.6623 33.7458C30.7517 33.5044 30.8641 33.2543 30.9828 32.9896C31.6245 31.5601 32.5033 29.6021 31.5495 25.1788C31.1922 23.522 29.9992 22.7129 28.1906 22.9009C27.1064 23.0134 26.1144 23.4521 25.6196 23.7036C25.5132 23.7576 25.416 23.8099 25.3251 23.8607C25.4632 22.1914 25.9849 19.0718 27.9364 17.0979C29.1652 15.8554 30.8017 15.2417 32.7955 15.2748C36.7241 15.3393 39.2434 17.361 40.6652 19.0458C41.8904 20.4975 42.5538 21.9599 42.8186 22.7486C40.8275 22.5456 39.4733 22.9397 38.7869 23.9238C37.2934 26.0645 39.6039 30.2194 40.7143 32.2163C40.9179 32.5823 41.0937 32.8985 41.149 33.033C41.5106 33.9117 41.9787 34.4984 42.3205 34.9266C42.4253 35.0579 42.5269 35.1852 42.6042 35.2963C42.0011 35.4707 40.9179 35.8735 41.0167 37.8869C40.937 38.8972 40.3709 43.6272 40.0833 45.2983C39.7036 47.5061 38.8934 48.3284 36.6154 48.8183V48.8182ZM46.4737 37.5054C45.8571 37.7924 44.8251 38.0077 43.8449 38.054C42.7621 38.1048 42.2109 37.9323 42.0812 37.8262C42.0204 36.5715 42.486 36.4404 42.9789 36.3017C43.0564 36.2799 43.1319 36.2586 43.2049 36.233C43.2502 36.27 43.2999 36.3068 43.3543 36.3428C44.2245 36.9187 45.7767 36.9809 47.9682 36.5272L47.9922 36.5225C47.6966 36.7996 47.1908 37.1714 46.4737 37.5054Z" fill="white"/>
<defs>
<linearGradient id="paint0_linear_677_12987" x1="32" y1="0" x2="32" y2="64" gradientUnits="userSpaceOnUse">
<stop stop-color="#2A56FF"/>
<stop offset="1" stop-color="#1120D5"/>
</linearGradient>
</defs>
</svg>
