<svg width="25" height="25" viewBox="0 0 25 25" fill="none" xmlns="http://www.w3.org/2000/svg">
<path fill-rule="evenodd" clip-rule="evenodd" d="M11.6199 4.58203H6.87118V6.16488H5.28833V10.9137H6.87118V12.4963H11.6199V10.9134H6.87125V6.16496H11.6199V4.58203ZM11.6217 6.16488H13.2047V10.9137H11.6217V6.16488ZM2.91406 15.6619H4.49691V14.0791H13.9945V15.662H4.49699V18.8276H13.9945V20.4106H4.49699V20.4107H2.91406V15.6619ZM15.5789 15.6619H13.996V20.4107H15.5789V15.6619ZM14.7854 4.58203H17.9512V6.16496H14.7854V4.58203ZM17.9512 10.9134H14.7854V12.4963H17.9512V10.9134ZM17.9531 6.16488H19.5361V10.9137H17.9531V6.16488ZM21.9103 15.6619H20.3274V18.8276H17.1597V20.4106H21.9084V18.8278H21.9103V15.6619ZM17.1597 14.0791H20.3255V15.662H17.1597V14.0791Z" fill="#134AFF"/>
</svg>
