<svg width="39" height="39" viewBox="0 0 39 39" fill="none" xmlns="http://www.w3.org/2000/svg">
<path d="M38.1247 29.9C37.7357 32 36.0823 33.6 34.0399 33.9C30.8304 34.4 25.4813 35 19.4514 35C13.5187 35 8.16958 34.4 4.86284 33.9C2.82045 33.6 1.16708 32 0.778055 29.9C0.389028 27.6 0 24.2 0 20C0 15.8 0.389028 12.4 0.778055 10.1C1.16708 8 2.82045 6.4 4.86284 6.1C8.07232 5.6 13.4214 5 19.4514 5C25.4813 5 30.7332 5.6 34.0399 6.1C36.0823 6.4 37.7357 8 38.1247 10.1C38.5137 12.4 39 15.8 39 20C38.9027 24.2 38.5137 27.6 38.1247 29.9Z" fill="#FF3D00"/>
<path d="M14 27V13L25 20L14 27Z" fill="white"/>
</svg>
