<svg width="75" height="75" viewBox="0 0 75 75" fill="none" xmlns="http://www.w3.org/2000/svg">
<rect width="75" height="75" rx="37" fill="white"/>
<path d="M24.7197 64.0001C24.7197 64.0001 28.3898 55.3876 28.4864 55.1673C28.5794 54.9433 28.5007 54.4195 27.8747 54.3833C27.1307 54.34 24.7304 54.1883 22.2265 53.5524C20.7921 53.1876 19.2146 52.6565 17.7158 51.8653C15.6518 50.7743 13.3911 49.1775 11.9245 46.2116C10.8513 44.044 10.3291 40.1749 12.5361 36.0854C13.9348 33.4952 17.8374 28.1051 26.4152 24.3047C28.1 23.5569 28.794 23.3184 30.1855 22.856C30.9259 22.6103 31.6271 22.9499 31.8989 23.3871C33.8198 26.4397 37.9299 33.0075 37.9299 33.0075C37.7153 33.0544 35.9661 33.4374 34.0774 34.196C30.9224 35.4604 27.7423 37.6497 25.9753 40.1099C22.7523 44.604 24.4192 48.9463 28.6795 50.8177C30.1855 51.4788 31.1191 51.6522 32.0706 51.8292C34.5817 52.2952 37.5579 51.952 38.2125 51.8545C38.9207 51.7497 39.2641 52.1291 39.4108 52.4614C39.5253 52.7215 39.4716 53.025 39.4609 53.137C39.35 54.3147 39.0602 57.0133 38.8098 59.3904C38.7419 60.0479 38.4307 60.5392 37.5221 60.7596C36.6421 60.9728 35.1827 61.3521 33.7161 61.7206C29.7276 62.7249 24.7233 63.9965 24.7233 63.9965" fill="#032183"/>
<path d="M48.2807 11C48.2807 11 44.6106 19.6125 44.514 19.8329C44.421 20.0568 44.4997 20.5807 45.1257 20.6168C45.8697 20.6601 48.2699 20.8119 50.7739 21.4477C52.2083 21.8126 53.7858 22.3436 55.2846 23.1348C57.3486 24.2258 59.6093 25.8226 61.0759 28.7885C62.149 30.9561 62.6713 34.8252 60.4642 38.9147C59.0656 41.505 55.163 46.895 46.5851 50.6955C44.9003 51.4433 44.2064 51.6817 42.8149 52.1441C42.0744 52.3898 41.3733 52.0502 41.1015 51.6131C39.1806 48.5604 35.0705 41.9927 35.0705 41.9927C35.2851 41.9457 37.0343 41.5628 38.923 40.8041C42.078 39.5397 45.258 37.3504 47.0251 34.8902C50.2481 30.3961 48.5811 26.0538 44.3208 24.1824C42.8149 23.5213 41.8813 23.3479 40.9298 23.1709C38.4186 22.7049 35.4425 23.0481 34.7879 23.1456C34.0796 23.2504 33.7362 22.8711 33.5896 22.5387C33.4751 22.2786 33.5288 21.9751 33.5395 21.8631C33.6504 20.6854 33.9401 17.9868 34.1905 15.6097C34.2585 14.9522 34.5697 14.4609 35.4783 14.2405C36.3582 14.0274 37.8177 13.648 39.2843 13.2796C43.2728 12.2753 48.2771 11.0036 48.2771 11.0036" fill="#032183"/>
</svg>
