<svg width="210" height="112" viewBox="0 0 210 112" fill="none" xmlns="http://www.w3.org/2000/svg">
<path d="M194.948 58C191.28 58 188.422 57.2446 186.374 55.7337C184.37 54.2228 182.962 52.1872 182.152 49.6271C181.384 47.067 181 44.2131 181 41.0654V23.0605C181 19.619 181.384 16.6182 182.152 14.0581C182.962 11.498 184.37 9.52542 186.374 8.14043C188.422 6.71348 191.28 6 194.948 6C198.19 6 200.749 6.58757 202.626 7.76271C204.545 8.93785 205.91 10.6166 206.72 12.799C207.573 14.9814 208 17.6045 208 20.6683V24.6973H201.154V21.109C201.154 19.2203 201.047 17.5625 200.834 16.1356C200.664 14.6667 200.152 13.5335 199.299 12.7361C198.445 11.9387 197.017 11.54 195.012 11.54C192.964 11.54 191.472 11.9806 190.533 12.862C189.595 13.7014 188.976 14.9185 188.678 16.5133C188.422 18.0662 188.294 19.8918 188.294 21.9903V42.1985C188.294 44.7587 188.507 46.7942 188.934 48.3051C189.36 49.774 190.064 50.8232 191.045 51.4528C192.026 52.0823 193.348 52.3971 195.012 52.3971C196.974 52.3971 198.382 51.9774 199.235 51.138C200.088 50.2567 200.621 49.0605 200.834 47.5496C201.047 46.0387 201.154 44.276 201.154 42.2615V38.4843H208V42.2615C208 45.3672 207.616 48.1162 206.848 50.5085C206.081 52.8588 204.758 54.7054 202.882 56.0484C201.005 57.3495 198.36 58 194.948 58Z" fill="#032183"/>
<path d="M152 58V7H164.531C167.565 7 169.976 7.56667 171.763 8.7C173.592 9.79136 174.922 11.3864 175.753 13.4852C176.584 15.584 177 18.1235 177 21.1037C177 23.7901 176.522 26.1198 175.566 28.0926C174.652 30.0654 173.28 31.5975 171.451 32.6889C169.623 33.7383 167.337 34.263 164.594 34.263H159.045V58H152ZM159.045 29.163H162.287C164.323 29.163 165.924 28.9321 167.087 28.4704C168.251 28.0086 169.082 27.2111 169.581 26.0778C170.08 24.9025 170.329 23.2654 170.329 21.1667C170.329 18.7321 170.142 16.8642 169.768 15.563C169.436 14.2617 168.708 13.3593 167.586 12.8556C166.464 12.3519 164.718 12.1 162.349 12.1H159.045V29.163Z" fill="#032183"/>
<path d="M131.032 58C127.576 58 124.816 57.3285 122.752 55.9855C120.687 54.6424 119.212 52.7328 118.327 50.2567C117.442 47.7385 117 44.8006 117 41.4431V22.1162C117 18.7587 117.442 15.8838 118.327 13.4915C119.254 11.0573 120.729 9.21065 122.752 7.95157C124.816 6.65053 127.576 6 131.032 6C134.487 6 137.226 6.65053 139.248 7.95157C141.271 9.25262 142.725 11.0993 143.609 13.4915C144.536 15.8838 145 18.7587 145 22.1162V41.5061C145 44.8216 144.536 47.7175 143.609 50.1937C142.725 52.6699 141.271 54.6005 139.248 55.9855C137.226 57.3285 134.487 58 131.032 58ZM131.032 52.3971C132.928 52.3971 134.36 52.0194 135.33 51.2639C136.299 50.4665 136.952 49.3753 137.289 47.9903C137.626 46.5634 137.795 44.9056 137.795 43.0169V20.6683C137.795 18.7797 137.626 17.1638 137.289 15.8208C136.952 14.4358 136.299 13.3866 135.33 12.6731C134.36 11.9177 132.928 11.54 131.032 11.54C129.135 11.54 127.682 11.9177 126.67 12.6731C125.701 13.3866 125.048 14.4358 124.711 15.8208C124.374 17.1638 124.205 18.7797 124.205 20.6683V43.0169C124.205 44.9056 124.374 46.5634 124.711 47.9903C125.048 49.3753 125.701 50.4665 126.67 51.2639C127.682 52.0194 129.135 52.3971 131.032 52.3971Z" fill="#032183"/>
<path d="M88.311 60V51.4168C88.0989 51.4588 87.7597 51.5009 87.2933 51.543C86.8269 51.5851 86.424 51.6061 86.0848 51.6061C83.4982 51.6061 81.2933 51.2064 79.47 50.407C77.689 49.6075 76.3322 48.2191 75.3993 46.2416C74.4664 44.2641 74 41.5502 74 38.1001V25.3515C74 21.9434 74.4452 19.2506 75.3357 17.2731C76.2261 15.2956 77.4982 13.8861 79.1519 13.0446C80.8481 12.161 82.8622 11.7193 85.1943 11.7193C85.788 11.7193 86.3816 11.7403 86.9753 11.7824C87.5689 11.7824 88.0141 11.8034 88.311 11.8455V2H95.4982V11.8455C95.9223 11.8034 96.4523 11.7824 97.0883 11.7824C97.7244 11.7403 98.2756 11.7193 98.742 11.7193C101.159 11.7193 103.194 12.161 104.848 13.0446C106.544 13.8861 107.816 15.3166 108.664 17.3362C109.555 19.3137 110 21.9855 110 25.3515V38.1001C110 41.5082 109.555 44.2009 108.664 46.1785C107.774 48.156 106.544 49.5655 104.975 50.407C103.406 51.2064 101.625 51.6061 99.6325 51.6061C98.9541 51.6061 98.2756 51.5851 97.5972 51.543C96.9187 51.5009 96.2191 51.4588 95.4982 51.4168V60H88.311ZM86.53 47.3145C86.8693 47.3145 87.2085 47.3145 87.5477 47.3145C87.8869 47.2724 88.1413 47.2303 88.311 47.1883V16.1371C87.9293 16.095 87.5477 16.074 87.1661 16.074C86.7845 16.0319 86.424 16.0109 86.0848 16.0109C84.6855 16.0109 83.583 16.2844 82.7774 16.8313C81.9717 17.3783 81.3993 18.325 81.0601 19.6714C80.7208 21.0178 80.5512 22.9111 80.5512 25.3515V38.1001C80.5512 40.5404 80.6996 42.4338 80.9965 43.7802C81.2933 45.1266 81.8657 46.0522 82.7138 46.5571C83.5618 47.062 84.8339 47.3145 86.53 47.3145ZM97.8516 47.3145C99.3781 47.3145 100.544 47.062 101.35 46.5571C102.155 46.0522 102.707 45.1266 103.004 43.7802C103.3 42.4338 103.449 40.5404 103.449 38.1001V25.3515C103.449 22.9111 103.3 21.0178 103.004 19.6714C102.707 18.325 102.155 17.3783 101.35 16.8313C100.544 16.2844 99.3357 16.0109 97.7244 16.0109C97.3428 16.0109 96.9611 16.0319 96.5795 16.074C96.1979 16.074 95.8375 16.095 95.4982 16.1371V47.1883C95.7951 47.2303 96.1555 47.2724 96.5795 47.3145C97.0035 47.3145 97.4276 47.3145 97.8516 47.3145Z" fill="#032183"/>
<path d="M16.3772 62C16.3772 62 20.7582 51.9725 20.8735 51.716C20.9846 51.4552 20.8906 50.8453 20.1434 50.8032C19.2552 50.7527 16.3901 50.5761 13.4011 49.8358C11.6888 49.411 9.80575 48.7927 8.01663 47.8715C5.55285 46.6013 2.85422 44.7422 1.10353 41.2889C-0.177464 38.7652 -0.800881 34.2604 1.8337 29.4991C3.50326 26.4833 8.16181 20.2077 18.4012 15.7828C20.4124 14.9121 21.2408 14.6345 22.9018 14.0961C23.7857 13.8101 24.6226 14.2055 24.9471 14.7144C27.2401 18.2686 32.1463 25.9154 32.1463 25.9154C31.8901 25.9701 29.8021 26.416 27.5475 27.2992C23.7814 28.7714 19.9854 31.3203 17.876 34.1847C14.0288 39.4172 16.0186 44.473 21.1041 46.6517C22.9018 47.4215 24.0162 47.6234 25.1521 47.8295C28.1496 48.3721 31.7022 47.9725 32.4836 47.8589C33.3291 47.7369 33.739 48.1786 33.9141 48.5655C34.0507 48.8684 33.9866 49.2217 33.9738 49.3521C33.8415 50.7233 33.4956 53.8653 33.1967 56.6329C33.1156 57.3985 32.7441 57.9705 31.6595 58.2271C30.6091 58.4752 28.8669 58.9169 27.1162 59.3459C22.3552 60.5152 16.3815 61.9958 16.3815 61.9958" fill="#032183"/>
<path d="M44.6227 0C44.6227 0 40.2418 10.0275 40.1265 10.284C40.0154 10.5448 40.1094 11.1547 40.8566 11.1968C41.7448 11.2473 44.6099 11.4239 47.5989 12.1642C49.3112 12.589 51.1943 13.2073 52.9834 14.1285C55.4471 15.3987 58.1458 17.2578 59.8965 20.7111C61.1775 23.2348 61.8009 27.7396 59.1663 32.5009C57.4967 35.5167 52.8382 41.7923 42.5988 46.2172C40.5876 47.0879 39.7592 47.3655 38.0982 47.9039C37.2143 48.1899 36.3774 47.7945 36.0529 47.2856C33.7599 43.7314 28.8537 36.0846 28.8537 36.0846C29.1099 36.0299 31.1979 35.584 33.4525 34.7008C37.2186 33.2286 41.0146 30.6797 43.124 27.8153C46.9712 22.5828 44.9814 17.527 39.8959 15.3483C38.0982 14.5785 36.9838 14.3766 35.8479 14.1705C32.8504 13.6279 29.2978 14.0275 28.5164 14.1411C27.6709 14.2631 27.261 13.8214 27.0859 13.4345C26.9493 13.1316 27.0134 12.7783 27.0262 12.6479C27.1585 11.2767 27.5044 8.1347 27.8033 5.36705C27.8844 4.60153 28.2559 4.02949 29.3405 3.77292C30.3909 3.52476 32.1331 3.08311 33.8838 2.65408C38.6448 1.48477 44.6185 0.00420615 44.6185 0.00420615" fill="#032183"/>
<path d="M10.4883 84.8135L10.3564 88.5708H9.08936V86H8.04199V84.8135H10.4883ZM1.28174 86V75.3359H2.70264V84.8501H7.9541V75.3359H9.36768V86H1.28174ZM15.293 86.1465C14.7412 86.1465 14.2407 86.0537 13.7915 85.8682C13.3472 85.6777 12.9639 85.4116 12.6416 85.0698C12.3242 84.728 12.0801 84.3228 11.9092 83.854C11.7383 83.3853 11.6528 82.8726 11.6528 82.3159V82.0083C11.6528 81.3638 11.748 80.79 11.9385 80.2871C12.1289 79.7793 12.3877 79.3496 12.7148 78.998C13.042 78.6465 13.4131 78.3804 13.8281 78.1997C14.2432 78.019 14.6729 77.9287 15.1172 77.9287C15.6836 77.9287 16.1719 78.0264 16.582 78.2217C16.9971 78.417 17.3364 78.6904 17.6001 79.042C17.8638 79.3887 18.0591 79.7988 18.186 80.2725C18.313 80.7412 18.3765 81.2539 18.3765 81.8105V82.4185H12.4585V81.3125H17.0215V81.21C17.002 80.8584 16.9287 80.5166 16.8018 80.1846C16.6797 79.8525 16.4844 79.5791 16.2158 79.3643C15.9473 79.1494 15.5811 79.042 15.1172 79.042C14.8096 79.042 14.5264 79.1079 14.2676 79.2397C14.0088 79.3667 13.7866 79.5571 13.6011 79.811C13.4155 80.0649 13.2715 80.375 13.1689 80.7412C13.0664 81.1074 13.0151 81.5298 13.0151 82.0083V82.3159C13.0151 82.6919 13.0664 83.0459 13.1689 83.3779C13.2764 83.7051 13.4302 83.9932 13.6304 84.2422C13.8354 84.4912 14.082 84.6865 14.3701 84.8281C14.6631 84.9697 14.9951 85.0405 15.3662 85.0405C15.8447 85.0405 16.25 84.9429 16.582 84.7476C16.9141 84.5522 17.2046 84.291 17.4536 83.9639L18.2739 84.6157C18.103 84.8745 17.8857 85.1211 17.6221 85.3555C17.3584 85.5898 17.0337 85.7803 16.6479 85.9268C16.2671 86.0732 15.8154 86.1465 15.293 86.1465ZM25.3345 81.5103V82.6089H21.145V81.5103H25.3345ZM21.4307 78.0752V86H20.0757V78.0752H21.4307ZM26.4331 78.0752V86H25.0708V78.0752H26.4331ZM31.8457 78.0752V86H30.4834V78.0752H31.8457ZM34.5044 78.0752V79.1738H27.876V78.0752H34.5044ZM37.1924 79.5986V89.0469H35.8301V78.0752H37.0752L37.1924 79.5986ZM42.5317 81.9717V82.1255C42.5317 82.7017 42.4634 83.2363 42.3267 83.7295C42.1899 84.2178 41.9897 84.6426 41.7261 85.0039C41.4673 85.3652 41.1475 85.646 40.7666 85.8462C40.3857 86.0464 39.9487 86.1465 39.4556 86.1465C38.9526 86.1465 38.5083 86.0635 38.1226 85.8975C37.7368 85.7314 37.4097 85.4897 37.1411 85.1724C36.8726 84.855 36.6577 84.4741 36.4966 84.0298C36.3403 83.5854 36.2329 83.085 36.1743 82.5283V81.708C36.2329 81.1221 36.3428 80.5972 36.5039 80.1333C36.665 79.6694 36.8774 79.2739 37.1411 78.9468C37.4097 78.6147 37.7344 78.3633 38.1152 78.1924C38.4961 78.0166 38.9355 77.9287 39.4336 77.9287C39.9316 77.9287 40.3735 78.0264 40.7593 78.2217C41.145 78.4121 41.4697 78.6855 41.7334 79.042C41.9971 79.3984 42.1948 79.8257 42.3267 80.3237C42.4634 80.8169 42.5317 81.3662 42.5317 81.9717ZM41.1694 82.1255V81.9717C41.1694 81.5762 41.1279 81.2051 41.0449 80.8584C40.9619 80.5068 40.8325 80.1992 40.6567 79.9355C40.4858 79.667 40.2661 79.457 39.9976 79.3057C39.729 79.1494 39.4092 79.0713 39.0381 79.0713C38.6963 79.0713 38.3984 79.1299 38.1445 79.2471C37.8955 79.3643 37.6831 79.5229 37.5073 79.7231C37.3315 79.9185 37.1875 80.1431 37.0752 80.397C36.9678 80.646 36.8872 80.9048 36.8335 81.1733V83.0703C36.9312 83.4121 37.0679 83.7344 37.2437 84.0371C37.4194 84.335 37.6538 84.5767 37.9468 84.7622C38.2397 84.9429 38.6084 85.0332 39.0527 85.0332C39.4189 85.0332 39.7339 84.9575 39.9976 84.8062C40.2661 84.6499 40.4858 84.4375 40.6567 84.1689C40.8325 83.9004 40.9619 83.5928 41.0449 83.2461C41.1279 82.8945 41.1694 82.521 41.1694 82.1255ZM2.3877 97.5986V107.047H1.02539V96.0752H2.27051L2.3877 97.5986ZM7.72705 99.9717V100.125C7.72705 100.702 7.65869 101.236 7.52197 101.729C7.38525 102.218 7.18506 102.643 6.92139 103.004C6.6626 103.365 6.34277 103.646 5.96191 103.846C5.58105 104.046 5.14404 104.146 4.65088 104.146C4.14795 104.146 3.70361 104.063 3.31787 103.897C2.93213 103.731 2.60498 103.49 2.33643 103.172C2.06787 102.855 1.85303 102.474 1.69189 102.03C1.53564 101.585 1.42822 101.085 1.36963 100.528V99.708C1.42822 99.1221 1.53809 98.5972 1.69922 98.1333C1.86035 97.6694 2.07275 97.2739 2.33643 96.9468C2.60498 96.6147 2.92969 96.3633 3.31055 96.1924C3.69141 96.0166 4.13086 95.9287 4.62891 95.9287C5.12695 95.9287 5.56885 96.0264 5.95459 96.2217C6.34033 96.4121 6.66504 96.6855 6.92871 97.042C7.19238 97.3984 7.39014 97.8257 7.52197 98.3237C7.65869 98.8169 7.72705 99.3662 7.72705 99.9717ZM6.36475 100.125V99.9717C6.36475 99.5762 6.32324 99.2051 6.24023 98.8584C6.15723 98.5068 6.02783 98.1992 5.85205 97.9355C5.68115 97.667 5.46143 97.457 5.19287 97.3057C4.92432 97.1494 4.60449 97.0713 4.2334 97.0713C3.8916 97.0713 3.59375 97.1299 3.33984 97.2471C3.09082 97.3643 2.87842 97.5229 2.70264 97.7231C2.52686 97.9185 2.38281 98.1431 2.27051 98.397C2.16309 98.646 2.08252 98.9048 2.02881 99.1733V101.07C2.12646 101.412 2.26318 101.734 2.43896 102.037C2.61475 102.335 2.84912 102.577 3.14209 102.762C3.43506 102.943 3.80371 103.033 4.24805 103.033C4.61426 103.033 4.9292 102.958 5.19287 102.806C5.46143 102.65 5.68115 102.438 5.85205 102.169C6.02783 101.9 6.15723 101.593 6.24023 101.246C6.32324 100.895 6.36475 100.521 6.36475 100.125ZM14.1284 102.645V98.5654C14.1284 98.2529 14.0649 97.9819 13.938 97.7524C13.8159 97.5181 13.6304 97.3374 13.3813 97.2104C13.1323 97.0835 12.8247 97.02 12.4585 97.02C12.1167 97.02 11.8164 97.0786 11.5576 97.1958C11.3037 97.313 11.1035 97.4668 10.957 97.6572C10.8154 97.8477 10.7446 98.0527 10.7446 98.2725H9.38965C9.38965 97.9893 9.46289 97.7085 9.60938 97.4302C9.75586 97.1519 9.96582 96.9004 10.2393 96.6758C10.5176 96.4463 10.8496 96.2656 11.2354 96.1338C11.626 95.9971 12.0605 95.9287 12.5391 95.9287C13.1152 95.9287 13.623 96.0264 14.0625 96.2217C14.5068 96.417 14.8535 96.7124 15.1025 97.1079C15.3564 97.4985 15.4834 97.9893 15.4834 98.5801V102.271C15.4834 102.535 15.5054 102.816 15.5493 103.114C15.5981 103.412 15.6689 103.668 15.7617 103.883V104H14.3481C14.2798 103.844 14.2261 103.636 14.187 103.377C14.1479 103.114 14.1284 102.87 14.1284 102.645ZM14.3628 99.1953L14.3774 100.147H13.0078C12.6221 100.147 12.2778 100.179 11.9751 100.243C11.6724 100.301 11.4185 100.392 11.2134 100.514C11.0083 100.636 10.8521 100.79 10.7446 100.975C10.6372 101.156 10.5835 101.368 10.5835 101.612C10.5835 101.861 10.6396 102.088 10.752 102.293C10.8643 102.499 11.0327 102.662 11.2573 102.784C11.4868 102.901 11.7676 102.96 12.0996 102.96C12.5146 102.96 12.8809 102.872 13.1982 102.696C13.5156 102.521 13.7671 102.306 13.9526 102.052C14.1431 101.798 14.2456 101.551 14.2603 101.312L14.8389 101.964C14.8047 102.169 14.7119 102.396 14.5605 102.645C14.4092 102.894 14.2065 103.133 13.9526 103.363C13.7036 103.587 13.4058 103.775 13.0591 103.927C12.7173 104.073 12.3315 104.146 11.9019 104.146C11.3647 104.146 10.8936 104.042 10.4883 103.832C10.0879 103.622 9.77539 103.341 9.55078 102.989C9.33105 102.633 9.22119 102.235 9.22119 101.795C9.22119 101.371 9.3042 100.997 9.47021 100.675C9.63623 100.348 9.87549 100.077 10.188 99.8618C10.5005 99.6421 10.8765 99.4761 11.3159 99.3638C11.7554 99.2515 12.2461 99.1953 12.7881 99.1953H14.3628ZM20.5737 100.213H19.1162V99.3784H20.4639C20.8398 99.3784 21.1377 99.332 21.3574 99.2393C21.5771 99.1416 21.7334 99.0073 21.8262 98.8364C21.9189 98.6655 21.9653 98.4653 21.9653 98.2358C21.9653 98.0308 21.9116 97.8379 21.8042 97.6572C21.7017 97.4717 21.5356 97.3228 21.3062 97.2104C21.0767 97.0933 20.769 97.0347 20.3833 97.0347C20.0708 97.0347 19.7876 97.0908 19.5337 97.2031C19.2798 97.3105 19.0771 97.4595 18.9258 97.6499C18.7793 97.8354 18.7061 98.0454 18.7061 98.2798H17.3511C17.3511 97.7964 17.4878 97.3813 17.7612 97.0347C18.0396 96.6831 18.4082 96.4121 18.8672 96.2217C19.3311 96.0312 19.8364 95.936 20.3833 95.936C20.8423 95.936 21.2524 95.9873 21.6138 96.0898C21.98 96.1875 22.29 96.334 22.5439 96.5293C22.7979 96.7197 22.9907 96.959 23.1226 97.2471C23.2593 97.5303 23.3276 97.8599 23.3276 98.2358C23.3276 98.5044 23.2642 98.7583 23.1372 98.9976C23.0103 99.2368 22.8271 99.4492 22.5879 99.6348C22.3486 99.8154 22.0581 99.957 21.7163 100.06C21.3794 100.162 20.9985 100.213 20.5737 100.213ZM19.1162 99.7007H20.5737C21.0474 99.7007 21.4648 99.7471 21.8262 99.8398C22.1875 99.9277 22.4902 100.06 22.7344 100.235C22.9785 100.411 23.1616 100.628 23.2837 100.887C23.4106 101.141 23.4741 101.434 23.4741 101.766C23.4741 102.137 23.3984 102.472 23.2471 102.77C23.1006 103.062 22.8906 103.312 22.6172 103.517C22.3438 103.722 22.0166 103.878 21.6357 103.985C21.2598 104.093 20.8423 104.146 20.3833 104.146C19.8706 104.146 19.3726 104.059 18.8892 103.883C18.4058 103.707 18.0078 103.436 17.6953 103.07C17.3828 102.699 17.2266 102.228 17.2266 101.656H18.5815C18.5815 101.896 18.6572 102.123 18.8086 102.337C18.96 102.552 19.1699 102.726 19.4385 102.857C19.7119 102.989 20.0269 103.055 20.3833 103.055C20.7642 103.055 21.0815 102.997 21.3354 102.879C21.5894 102.762 21.7798 102.606 21.9067 102.411C22.0386 102.215 22.1045 102.003 22.1045 101.773C22.1045 101.476 22.0459 101.236 21.9287 101.056C21.8115 100.875 21.6309 100.743 21.3867 100.66C21.1475 100.572 20.8398 100.528 20.4639 100.528H19.1162V99.7007ZM26.5869 97.5986V107.047H25.2246V96.0752H26.4697L26.5869 97.5986ZM31.9263 99.9717V100.125C31.9263 100.702 31.8579 101.236 31.7212 101.729C31.5845 102.218 31.3843 102.643 31.1206 103.004C30.8618 103.365 30.542 103.646 30.1611 103.846C29.7803 104.046 29.3433 104.146 28.8501 104.146C28.3472 104.146 27.9028 104.063 27.5171 103.897C27.1313 103.731 26.8042 103.49 26.5356 103.172C26.2671 102.855 26.0522 102.474 25.8911 102.03C25.7349 101.585 25.6274 101.085 25.5688 100.528V99.708C25.6274 99.1221 25.7373 98.5972 25.8984 98.1333C26.0596 97.6694 26.272 97.2739 26.5356 96.9468C26.8042 96.6147 27.1289 96.3633 27.5098 96.1924C27.8906 96.0166 28.3301 95.9287 28.8281 95.9287C29.3262 95.9287 29.7681 96.0264 30.1538 96.2217C30.5396 96.4121 30.8643 96.6855 31.1279 97.042C31.3916 97.3984 31.5894 97.8257 31.7212 98.3237C31.8579 98.8169 31.9263 99.3662 31.9263 99.9717ZM30.564 100.125V99.9717C30.564 99.5762 30.5225 99.2051 30.4395 98.8584C30.3564 98.5068 30.2271 98.1992 30.0513 97.9355C29.8804 97.667 29.6606 97.457 29.3921 97.3057C29.1235 97.1494 28.8037 97.0713 28.4326 97.0713C28.0908 97.0713 27.793 97.1299 27.5391 97.2471C27.29 97.3643 27.0776 97.5229 26.9019 97.7231C26.7261 97.9185 26.582 98.1431 26.4697 98.397C26.3623 98.646 26.2817 98.9048 26.228 99.1733V101.07C26.3257 101.412 26.4624 101.734 26.6382 102.037C26.814 102.335 27.0483 102.577 27.3413 102.762C27.6343 102.943 28.0029 103.033 28.4473 103.033C28.8135 103.033 29.1284 102.958 29.3921 102.806C29.6606 102.65 29.8804 102.438 30.0513 102.169C30.2271 101.9 30.3564 101.593 30.4395 101.246C30.5225 100.895 30.564 100.521 30.564 100.125ZM38.3276 102.645V98.5654C38.3276 98.2529 38.2642 97.9819 38.1372 97.7524C38.0151 97.5181 37.8296 97.3374 37.5806 97.2104C37.3315 97.0835 37.0239 97.02 36.6577 97.02C36.3159 97.02 36.0156 97.0786 35.7568 97.1958C35.5029 97.313 35.3027 97.4668 35.1562 97.6572C35.0146 97.8477 34.9438 98.0527 34.9438 98.2725H33.5889C33.5889 97.9893 33.6621 97.7085 33.8086 97.4302C33.9551 97.1519 34.165 96.9004 34.4385 96.6758C34.7168 96.4463 35.0488 96.2656 35.4346 96.1338C35.8252 95.9971 36.2598 95.9287 36.7383 95.9287C37.3145 95.9287 37.8223 96.0264 38.2617 96.2217C38.7061 96.417 39.0527 96.7124 39.3018 97.1079C39.5557 97.4985 39.6826 97.9893 39.6826 98.5801V102.271C39.6826 102.535 39.7046 102.816 39.7485 103.114C39.7974 103.412 39.8682 103.668 39.9609 103.883V104H38.5474C38.479 103.844 38.4253 103.636 38.3862 103.377C38.3472 103.114 38.3276 102.87 38.3276 102.645ZM38.562 99.1953L38.5767 100.147H37.207C36.8213 100.147 36.4771 100.179 36.1743 100.243C35.8716 100.301 35.6177 100.392 35.4126 100.514C35.2075 100.636 35.0513 100.79 34.9438 100.975C34.8364 101.156 34.7827 101.368 34.7827 101.612C34.7827 101.861 34.8389 102.088 34.9512 102.293C35.0635 102.499 35.2319 102.662 35.4565 102.784C35.686 102.901 35.9668 102.96 36.2988 102.96C36.7139 102.96 37.0801 102.872 37.3975 102.696C37.7148 102.521 37.9663 102.306 38.1519 102.052C38.3423 101.798 38.4448 101.551 38.4595 101.312L39.0381 101.964C39.0039 102.169 38.9111 102.396 38.7598 102.645C38.6084 102.894 38.4058 103.133 38.1519 103.363C37.9028 103.587 37.605 103.775 37.2583 103.927C36.9165 104.073 36.5308 104.146 36.1011 104.146C35.564 104.146 35.0928 104.042 34.6875 103.832C34.2871 103.622 33.9746 103.341 33.75 102.989C33.5303 102.633 33.4204 102.235 33.4204 101.795C33.4204 101.371 33.5034 100.997 33.6694 100.675C33.8354 100.348 34.0747 100.077 34.3872 99.8618C34.6997 99.6421 35.0757 99.4761 35.5151 99.3638C35.9546 99.2515 36.4453 99.1953 36.9873 99.1953H38.562ZM46.897 92.6255H48.0103C48.0103 93.104 47.937 93.4849 47.7905 93.7681C47.644 94.0464 47.4438 94.2612 47.1899 94.4126C46.9409 94.564 46.6577 94.6787 46.3403 94.7568C46.0278 94.835 45.7031 94.9106 45.3662 94.9839C44.9463 95.0718 44.5557 95.2109 44.1943 95.4014C43.8379 95.5869 43.5303 95.8506 43.2715 96.1924C43.0176 96.5342 42.8296 96.9785 42.7075 97.5254C42.5903 98.0723 42.5586 98.7485 42.6123 99.5542V100.228H41.499V99.5542C41.499 98.6509 41.5845 97.8623 41.7554 97.1885C41.9312 96.5146 42.1777 95.9458 42.4951 95.4819C42.8125 95.0181 43.1885 94.6494 43.623 94.376C44.0625 94.1025 44.5459 93.9146 45.0732 93.812C45.4541 93.7388 45.7812 93.6606 46.0547 93.5776C46.3281 93.4897 46.5356 93.3726 46.6772 93.2261C46.8237 93.0796 46.897 92.8794 46.897 92.6255ZM45.293 96.5293C45.8105 96.5293 46.272 96.6196 46.6772 96.8003C47.0825 96.981 47.4268 97.2324 47.71 97.5547C47.9932 97.877 48.208 98.2578 48.3545 98.6973C48.5059 99.1318 48.5815 99.6055 48.5815 100.118V100.279C48.5815 100.831 48.501 101.344 48.3398 101.817C48.1836 102.286 47.9517 102.696 47.644 103.048C47.3413 103.395 46.9702 103.666 46.5308 103.861C46.0962 104.056 45.6006 104.154 45.0439 104.154C44.4873 104.154 43.9893 104.056 43.5498 103.861C43.1152 103.666 42.7441 103.395 42.4365 103.048C42.1289 102.696 41.8945 102.286 41.7334 101.817C41.5771 101.344 41.499 100.831 41.499 100.279V100.118C41.499 99.9961 41.521 99.8765 41.5649 99.7593C41.6089 99.6421 41.6626 99.5225 41.7261 99.4004C41.7944 99.2783 41.8555 99.1489 41.9092 99.0122C42.0898 98.5728 42.3364 98.165 42.6489 97.7891C42.9663 97.4131 43.3447 97.1104 43.7842 96.8809C44.2285 96.6465 44.7314 96.5293 45.293 96.5293ZM45.0293 97.6353C44.5312 97.6353 44.1211 97.75 43.7988 97.9795C43.4814 98.209 43.2446 98.5142 43.0884 98.895C42.9321 99.271 42.854 99.6787 42.854 100.118V100.279C42.854 100.65 42.8979 101.002 42.9858 101.334C43.0737 101.666 43.2056 101.961 43.3813 102.22C43.562 102.474 43.7891 102.674 44.0625 102.821C44.3408 102.967 44.668 103.041 45.0439 103.041C45.4199 103.041 45.7446 102.967 46.0181 102.821C46.2915 102.674 46.5161 102.474 46.6919 102.22C46.8677 101.961 46.9995 101.666 47.0874 101.334C47.1753 101.002 47.2192 100.65 47.2192 100.279V100.118C47.2192 99.7861 47.1753 99.4712 47.0874 99.1733C46.9995 98.8755 46.8652 98.6118 46.6846 98.3823C46.5088 98.1528 46.2817 97.9722 46.0034 97.8403C45.73 97.7036 45.4053 97.6353 45.0293 97.6353ZM49.7607 100.125V99.957C49.7607 99.3857 49.8438 98.856 50.0098 98.3677C50.1758 97.8745 50.415 97.4473 50.7275 97.0859C51.04 96.7197 51.4185 96.4365 51.8628 96.2363C52.3071 96.0312 52.8052 95.9287 53.3569 95.9287C53.9136 95.9287 54.4141 96.0312 54.8584 96.2363C55.3076 96.4365 55.6885 96.7197 56.001 97.0859C56.3184 97.4473 56.5601 97.8745 56.7261 98.3677C56.8921 98.856 56.9751 99.3857 56.9751 99.957V100.125C56.9751 100.697 56.8921 101.227 56.7261 101.715C56.5601 102.203 56.3184 102.63 56.001 102.997C55.6885 103.358 55.3101 103.641 54.8657 103.846C54.4263 104.046 53.9282 104.146 53.3716 104.146C52.8149 104.146 52.3145 104.046 51.8701 103.846C51.4258 103.641 51.0449 103.358 50.7275 102.997C50.415 102.63 50.1758 102.203 50.0098 101.715C49.8438 101.227 49.7607 100.697 49.7607 100.125ZM51.1157 99.957V100.125C51.1157 100.521 51.1621 100.895 51.2549 101.246C51.3477 101.593 51.4868 101.9 51.6724 102.169C51.8628 102.438 52.0996 102.65 52.3828 102.806C52.666 102.958 52.9956 103.033 53.3716 103.033C53.7427 103.033 54.0674 102.958 54.3457 102.806C54.6289 102.65 54.8633 102.438 55.0488 102.169C55.2344 101.9 55.3735 101.593 55.4663 101.246C55.564 100.895 55.6128 100.521 55.6128 100.125V99.957C55.6128 99.5664 55.564 99.1978 55.4663 98.8511C55.3735 98.4995 55.2319 98.1895 55.0415 97.9209C54.856 97.6475 54.6216 97.4326 54.3384 97.2764C54.0601 97.1201 53.7329 97.042 53.3569 97.042C52.9858 97.042 52.6587 97.1201 52.3755 97.2764C52.0972 97.4326 51.8628 97.6475 51.6724 97.9209C51.4868 98.1895 51.3477 98.4995 51.2549 98.8511C51.1621 99.1978 51.1157 99.5664 51.1157 99.957ZM61.7432 96.0752V104H60.3809V96.0752H61.7432ZM64.4019 96.0752V97.1738H57.7734V96.0752H64.4019ZM67.207 96.0752V104H65.8521V96.0752H67.207ZM72.4072 96.0752L68.6499 100.616H66.7529L66.5479 99.4297H68.1006L70.7593 96.0752H72.4072ZM70.9497 104L68.0347 100.411L68.9062 99.4297L72.6709 104H70.9497ZM75.3149 101.854L78.9697 96.0752H80.332V104H78.9697V98.2212L75.3149 104H73.9673V96.0752H75.3149V101.854Z" fill="#032183"/>
</svg>
