<svg width="32" height="32" viewBox="0 0 32 32" xmlns="http://www.w3.org/2000/svg">
<ellipse cx="1.18883" cy="1.19472" rx="1.18883" ry="1.19472" transform="matrix(-1 -8.74552e-08 0.000135227 -1 24.4531 25.998)" />
<ellipse cx="1.18883" cy="1.19472" rx="1.18883" ry="1.19472" transform="matrix(-1 -8.74552e-08 0.000135227 -1 24.4531 23.0762)" />
<ellipse cx="1.18883" cy="1.19472" rx="1.18883" ry="1.19472" transform="matrix(-1 -8.74552e-08 0.000135227 -1 24.4531 20.1543)" />
<ellipse cx="1.18883" cy="1.19472" rx="1.18883" ry="1.19472" transform="matrix(-1 -8.74552e-08 0.000135227 -1 24.4531 17.2305)" />
<ellipse cx="1.18883" cy="1.19472" rx="1.18883" ry="1.19472" transform="matrix(-1 -8.74552e-08 0.000135227 -1 24.4531 14.3105)" />
<ellipse cx="1.18883" cy="1.19472" rx="1.18883" ry="1.19472" transform="matrix(-1 -8.74552e-08 0.000135227 -1 24.4531 11.3867)" />
<ellipse cx="1.18883" cy="1.19472" rx="1.18883" ry="1.19472" transform="matrix(-1 -8.74552e-08 0.000135227 -1 27.3594 23.0742)" />
<ellipse cx="1.18883" cy="1.19472" rx="1.18883" ry="1.19472" transform="matrix(-1 -8.74228e-08 0.000135329 -1 29.9961 20.1543)" />
<ellipse cx="1.18883" cy="1.19472" rx="1.18883" ry="1.19472" transform="matrix(-1 -8.74552e-08 0.000135227 -1 18.3789 20.1543)" />
<ellipse cx="1.18883" cy="1.19472" rx="1.18883" ry="1.19472" transform="matrix(-1 -8.74552e-08 0.000135227 -1 21.2812 22.8105)" />
<ellipse cx="1.18883" cy="1.19472" rx="1.18883" ry="1.19472" transform="matrix(1 0 -0.00013514 1 7.53906 6)" />
<ellipse cx="1.18883" cy="1.19472" rx="1.18883" ry="1.19472" transform="matrix(1 0 -0.00013514 1 7.53906 8.92188)" />
<ellipse cx="1.18883" cy="1.19472" rx="1.18883" ry="1.19472" transform="matrix(1 0 -0.00013514 1 7.53906 11.8438)" />
<ellipse cx="1.18883" cy="1.19472" rx="1.18883" ry="1.19472" transform="matrix(1 0 -0.00013514 1 7.53906 14.7676)" />
<ellipse cx="1.18883" cy="1.19472" rx="1.18883" ry="1.19472" transform="matrix(1 0 -0.00013514 1 7.53906 17.6875)" />
<ellipse cx="1.18883" cy="1.19472" rx="1.18883" ry="1.19472" transform="matrix(1 0 -0.00013514 1 7.53906 20.6113)" />
<ellipse cx="1.18883" cy="1.19472" rx="1.18883" ry="1.19472" transform="matrix(1 0 -0.00013514 1 4.63281 8.92383)" />
<ellipse cx="1.18883" cy="1.19472" rx="1.18883" ry="1.19472" transform="matrix(1 0 -0.000135242 1 1.99609 11.8438)" />
<ellipse cx="1.18883" cy="1.19472" rx="1.18883" ry="1.19472" transform="matrix(1 0 -0.00013514 1 13.6133 11.8438)" />
<ellipse cx="1.18883" cy="1.19472" rx="1.18883" ry="1.19472" transform="matrix(1 0 -0.00013514 1 10.7109 9.1875)" />
</svg>
