<svg width="25" height="25" viewBox="0 0 25 25" fill="none" xmlns="http://www.w3.org/2000/svg">
<g clip-path="url(#clip0_230_416)">
<circle cx="14.6499" cy="4.47655" r="0.813954" fill="#134AFF"/>
<circle cx="0.813954" cy="0.813954" r="0.813954" transform="matrix(-1 0 0 1 12.208 3.6626)" fill="#134AFF"/>
<circle cx="13.022" cy="2.84862" r="0.813954" fill="#134AFF"/>
<circle cx="13.022" cy="18.314" r="0.813954" fill="#134AFF"/>
<circle cx="13.022" cy="23.1977" r="0.813954" fill="#134AFF"/>
<circle cx="12.0054" cy="20.7558" r="0.813954" fill="#134AFF"/>
<circle cx="14.2417" cy="20.7558" r="0.813954" fill="#134AFF"/>
<circle cx="10.9897" cy="18.314" r="0.813954" fill="#134AFF"/>
<circle cx="15.0581" cy="18.314" r="0.813954" fill="#134AFF"/>
<circle cx="16.2778" cy="6.10448" r="0.813954" fill="#134AFF"/>
<circle cx="0.813954" cy="0.813954" r="0.813954" transform="matrix(-1 0 0 1 10.5801 5.29053)" fill="#134AFF"/>
<circle cx="16.2778" cy="8.13915" r="0.813954" fill="#134AFF"/>
<circle cx="0.813954" cy="0.813954" r="0.813954" transform="matrix(-1 0 0 1 10.5801 7.3252)" fill="#134AFF"/>
<circle cx="16.2778" cy="10.1743" r="0.813954" fill="#134AFF"/>
<circle cx="16.2778" cy="14.2436" r="0.813954" fill="#134AFF"/>
<circle cx="16.2778" cy="16.2788" r="0.813954" fill="#134AFF"/>
<circle cx="0.813954" cy="0.813954" r="0.813954" transform="matrix(-1 0 0 1 10.5801 9.36035)" fill="#134AFF"/>
<circle cx="0.813954" cy="0.813954" r="0.813954" transform="matrix(-1 0 0 1 10.5801 13.4297)" fill="#134AFF"/>
<circle cx="16.2778" cy="12.209" r="0.813954" fill="#134AFF"/>
<circle cx="0.813954" cy="0.813954" r="0.813954" transform="matrix(-1 0 0 1 10.5801 11.395)" fill="#134AFF"/>
<circle cx="0.813954" cy="0.813954" r="0.813954" transform="matrix(-1 0 0 1 8.13574 12.6162)" fill="#134AFF"/>
<circle cx="18.7173" cy="13.4302" r="0.813954" fill="#134AFF"/>
<circle opacity="0.9" cx="0.813954" cy="0.813954" r="0.813954" transform="matrix(-1 0 0 1 6.51172 14.2441)" fill="#134AFF"/>
<circle opacity="0.9" cx="20.3462" cy="15.0581" r="0.813954" fill="#134AFF"/>
<circle cx="0.813954" cy="0.813954" r="0.813954" transform="matrix(-1 0 0 1 10.5801 15.4648)" fill="#134AFF"/>
<circle cx="0.813954" cy="0.813954" r="0.813954" transform="matrix(-1 0 0 1 12.8154 15.4648)" fill="#134AFF"/>
<circle cx="0.813954" cy="0.813954" r="0.813954" transform="matrix(-1 0 0 1 15.0596 15.4648)" fill="#134AFF"/>
</g>
<defs>
<clipPath id="clip0_230_416">
<rect width="25" height="25" fill="white"/>
</clipPath>
</defs>
</svg>
