<svg width="24" height="24" viewBox="0 0 24 24" fill="none" xmlns="http://www.w3.org/2000/svg">
<path d="M5.63567 7.05101C6.02619 7.44153 6.65936 7.44153 7.04988 7.05101C7.44041 6.66049 7.44041 6.02732 7.04988 5.63679C6.65936 5.24627 6.02619 5.24627 5.63567 5.63679C5.24514 6.02732 5.24514 6.66049 5.63567 7.05101Z" fill="#134AFF"/>
<path d="M18.4067 16.9926L9.83656 8.42249C9.46946 8.0554 8.87429 8.0554 8.50719 8.42249L8.42234 8.50735C8.05525 8.87444 8.05525 9.46962 8.42234 9.83671L16.9925 18.4068C17.3596 18.7739 17.9548 18.7739 18.3218 18.4068L18.4067 18.322C18.7738 17.9549 18.7738 17.3597 18.4067 16.9926Z" fill="#134AFF"/>
<path d="M16.991 5.59495L5.59242 16.9935C5.22532 17.3606 5.22532 17.9558 5.59242 18.3229L5.67727 18.4077C6.04436 18.7748 6.63954 18.7748 7.00663 18.4077L18.4052 7.00917C18.7723 6.64207 18.7723 6.0469 18.4052 5.6798L18.3203 5.59495C17.9533 5.22786 17.3581 5.22786 16.991 5.59495Z" fill="#134AFF"/>
</svg>
