<svg width="53" height="53" viewBox="0 0 53 53" fill="none" xmlns="http://www.w3.org/2000/svg">
<ellipse cx="4.5" cy="4.49752" rx="4.5" ry="4.49752" transform="matrix(-4.37436e-08 1 -1 -0.000135183 53 21)" fill="white"/>
<ellipse cx="4.5" cy="4.49752" rx="4.5" ry="4.49752" transform="matrix(-4.37436e-08 1 -1 -0.000135183 42.0029 21)" fill="white"/>
<ellipse cx="4.5" cy="4.49752" rx="4.5" ry="4.49752" transform="matrix(-4.37436e-08 1 -1 -0.000135183 31 21)" fill="white"/>
<ellipse cx="4.5" cy="4.49752" rx="4.5" ry="4.49752" transform="matrix(-4.37436e-08 1 -1 -0.000135183 20 21)" fill="white"/>
<ellipse cx="4.5" cy="4.49752" rx="4.5" ry="4.49752" transform="matrix(-4.37436e-08 1 -1 -0.000135183 9 21)" fill="white"/>
<ellipse cx="4.5" cy="4.49752" rx="4.5" ry="4.49752" transform="matrix(-4.37436e-08 1 -1 -0.000135183 42 10)" fill="white"/>
<ellipse cx="4.5" cy="4.49752" rx="4.5" ry="4.49752" transform="matrix(-4.37114e-08 1 -1 -0.000135285 31 0.00390625)" fill="white"/>
<ellipse cx="4.5" cy="4.49752" rx="4.5" ry="4.49752" transform="matrix(-4.37436e-08 1 -1 -0.000135183 31 44)" fill="white"/>
<ellipse cx="4.5" cy="4.49752" rx="4.5" ry="4.49752" transform="matrix(-4.37436e-08 1 -1 -0.000135183 41 33)" fill="white"/>
</svg>
