<svg width="53" height="72" viewBox="0 0 53 72" fill="none" xmlns="http://www.w3.org/2000/svg">
<ellipse cx="31.8004" cy="8.00065" rx="2.65" ry="2.66667" fill="white"/>
<ellipse cx="2.65" cy="2.66667" rx="2.65" ry="2.66667" transform="matrix(-1 0 0 1 23.8496 5.33398)" fill="white"/>
<ellipse cx="26.4996" cy="2.66667" rx="2.65" ry="2.66667" fill="white"/>
<ellipse opacity="0.4" cx="26.4996" cy="53.3327" rx="2.65" ry="2.66667" fill="white"/>
<ellipse opacity="0.4" cx="26.4996" cy="69.3327" rx="2.65" ry="2.66667" fill="white"/>
<ellipse opacity="0.4" cx="23.1871" cy="61.3327" rx="2.65" ry="2.66667" fill="white"/>
<ellipse opacity="0.4" cx="30.4752" cy="61.3327" rx="2.65" ry="2.66667" fill="white"/>
<ellipse opacity="0.4" cx="19.8756" cy="53.3327" rx="2.65" ry="2.66667" fill="white"/>
<ellipse opacity="0.4" cx="33.1246" cy="53.3327" rx="2.65" ry="2.66667" fill="white"/>
<ellipse cx="37.0992" cy="13.3327" rx="2.65" ry="2.66667" fill="white"/>
<ellipse cx="2.65" cy="2.66667" rx="2.65" ry="2.66667" transform="matrix(-1 0 0 1 18.5498 10.666)" fill="white"/>
<ellipse cx="37.0992" cy="20.0007" rx="2.65" ry="2.66667" fill="white"/>
<ellipse cx="2.65" cy="2.66667" rx="2.65" ry="2.66667" transform="matrix(-1 0 0 1 18.5498 17.334)" fill="white"/>
<ellipse cx="37.0992" cy="26.6667" rx="2.65" ry="2.66667" fill="white"/>
<ellipse cx="37.0992" cy="40.0007" rx="2.65" ry="2.66667" fill="white"/>
<ellipse cx="37.0992" cy="46.6667" rx="2.65" ry="2.66667" fill="white"/>
<ellipse cx="2.65" cy="2.66667" rx="2.65" ry="2.66667" transform="matrix(-1 0 0 1 18.5498 24)" fill="white"/>
<ellipse cx="2.65" cy="2.66667" rx="2.65" ry="2.66667" transform="matrix(-1 0 0 1 18.5498 37.334)" fill="white"/>
<ellipse cx="37.0992" cy="33.3327" rx="2.65" ry="2.66667" fill="white"/>
<ellipse cx="2.65" cy="2.66667" rx="2.65" ry="2.66667" transform="matrix(-1 0 0 1 18.5498 30.666)" fill="white"/>
<ellipse cx="2.65" cy="2.66667" rx="2.65" ry="2.66667" transform="matrix(-1 0 0 1 10.6006 34.666)" fill="white"/>
<ellipse cx="45.0494" cy="37.3327" rx="2.65" ry="2.66667" fill="white"/>
<ellipse opacity="0.9" cx="2.65" cy="2.66667" rx="2.65" ry="2.66667" transform="matrix(-1 0 0 1 5.2998 40)" fill="white"/>
<ellipse opacity="0.9" cx="50.3502" cy="42.6667" rx="2.65" ry="2.66667" fill="white"/>
<ellipse cx="2.65" cy="2.66667" rx="2.65" ry="2.66667" transform="matrix(-1 0 0 1 18.5498 44)" fill="white"/>
<ellipse cx="2.65" cy="2.66667" rx="2.65" ry="2.66667" transform="matrix(-1 0 0 1 25.8369 44)" fill="white"/>
<ellipse cx="2.65" cy="2.66667" rx="2.65" ry="2.66667" transform="matrix(-1 0 0 1 33.125 44)" fill="white"/>
</svg>
