<svg width="40" height="40" viewBox="0 0 40 40" fill="none" xmlns="http://www.w3.org/2000/svg">
<path fill-rule="evenodd" clip-rule="evenodd" d="M10.4 5.6C10.4 4.71634 11.1163 4 12 4H21.6C22.4837 4 23.2 4.71634 23.2 5.6C23.2 6.48366 22.4837 7.2 21.6 7.2H12C11.1163 7.2 10.4 6.48366 10.4 5.6ZM10.4 28C10.4 27.1163 11.1163 26.4 12 26.4H21.6C22.4837 26.4 23.2 27.1163 23.2 28C23.2 28.8837 22.4837 29.6 21.6 29.6H12C11.1163 29.6 10.4 28.8837 10.4 28ZM5.6 10.4C4.71634 10.4 4 11.1163 4 12V21.6C4 22.4837 4.71634 23.2 5.6 23.2C6.48366 23.2 7.2 22.4837 7.2 21.6V12C7.2 11.1163 6.48366 10.4 5.6 10.4ZM26.4 12C26.4 11.1163 27.1163 10.4 28 10.4C28.8837 10.4 29.6 11.1163 29.6 12V21.6C29.6 22.4837 28.8837 23.2 28 23.2C27.1163 23.2 26.4 22.4837 26.4 21.6V12ZM31.2 29.6C30.3163 29.6 29.6 30.3163 29.6 31.2C29.6 32.0837 30.3163 32.8 31.2 32.8C32.0837 32.8 32.8 32.0837 32.8 31.2C32.8 30.3163 32.0837 29.6 31.2 29.6ZM26.4 28C26.4 27.1163 27.1163 26.4 28 26.4C28.8837 26.4 29.6 27.1163 29.6 28C29.6 28.8837 28.8837 29.6 28 29.6C27.1163 29.6 26.4 28.8837 26.4 28ZM24.8 23.2C23.9163 23.2 23.2 23.9163 23.2 24.8C23.2 25.6837 23.9163 26.4 24.8 26.4C25.6837 26.4 26.4 25.6837 26.4 24.8C26.4 23.9163 25.6837 23.2 24.8 23.2ZM23.2 8.8C23.2 7.91634 23.9163 7.2 24.8 7.2C25.6837 7.2 26.4 7.91634 26.4 8.8C26.4 9.68366 25.6837 10.4 24.8 10.4C23.9163 10.4 23.2 9.68366 23.2 8.8ZM8.8 7.2C7.91634 7.2 7.2 7.91634 7.2 8.8C7.2 9.68366 7.91634 10.4 8.8 10.4C9.68366 10.4 10.4 9.68366 10.4 8.8C10.4 7.91634 9.68366 7.2 8.8 7.2ZM7.2 24.8C7.2 23.9163 7.91634 23.2 8.8 23.2C9.68366 23.2 10.4 23.9163 10.4 24.8C10.4 25.6837 9.68366 26.4 8.8 26.4C7.91634 26.4 7.2 25.6837 7.2 24.8ZM34.4 32.8C33.5163 32.8 32.8 33.5163 32.8 34.4C32.8 35.2837 33.5163 36 34.4 36C35.2837 36 36 35.2837 36 34.4C36 33.5163 35.2837 32.8 34.4 32.8Z" fill="#134AFF"/>
</svg>
