<svg width="25" height="26" viewBox="0 0 25 26" fill="none" xmlns="http://www.w3.org/2000/svg">
<g clip-path="url(#clip0_1208_25323)">
<path fill-rule="evenodd" clip-rule="evenodd" d="M5 1.5C5 0.947715 5.44772 0.5 6 0.5H22C22.5523 0.5 23 0.947715 23 1.5V19.5C23 20.0523 22.5523 20.5 22 20.5H6C5.96548 20.5 5.93137 20.4983 5.89776 20.4948C5.3935 20.4436 5 20.0178 5 19.5V1.5ZM21 18.5V2.5H7V18.5H21ZM9 5.5C9 4.94772 9.44772 4.5 10 4.5C10.5523 4.5 11 4.94772 11 5.5C11 6.05228 10.5523 6.5 10 6.5C9.44772 6.5 9 6.05228 9 5.5ZM10 8.5C9.44772 8.5 9 8.94771 9 9.5C9 10.0523 9.44772 10.5 10 10.5H18C18.5523 10.5 19 10.0523 19 9.5C19 8.94771 18.5523 8.5 18 8.5H10ZM9 13.5C9 12.9477 9.44772 12.5 10 12.5H15C15.5523 12.5 16 12.9477 16 13.5C16 14.0523 15.5523 14.5 15 14.5H10C9.44772 14.5 9 14.0523 9 13.5ZM4 5.5V21.5H19C19.5523 21.5 20 21.9477 20 22.5C20 23.0523 19.5523 23.5 19 23.5H3C2.96548 23.5 2.93137 23.4983 2.89776 23.4948C2.3935 23.4436 2 23.0178 2 22.5V5.5C2 4.94771 2.44772 4.5 3 4.5C3.55228 4.5 4 4.94772 4 5.5Z" fill="#134AFF"/>
</g>
<defs>
<clipPath id="clip0_1208_25323">
<rect width="25" height="25" fill="white" transform="translate(0 0.5)"/>
</clipPath>
</defs>
</svg>
