<svg width="24" height="24" viewBox="0 0 24 24" fill="none" xmlns="http://www.w3.org/2000/svg">
<path fill-rule="evenodd" clip-rule="evenodd" d="M11.1545 4.39999H6.5957V5.91959H5.07617V10.4784H6.5957V11.998H11.1545V10.4784H6.59578V5.9196H11.1545V4.39999ZM11.1562 5.91959H12.6759V10.4784H11.1562V5.91959ZM2.79688 15.0372H4.31641V13.5176H13.4341V15.0372H4.31648V18.0764H13.4341V19.5961H4.31648H4.31641H2.79688V15.0372ZM14.9552 15.0372H13.4355V19.5961H14.9552V15.0372ZM14.1934 4.39999H17.2326V5.9196H14.1934V4.39999ZM17.2326 10.4784H14.1934V11.998H17.2326V10.4784ZM17.2344 5.91959H18.754V10.4784H17.2344V5.91959ZM21.0333 15.0372H19.5137V18.0764L16.4727 18.0764V19.5961H21.0315V18.0764L21.0333 18.0764V15.0372ZM16.4727 13.5176H19.5119V15.0372H16.4727V13.5176Z" fill="#134AFF"/>
</svg>
