<svg width="25" height="26" viewBox="0 0 25 26" xmlns="http://www.w3.org/2000/svg">
<g clip-path="url(#clip0_3004_26430)">
<ellipse cx="1.17084" cy="1.17084" rx="1.17084" ry="1.17084" transform="matrix(0.707107 0.707107 0.707107 -0.707107 10.9473 17.4766)" />
<ellipse cx="1.17084" cy="1.17084" rx="1.17084" ry="1.17084" transform="matrix(0.707107 0.707107 0.707107 -0.707107 13.4824 14.9414)" />
<ellipse cx="1.17084" cy="1.17084" rx="1.17084" ry="1.17084" transform="matrix(0.707107 0.707107 0.707107 -0.707107 8.47266 15.4844)" />
<ellipse cx="1.17084" cy="1.17084" rx="1.17084" ry="1.17084" transform="matrix(0.707107 0.707107 0.707107 -0.707107 5.875 12.4023)" />
<ellipse cx="1.17084" cy="1.17084" rx="1.17084" ry="1.17084" transform="matrix(0.707107 0.707107 0.707107 -0.707107 3.33594 9.86523)" />
<ellipse cx="1.17084" cy="1.17084" rx="1.17084" ry="1.17084" transform="matrix(0.707107 0.707107 0.707107 -0.707107 16.0215 12.4023)" />
<ellipse cx="1.17084" cy="1.17084" rx="1.17084" ry="1.17084" transform="matrix(0.707107 0.707107 0.707107 -0.707107 18.5566 9.86719)" />
</g>
<defs>
<clipPath id="clip0_3004_26430">
<rect width="19" height="12" fill="white" transform="translate(3 7.5)"/>
</clipPath>
</defs>
</svg>
