<svg width="25" height="25" viewBox="0 0 25 25" fill="none" xmlns="http://www.w3.org/2000/svg">
<ellipse cx="1.19169" cy="1.19157" rx="1.19169" ry="1.19157" transform="matrix(1 0 0 -1 16.6172 19)" fill="#134AFF"/>
<ellipse cx="1.19169" cy="1.19157" rx="1.19169" ry="1.19157" transform="matrix(1 0 0 -1 16.6172 15.4282)" fill="#134AFF"/>
<ellipse cx="1.19169" cy="1.19157" rx="1.19169" ry="1.19157" transform="matrix(1 0 0 -1 13.043 19)" fill="#134AFF"/>
<ellipse cx="1.19169" cy="1.19157" rx="1.19169" ry="1.19157" transform="matrix(1 0 0 -1 13.043 15.4282)" fill="#134AFF"/>
<ellipse cx="1.19169" cy="1.19157" rx="1.19169" ry="1.19157" transform="matrix(1 0 0 -1 10.3672 12.7446)" fill="#134AFF"/>
<ellipse cx="1.19169" cy="1.19157" rx="1.19169" ry="1.19157" transform="matrix(1 0 0 -1 7.68359 10.0674)" fill="#134AFF"/>
<ellipse cx="1.19169" cy="1.19157" rx="1.19169" ry="1.19157" transform="matrix(1 0 0 -1 5 7.3833)" fill="#134AFF"/>
<ellipse cx="1.19169" cy="1.19157" rx="1.19169" ry="1.19157" transform="matrix(1 0 0 -1 9.46875 19)" fill="#134AFF"/>
<ellipse cx="1.19169" cy="1.19157" rx="1.19169" ry="1.19157" transform="matrix(1 0 0 -1 5.89062 19)" fill="#134AFF"/>
<ellipse cx="1.19169" cy="1.19157" rx="1.19169" ry="1.19157" transform="matrix(1 0 0 -1 16.6172 11.8501)" fill="#134AFF"/>
<ellipse cx="1.19169" cy="1.19157" rx="1.19169" ry="1.19157" transform="matrix(1 0 0 -1 16.6172 8.27783)" fill="#134AFF"/>
</svg>
