<svg width="44" height="44" viewBox="0 0 44 44" fill="none" xmlns="http://www.w3.org/2000/svg">
<path fill-rule="evenodd" clip-rule="evenodd" d="M8 37V7H36V24.5C36 25.3284 36.6716 26 37.5 26C38.3284 26 39 25.3284 39 24.5V5.5C39 4.67157 38.3284 4 37.5 4H7.5C7.32468 4 7.15639 4.03008 7 4.08535C6.84361 4.03008 6.67532 4 6.5 4C5.67157 4 5 4.67157 5 5.5V38.5C5 39.3284 5.67157 40 6.5 40H22.5C23.3284 40 24 39.3284 24 38.5C24 37.6716 23.3284 37 22.5 37H8ZM12.833 12.8333C12.833 11.8208 13.6538 11 14.6663 11C15.6789 11 16.4997 11.8208 16.4997 12.8333C16.4997 13.8459 15.6789 14.6667 14.6663 14.6667C13.6538 14.6667 12.833 13.8459 12.833 12.8333ZM14.6663 18.333C13.6538 18.333 12.833 19.1538 12.833 20.1663C12.833 21.1789 13.6538 21.9997 14.6663 21.9997H29.333C30.3455 21.9997 31.1663 21.1789 31.1663 20.1663C31.1663 19.1538 30.3455 18.333 29.333 18.333H14.6663ZM12.833 27.4993C12.833 26.4868 13.6538 25.666 14.6663 25.666H23.833C24.8455 25.666 25.6663 26.4868 25.6663 27.4993C25.6663 28.5119 24.8455 29.3327 23.833 29.3327H14.6663C13.6538 29.3327 12.833 28.5119 12.833 27.4993Z" fill="#DF2E2E"/>
<path d="M29.0535 32.819C29.265 33.0305 29.608 33.0305 29.8195 32.819C30.0311 32.6074 30.0311 32.2645 29.8195 32.0529C29.608 31.8414 29.265 31.8414 29.0535 32.0529C28.842 32.2645 28.842 32.6074 29.0535 32.819Z" fill="#DF2E2E"/>
<path d="M35.9709 38.2034L31.3288 33.5612C31.1299 33.3624 30.8076 33.3624 30.6087 33.5612L30.5628 33.6072C30.3639 33.806 30.3639 34.1284 30.5628 34.3272L35.2049 38.9694C35.4038 39.1682 35.7261 39.1682 35.925 38.9694L35.9709 38.9234C36.1698 38.7246 36.1698 38.4022 35.9709 38.2034Z" fill="#DF2E2E"/>
<path d="M35.2042 32.0302L29.03 38.2044C28.8311 38.4033 28.8311 38.7256 29.03 38.9245L29.0759 38.9705C29.2748 39.1693 29.5971 39.1693 29.796 38.9705L35.9702 32.7962C36.1691 32.5974 36.1691 32.275 35.9702 32.0762L35.9243 32.0302C35.7254 31.8313 35.403 31.8313 35.2042 32.0302Z" fill="#DF2E2E"/>
</svg>
