<svg width="72" height="72" viewBox="0 0 72 72" xmlns="http://www.w3.org/2000/svg">
<ellipse cx="2.80223" cy="2.80068" rx="2.80223" ry="2.80068" transform="matrix(0.000135198 1 -1 -0.000135183 55.918 32.501)" />
<ellipse cx="2.80223" cy="2.80068" rx="2.80223" ry="2.80068" transform="matrix(0.000135198 1 -1 -0.000135183 49.0684 32.501)" />
<ellipse cx="2.80223" cy="2.80068" rx="2.80223" ry="2.80068" transform="matrix(0.000135198 1 -1 -0.000135183 42.2188 32.501)" />
<ellipse cx="2.80223" cy="2.80068" rx="2.80223" ry="2.80068" transform="matrix(0.000135198 1 -1 -0.000135183 35.3672 32.501)" />
<ellipse cx="2.80223" cy="2.80068" rx="2.80223" ry="2.80068" transform="matrix(0.000135198 1 -1 -0.000135183 28.5195 32.501)" />
<ellipse cx="2.80223" cy="2.80068" rx="2.80223" ry="2.80068" transform="matrix(0.000135198 1 -1 -0.000135183 21.668 32.501)" />
<ellipse cx="2.80223" cy="2.80068" rx="2.80223" ry="2.80068" transform="matrix(0.000135198 1 -1 -0.000135183 49.0645 25.6514)" />
<ellipse cx="2.80223" cy="2.80068" rx="2.80223" ry="2.80068" transform="matrix(0.000135198 1 -1 -0.000135285 42.2168 19.4258)" />
<ellipse cx="2.80223" cy="2.80068" rx="2.80223" ry="2.80068" transform="matrix(0.000135198 1 -1 -0.000135183 42.2207 46.8232)" />
<ellipse cx="2.80223" cy="2.80068" rx="2.80223" ry="2.80068" transform="matrix(0.000135198 1 -1 -0.000135183 48.4453 39.9736)" />
</svg>
