<svg width="100" height="100" viewBox="0 0 100 100" fill="none" xmlns="http://www.w3.org/2000/svg">
<path fill-rule="evenodd" clip-rule="evenodd" d="M25.9999 14C25.9999 11.7909 27.7907 10 29.9999 10H53.9999C56.209 10 57.9999 11.7909 57.9999 14C57.9999 16.2091 56.209 18 53.9999 18H29.9999C27.7907 18 25.9999 16.2091 25.9999 14ZM25.9999 70C25.9999 67.7909 27.7907 66 29.9999 66H53.9999C56.209 66 57.9999 67.7909 57.9999 70C57.9999 72.2091 56.209 74 53.9999 74H29.9999C27.7907 74 25.9999 72.2091 25.9999 70ZM14 25.9999C11.7909 25.9999 10 27.7907 10 29.9999V53.9999C10 56.209 11.7909 57.9999 14 57.9999C16.2091 57.9999 18 56.209 18 53.9999V29.9999C18 27.7907 16.2091 25.9999 14 25.9999ZM65.9998 29.9999C65.9998 27.7907 67.7906 25.9999 69.9998 25.9999C72.2089 25.9999 73.9998 27.7907 73.9998 29.9999V53.9999C73.9998 56.209 72.2089 57.9999 69.9998 57.9999C67.7906 57.9999 65.9998 56.209 65.9998 53.9999V29.9999ZM77.9999 73.9999C75.7908 73.9999 73.9999 75.7908 73.9999 77.9999C73.9999 80.2091 75.7908 81.9999 77.9999 81.9999C80.2091 81.9999 81.9999 80.2091 81.9999 77.9999C81.9999 75.7908 80.2091 73.9999 77.9999 73.9999ZM65.9998 70C65.9998 67.7909 67.7906 66 69.9998 66C72.2089 66 73.9998 67.7909 73.9998 70C73.9998 72.2091 72.2089 74 69.9998 74C67.7906 74 65.9998 72.2091 65.9998 70ZM62.0001 57.9998C59.7909 57.9998 58.0001 59.7907 58.0001 61.9998C58.0001 64.209 59.7909 65.9998 62.0001 65.9998C64.2092 65.9998 66.0001 64.209 66.0001 61.9998C66.0001 59.7907 64.2092 57.9998 62.0001 57.9998ZM58.0001 21.9999C58.0001 19.7908 59.7909 17.9999 62.0001 17.9999C64.2092 17.9999 66.0001 19.7908 66.0001 21.9999C66.0001 24.2091 64.2092 25.9999 62.0001 25.9999C59.7909 25.9999 58.0001 24.2091 58.0001 21.9999ZM21.9997 17.9999C19.7905 17.9999 17.9997 19.7908 17.9997 21.9999C17.9997 24.2091 19.7905 25.9999 21.9997 25.9999C24.2088 25.9999 25.9997 24.2091 25.9997 21.9999C25.9997 19.7908 24.2088 17.9999 21.9997 17.9999ZM17.9997 61.9998C17.9997 59.7907 19.7905 57.9998 21.9997 57.9998C24.2088 57.9998 25.9997 59.7907 25.9997 61.9998C25.9997 64.209 24.2088 65.9998 21.9997 65.9998C19.7905 65.9998 17.9997 64.209 17.9997 61.9998ZM86.0001 81.9999C83.791 81.9999 82.0001 83.7907 82.0001 85.9999C82.0001 88.209 83.791 89.9999 86.0001 89.9999C88.2093 89.9999 90.0001 88.209 90.0001 85.9999C90.0001 83.7907 88.2093 81.9999 86.0001 81.9999Z" fill="#9AA6CD"/>
<rect x="48.5088" y="29.8594" width="8" height="26.1747" rx="4" transform="rotate(45 48.5088 29.8594)" fill="#9AA6CD"/>
<rect x="54.165" y="48.3672" width="8" height="26.1747" rx="4" transform="rotate(135 54.165 48.3672)" fill="#9AA6CD"/>
</svg>
