<svg width="44" height="44" viewBox="0 0 44 44" fill="none" xmlns="http://www.w3.org/2000/svg">
<path fill-rule="evenodd" clip-rule="evenodd" d="M8 37.0002V7.00016H36V24.5002C36 25.3286 36.6716 26.0002 37.5 26.0002C38.3284 26.0002 39 25.3286 39 24.5002V5.50016C39 4.67174 38.3284 4.00016 37.5 4.00016H7.5C7.32468 4.00016 7.15639 4.03024 7 4.08552C6.84361 4.03024 6.67532 4.00016 6.5 4.00016C5.67157 4.00016 5 4.67174 5 5.50016V38.5002C5 39.3286 5.67157 40.0002 6.5 40.0002H22.5C23.3284 40.0002 24 39.3286 24 38.5002C24 37.6717 23.3284 37.0002 22.5 37.0002H8ZM12.8333 12.8333C12.8333 11.8208 13.6541 11 14.6667 11C15.6792 11 16.5 11.8208 16.5 12.8333C16.5 13.8459 15.6792 14.6667 14.6667 14.6667C13.6541 14.6667 12.8333 13.8459 12.8333 12.8333ZM14.6667 18.3333C13.6541 18.3333 12.8333 19.1541 12.8333 20.1667C12.8333 21.1792 13.6541 22 14.6667 22H29.3333C30.3459 22 31.1667 21.1792 31.1667 20.1667C31.1667 19.1541 30.3459 18.3333 29.3333 18.3333H14.6667ZM12.8333 27.5C12.8333 26.4875 13.6541 25.6667 14.6667 25.6667H23.8333C24.8459 25.6667 25.6667 26.4875 25.6667 27.5C25.6667 28.5125 24.8459 29.3333 23.8333 29.3333H14.6667C13.6541 29.3333 12.8333 28.5125 12.8333 27.5Z" fill="#134AFF"/>
<ellipse cx="1.14469" cy="1.14406" rx="1.14469" ry="1.14406" transform="matrix(1 0 -0.000135139 1 31.3379 27)" fill="#134AFF"/>
<ellipse cx="1.14469" cy="1.14406" rx="1.14469" ry="1.14406" transform="matrix(1 0 -0.000135139 1 31.3379 29.7912)" fill="#134AFF"/>
<ellipse cx="1.14469" cy="1.14406" rx="1.14469" ry="1.14406" transform="matrix(1 0 -0.000135139 1 31.3379 32.5959)" fill="#134AFF"/>
<ellipse cx="1.14469" cy="1.14406" rx="1.14469" ry="1.14406" transform="matrix(1 0 -0.000135139 1 31.3379 35.3942)" fill="#134AFF"/>
<ellipse cx="1.14469" cy="1.14406" rx="1.14469" ry="1.14406" transform="matrix(1 0 -0.000135139 1 31.3379 38.1913)" fill="#134AFF"/>
<ellipse cx="1.14469" cy="1.14406" rx="1.14469" ry="1.14406" transform="matrix(1 0 -0.000135139 1 28.5391 29.7912)" fill="#134AFF"/>
<ellipse cx="1.14469" cy="1.14406" rx="1.14469" ry="1.14406" transform="matrix(1 0 -0.000135242 1 26.002 32.5959)" fill="#134AFF"/>
<ellipse cx="1.14469" cy="1.14406" rx="1.14469" ry="1.14406" transform="matrix(1 0 -0.000135139 1 36.7246 32.5959)" fill="#134AFF"/>
<ellipse cx="1.14469" cy="1.14406" rx="1.14469" ry="1.14406" transform="matrix(1 0 -0.000135139 1 34.3926 29.7906)" fill="#134AFF"/>
</svg>
