<svg width="25" height="26" viewBox="0 0 25 26" fill="none" xmlns="http://www.w3.org/2000/svg">
<path fill-rule="evenodd" clip-rule="evenodd" d="M6.5 4C6.5 3.44772 6.94772 3 7.5 3H13.5C14.0523 3 14.5 3.44772 14.5 4C14.5 4.55228 14.0523 5 13.5 5H7.5C6.94772 5 6.5 4.55228 6.5 4ZM6.5 18C6.5 17.4477 6.94772 17 7.5 17H13.5C14.0523 17 14.5 17.4477 14.5 18C14.5 18.5523 14.0523 19 13.5 19H7.5C6.94772 19 6.5 18.5523 6.5 18ZM3.5 7C2.94772 7 2.5 7.44772 2.5 8V14C2.5 14.5523 2.94772 15 3.5 15C4.05228 15 4.5 14.5523 4.5 14V8C4.5 7.44772 4.05228 7 3.5 7ZM16.5 8C16.5 7.44772 16.9477 7 17.5 7C18.0523 7 18.5 7.44772 18.5 8V14C18.5 14.5523 18.0523 15 17.5 15C16.9477 15 16.5 14.5523 16.5 14V8ZM19.5 19C18.9477 19 18.5 19.4477 18.5 20C18.5 20.5523 18.9477 21 19.5 21C20.0523 21 20.5 20.5523 20.5 20C20.5 19.4477 20.0523 19 19.5 19ZM16.5 18C16.5 17.4477 16.9477 17 17.5 17C18.0523 17 18.5 17.4477 18.5 18C18.5 18.5523 18.0523 19 17.5 19C16.9477 19 16.5 18.5523 16.5 18ZM15.5 15C14.9477 15 14.5 15.4477 14.5 16C14.5 16.5523 14.9477 17 15.5 17C16.0523 17 16.5 16.5523 16.5 16C16.5 15.4477 16.0523 15 15.5 15ZM14.5 6C14.5 5.44772 14.9477 5 15.5 5C16.0523 5 16.5 5.44772 16.5 6C16.5 6.55228 16.0523 7 15.5 7C14.9477 7 14.5 6.55228 14.5 6ZM5.5 5C4.94772 5 4.5 5.44772 4.5 6C4.5 6.55228 4.94772 7 5.5 7C6.05228 7 6.5 6.55228 6.5 6C6.5 5.44772 6.05228 5 5.5 5ZM4.5 16C4.5 15.4477 4.94772 15 5.5 15C6.05228 15 6.5 15.4477 6.5 16C6.5 16.5523 6.05228 17 5.5 17C4.94772 17 4.5 16.5523 4.5 16ZM21.5 21C20.9477 21 20.5 21.4477 20.5 22C20.5 22.5523 20.9477 23 21.5 23C22.0523 23 22.5 22.5523 22.5 22C22.5 21.4477 22.0523 21 21.5 21Z" fill="#134AFF"/>
</svg>
