<svg width="100" height="100" viewBox="0 0 100 100" fill="none" xmlns="http://www.w3.org/2000/svg">
<path fill-rule="evenodd" clip-rule="evenodd" d="M8.96848 21.6484C6.63922 21.6484 4.75098 23.5367 4.75098 25.8659C4.75098 28.1952 6.63922 30.0834 8.96848 30.0834C11.2977 30.0834 13.186 28.1952 13.186 25.8659C13.186 23.5367 11.2977 21.6484 8.96848 21.6484ZM15.2947 25.8659C15.2947 23.5367 17.183 21.6484 19.5122 21.6484C21.8415 21.6484 23.7297 23.5367 23.7297 25.8659C23.7297 28.1952 21.8415 30.0834 19.5122 30.0834C17.183 30.0834 15.2947 28.1952 15.2947 25.8659ZM30.0564 21.6484C27.7271 21.6484 25.8389 23.5367 25.8389 25.8659C25.8389 28.1952 27.7271 30.0834 30.0564 30.0834C32.3856 30.0834 34.2739 28.1952 34.2739 25.8659C34.2739 23.5367 32.3856 21.6484 30.0564 21.6484ZM36.3818 25.8659C36.3818 23.5367 38.2701 21.6484 40.5993 21.6484C42.9286 21.6484 44.8168 23.5367 44.8168 25.8659C44.8168 28.1952 42.9286 30.0834 40.5993 30.0834C38.2701 30.0834 36.3818 28.1952 36.3818 25.8659ZM40.5993 32.1921C38.2701 32.1921 36.3818 34.0804 36.3818 36.4096C36.3818 38.7389 38.2701 40.6271 40.5993 40.6271C42.9286 40.6271 44.8168 38.7389 44.8168 36.4096C44.8168 34.0804 42.9286 32.1921 40.5993 32.1921ZM40.5993 42.7358C38.2701 42.7358 36.3818 44.6241 36.3818 46.9533C36.3818 49.2826 38.2701 51.1708 40.5993 51.1708C42.9286 51.1708 44.8168 49.2826 44.8168 46.9533C44.8168 44.6241 42.9286 42.7358 40.5993 42.7358ZM4.75098 36.4097C4.75098 34.0804 6.63922 32.1922 8.96848 32.1922C11.2977 32.1922 13.186 34.0804 13.186 36.4097C13.186 38.739 11.2977 40.6272 8.96848 40.6272C6.63922 40.6272 4.75098 38.739 4.75098 36.4097ZM8.96848 42.736C6.63922 42.736 4.75098 44.6242 4.75098 46.9535C4.75098 49.2827 6.63922 51.171 8.96848 51.171C11.2977 51.171 13.186 49.2827 13.186 46.9535C13.186 44.6242 11.2977 42.736 8.96848 42.736ZM36.3818 57.4973C36.3818 55.168 38.2701 53.2798 40.5993 53.2798C42.9286 53.2798 44.8168 55.168 44.8168 57.4973C44.8168 59.8266 42.9286 61.7148 40.5993 61.7148C38.2701 61.7148 36.3818 59.8266 36.3818 57.4973ZM19.5122 42.736C17.183 42.736 15.2947 44.6242 15.2947 46.9535C15.2947 49.2827 17.183 51.171 19.5122 51.171C21.8415 51.171 23.7297 49.2827 23.7297 46.9535C23.7297 44.6242 21.8415 42.736 19.5122 42.736ZM27.9473 65.9321C27.9473 63.6029 29.8356 61.7146 32.1648 61.7146C34.4941 61.7146 36.3823 63.6029 36.3823 65.9321C36.3823 68.2614 34.4941 70.1497 32.1648 70.1497C29.8356 70.1497 27.9473 68.2614 27.9473 65.9321ZM23.7302 70.1497C21.4009 70.1497 19.5127 72.0379 19.5127 74.3672C19.5127 76.6964 21.4009 78.5847 23.7302 78.5847C26.0595 78.5847 27.9477 76.6964 27.9477 74.3672C27.9477 72.0379 26.0595 70.1497 23.7302 70.1497Z" fill="#A5BAFF"/>
<path fill-rule="evenodd" clip-rule="evenodd" d="M58.1726 21.6484C55.8433 21.6484 53.9551 23.5367 53.9551 25.8659C53.9551 28.1952 55.8433 30.0834 58.1726 30.0834C60.5018 30.0834 62.3901 28.1952 62.3901 25.8659C62.3901 23.5367 60.5018 21.6484 58.1726 21.6484ZM64.499 25.8659C64.499 23.5367 66.3872 21.6484 68.7165 21.6484C71.0457 21.6484 72.934 23.5367 72.934 25.8659C72.934 28.1952 71.0457 30.0834 68.7165 30.0834C66.3872 30.0834 64.499 28.1952 64.499 25.8659ZM79.2605 21.6484C76.9312 21.6484 75.043 23.5367 75.043 25.8659C75.043 28.1952 76.9312 30.0834 79.2605 30.0834C81.5897 30.0834 83.478 28.1952 83.478 25.8659C83.478 23.5367 81.5897 21.6484 79.2605 21.6484ZM85.5869 25.8659C85.5869 23.5367 87.4752 21.6484 89.8044 21.6484C92.1337 21.6484 94.0219 23.5367 94.0219 25.8659C94.0219 28.1952 92.1337 30.0834 89.8044 30.0834C87.4752 30.0834 85.5869 28.1952 85.5869 25.8659ZM89.8044 32.1921C87.4752 32.1921 85.5869 34.0804 85.5869 36.4096C85.5869 38.7389 87.4752 40.6271 89.8044 40.6271C92.1337 40.6271 94.0219 38.7389 94.0219 36.4096C94.0219 34.0804 92.1337 32.1921 89.8044 32.1921ZM89.8044 42.7358C87.4752 42.7358 85.5869 44.6241 85.5869 46.9533C85.5869 49.2826 87.4752 51.1708 89.8044 51.1708C92.1337 51.1708 94.0219 49.2826 94.0219 46.9533C94.0219 44.6241 92.1337 42.7358 89.8044 42.7358ZM53.9552 36.4097C53.9552 34.0804 55.8434 32.1922 58.1727 32.1922C60.502 32.1922 62.3902 34.0804 62.3902 36.4097C62.3902 38.739 60.502 40.6272 58.1727 40.6272C55.8434 40.6272 53.9552 38.739 53.9552 36.4097ZM58.1727 42.736C55.8434 42.736 53.9552 44.6242 53.9552 46.9535C53.9552 49.2827 55.8434 51.171 58.1727 51.171C60.502 51.171 62.3902 49.2827 62.3902 46.9535C62.3902 44.6242 60.502 42.736 58.1727 42.736ZM85.5869 57.4973C85.5869 55.168 87.4752 53.2798 89.8044 53.2798C92.1337 53.2798 94.0219 55.168 94.0219 57.4973C94.0219 59.8266 92.1337 61.7148 89.8044 61.7148C87.4752 61.7148 85.5869 59.8266 85.5869 57.4973ZM68.7165 42.736C66.3872 42.736 64.499 44.6242 64.499 46.9535C64.499 49.2827 66.3872 51.171 68.7165 51.171C71.0457 51.171 72.934 49.2827 72.934 46.9535C72.934 44.6242 71.0457 42.736 68.7165 42.736ZM77.1516 65.9321C77.1516 63.6029 79.0398 61.7146 81.3691 61.7146C83.6983 61.7146 85.5866 63.6029 85.5866 65.9321C85.5866 68.2614 83.6983 70.1497 81.3691 70.1497C79.0398 70.1497 77.1516 68.2614 77.1516 65.9321ZM72.9341 70.1498C70.6049 70.1498 68.7166 72.038 68.7166 74.3673C68.7166 76.6965 70.6049 78.5848 72.9341 78.5848C75.2634 78.5848 77.1516 76.6965 77.1516 74.3673C77.1516 72.038 75.2634 70.1498 72.9341 70.1498Z" fill="#A5BAFF"/>
</svg>
