<svg width="209" height="62" viewBox="0 0 209 62" xmlns="http://www.w3.org/2000/svg">
<path d="M194.948 58C191.28 58 188.422 57.2446 186.374 55.7337C184.37 54.2228 182.962 52.1872 182.152 49.6271C181.384 47.067 181 44.2131 181 41.0654V23.0605C181 19.619 181.384 16.6182 182.152 14.0581C182.962 11.498 184.37 9.52542 186.374 8.14043C188.422 6.71348 191.28 6 194.948 6C198.19 6 200.749 6.58757 202.626 7.76271C204.545 8.93785 205.91 10.6166 206.72 12.799C207.573 14.9814 208 17.6045 208 20.6683V24.6973H201.154V21.109C201.154 19.2203 201.047 17.5625 200.834 16.1356C200.664 14.6667 200.152 13.5335 199.299 12.7361C198.445 11.9387 197.017 11.54 195.012 11.54C192.964 11.54 191.472 11.9806 190.533 12.862C189.595 13.7014 188.976 14.9185 188.678 16.5133C188.422 18.0662 188.294 19.8918 188.294 21.9903V42.1985C188.294 44.7587 188.507 46.7942 188.934 48.3051C189.36 49.774 190.064 50.8232 191.045 51.4528C192.026 52.0823 193.348 52.3971 195.012 52.3971C196.974 52.3971 198.382 51.9774 199.235 51.138C200.088 50.2567 200.621 49.0605 200.834 47.5496C201.047 46.0387 201.154 44.276 201.154 42.2615V38.4843H208V42.2615C208 45.3672 207.616 48.1162 206.848 50.5085C206.081 52.8588 204.758 54.7054 202.882 56.0484C201.005 57.3495 198.36 58 194.948 58Z" />
<path d="M152 58V7H164.531C167.565 7 169.976 7.56667 171.763 8.7C173.592 9.79136 174.922 11.3864 175.753 13.4852C176.584 15.584 177 18.1235 177 21.1037C177 23.7901 176.522 26.1198 175.566 28.0926C174.652 30.0654 173.28 31.5975 171.451 32.6889C169.623 33.7383 167.337 34.263 164.594 34.263H159.045V58H152ZM159.045 29.163H162.287C164.323 29.163 165.924 28.9321 167.087 28.4704C168.251 28.0086 169.082 27.2111 169.581 26.0778C170.08 24.9025 170.329 23.2654 170.329 21.1667C170.329 18.7321 170.142 16.8642 169.768 15.563C169.436 14.2617 168.708 13.3593 167.586 12.8556C166.464 12.3519 164.718 12.1 162.349 12.1H159.045V29.163Z" />
<path d="M131.032 58C127.576 58 124.816 57.3285 122.752 55.9855C120.687 54.6424 119.212 52.7328 118.327 50.2567C117.442 47.7385 117 44.8006 117 41.4431V22.1162C117 18.7587 117.442 15.8838 118.327 13.4915C119.254 11.0573 120.729 9.21065 122.752 7.95157C124.816 6.65053 127.576 6 131.032 6C134.487 6 137.226 6.65053 139.248 7.95157C141.271 9.25262 142.725 11.0993 143.609 13.4915C144.536 15.8838 145 18.7587 145 22.1162V41.5061C145 44.8216 144.536 47.7175 143.609 50.1937C142.725 52.6699 141.271 54.6005 139.248 55.9855C137.226 57.3285 134.487 58 131.032 58ZM131.032 52.3971C132.928 52.3971 134.36 52.0194 135.33 51.2639C136.299 50.4665 136.952 49.3753 137.289 47.9903C137.626 46.5634 137.795 44.9056 137.795 43.0169V20.6683C137.795 18.7797 137.626 17.1638 137.289 15.8208C136.952 14.4358 136.299 13.3866 135.33 12.6731C134.36 11.9177 132.928 11.54 131.032 11.54C129.135 11.54 127.682 11.9177 126.67 12.6731C125.701 13.3866 125.048 14.4358 124.711 15.8208C124.374 17.1638 124.205 18.7797 124.205 20.6683V43.0169C124.205 44.9056 124.374 46.5634 124.711 47.9903C125.048 49.3753 125.701 50.4665 126.67 51.2639C127.682 52.0194 129.135 52.3971 131.032 52.3971Z" />
<path d="M88.311 60V51.4168C88.0989 51.4588 87.7597 51.5009 87.2933 51.543C86.8269 51.5851 86.424 51.6061 86.0848 51.6061C83.4982 51.6061 81.2933 51.2064 79.47 50.407C77.689 49.6075 76.3322 48.2191 75.3993 46.2416C74.4664 44.2641 74 41.5502 74 38.1001V25.3515C74 21.9434 74.4452 19.2506 75.3357 17.2731C76.2261 15.2956 77.4982 13.8861 79.1519 13.0446C80.8481 12.161 82.8622 11.7193 85.1943 11.7193C85.788 11.7193 86.3816 11.7403 86.9753 11.7824C87.5689 11.7824 88.0141 11.8034 88.311 11.8455V2H95.4982V11.8455C95.9223 11.8034 96.4523 11.7824 97.0883 11.7824C97.7244 11.7403 98.2756 11.7193 98.742 11.7193C101.159 11.7193 103.194 12.161 104.848 13.0446C106.544 13.8861 107.816 15.3166 108.664 17.3362C109.555 19.3137 110 21.9855 110 25.3515V38.1001C110 41.5082 109.555 44.2009 108.664 46.1785C107.774 48.156 106.544 49.5655 104.975 50.407C103.406 51.2064 101.625 51.6061 99.6325 51.6061C98.9541 51.6061 98.2756 51.5851 97.5972 51.543C96.9187 51.5009 96.2191 51.4588 95.4982 51.4168V60H88.311ZM86.53 47.3145C86.8693 47.3145 87.2085 47.3145 87.5477 47.3145C87.8869 47.2724 88.1413 47.2303 88.311 47.1883V16.1371C87.9293 16.095 87.5477 16.074 87.1661 16.074C86.7845 16.0319 86.424 16.0109 86.0848 16.0109C84.6855 16.0109 83.583 16.2844 82.7774 16.8313C81.9717 17.3783 81.3993 18.325 81.0601 19.6714C80.7208 21.0178 80.5512 22.9111 80.5512 25.3515V38.1001C80.5512 40.5404 80.6996 42.4338 80.9965 43.7802C81.2933 45.1266 81.8657 46.0522 82.7138 46.5571C83.5618 47.062 84.8339 47.3145 86.53 47.3145ZM97.8516 47.3145C99.3781 47.3145 100.544 47.062 101.35 46.5571C102.155 46.0522 102.707 45.1266 103.004 43.7802C103.3 42.4338 103.449 40.5404 103.449 38.1001V25.3515C103.449 22.9111 103.3 21.0178 103.004 19.6714C102.707 18.325 102.155 17.3783 101.35 16.8313C100.544 16.2844 99.3357 16.0109 97.7244 16.0109C97.3428 16.0109 96.9611 16.0319 96.5795 16.074C96.1979 16.074 95.8375 16.095 95.4982 16.1371V47.1883C95.7951 47.2303 96.1555 47.2724 96.5795 47.3145C97.0035 47.3145 97.4276 47.3145 97.8516 47.3145Z" />
<path d="M16.3772 62C16.3772 62 20.7582 51.9725 20.8735 51.716C20.9846 51.4552 20.8906 50.8453 20.1434 50.8032C19.2552 50.7527 16.3901 50.5761 13.4011 49.8358C11.6888 49.411 9.80575 48.7927 8.01663 47.8715C5.55285 46.6013 2.85422 44.7422 1.10353 41.2889C-0.177464 38.7652 -0.800881 34.2604 1.8337 29.4991C3.50326 26.4833 8.16181 20.2077 18.4012 15.7828C20.4124 14.9121 21.2408 14.6345 22.9018 14.0961C23.7857 13.8101 24.6226 14.2055 24.9471 14.7144C27.2401 18.2686 32.1463 25.9154 32.1463 25.9154C31.8901 25.9701 29.8021 26.416 27.5475 27.2992C23.7814 28.7714 19.9854 31.3203 17.876 34.1847C14.0288 39.4172 16.0186 44.473 21.1041 46.6517C22.9018 47.4215 24.0162 47.6234 25.1521 47.8295C28.1496 48.3721 31.7022 47.9725 32.4836 47.8589C33.3291 47.7369 33.739 48.1786 33.9141 48.5655C34.0507 48.8684 33.9866 49.2217 33.9738 49.3521C33.8415 50.7233 33.4956 53.8653 33.1967 56.6329C33.1156 57.3985 32.7441 57.9705 31.6595 58.2271C30.6091 58.4752 28.8669 58.9169 27.1162 59.3459C22.3552 60.5152 16.3815 61.9958 16.3815 61.9958" />
<path d="M44.6227 0C44.6227 0 40.2418 10.0275 40.1265 10.284C40.0154 10.5448 40.1094 11.1547 40.8566 11.1968C41.7448 11.2473 44.6099 11.4239 47.5989 12.1642C49.3112 12.589 51.1943 13.2073 52.9834 14.1285C55.4471 15.3987 58.1458 17.2578 59.8965 20.7111C61.1775 23.2348 61.8009 27.7396 59.1663 32.5009C57.4967 35.5167 52.8382 41.7923 42.5988 46.2172C40.5876 47.0879 39.7592 47.3655 38.0982 47.9039C37.2143 48.1899 36.3774 47.7945 36.0529 47.2856C33.7599 43.7314 28.8537 36.0846 28.8537 36.0846C29.1099 36.0299 31.1979 35.584 33.4525 34.7008C37.2186 33.2286 41.0146 30.6797 43.124 27.8153C46.9712 22.5828 44.9814 17.527 39.8959 15.3483C38.0982 14.5785 36.9838 14.3766 35.8479 14.1705C32.8504 13.6279 29.2978 14.0275 28.5164 14.1411C27.6709 14.2631 27.261 13.8214 27.0859 13.4345C26.9493 13.1316 27.0134 12.7783 27.0262 12.6479C27.1585 11.2767 27.5044 8.1347 27.8033 5.36705C27.8844 4.60153 28.2559 4.02949 29.3405 3.77292C30.3909 3.52476 32.1331 3.08311 33.8838 2.65408C38.6448 1.48477 44.6185 0.00420615 44.6185 0.00420615" />
</svg>
