<svg xmlns="http://www.w3.org/2000/svg" xmlns:xlink="http://www.w3.org/1999/xlink"><defs><style>
    .sprite-symbol-usage {display: none;}
    .sprite-symbol-usage:target {display: inline;}
  </style><symbol viewBox="0 0 25 25" fill="none" id="icon-arrow-down">
<ellipse cx="1.19169" cy="1.19157" rx="1.19169" ry="1.19157" transform="matrix(1 0 0 -1 16.6172 19)" fill="#134AFF" />
<ellipse cx="1.19169" cy="1.19157" rx="1.19169" ry="1.19157" transform="matrix(1 0 0 -1 16.6172 15.4282)" fill="#134AFF" />
<ellipse cx="1.19169" cy="1.19157" rx="1.19169" ry="1.19157" transform="matrix(1 0 0 -1 13.043 19)" fill="#134AFF" />
<ellipse cx="1.19169" cy="1.19157" rx="1.19169" ry="1.19157" transform="matrix(1 0 0 -1 13.043 15.4282)" fill="#134AFF" />
<ellipse cx="1.19169" cy="1.19157" rx="1.19169" ry="1.19157" transform="matrix(1 0 0 -1 10.3672 12.7446)" fill="#134AFF" />
<ellipse cx="1.19169" cy="1.19157" rx="1.19169" ry="1.19157" transform="matrix(1 0 0 -1 7.68359 10.0674)" fill="#134AFF" />
<ellipse cx="1.19169" cy="1.19157" rx="1.19169" ry="1.19157" transform="matrix(1 0 0 -1 5 7.3833)" fill="#134AFF" />
<ellipse cx="1.19169" cy="1.19157" rx="1.19169" ry="1.19157" transform="matrix(1 0 0 -1 9.46875 19)" fill="#134AFF" />
<ellipse cx="1.19169" cy="1.19157" rx="1.19169" ry="1.19157" transform="matrix(1 0 0 -1 5.89062 19)" fill="#134AFF" />
<ellipse cx="1.19169" cy="1.19157" rx="1.19169" ry="1.19157" transform="matrix(1 0 0 -1 16.6172 11.8501)" fill="#134AFF" />
<ellipse cx="1.19169" cy="1.19157" rx="1.19169" ry="1.19157" transform="matrix(1 0 0 -1 16.6172 8.27783)" fill="#134AFF" />
</symbol><symbol viewBox="0 0 72 72" fill="none" id="icon-arrow-right">
<ellipse cx="2.80223" cy="2.80068" rx="2.80223" ry="2.80068" transform="matrix(0.000135198 1 -1 -0.000135183 55.918 32.501)" fill="white" />
<ellipse cx="2.80223" cy="2.80068" rx="2.80223" ry="2.80068" transform="matrix(0.000135198 1 -1 -0.000135183 49.0684 32.501)" fill="white" />
<ellipse cx="2.80223" cy="2.80068" rx="2.80223" ry="2.80068" transform="matrix(0.000135198 1 -1 -0.000135183 42.2188 32.501)" fill="white" />
<ellipse cx="2.80223" cy="2.80068" rx="2.80223" ry="2.80068" transform="matrix(0.000135198 1 -1 -0.000135183 35.3672 32.501)" fill="white" />
<ellipse cx="2.80223" cy="2.80068" rx="2.80223" ry="2.80068" transform="matrix(0.000135198 1 -1 -0.000135183 28.5195 32.501)" fill="white" />
<ellipse cx="2.80223" cy="2.80068" rx="2.80223" ry="2.80068" transform="matrix(0.000135198 1 -1 -0.000135183 21.668 32.501)" fill="white" />
<ellipse cx="2.80223" cy="2.80068" rx="2.80223" ry="2.80068" transform="matrix(0.000135198 1 -1 -0.000135183 49.0645 25.6514)" fill="white" />
<ellipse cx="2.80223" cy="2.80068" rx="2.80223" ry="2.80068" transform="matrix(0.000135198 1 -1 -0.000135285 42.2168 19.4258)" fill="white" />
<ellipse cx="2.80223" cy="2.80068" rx="2.80223" ry="2.80068" transform="matrix(0.000135198 1 -1 -0.000135183 42.2207 46.8232)" fill="white" />
<ellipse cx="2.80223" cy="2.80068" rx="2.80223" ry="2.80068" transform="matrix(0.000135198 1 -1 -0.000135183 48.4453 39.9736)" fill="white" />
</symbol><symbol viewBox="0 0 35 52" fill="none" id="icon-play">
<circle cx="4.52649" cy="4.30878" r="3.76477" fill="white" />
<circle cx="4.52649" cy="13.0933" r="3.76477" fill="white" />
<circle cx="4.52649" cy="21.8777" r="3.76477" fill="white" />
<circle cx="4.52649" cy="30.6622" r="3.76477" fill="white" />
<circle cx="4.52649" cy="39.4467" r="3.76477" fill="white" />
<circle cx="4.52649" cy="48.2311" r="3.76477" fill="white" />
<circle cx="13.3107" cy="13.0933" r="3.76477" fill="white" />
<circle cx="13.3107" cy="21.8777" r="3.76477" fill="white" />
<circle cx="13.3107" cy="30.6622" r="3.76477" fill="white" />
<circle cx="13.3107" cy="39.4467" r="3.76477" fill="white" />
<circle cx="22.0958" cy="17.4855" r="3.76477" fill="white" />
<circle cx="22.0958" cy="26.27" r="3.76477" fill="white" />
<circle cx="22.0958" cy="35.0544" r="3.76477" fill="white" />
<circle cx="30.88" cy="26.27" r="3.76477" fill="white" />
</symbol><symbol viewBox="0 0 25 25" fill="none" id="icon-rocket">
<g clip-path="url(#icon-rocket_clip0_230_416)">
<circle cx="14.6499" cy="4.47655" r="0.813954" fill="#134AFF" />
<circle cx="0.813954" cy="0.813954" r="0.813954" transform="matrix(-1 0 0 1 12.208 3.6626)" fill="#134AFF" />
<circle cx="13.022" cy="2.84862" r="0.813954" fill="#134AFF" />
<circle cx="13.022" cy="18.314" r="0.813954" fill="#134AFF" />
<circle cx="13.022" cy="23.1977" r="0.813954" fill="#134AFF" />
<circle cx="12.0054" cy="20.7558" r="0.813954" fill="#134AFF" />
<circle cx="14.2417" cy="20.7558" r="0.813954" fill="#134AFF" />
<circle cx="10.9897" cy="18.314" r="0.813954" fill="#134AFF" />
<circle cx="15.0581" cy="18.314" r="0.813954" fill="#134AFF" />
<circle cx="16.2778" cy="6.10448" r="0.813954" fill="#134AFF" />
<circle cx="0.813954" cy="0.813954" r="0.813954" transform="matrix(-1 0 0 1 10.5801 5.29053)" fill="#134AFF" />
<circle cx="16.2778" cy="8.13915" r="0.813954" fill="#134AFF" />
<circle cx="0.813954" cy="0.813954" r="0.813954" transform="matrix(-1 0 0 1 10.5801 7.3252)" fill="#134AFF" />
<circle cx="16.2778" cy="10.1743" r="0.813954" fill="#134AFF" />
<circle cx="16.2778" cy="14.2436" r="0.813954" fill="#134AFF" />
<circle cx="16.2778" cy="16.2788" r="0.813954" fill="#134AFF" />
<circle cx="0.813954" cy="0.813954" r="0.813954" transform="matrix(-1 0 0 1 10.5801 9.36035)" fill="#134AFF" />
<circle cx="0.813954" cy="0.813954" r="0.813954" transform="matrix(-1 0 0 1 10.5801 13.4297)" fill="#134AFF" />
<circle cx="16.2778" cy="12.209" r="0.813954" fill="#134AFF" />
<circle cx="0.813954" cy="0.813954" r="0.813954" transform="matrix(-1 0 0 1 10.5801 11.395)" fill="#134AFF" />
<circle cx="0.813954" cy="0.813954" r="0.813954" transform="matrix(-1 0 0 1 8.13574 12.6162)" fill="#134AFF" />
<circle cx="18.7173" cy="13.4302" r="0.813954" fill="#134AFF" />
<circle opacity="0.9" cx="0.813954" cy="0.813954" r="0.813954" transform="matrix(-1 0 0 1 6.51172 14.2441)" fill="#134AFF" />
<circle opacity="0.9" cx="20.3462" cy="15.0581" r="0.813954" fill="#134AFF" />
<circle cx="0.813954" cy="0.813954" r="0.813954" transform="matrix(-1 0 0 1 10.5801 15.4648)" fill="#134AFF" />
<circle cx="0.813954" cy="0.813954" r="0.813954" transform="matrix(-1 0 0 1 12.8154 15.4648)" fill="#134AFF" />
<circle cx="0.813954" cy="0.813954" r="0.813954" transform="matrix(-1 0 0 1 15.0596 15.4648)" fill="#134AFF" />
</g>
<defs>

</defs>
</symbol><clipPath id="icon-rocket_clip0_230_416">
<rect width="25" height="25" fill="white" />
</clipPath><symbol viewBox="0 0 72 72" fill="none" id="icon-rocket-start">
<circle cx="41.3023" cy="7.98325" r="2.65" fill="white" />
<circle cx="2.65" cy="2.65" r="2.65" transform="matrix(-1 0 0 1 33.3516 5.33325)" fill="white" />
<circle cx="36.0016" cy="2.65" r="2.65" fill="white" />
<circle opacity="0.4" cx="36.0016" cy="53.3167" r="2.65" fill="white" />
<circle opacity="0.4" cx="36.0016" cy="69.3167" r="2.65" fill="white" />
<circle opacity="0.4" cx="32.6891" cy="61.3167" r="2.65" fill="white" />
<circle opacity="0.4" cx="39.9762" cy="61.3167" r="2.65" fill="white" />
<circle opacity="0.4" cx="29.3785" cy="53.3167" r="2.65" fill="white" />
<circle opacity="0.4" cx="42.6266" cy="53.3167" r="2.65" fill="white" />
<circle cx="46.6012" cy="13.3167" r="2.65" fill="white" />
<circle cx="2.65" cy="2.65" r="2.65" transform="matrix(-1 0 0 1 28.0527 10.6667)" fill="white" />
<circle cx="46.6012" cy="19.9833" r="2.65" fill="white" />
<circle cx="2.65" cy="2.65" r="2.65" transform="matrix(-1 0 0 1 28.0527 17.3333)" fill="white" />
<circle cx="46.6012" cy="26.65" r="2.65" fill="white" />
<circle cx="46.6012" cy="39.9833" r="2.65" fill="white" />
<circle cx="46.6012" cy="46.65" r="2.65" fill="white" />
<circle cx="2.65" cy="2.65" r="2.65" transform="matrix(-1 0 0 1 28.0527 24)" fill="white" />
<circle cx="2.65" cy="2.65" r="2.65" transform="matrix(-1 0 0 1 28.0527 37.3333)" fill="white" />
<circle cx="46.6012" cy="33.3167" r="2.65" fill="white" />
<circle cx="2.65" cy="2.65" r="2.65" transform="matrix(-1 0 0 1 28.0527 30.6667)" fill="white" />
<circle cx="2.65" cy="2.65" r="2.65" transform="matrix(-1 0 0 1 20.1016 34.6667)" fill="white" />
<circle cx="54.5504" cy="37.3167" r="2.65" fill="white" />
<circle opacity="0.9" cx="2.65" cy="2.65" r="2.65" transform="matrix(-1 0 0 1 14.8027 40)" fill="white" />
<circle opacity="0.9" cx="59.8492" cy="42.65" r="2.65" fill="white" />
<circle cx="2.65" cy="2.65" r="2.65" transform="matrix(-1 0 0 1 28.0508 44)" fill="white" />
<circle cx="2.65" cy="2.65" r="2.65" transform="matrix(-1 0 0 1 35.3359 44)" fill="white" />
<circle cx="2.65" cy="2.65" r="2.65" transform="matrix(-1 0 0 1 42.627 44)" fill="white" />
</symbol></defs><use id="icon-arrow-down-usage" xlink:href="#icon-arrow-down" class="sprite-symbol-usage" /><use id="icon-arrow-right-usage" xlink:href="#icon-arrow-right" class="sprite-symbol-usage" /><use id="icon-play-usage" xlink:href="#icon-play" class="sprite-symbol-usage" /><use id="icon-rocket-usage" xlink:href="#icon-rocket" class="sprite-symbol-usage" /><use id="icon-rocket-start-usage" xlink:href="#icon-rocket-start" class="sprite-symbol-usage" /></svg>