<svg xmlns="http://www.w3.org/2000/svg" xmlns:xlink="http://www.w3.org/1999/xlink"><defs><style>
    .sprite-symbol-usage {display: none;}
    .sprite-symbol-usage:target {display: inline;}
  </style><symbol viewBox="0 0 25 26" id="icon-arrow-bottom">
<g clip-path="url(#icon-arrow-bottom_clip0_3004_26430)">
<ellipse cx="1.17084" cy="1.17084" rx="1.17084" ry="1.17084" transform="matrix(0.707107 0.707107 0.707107 -0.707107 10.9473 17.4766)" />
<ellipse cx="1.17084" cy="1.17084" rx="1.17084" ry="1.17084" transform="matrix(0.707107 0.707107 0.707107 -0.707107 13.4824 14.9414)" />
<ellipse cx="1.17084" cy="1.17084" rx="1.17084" ry="1.17084" transform="matrix(0.707107 0.707107 0.707107 -0.707107 8.47266 15.4844)" />
<ellipse cx="1.17084" cy="1.17084" rx="1.17084" ry="1.17084" transform="matrix(0.707107 0.707107 0.707107 -0.707107 5.875 12.4023)" />
<ellipse cx="1.17084" cy="1.17084" rx="1.17084" ry="1.17084" transform="matrix(0.707107 0.707107 0.707107 -0.707107 3.33594 9.86523)" />
<ellipse cx="1.17084" cy="1.17084" rx="1.17084" ry="1.17084" transform="matrix(0.707107 0.707107 0.707107 -0.707107 16.0215 12.4023)" />
<ellipse cx="1.17084" cy="1.17084" rx="1.17084" ry="1.17084" transform="matrix(0.707107 0.707107 0.707107 -0.707107 18.5566 9.86719)" />
</g>
<defs>

</defs>
</symbol><clipPath id="icon-arrow-bottom_clip0_3004_26430">
<rect width="19" height="12" fill="white" transform="translate(3 7.5)" />
</clipPath><symbol viewBox="0 0 25 25" id="icon-arrow-down">
<ellipse cx="1.19169" cy="1.19157" rx="1.19169" ry="1.19157" transform="matrix(1 0 0 -1 16.6172 19)" />
<ellipse cx="1.19169" cy="1.19157" rx="1.19169" ry="1.19157" transform="matrix(1 0 0 -1 16.6172 15.4282)" />
<ellipse cx="1.19169" cy="1.19157" rx="1.19169" ry="1.19157" transform="matrix(1 0 0 -1 13.043 19)" />
<ellipse cx="1.19169" cy="1.19157" rx="1.19169" ry="1.19157" transform="matrix(1 0 0 -1 13.043 15.4282)" />
<ellipse cx="1.19169" cy="1.19157" rx="1.19169" ry="1.19157" transform="matrix(1 0 0 -1 10.3672 12.7446)" />
<ellipse cx="1.19169" cy="1.19157" rx="1.19169" ry="1.19157" transform="matrix(1 0 0 -1 7.68359 10.0674)" />
<ellipse cx="1.19169" cy="1.19157" rx="1.19169" ry="1.19157" transform="matrix(1 0 0 -1 5 7.3833)" />
<ellipse cx="1.19169" cy="1.19157" rx="1.19169" ry="1.19157" transform="matrix(1 0 0 -1 9.46875 19)" />
<ellipse cx="1.19169" cy="1.19157" rx="1.19169" ry="1.19157" transform="matrix(1 0 0 -1 5.89062 19)" />
<ellipse cx="1.19169" cy="1.19157" rx="1.19169" ry="1.19157" transform="matrix(1 0 0 -1 16.6172 11.8501)" />
<ellipse cx="1.19169" cy="1.19157" rx="1.19169" ry="1.19157" transform="matrix(1 0 0 -1 16.6172 8.27783)" />
</symbol><symbol viewBox="0 0 72 72" id="icon-arrow-right">
<ellipse cx="2.80223" cy="2.80068" rx="2.80223" ry="2.80068" transform="matrix(0.000135198 1 -1 -0.000135183 55.918 32.501)" />
<ellipse cx="2.80223" cy="2.80068" rx="2.80223" ry="2.80068" transform="matrix(0.000135198 1 -1 -0.000135183 49.0684 32.501)" />
<ellipse cx="2.80223" cy="2.80068" rx="2.80223" ry="2.80068" transform="matrix(0.000135198 1 -1 -0.000135183 42.2188 32.501)" />
<ellipse cx="2.80223" cy="2.80068" rx="2.80223" ry="2.80068" transform="matrix(0.000135198 1 -1 -0.000135183 35.3672 32.501)" />
<ellipse cx="2.80223" cy="2.80068" rx="2.80223" ry="2.80068" transform="matrix(0.000135198 1 -1 -0.000135183 28.5195 32.501)" />
<ellipse cx="2.80223" cy="2.80068" rx="2.80223" ry="2.80068" transform="matrix(0.000135198 1 -1 -0.000135183 21.668 32.501)" />
<ellipse cx="2.80223" cy="2.80068" rx="2.80223" ry="2.80068" transform="matrix(0.000135198 1 -1 -0.000135183 49.0645 25.6514)" />
<ellipse cx="2.80223" cy="2.80068" rx="2.80223" ry="2.80068" transform="matrix(0.000135198 1 -1 -0.000135285 42.2168 19.4258)" />
<ellipse cx="2.80223" cy="2.80068" rx="2.80223" ry="2.80068" transform="matrix(0.000135198 1 -1 -0.000135183 42.2207 46.8232)" />
<ellipse cx="2.80223" cy="2.80068" rx="2.80223" ry="2.80068" transform="matrix(0.000135198 1 -1 -0.000135183 48.4453 39.9736)" />
</symbol><symbol viewBox="0 0 24 24" id="icon-cross">
<path d="M5.63567 7.05101C6.02619 7.44153 6.65936 7.44153 7.04988 7.05101C7.44041 6.66049 7.44041 6.02732 7.04988 5.63679C6.65936 5.24627 6.02619 5.24627 5.63567 5.63679C5.24514 6.02732 5.24514 6.66049 5.63567 7.05101Z" />
<path d="M18.4067 16.9926L9.83656 8.42249C9.46946 8.0554 8.87429 8.0554 8.50719 8.42249L8.42234 8.50735C8.05525 8.87444 8.05525 9.46962 8.42234 9.83671L16.9925 18.4068C17.3596 18.7739 17.9548 18.7739 18.3218 18.4068L18.4067 18.322C18.7738 17.9549 18.7738 17.3597 18.4067 16.9926Z" />
<path d="M16.991 5.59495L5.59242 16.9935C5.22532 17.3606 5.22532 17.9558 5.59242 18.3229L5.67727 18.4077C6.04436 18.7748 6.63954 18.7748 7.00663 18.4077L18.4052 7.00917C18.7723 6.64207 18.7723 6.0469 18.4052 5.6798L18.3203 5.59495C17.9533 5.22786 17.3581 5.22786 16.991 5.59495Z" />
</symbol><symbol viewBox="0 0 25 26" fill="none" id="icon-docs">
<g clip-path="url(#icon-docs_clip0_1208_25323)">
<path fill-rule="evenodd" clip-rule="evenodd" d="M5 1.5C5 0.947715 5.44772 0.5 6 0.5H22C22.5523 0.5 23 0.947715 23 1.5V19.5C23 20.0523 22.5523 20.5 22 20.5H6C5.96548 20.5 5.93137 20.4983 5.89776 20.4948C5.3935 20.4436 5 20.0178 5 19.5V1.5ZM21 18.5V2.5H7V18.5H21ZM9 5.5C9 4.94772 9.44772 4.5 10 4.5C10.5523 4.5 11 4.94772 11 5.5C11 6.05228 10.5523 6.5 10 6.5C9.44772 6.5 9 6.05228 9 5.5ZM10 8.5C9.44772 8.5 9 8.94771 9 9.5C9 10.0523 9.44772 10.5 10 10.5H18C18.5523 10.5 19 10.0523 19 9.5C19 8.94771 18.5523 8.5 18 8.5H10ZM9 13.5C9 12.9477 9.44772 12.5 10 12.5H15C15.5523 12.5 16 12.9477 16 13.5C16 14.0523 15.5523 14.5 15 14.5H10C9.44772 14.5 9 14.0523 9 13.5ZM4 5.5V21.5H19C19.5523 21.5 20 21.9477 20 22.5C20 23.0523 19.5523 23.5 19 23.5H3C2.96548 23.5 2.93137 23.4983 2.89776 23.4948C2.3935 23.4436 2 23.0178 2 22.5V5.5C2 4.94771 2.44772 4.5 3 4.5C3.55228 4.5 4 4.94772 4 5.5Z" fill="#134AFF" />
</g>
<defs>

</defs>
</symbol><clipPath id="icon-docs_clip0_1208_25323">
<rect width="25" height="25" fill="white" transform="translate(0 0.5)" />
</clipPath><symbol viewBox="0 0 24 24" fill="none" id="icon-people">
<path fill-rule="evenodd" clip-rule="evenodd" d="M11.1545 4.39999H6.5957V5.91959H5.07617V10.4784H6.5957V11.998H11.1545V10.4784H6.59578V5.9196H11.1545V4.39999ZM11.1562 5.91959H12.6759V10.4784H11.1562V5.91959ZM2.79688 15.0372H4.31641V13.5176H13.4341V15.0372H4.31648V18.0764H13.4341V19.5961H4.31648H4.31641H2.79688V15.0372ZM14.9552 15.0372H13.4355V19.5961H14.9552V15.0372ZM14.1934 4.39999H17.2326V5.9196H14.1934V4.39999ZM17.2326 10.4784H14.1934V11.998H17.2326V10.4784ZM17.2344 5.91959H18.754V10.4784H17.2344V5.91959ZM21.0333 15.0372H19.5137V18.0764L16.4727 18.0764V19.5961H21.0315V18.0764L21.0333 18.0764V15.0372ZM16.4727 13.5176H19.5119V15.0372H16.4727V13.5176Z" fill="#134AFF" />
</symbol><symbol viewBox="0 0 35 52" fill="none" id="icon-play">
<circle cx="4.52649" cy="4.30878" r="3.76477" fill="white" />
<circle cx="4.52649" cy="13.0933" r="3.76477" fill="white" />
<circle cx="4.52649" cy="21.8777" r="3.76477" fill="white" />
<circle cx="4.52649" cy="30.6622" r="3.76477" fill="white" />
<circle cx="4.52649" cy="39.4467" r="3.76477" fill="white" />
<circle cx="4.52649" cy="48.2311" r="3.76477" fill="white" />
<circle cx="13.3107" cy="13.0933" r="3.76477" fill="white" />
<circle cx="13.3107" cy="21.8777" r="3.76477" fill="white" />
<circle cx="13.3107" cy="30.6622" r="3.76477" fill="white" />
<circle cx="13.3107" cy="39.4467" r="3.76477" fill="white" />
<circle cx="22.0958" cy="17.4855" r="3.76477" fill="white" />
<circle cx="22.0958" cy="26.27" r="3.76477" fill="white" />
<circle cx="22.0958" cy="35.0544" r="3.76477" fill="white" />
<circle cx="30.88" cy="26.27" r="3.76477" fill="white" />
</symbol><symbol viewBox="0 0 100 100" fill="none" id="icon-quotes">
<path fill-rule="evenodd" clip-rule="evenodd" d="M8.96848 21.6484C6.63922 21.6484 4.75098 23.5367 4.75098 25.8659C4.75098 28.1952 6.63922 30.0834 8.96848 30.0834C11.2977 30.0834 13.186 28.1952 13.186 25.8659C13.186 23.5367 11.2977 21.6484 8.96848 21.6484ZM15.2947 25.8659C15.2947 23.5367 17.183 21.6484 19.5122 21.6484C21.8415 21.6484 23.7297 23.5367 23.7297 25.8659C23.7297 28.1952 21.8415 30.0834 19.5122 30.0834C17.183 30.0834 15.2947 28.1952 15.2947 25.8659ZM30.0564 21.6484C27.7271 21.6484 25.8389 23.5367 25.8389 25.8659C25.8389 28.1952 27.7271 30.0834 30.0564 30.0834C32.3856 30.0834 34.2739 28.1952 34.2739 25.8659C34.2739 23.5367 32.3856 21.6484 30.0564 21.6484ZM36.3818 25.8659C36.3818 23.5367 38.2701 21.6484 40.5993 21.6484C42.9286 21.6484 44.8168 23.5367 44.8168 25.8659C44.8168 28.1952 42.9286 30.0834 40.5993 30.0834C38.2701 30.0834 36.3818 28.1952 36.3818 25.8659ZM40.5993 32.1921C38.2701 32.1921 36.3818 34.0804 36.3818 36.4096C36.3818 38.7389 38.2701 40.6271 40.5993 40.6271C42.9286 40.6271 44.8168 38.7389 44.8168 36.4096C44.8168 34.0804 42.9286 32.1921 40.5993 32.1921ZM40.5993 42.7358C38.2701 42.7358 36.3818 44.6241 36.3818 46.9533C36.3818 49.2826 38.2701 51.1708 40.5993 51.1708C42.9286 51.1708 44.8168 49.2826 44.8168 46.9533C44.8168 44.6241 42.9286 42.7358 40.5993 42.7358ZM4.75098 36.4097C4.75098 34.0804 6.63922 32.1922 8.96848 32.1922C11.2977 32.1922 13.186 34.0804 13.186 36.4097C13.186 38.739 11.2977 40.6272 8.96848 40.6272C6.63922 40.6272 4.75098 38.739 4.75098 36.4097ZM8.96848 42.736C6.63922 42.736 4.75098 44.6242 4.75098 46.9535C4.75098 49.2827 6.63922 51.171 8.96848 51.171C11.2977 51.171 13.186 49.2827 13.186 46.9535C13.186 44.6242 11.2977 42.736 8.96848 42.736ZM36.3818 57.4973C36.3818 55.168 38.2701 53.2798 40.5993 53.2798C42.9286 53.2798 44.8168 55.168 44.8168 57.4973C44.8168 59.8266 42.9286 61.7148 40.5993 61.7148C38.2701 61.7148 36.3818 59.8266 36.3818 57.4973ZM19.5122 42.736C17.183 42.736 15.2947 44.6242 15.2947 46.9535C15.2947 49.2827 17.183 51.171 19.5122 51.171C21.8415 51.171 23.7297 49.2827 23.7297 46.9535C23.7297 44.6242 21.8415 42.736 19.5122 42.736ZM27.9473 65.9321C27.9473 63.6029 29.8356 61.7146 32.1648 61.7146C34.4941 61.7146 36.3823 63.6029 36.3823 65.9321C36.3823 68.2614 34.4941 70.1497 32.1648 70.1497C29.8356 70.1497 27.9473 68.2614 27.9473 65.9321ZM23.7302 70.1497C21.4009 70.1497 19.5127 72.0379 19.5127 74.3672C19.5127 76.6964 21.4009 78.5847 23.7302 78.5847C26.0595 78.5847 27.9477 76.6964 27.9477 74.3672C27.9477 72.0379 26.0595 70.1497 23.7302 70.1497Z" fill="#A5BAFF" />
<path fill-rule="evenodd" clip-rule="evenodd" d="M58.1726 21.6484C55.8433 21.6484 53.9551 23.5367 53.9551 25.8659C53.9551 28.1952 55.8433 30.0834 58.1726 30.0834C60.5018 30.0834 62.3901 28.1952 62.3901 25.8659C62.3901 23.5367 60.5018 21.6484 58.1726 21.6484ZM64.499 25.8659C64.499 23.5367 66.3872 21.6484 68.7165 21.6484C71.0457 21.6484 72.934 23.5367 72.934 25.8659C72.934 28.1952 71.0457 30.0834 68.7165 30.0834C66.3872 30.0834 64.499 28.1952 64.499 25.8659ZM79.2605 21.6484C76.9312 21.6484 75.043 23.5367 75.043 25.8659C75.043 28.1952 76.9312 30.0834 79.2605 30.0834C81.5897 30.0834 83.478 28.1952 83.478 25.8659C83.478 23.5367 81.5897 21.6484 79.2605 21.6484ZM85.5869 25.8659C85.5869 23.5367 87.4752 21.6484 89.8044 21.6484C92.1337 21.6484 94.0219 23.5367 94.0219 25.8659C94.0219 28.1952 92.1337 30.0834 89.8044 30.0834C87.4752 30.0834 85.5869 28.1952 85.5869 25.8659ZM89.8044 32.1921C87.4752 32.1921 85.5869 34.0804 85.5869 36.4096C85.5869 38.7389 87.4752 40.6271 89.8044 40.6271C92.1337 40.6271 94.0219 38.7389 94.0219 36.4096C94.0219 34.0804 92.1337 32.1921 89.8044 32.1921ZM89.8044 42.7358C87.4752 42.7358 85.5869 44.6241 85.5869 46.9533C85.5869 49.2826 87.4752 51.1708 89.8044 51.1708C92.1337 51.1708 94.0219 49.2826 94.0219 46.9533C94.0219 44.6241 92.1337 42.7358 89.8044 42.7358ZM53.9552 36.4097C53.9552 34.0804 55.8434 32.1922 58.1727 32.1922C60.502 32.1922 62.3902 34.0804 62.3902 36.4097C62.3902 38.739 60.502 40.6272 58.1727 40.6272C55.8434 40.6272 53.9552 38.739 53.9552 36.4097ZM58.1727 42.736C55.8434 42.736 53.9552 44.6242 53.9552 46.9535C53.9552 49.2827 55.8434 51.171 58.1727 51.171C60.502 51.171 62.3902 49.2827 62.3902 46.9535C62.3902 44.6242 60.502 42.736 58.1727 42.736ZM85.5869 57.4973C85.5869 55.168 87.4752 53.2798 89.8044 53.2798C92.1337 53.2798 94.0219 55.168 94.0219 57.4973C94.0219 59.8266 92.1337 61.7148 89.8044 61.7148C87.4752 61.7148 85.5869 59.8266 85.5869 57.4973ZM68.7165 42.736C66.3872 42.736 64.499 44.6242 64.499 46.9535C64.499 49.2827 66.3872 51.171 68.7165 51.171C71.0457 51.171 72.934 49.2827 72.934 46.9535C72.934 44.6242 71.0457 42.736 68.7165 42.736ZM77.1516 65.9321C77.1516 63.6029 79.0398 61.7146 81.3691 61.7146C83.6983 61.7146 85.5866 63.6029 85.5866 65.9321C85.5866 68.2614 83.6983 70.1497 81.3691 70.1497C79.0398 70.1497 77.1516 68.2614 77.1516 65.9321ZM72.9341 70.1498C70.6049 70.1498 68.7166 72.038 68.7166 74.3673C68.7166 76.6965 70.6049 78.5848 72.9341 78.5848C75.2634 78.5848 77.1516 76.6965 77.1516 74.3673C77.1516 72.038 75.2634 70.1498 72.9341 70.1498Z" fill="#A5BAFF" />
</symbol><symbol viewBox="0 0 25 25" fill="none" id="icon-rocket">
<g clip-path="url(#icon-rocket_clip0_230_416)">
<circle cx="14.6499" cy="4.47655" r="0.813954" fill="#134AFF" />
<circle cx="0.813954" cy="0.813954" r="0.813954" transform="matrix(-1 0 0 1 12.208 3.6626)" fill="#134AFF" />
<circle cx="13.022" cy="2.84862" r="0.813954" fill="#134AFF" />
<circle cx="13.022" cy="18.314" r="0.813954" fill="#134AFF" />
<circle cx="13.022" cy="23.1977" r="0.813954" fill="#134AFF" />
<circle cx="12.0054" cy="20.7558" r="0.813954" fill="#134AFF" />
<circle cx="14.2417" cy="20.7558" r="0.813954" fill="#134AFF" />
<circle cx="10.9897" cy="18.314" r="0.813954" fill="#134AFF" />
<circle cx="15.0581" cy="18.314" r="0.813954" fill="#134AFF" />
<circle cx="16.2778" cy="6.10448" r="0.813954" fill="#134AFF" />
<circle cx="0.813954" cy="0.813954" r="0.813954" transform="matrix(-1 0 0 1 10.5801 5.29053)" fill="#134AFF" />
<circle cx="16.2778" cy="8.13915" r="0.813954" fill="#134AFF" />
<circle cx="0.813954" cy="0.813954" r="0.813954" transform="matrix(-1 0 0 1 10.5801 7.3252)" fill="#134AFF" />
<circle cx="16.2778" cy="10.1743" r="0.813954" fill="#134AFF" />
<circle cx="16.2778" cy="14.2436" r="0.813954" fill="#134AFF" />
<circle cx="16.2778" cy="16.2788" r="0.813954" fill="#134AFF" />
<circle cx="0.813954" cy="0.813954" r="0.813954" transform="matrix(-1 0 0 1 10.5801 9.36035)" fill="#134AFF" />
<circle cx="0.813954" cy="0.813954" r="0.813954" transform="matrix(-1 0 0 1 10.5801 13.4297)" fill="#134AFF" />
<circle cx="16.2778" cy="12.209" r="0.813954" fill="#134AFF" />
<circle cx="0.813954" cy="0.813954" r="0.813954" transform="matrix(-1 0 0 1 10.5801 11.395)" fill="#134AFF" />
<circle cx="0.813954" cy="0.813954" r="0.813954" transform="matrix(-1 0 0 1 8.13574 12.6162)" fill="#134AFF" />
<circle cx="18.7173" cy="13.4302" r="0.813954" fill="#134AFF" />
<circle opacity="0.9" cx="0.813954" cy="0.813954" r="0.813954" transform="matrix(-1 0 0 1 6.51172 14.2441)" fill="#134AFF" />
<circle opacity="0.9" cx="20.3462" cy="15.0581" r="0.813954" fill="#134AFF" />
<circle cx="0.813954" cy="0.813954" r="0.813954" transform="matrix(-1 0 0 1 10.5801 15.4648)" fill="#134AFF" />
<circle cx="0.813954" cy="0.813954" r="0.813954" transform="matrix(-1 0 0 1 12.8154 15.4648)" fill="#134AFF" />
<circle cx="0.813954" cy="0.813954" r="0.813954" transform="matrix(-1 0 0 1 15.0596 15.4648)" fill="#134AFF" />
</g>
<defs>

</defs>
</symbol><clipPath id="icon-rocket_clip0_230_416">
<rect width="25" height="25" fill="white" />
</clipPath><symbol viewBox="0 0 72 72" id="icon-rocket-start">
<circle cx="41.3023" cy="7.98325" r="2.65" />
<circle cx="2.65" cy="2.65" r="2.65" transform="matrix(-1 0 0 1 33.3516 5.33325)" />
<circle cx="36.0016" cy="2.65" r="2.65" />
<circle opacity="0.4" cx="36.0016" cy="53.3167" r="2.65" />
<circle opacity="0.4" cx="36.0016" cy="69.3167" r="2.65" />
<circle opacity="0.4" cx="32.6891" cy="61.3167" r="2.65" />
<circle opacity="0.4" cx="39.9762" cy="61.3167" r="2.65" />
<circle opacity="0.4" cx="29.3785" cy="53.3167" r="2.65" />
<circle opacity="0.4" cx="42.6266" cy="53.3167" r="2.65" />
<circle cx="46.6012" cy="13.3167" r="2.65" />
<circle cx="2.65" cy="2.65" r="2.65" transform="matrix(-1 0 0 1 28.0527 10.6667)" />
<circle cx="46.6012" cy="19.9833" r="2.65" />
<circle cx="2.65" cy="2.65" r="2.65" transform="matrix(-1 0 0 1 28.0527 17.3333)" />
<circle cx="46.6012" cy="26.65" r="2.65" />
<circle cx="46.6012" cy="39.9833" r="2.65" />
<circle cx="46.6012" cy="46.65" r="2.65" />
<circle cx="2.65" cy="2.65" r="2.65" transform="matrix(-1 0 0 1 28.0527 24)" />
<circle cx="2.65" cy="2.65" r="2.65" transform="matrix(-1 0 0 1 28.0527 37.3333)" />
<circle cx="46.6012" cy="33.3167" r="2.65" />
<circle cx="2.65" cy="2.65" r="2.65" transform="matrix(-1 0 0 1 28.0527 30.6667)" />
<circle cx="2.65" cy="2.65" r="2.65" transform="matrix(-1 0 0 1 20.1016 34.6667)" />
<circle cx="54.5504" cy="37.3167" r="2.65" />
<circle opacity="0.9" cx="2.65" cy="2.65" r="2.65" transform="matrix(-1 0 0 1 14.8027 40)" />
<circle opacity="0.9" cx="59.8492" cy="42.65" r="2.65" />
<circle cx="2.65" cy="2.65" r="2.65" transform="matrix(-1 0 0 1 28.0508 44)" />
<circle cx="2.65" cy="2.65" r="2.65" transform="matrix(-1 0 0 1 35.3359 44)" />
<circle cx="2.65" cy="2.65" r="2.65" transform="matrix(-1 0 0 1 42.627 44)" />
</symbol><symbol viewBox="0 0 25 26" fill="none" id="icon-search">
<path fill-rule="evenodd" clip-rule="evenodd" d="M6.5 4C6.5 3.44772 6.94772 3 7.5 3H13.5C14.0523 3 14.5 3.44772 14.5 4C14.5 4.55228 14.0523 5 13.5 5H7.5C6.94772 5 6.5 4.55228 6.5 4ZM6.5 18C6.5 17.4477 6.94772 17 7.5 17H13.5C14.0523 17 14.5 17.4477 14.5 18C14.5 18.5523 14.0523 19 13.5 19H7.5C6.94772 19 6.5 18.5523 6.5 18ZM3.5 7C2.94772 7 2.5 7.44772 2.5 8V14C2.5 14.5523 2.94772 15 3.5 15C4.05228 15 4.5 14.5523 4.5 14V8C4.5 7.44772 4.05228 7 3.5 7ZM16.5 8C16.5 7.44772 16.9477 7 17.5 7C18.0523 7 18.5 7.44772 18.5 8V14C18.5 14.5523 18.0523 15 17.5 15C16.9477 15 16.5 14.5523 16.5 14V8ZM19.5 19C18.9477 19 18.5 19.4477 18.5 20C18.5 20.5523 18.9477 21 19.5 21C20.0523 21 20.5 20.5523 20.5 20C20.5 19.4477 20.0523 19 19.5 19ZM16.5 18C16.5 17.4477 16.9477 17 17.5 17C18.0523 17 18.5 17.4477 18.5 18C18.5 18.5523 18.0523 19 17.5 19C16.9477 19 16.5 18.5523 16.5 18ZM15.5 15C14.9477 15 14.5 15.4477 14.5 16C14.5 16.5523 14.9477 17 15.5 17C16.0523 17 16.5 16.5523 16.5 16C16.5 15.4477 16.0523 15 15.5 15ZM14.5 6C14.5 5.44772 14.9477 5 15.5 5C16.0523 5 16.5 5.44772 16.5 6C16.5 6.55228 16.0523 7 15.5 7C14.9477 7 14.5 6.55228 14.5 6ZM5.5 5C4.94772 5 4.5 5.44772 4.5 6C4.5 6.55228 4.94772 7 5.5 7C6.05228 7 6.5 6.55228 6.5 6C6.5 5.44772 6.05228 5 5.5 5ZM4.5 16C4.5 15.4477 4.94772 15 5.5 15C6.05228 15 6.5 15.4477 6.5 16C6.5 16.5523 6.05228 17 5.5 17C4.94772 17 4.5 16.5523 4.5 16ZM21.5 21C20.9477 21 20.5 21.4477 20.5 22C20.5 22.5523 20.9477 23 21.5 23C22.0523 23 22.5 22.5523 22.5 22C22.5 21.4477 22.0523 21 21.5 21Z" fill="#134AFF" />
</symbol><symbol viewBox="0 0 100 100" fill="none" id="icon-search-error">
<path fill-rule="evenodd" clip-rule="evenodd" d="M25.9999 14C25.9999 11.7909 27.7907 10 29.9999 10H53.9999C56.209 10 57.9999 11.7909 57.9999 14C57.9999 16.2091 56.209 18 53.9999 18H29.9999C27.7907 18 25.9999 16.2091 25.9999 14ZM25.9999 70C25.9999 67.7909 27.7907 66 29.9999 66H53.9999C56.209 66 57.9999 67.7909 57.9999 70C57.9999 72.2091 56.209 74 53.9999 74H29.9999C27.7907 74 25.9999 72.2091 25.9999 70ZM14 25.9999C11.7909 25.9999 10 27.7907 10 29.9999V53.9999C10 56.209 11.7909 57.9999 14 57.9999C16.2091 57.9999 18 56.209 18 53.9999V29.9999C18 27.7907 16.2091 25.9999 14 25.9999ZM65.9998 29.9999C65.9998 27.7907 67.7906 25.9999 69.9998 25.9999C72.2089 25.9999 73.9998 27.7907 73.9998 29.9999V53.9999C73.9998 56.209 72.2089 57.9999 69.9998 57.9999C67.7906 57.9999 65.9998 56.209 65.9998 53.9999V29.9999ZM77.9999 73.9999C75.7908 73.9999 73.9999 75.7908 73.9999 77.9999C73.9999 80.2091 75.7908 81.9999 77.9999 81.9999C80.2091 81.9999 81.9999 80.2091 81.9999 77.9999C81.9999 75.7908 80.2091 73.9999 77.9999 73.9999ZM65.9998 70C65.9998 67.7909 67.7906 66 69.9998 66C72.2089 66 73.9998 67.7909 73.9998 70C73.9998 72.2091 72.2089 74 69.9998 74C67.7906 74 65.9998 72.2091 65.9998 70ZM62.0001 57.9998C59.7909 57.9998 58.0001 59.7907 58.0001 61.9998C58.0001 64.209 59.7909 65.9998 62.0001 65.9998C64.2092 65.9998 66.0001 64.209 66.0001 61.9998C66.0001 59.7907 64.2092 57.9998 62.0001 57.9998ZM58.0001 21.9999C58.0001 19.7908 59.7909 17.9999 62.0001 17.9999C64.2092 17.9999 66.0001 19.7908 66.0001 21.9999C66.0001 24.2091 64.2092 25.9999 62.0001 25.9999C59.7909 25.9999 58.0001 24.2091 58.0001 21.9999ZM21.9997 17.9999C19.7905 17.9999 17.9997 19.7908 17.9997 21.9999C17.9997 24.2091 19.7905 25.9999 21.9997 25.9999C24.2088 25.9999 25.9997 24.2091 25.9997 21.9999C25.9997 19.7908 24.2088 17.9999 21.9997 17.9999ZM17.9997 61.9998C17.9997 59.7907 19.7905 57.9998 21.9997 57.9998C24.2088 57.9998 25.9997 59.7907 25.9997 61.9998C25.9997 64.209 24.2088 65.9998 21.9997 65.9998C19.7905 65.9998 17.9997 64.209 17.9997 61.9998ZM86.0001 81.9999C83.791 81.9999 82.0001 83.7907 82.0001 85.9999C82.0001 88.209 83.791 89.9999 86.0001 89.9999C88.2093 89.9999 90.0001 88.209 90.0001 85.9999C90.0001 83.7907 88.2093 81.9999 86.0001 81.9999Z" fill="#9AA6CD" />
<rect x="48.5088" y="29.8594" width="8" height="26.1747" rx="4" transform="rotate(45 48.5088 29.8594)" fill="#9AA6CD" />
<rect x="54.165" y="48.3672" width="8" height="26.1747" rx="4" transform="rotate(135 54.165 48.3672)" fill="#9AA6CD" />
</symbol><symbol viewBox="0 0 32 32" id="icon-switch">
<ellipse cx="1.18883" cy="1.19472" rx="1.18883" ry="1.19472" transform="matrix(-1 -8.74552e-08 0.000135227 -1 24.4531 25.998)" />
<ellipse cx="1.18883" cy="1.19472" rx="1.18883" ry="1.19472" transform="matrix(-1 -8.74552e-08 0.000135227 -1 24.4531 23.0762)" />
<ellipse cx="1.18883" cy="1.19472" rx="1.18883" ry="1.19472" transform="matrix(-1 -8.74552e-08 0.000135227 -1 24.4531 20.1543)" />
<ellipse cx="1.18883" cy="1.19472" rx="1.18883" ry="1.19472" transform="matrix(-1 -8.74552e-08 0.000135227 -1 24.4531 17.2305)" />
<ellipse cx="1.18883" cy="1.19472" rx="1.18883" ry="1.19472" transform="matrix(-1 -8.74552e-08 0.000135227 -1 24.4531 14.3105)" />
<ellipse cx="1.18883" cy="1.19472" rx="1.18883" ry="1.19472" transform="matrix(-1 -8.74552e-08 0.000135227 -1 24.4531 11.3867)" />
<ellipse cx="1.18883" cy="1.19472" rx="1.18883" ry="1.19472" transform="matrix(-1 -8.74552e-08 0.000135227 -1 27.3594 23.0742)" />
<ellipse cx="1.18883" cy="1.19472" rx="1.18883" ry="1.19472" transform="matrix(-1 -8.74228e-08 0.000135329 -1 29.9961 20.1543)" />
<ellipse cx="1.18883" cy="1.19472" rx="1.18883" ry="1.19472" transform="matrix(-1 -8.74552e-08 0.000135227 -1 18.3789 20.1543)" />
<ellipse cx="1.18883" cy="1.19472" rx="1.18883" ry="1.19472" transform="matrix(-1 -8.74552e-08 0.000135227 -1 21.2812 22.8105)" />
<ellipse cx="1.18883" cy="1.19472" rx="1.18883" ry="1.19472" transform="matrix(1 0 -0.00013514 1 7.53906 6)" />
<ellipse cx="1.18883" cy="1.19472" rx="1.18883" ry="1.19472" transform="matrix(1 0 -0.00013514 1 7.53906 8.92188)" />
<ellipse cx="1.18883" cy="1.19472" rx="1.18883" ry="1.19472" transform="matrix(1 0 -0.00013514 1 7.53906 11.8438)" />
<ellipse cx="1.18883" cy="1.19472" rx="1.18883" ry="1.19472" transform="matrix(1 0 -0.00013514 1 7.53906 14.7676)" />
<ellipse cx="1.18883" cy="1.19472" rx="1.18883" ry="1.19472" transform="matrix(1 0 -0.00013514 1 7.53906 17.6875)" />
<ellipse cx="1.18883" cy="1.19472" rx="1.18883" ry="1.19472" transform="matrix(1 0 -0.00013514 1 7.53906 20.6113)" />
<ellipse cx="1.18883" cy="1.19472" rx="1.18883" ry="1.19472" transform="matrix(1 0 -0.00013514 1 4.63281 8.92383)" />
<ellipse cx="1.18883" cy="1.19472" rx="1.18883" ry="1.19472" transform="matrix(1 0 -0.000135242 1 1.99609 11.8438)" />
<ellipse cx="1.18883" cy="1.19472" rx="1.18883" ry="1.19472" transform="matrix(1 0 -0.00013514 1 13.6133 11.8438)" />
<ellipse cx="1.18883" cy="1.19472" rx="1.18883" ry="1.19472" transform="matrix(1 0 -0.00013514 1 10.7109 9.1875)" />
</symbol><symbol viewBox="0 0 44 44" fill="none" id="icon-upload-doc">
<path fill-rule="evenodd" clip-rule="evenodd" d="M8 37.0002V7.00016H36V24.5002C36 25.3286 36.6716 26.0002 37.5 26.0002C38.3284 26.0002 39 25.3286 39 24.5002V5.50016C39 4.67174 38.3284 4.00016 37.5 4.00016H7.5C7.32468 4.00016 7.15639 4.03024 7 4.08552C6.84361 4.03024 6.67532 4.00016 6.5 4.00016C5.67157 4.00016 5 4.67174 5 5.50016V38.5002C5 39.3286 5.67157 40.0002 6.5 40.0002H22.5C23.3284 40.0002 24 39.3286 24 38.5002C24 37.6717 23.3284 37.0002 22.5 37.0002H8ZM12.8333 12.8333C12.8333 11.8208 13.6541 11 14.6667 11C15.6792 11 16.5 11.8208 16.5 12.8333C16.5 13.8459 15.6792 14.6667 14.6667 14.6667C13.6541 14.6667 12.8333 13.8459 12.8333 12.8333ZM14.6667 18.3333C13.6541 18.3333 12.8333 19.1541 12.8333 20.1667C12.8333 21.1792 13.6541 22 14.6667 22H29.3333C30.3459 22 31.1667 21.1792 31.1667 20.1667C31.1667 19.1541 30.3459 18.3333 29.3333 18.3333H14.6667ZM12.8333 27.5C12.8333 26.4875 13.6541 25.6667 14.6667 25.6667H23.8333C24.8459 25.6667 25.6667 26.4875 25.6667 27.5C25.6667 28.5125 24.8459 29.3333 23.8333 29.3333H14.6667C13.6541 29.3333 12.8333 28.5125 12.8333 27.5Z" fill="#134AFF" />
<ellipse cx="1.14469" cy="1.14406" rx="1.14469" ry="1.14406" transform="matrix(1 0 -0.000135139 1 31.3379 27)" fill="#134AFF" />
<ellipse cx="1.14469" cy="1.14406" rx="1.14469" ry="1.14406" transform="matrix(1 0 -0.000135139 1 31.3379 29.7912)" fill="#134AFF" />
<ellipse cx="1.14469" cy="1.14406" rx="1.14469" ry="1.14406" transform="matrix(1 0 -0.000135139 1 31.3379 32.5959)" fill="#134AFF" />
<ellipse cx="1.14469" cy="1.14406" rx="1.14469" ry="1.14406" transform="matrix(1 0 -0.000135139 1 31.3379 35.3942)" fill="#134AFF" />
<ellipse cx="1.14469" cy="1.14406" rx="1.14469" ry="1.14406" transform="matrix(1 0 -0.000135139 1 31.3379 38.1913)" fill="#134AFF" />
<ellipse cx="1.14469" cy="1.14406" rx="1.14469" ry="1.14406" transform="matrix(1 0 -0.000135139 1 28.5391 29.7912)" fill="#134AFF" />
<ellipse cx="1.14469" cy="1.14406" rx="1.14469" ry="1.14406" transform="matrix(1 0 -0.000135242 1 26.002 32.5959)" fill="#134AFF" />
<ellipse cx="1.14469" cy="1.14406" rx="1.14469" ry="1.14406" transform="matrix(1 0 -0.000135139 1 36.7246 32.5959)" fill="#134AFF" />
<ellipse cx="1.14469" cy="1.14406" rx="1.14469" ry="1.14406" transform="matrix(1 0 -0.000135139 1 34.3926 29.7906)" fill="#134AFF" />
</symbol><symbol viewBox="0 0 44 44" fill="none" id="icon-upload-error">
<path fill-rule="evenodd" clip-rule="evenodd" d="M8 37V7H36V24.5C36 25.3284 36.6716 26 37.5 26C38.3284 26 39 25.3284 39 24.5V5.5C39 4.67157 38.3284 4 37.5 4H7.5C7.32468 4 7.15639 4.03008 7 4.08535C6.84361 4.03008 6.67532 4 6.5 4C5.67157 4 5 4.67157 5 5.5V38.5C5 39.3284 5.67157 40 6.5 40H22.5C23.3284 40 24 39.3284 24 38.5C24 37.6716 23.3284 37 22.5 37H8ZM12.833 12.8333C12.833 11.8208 13.6538 11 14.6663 11C15.6789 11 16.4997 11.8208 16.4997 12.8333C16.4997 13.8459 15.6789 14.6667 14.6663 14.6667C13.6538 14.6667 12.833 13.8459 12.833 12.8333ZM14.6663 18.333C13.6538 18.333 12.833 19.1538 12.833 20.1663C12.833 21.1789 13.6538 21.9997 14.6663 21.9997H29.333C30.3455 21.9997 31.1663 21.1789 31.1663 20.1663C31.1663 19.1538 30.3455 18.333 29.333 18.333H14.6663ZM12.833 27.4993C12.833 26.4868 13.6538 25.666 14.6663 25.666H23.833C24.8455 25.666 25.6663 26.4868 25.6663 27.4993C25.6663 28.5119 24.8455 29.3327 23.833 29.3327H14.6663C13.6538 29.3327 12.833 28.5119 12.833 27.4993Z" fill="#DF2E2E" />
<path d="M29.0535 32.819C29.265 33.0305 29.608 33.0305 29.8195 32.819C30.0311 32.6074 30.0311 32.2645 29.8195 32.0529C29.608 31.8414 29.265 31.8414 29.0535 32.0529C28.842 32.2645 28.842 32.6074 29.0535 32.819Z" fill="#DF2E2E" />
<path d="M35.9709 38.2034L31.3288 33.5612C31.1299 33.3624 30.8076 33.3624 30.6087 33.5612L30.5628 33.6072C30.3639 33.806 30.3639 34.1284 30.5628 34.3272L35.2049 38.9694C35.4038 39.1682 35.7261 39.1682 35.925 38.9694L35.9709 38.9234C36.1698 38.7246 36.1698 38.4022 35.9709 38.2034Z" fill="#DF2E2E" />
<path d="M35.2042 32.0302L29.03 38.2044C28.8311 38.4033 28.8311 38.7256 29.03 38.9245L29.0759 38.9705C29.2748 39.1693 29.5971 39.1693 29.796 38.9705L35.9702 32.7962C36.1691 32.5974 36.1691 32.275 35.9702 32.0762L35.9243 32.0302C35.7254 31.8313 35.403 31.8313 35.2042 32.0302Z" fill="#DF2E2E" />
</symbol><symbol viewBox="0 0 209 62" id="logo">
<path d="M194.948 58C191.28 58 188.422 57.2446 186.374 55.7337C184.37 54.2228 182.962 52.1872 182.152 49.6271C181.384 47.067 181 44.2131 181 41.0654V23.0605C181 19.619 181.384 16.6182 182.152 14.0581C182.962 11.498 184.37 9.52542 186.374 8.14043C188.422 6.71348 191.28 6 194.948 6C198.19 6 200.749 6.58757 202.626 7.76271C204.545 8.93785 205.91 10.6166 206.72 12.799C207.573 14.9814 208 17.6045 208 20.6683V24.6973H201.154V21.109C201.154 19.2203 201.047 17.5625 200.834 16.1356C200.664 14.6667 200.152 13.5335 199.299 12.7361C198.445 11.9387 197.017 11.54 195.012 11.54C192.964 11.54 191.472 11.9806 190.533 12.862C189.595 13.7014 188.976 14.9185 188.678 16.5133C188.422 18.0662 188.294 19.8918 188.294 21.9903V42.1985C188.294 44.7587 188.507 46.7942 188.934 48.3051C189.36 49.774 190.064 50.8232 191.045 51.4528C192.026 52.0823 193.348 52.3971 195.012 52.3971C196.974 52.3971 198.382 51.9774 199.235 51.138C200.088 50.2567 200.621 49.0605 200.834 47.5496C201.047 46.0387 201.154 44.276 201.154 42.2615V38.4843H208V42.2615C208 45.3672 207.616 48.1162 206.848 50.5085C206.081 52.8588 204.758 54.7054 202.882 56.0484C201.005 57.3495 198.36 58 194.948 58Z" />
<path d="M152 58V7H164.531C167.565 7 169.976 7.56667 171.763 8.7C173.592 9.79136 174.922 11.3864 175.753 13.4852C176.584 15.584 177 18.1235 177 21.1037C177 23.7901 176.522 26.1198 175.566 28.0926C174.652 30.0654 173.28 31.5975 171.451 32.6889C169.623 33.7383 167.337 34.263 164.594 34.263H159.045V58H152ZM159.045 29.163H162.287C164.323 29.163 165.924 28.9321 167.087 28.4704C168.251 28.0086 169.082 27.2111 169.581 26.0778C170.08 24.9025 170.329 23.2654 170.329 21.1667C170.329 18.7321 170.142 16.8642 169.768 15.563C169.436 14.2617 168.708 13.3593 167.586 12.8556C166.464 12.3519 164.718 12.1 162.349 12.1H159.045V29.163Z" />
<path d="M131.032 58C127.576 58 124.816 57.3285 122.752 55.9855C120.687 54.6424 119.212 52.7328 118.327 50.2567C117.442 47.7385 117 44.8006 117 41.4431V22.1162C117 18.7587 117.442 15.8838 118.327 13.4915C119.254 11.0573 120.729 9.21065 122.752 7.95157C124.816 6.65053 127.576 6 131.032 6C134.487 6 137.226 6.65053 139.248 7.95157C141.271 9.25262 142.725 11.0993 143.609 13.4915C144.536 15.8838 145 18.7587 145 22.1162V41.5061C145 44.8216 144.536 47.7175 143.609 50.1937C142.725 52.6699 141.271 54.6005 139.248 55.9855C137.226 57.3285 134.487 58 131.032 58ZM131.032 52.3971C132.928 52.3971 134.36 52.0194 135.33 51.2639C136.299 50.4665 136.952 49.3753 137.289 47.9903C137.626 46.5634 137.795 44.9056 137.795 43.0169V20.6683C137.795 18.7797 137.626 17.1638 137.289 15.8208C136.952 14.4358 136.299 13.3866 135.33 12.6731C134.36 11.9177 132.928 11.54 131.032 11.54C129.135 11.54 127.682 11.9177 126.67 12.6731C125.701 13.3866 125.048 14.4358 124.711 15.8208C124.374 17.1638 124.205 18.7797 124.205 20.6683V43.0169C124.205 44.9056 124.374 46.5634 124.711 47.9903C125.048 49.3753 125.701 50.4665 126.67 51.2639C127.682 52.0194 129.135 52.3971 131.032 52.3971Z" />
<path d="M88.311 60V51.4168C88.0989 51.4588 87.7597 51.5009 87.2933 51.543C86.8269 51.5851 86.424 51.6061 86.0848 51.6061C83.4982 51.6061 81.2933 51.2064 79.47 50.407C77.689 49.6075 76.3322 48.2191 75.3993 46.2416C74.4664 44.2641 74 41.5502 74 38.1001V25.3515C74 21.9434 74.4452 19.2506 75.3357 17.2731C76.2261 15.2956 77.4982 13.8861 79.1519 13.0446C80.8481 12.161 82.8622 11.7193 85.1943 11.7193C85.788 11.7193 86.3816 11.7403 86.9753 11.7824C87.5689 11.7824 88.0141 11.8034 88.311 11.8455V2H95.4982V11.8455C95.9223 11.8034 96.4523 11.7824 97.0883 11.7824C97.7244 11.7403 98.2756 11.7193 98.742 11.7193C101.159 11.7193 103.194 12.161 104.848 13.0446C106.544 13.8861 107.816 15.3166 108.664 17.3362C109.555 19.3137 110 21.9855 110 25.3515V38.1001C110 41.5082 109.555 44.2009 108.664 46.1785C107.774 48.156 106.544 49.5655 104.975 50.407C103.406 51.2064 101.625 51.6061 99.6325 51.6061C98.9541 51.6061 98.2756 51.5851 97.5972 51.543C96.9187 51.5009 96.2191 51.4588 95.4982 51.4168V60H88.311ZM86.53 47.3145C86.8693 47.3145 87.2085 47.3145 87.5477 47.3145C87.8869 47.2724 88.1413 47.2303 88.311 47.1883V16.1371C87.9293 16.095 87.5477 16.074 87.1661 16.074C86.7845 16.0319 86.424 16.0109 86.0848 16.0109C84.6855 16.0109 83.583 16.2844 82.7774 16.8313C81.9717 17.3783 81.3993 18.325 81.0601 19.6714C80.7208 21.0178 80.5512 22.9111 80.5512 25.3515V38.1001C80.5512 40.5404 80.6996 42.4338 80.9965 43.7802C81.2933 45.1266 81.8657 46.0522 82.7138 46.5571C83.5618 47.062 84.8339 47.3145 86.53 47.3145ZM97.8516 47.3145C99.3781 47.3145 100.544 47.062 101.35 46.5571C102.155 46.0522 102.707 45.1266 103.004 43.7802C103.3 42.4338 103.449 40.5404 103.449 38.1001V25.3515C103.449 22.9111 103.3 21.0178 103.004 19.6714C102.707 18.325 102.155 17.3783 101.35 16.8313C100.544 16.2844 99.3357 16.0109 97.7244 16.0109C97.3428 16.0109 96.9611 16.0319 96.5795 16.074C96.1979 16.074 95.8375 16.095 95.4982 16.1371V47.1883C95.7951 47.2303 96.1555 47.2724 96.5795 47.3145C97.0035 47.3145 97.4276 47.3145 97.8516 47.3145Z" />
<path d="M16.3772 62C16.3772 62 20.7582 51.9725 20.8735 51.716C20.9846 51.4552 20.8906 50.8453 20.1434 50.8032C19.2552 50.7527 16.3901 50.5761 13.4011 49.8358C11.6888 49.411 9.80575 48.7927 8.01663 47.8715C5.55285 46.6013 2.85422 44.7422 1.10353 41.2889C-0.177464 38.7652 -0.800881 34.2604 1.8337 29.4991C3.50326 26.4833 8.16181 20.2077 18.4012 15.7828C20.4124 14.9121 21.2408 14.6345 22.9018 14.0961C23.7857 13.8101 24.6226 14.2055 24.9471 14.7144C27.2401 18.2686 32.1463 25.9154 32.1463 25.9154C31.8901 25.9701 29.8021 26.416 27.5475 27.2992C23.7814 28.7714 19.9854 31.3203 17.876 34.1847C14.0288 39.4172 16.0186 44.473 21.1041 46.6517C22.9018 47.4215 24.0162 47.6234 25.1521 47.8295C28.1496 48.3721 31.7022 47.9725 32.4836 47.8589C33.3291 47.7369 33.739 48.1786 33.9141 48.5655C34.0507 48.8684 33.9866 49.2217 33.9738 49.3521C33.8415 50.7233 33.4956 53.8653 33.1967 56.6329C33.1156 57.3985 32.7441 57.9705 31.6595 58.2271C30.6091 58.4752 28.8669 58.9169 27.1162 59.3459C22.3552 60.5152 16.3815 61.9958 16.3815 61.9958" />
<path d="M44.6227 0C44.6227 0 40.2418 10.0275 40.1265 10.284C40.0154 10.5448 40.1094 11.1547 40.8566 11.1968C41.7448 11.2473 44.6099 11.4239 47.5989 12.1642C49.3112 12.589 51.1943 13.2073 52.9834 14.1285C55.4471 15.3987 58.1458 17.2578 59.8965 20.7111C61.1775 23.2348 61.8009 27.7396 59.1663 32.5009C57.4967 35.5167 52.8382 41.7923 42.5988 46.2172C40.5876 47.0879 39.7592 47.3655 38.0982 47.9039C37.2143 48.1899 36.3774 47.7945 36.0529 47.2856C33.7599 43.7314 28.8537 36.0846 28.8537 36.0846C29.1099 36.0299 31.1979 35.584 33.4525 34.7008C37.2186 33.2286 41.0146 30.6797 43.124 27.8153C46.9712 22.5828 44.9814 17.527 39.8959 15.3483C38.0982 14.5785 36.9838 14.3766 35.8479 14.1705C32.8504 13.6279 29.2978 14.0275 28.5164 14.1411C27.6709 14.2631 27.261 13.8214 27.0859 13.4345C26.9493 13.1316 27.0134 12.7783 27.0262 12.6479C27.1585 11.2767 27.5044 8.1347 27.8033 5.36705C27.8844 4.60153 28.2559 4.02949 29.3405 3.77292C30.3909 3.52476 32.1331 3.08311 33.8838 2.65408C38.6448 1.48477 44.6185 0.00420615 44.6185 0.00420615" />
</symbol><symbol viewBox="0 0 85 87" id="logo-small">
    <path d="M22.8647 87.0003C22.8647 87.0003 28.9812 72.8626 29.1421 72.5008C29.2971 72.1331 29.166 71.2733 28.1227 71.214C26.8827 71.1428 22.8826 70.8937 18.7096 69.85C16.3191 69.251 13.6901 68.3793 11.1922 67.0806C7.75249 65.2896 3.98486 62.6685 1.54067 57.7998C-0.247763 54.2416 -1.11813 47.8903 2.56007 41.1773C4.891 36.9253 11.3949 28.0774 25.6905 21.8388C28.4983 20.6112 29.6548 20.2198 31.9738 19.4607C33.2078 19.0575 34.3763 19.6149 34.8293 20.3325C38.0306 25.3435 44.8803 36.1247 44.8803 36.1247C44.5226 36.2018 41.6075 36.8304 38.4599 38.0758C33.2019 40.1514 27.9021 43.7451 24.9572 47.7836C19.5859 55.1608 22.364 62.2889 29.464 65.3608C31.9738 66.446 33.5297 66.7307 35.1155 67.0213C39.3004 67.7863 44.2603 67.2229 45.3513 67.0628C46.5316 66.8908 47.1039 67.5135 47.3484 68.0591C47.5391 68.486 47.4497 68.9842 47.4318 69.168C47.247 71.1013 46.7641 75.5312 46.3468 79.4333C46.2336 80.5126 45.7149 81.3191 44.2007 81.6808C42.7342 82.0307 40.3019 82.6534 37.8577 83.2583C31.2107 84.9069 22.8707 86.9943 22.8707 86.9943" />
    <path d="M62.1349 0C62.1349 0 56.0184 14.1377 55.8575 14.4994C55.7025 14.8671 55.8336 15.727 56.8769 15.7863C58.1169 15.8575 62.117 16.1065 66.29 17.1503C68.6805 17.7492 71.3095 18.621 73.8074 19.9197C77.2471 21.7106 81.0147 24.3318 83.4589 29.2005C85.2474 32.7587 86.1177 39.1099 82.4395 45.823C80.1086 50.075 73.6047 58.9229 59.3091 65.1615C56.5013 66.3891 55.3448 66.7805 53.0258 67.5395C51.7918 67.9428 50.6233 67.3853 50.1703 66.6678C46.969 61.6567 40.1193 50.8755 40.1193 50.8755C40.477 50.7985 43.3921 50.1698 46.5397 48.9245C51.7977 46.8489 57.0975 43.2552 60.0424 39.2167C65.4137 31.8395 62.6356 24.7113 55.5356 21.6395C53.0258 20.5542 51.4699 20.2696 49.8841 19.979C45.6992 19.214 40.7393 19.7774 39.6483 19.9375C38.468 20.1094 37.8957 19.4868 37.6512 18.9412C37.4605 18.5142 37.5499 18.0161 37.5678 17.8322C37.7526 15.899 38.2355 11.4691 38.6528 7.56699C38.766 6.48768 39.2847 5.68117 40.7989 5.31943C42.2654 4.96954 44.6977 4.34687 47.1418 3.74198C53.7889 2.09338 62.1289 0.00593024 62.1289 0.00593024" />
</symbol></defs><use id="icon-arrow-bottom-usage" xlink:href="#icon-arrow-bottom" class="sprite-symbol-usage" /><use id="icon-arrow-down-usage" xlink:href="#icon-arrow-down" class="sprite-symbol-usage" /><use id="icon-arrow-right-usage" xlink:href="#icon-arrow-right" class="sprite-symbol-usage" /><use id="icon-cross-usage" xlink:href="#icon-cross" class="sprite-symbol-usage" /><use id="icon-docs-usage" xlink:href="#icon-docs" class="sprite-symbol-usage" /><use id="icon-people-usage" xlink:href="#icon-people" class="sprite-symbol-usage" /><use id="icon-play-usage" xlink:href="#icon-play" class="sprite-symbol-usage" /><use id="icon-quotes-usage" xlink:href="#icon-quotes" class="sprite-symbol-usage" /><use id="icon-rocket-usage" xlink:href="#icon-rocket" class="sprite-symbol-usage" /><use id="icon-rocket-start-usage" xlink:href="#icon-rocket-start" class="sprite-symbol-usage" /><use id="icon-search-usage" xlink:href="#icon-search" class="sprite-symbol-usage" /><use id="icon-search-error-usage" xlink:href="#icon-search-error" class="sprite-symbol-usage" /><use id="icon-switch-usage" xlink:href="#icon-switch" class="sprite-symbol-usage" /><use id="icon-upload-doc-usage" xlink:href="#icon-upload-doc" class="sprite-symbol-usage" /><use id="icon-upload-error-usage" xlink:href="#icon-upload-error" class="sprite-symbol-usage" /><use id="logo-usage" xlink:href="#logo" class="sprite-symbol-usage" /><use id="logo-small-usage" xlink:href="#logo-small" class="sprite-symbol-usage" /></svg>