<svg xmlns="http://www.w3.org/2000/svg" xmlns:xlink="http://www.w3.org/1999/xlink"><defs><style>
    .sprite-symbol-usage {display: none;}
    .sprite-symbol-usage:target {display: inline;}
  </style><symbol viewBox="0 0 25 25" fill="none" id="icon-arrow-down">
<ellipse cx="1.19169" cy="1.19157" rx="1.19169" ry="1.19157" transform="matrix(1 0 0 -1 16.6172 19)" fill="#134AFF" />
<ellipse cx="1.19169" cy="1.19157" rx="1.19169" ry="1.19157" transform="matrix(1 0 0 -1 16.6172 15.4282)" fill="#134AFF" />
<ellipse cx="1.19169" cy="1.19157" rx="1.19169" ry="1.19157" transform="matrix(1 0 0 -1 13.043 19)" fill="#134AFF" />
<ellipse cx="1.19169" cy="1.19157" rx="1.19169" ry="1.19157" transform="matrix(1 0 0 -1 13.043 15.4282)" fill="#134AFF" />
<ellipse cx="1.19169" cy="1.19157" rx="1.19169" ry="1.19157" transform="matrix(1 0 0 -1 10.3672 12.7446)" fill="#134AFF" />
<ellipse cx="1.19169" cy="1.19157" rx="1.19169" ry="1.19157" transform="matrix(1 0 0 -1 7.68359 10.0674)" fill="#134AFF" />
<ellipse cx="1.19169" cy="1.19157" rx="1.19169" ry="1.19157" transform="matrix(1 0 0 -1 5 7.3833)" fill="#134AFF" />
<ellipse cx="1.19169" cy="1.19157" rx="1.19169" ry="1.19157" transform="matrix(1 0 0 -1 9.46875 19)" fill="#134AFF" />
<ellipse cx="1.19169" cy="1.19157" rx="1.19169" ry="1.19157" transform="matrix(1 0 0 -1 5.89062 19)" fill="#134AFF" />
<ellipse cx="1.19169" cy="1.19157" rx="1.19169" ry="1.19157" transform="matrix(1 0 0 -1 16.6172 11.8501)" fill="#134AFF" />
<ellipse cx="1.19169" cy="1.19157" rx="1.19169" ry="1.19157" transform="matrix(1 0 0 -1 16.6172 8.27783)" fill="#134AFF" />
</symbol><symbol viewBox="0 0 72 72" id="icon-arrow-right">
<ellipse cx="2.80223" cy="2.80068" rx="2.80223" ry="2.80068" transform="matrix(0.000135198 1 -1 -0.000135183 55.918 32.501)" />
<ellipse cx="2.80223" cy="2.80068" rx="2.80223" ry="2.80068" transform="matrix(0.000135198 1 -1 -0.000135183 49.0684 32.501)" />
<ellipse cx="2.80223" cy="2.80068" rx="2.80223" ry="2.80068" transform="matrix(0.000135198 1 -1 -0.000135183 42.2188 32.501)" />
<ellipse cx="2.80223" cy="2.80068" rx="2.80223" ry="2.80068" transform="matrix(0.000135198 1 -1 -0.000135183 35.3672 32.501)" />
<ellipse cx="2.80223" cy="2.80068" rx="2.80223" ry="2.80068" transform="matrix(0.000135198 1 -1 -0.000135183 28.5195 32.501)" />
<ellipse cx="2.80223" cy="2.80068" rx="2.80223" ry="2.80068" transform="matrix(0.000135198 1 -1 -0.000135183 21.668 32.501)" />
<ellipse cx="2.80223" cy="2.80068" rx="2.80223" ry="2.80068" transform="matrix(0.000135198 1 -1 -0.000135183 49.0645 25.6514)" />
<ellipse cx="2.80223" cy="2.80068" rx="2.80223" ry="2.80068" transform="matrix(0.000135198 1 -1 -0.000135285 42.2168 19.4258)" />
<ellipse cx="2.80223" cy="2.80068" rx="2.80223" ry="2.80068" transform="matrix(0.000135198 1 -1 -0.000135183 42.2207 46.8232)" />
<ellipse cx="2.80223" cy="2.80068" rx="2.80223" ry="2.80068" transform="matrix(0.000135198 1 -1 -0.000135183 48.4453 39.9736)" />
</symbol><symbol viewBox="0 0 35 52" fill="none" id="icon-play">
<circle cx="4.52649" cy="4.30878" r="3.76477" fill="white" />
<circle cx="4.52649" cy="13.0933" r="3.76477" fill="white" />
<circle cx="4.52649" cy="21.8777" r="3.76477" fill="white" />
<circle cx="4.52649" cy="30.6622" r="3.76477" fill="white" />
<circle cx="4.52649" cy="39.4467" r="3.76477" fill="white" />
<circle cx="4.52649" cy="48.2311" r="3.76477" fill="white" />
<circle cx="13.3107" cy="13.0933" r="3.76477" fill="white" />
<circle cx="13.3107" cy="21.8777" r="3.76477" fill="white" />
<circle cx="13.3107" cy="30.6622" r="3.76477" fill="white" />
<circle cx="13.3107" cy="39.4467" r="3.76477" fill="white" />
<circle cx="22.0958" cy="17.4855" r="3.76477" fill="white" />
<circle cx="22.0958" cy="26.27" r="3.76477" fill="white" />
<circle cx="22.0958" cy="35.0544" r="3.76477" fill="white" />
<circle cx="30.88" cy="26.27" r="3.76477" fill="white" />
</symbol><symbol viewBox="0 0 25 25" fill="none" id="icon-rocket">
<g clip-path="url(#icon-rocket_clip0_230_416)">
<circle cx="14.6499" cy="4.47655" r="0.813954" fill="#134AFF" />
<circle cx="0.813954" cy="0.813954" r="0.813954" transform="matrix(-1 0 0 1 12.208 3.6626)" fill="#134AFF" />
<circle cx="13.022" cy="2.84862" r="0.813954" fill="#134AFF" />
<circle cx="13.022" cy="18.314" r="0.813954" fill="#134AFF" />
<circle cx="13.022" cy="23.1977" r="0.813954" fill="#134AFF" />
<circle cx="12.0054" cy="20.7558" r="0.813954" fill="#134AFF" />
<circle cx="14.2417" cy="20.7558" r="0.813954" fill="#134AFF" />
<circle cx="10.9897" cy="18.314" r="0.813954" fill="#134AFF" />
<circle cx="15.0581" cy="18.314" r="0.813954" fill="#134AFF" />
<circle cx="16.2778" cy="6.10448" r="0.813954" fill="#134AFF" />
<circle cx="0.813954" cy="0.813954" r="0.813954" transform="matrix(-1 0 0 1 10.5801 5.29053)" fill="#134AFF" />
<circle cx="16.2778" cy="8.13915" r="0.813954" fill="#134AFF" />
<circle cx="0.813954" cy="0.813954" r="0.813954" transform="matrix(-1 0 0 1 10.5801 7.3252)" fill="#134AFF" />
<circle cx="16.2778" cy="10.1743" r="0.813954" fill="#134AFF" />
<circle cx="16.2778" cy="14.2436" r="0.813954" fill="#134AFF" />
<circle cx="16.2778" cy="16.2788" r="0.813954" fill="#134AFF" />
<circle cx="0.813954" cy="0.813954" r="0.813954" transform="matrix(-1 0 0 1 10.5801 9.36035)" fill="#134AFF" />
<circle cx="0.813954" cy="0.813954" r="0.813954" transform="matrix(-1 0 0 1 10.5801 13.4297)" fill="#134AFF" />
<circle cx="16.2778" cy="12.209" r="0.813954" fill="#134AFF" />
<circle cx="0.813954" cy="0.813954" r="0.813954" transform="matrix(-1 0 0 1 10.5801 11.395)" fill="#134AFF" />
<circle cx="0.813954" cy="0.813954" r="0.813954" transform="matrix(-1 0 0 1 8.13574 12.6162)" fill="#134AFF" />
<circle cx="18.7173" cy="13.4302" r="0.813954" fill="#134AFF" />
<circle opacity="0.9" cx="0.813954" cy="0.813954" r="0.813954" transform="matrix(-1 0 0 1 6.51172 14.2441)" fill="#134AFF" />
<circle opacity="0.9" cx="20.3462" cy="15.0581" r="0.813954" fill="#134AFF" />
<circle cx="0.813954" cy="0.813954" r="0.813954" transform="matrix(-1 0 0 1 10.5801 15.4648)" fill="#134AFF" />
<circle cx="0.813954" cy="0.813954" r="0.813954" transform="matrix(-1 0 0 1 12.8154 15.4648)" fill="#134AFF" />
<circle cx="0.813954" cy="0.813954" r="0.813954" transform="matrix(-1 0 0 1 15.0596 15.4648)" fill="#134AFF" />
</g>
<defs>

</defs>
</symbol><clipPath id="icon-rocket_clip0_230_416">
<rect width="25" height="25" fill="white" />
</clipPath><symbol viewBox="0 0 72 72" id="icon-rocket-start">
<circle cx="41.3023" cy="7.98325" r="2.65" />
<circle cx="2.65" cy="2.65" r="2.65" transform="matrix(-1 0 0 1 33.3516 5.33325)" />
<circle cx="36.0016" cy="2.65" r="2.65" />
<circle opacity="0.4" cx="36.0016" cy="53.3167" r="2.65" />
<circle opacity="0.4" cx="36.0016" cy="69.3167" r="2.65" />
<circle opacity="0.4" cx="32.6891" cy="61.3167" r="2.65" />
<circle opacity="0.4" cx="39.9762" cy="61.3167" r="2.65" />
<circle opacity="0.4" cx="29.3785" cy="53.3167" r="2.65" />
<circle opacity="0.4" cx="42.6266" cy="53.3167" r="2.65" />
<circle cx="46.6012" cy="13.3167" r="2.65" />
<circle cx="2.65" cy="2.65" r="2.65" transform="matrix(-1 0 0 1 28.0527 10.6667)" />
<circle cx="46.6012" cy="19.9833" r="2.65" />
<circle cx="2.65" cy="2.65" r="2.65" transform="matrix(-1 0 0 1 28.0527 17.3333)" />
<circle cx="46.6012" cy="26.65" r="2.65" />
<circle cx="46.6012" cy="39.9833" r="2.65" />
<circle cx="46.6012" cy="46.65" r="2.65" />
<circle cx="2.65" cy="2.65" r="2.65" transform="matrix(-1 0 0 1 28.0527 24)" />
<circle cx="2.65" cy="2.65" r="2.65" transform="matrix(-1 0 0 1 28.0527 37.3333)" />
<circle cx="46.6012" cy="33.3167" r="2.65" />
<circle cx="2.65" cy="2.65" r="2.65" transform="matrix(-1 0 0 1 28.0527 30.6667)" />
<circle cx="2.65" cy="2.65" r="2.65" transform="matrix(-1 0 0 1 20.1016 34.6667)" />
<circle cx="54.5504" cy="37.3167" r="2.65" />
<circle opacity="0.9" cx="2.65" cy="2.65" r="2.65" transform="matrix(-1 0 0 1 14.8027 40)" />
<circle opacity="0.9" cx="59.8492" cy="42.65" r="2.65" />
<circle cx="2.65" cy="2.65" r="2.65" transform="matrix(-1 0 0 1 28.0508 44)" />
<circle cx="2.65" cy="2.65" r="2.65" transform="matrix(-1 0 0 1 35.3359 44)" />
<circle cx="2.65" cy="2.65" r="2.65" transform="matrix(-1 0 0 1 42.627 44)" />
</symbol><symbol viewBox="0 0 44 44" fill="none" id="icon-upload-doc">
<path fill-rule="evenodd" clip-rule="evenodd" d="M8 37.0002V7.00016H36V24.5002C36 25.3286 36.6716 26.0002 37.5 26.0002C38.3284 26.0002 39 25.3286 39 24.5002V5.50016C39 4.67174 38.3284 4.00016 37.5 4.00016H7.5C7.32468 4.00016 7.15639 4.03024 7 4.08552C6.84361 4.03024 6.67532 4.00016 6.5 4.00016C5.67157 4.00016 5 4.67174 5 5.50016V38.5002C5 39.3286 5.67157 40.0002 6.5 40.0002H22.5C23.3284 40.0002 24 39.3286 24 38.5002C24 37.6717 23.3284 37.0002 22.5 37.0002H8ZM12.8333 12.8333C12.8333 11.8208 13.6541 11 14.6667 11C15.6792 11 16.5 11.8208 16.5 12.8333C16.5 13.8459 15.6792 14.6667 14.6667 14.6667C13.6541 14.6667 12.8333 13.8459 12.8333 12.8333ZM14.6667 18.3333C13.6541 18.3333 12.8333 19.1541 12.8333 20.1667C12.8333 21.1792 13.6541 22 14.6667 22H29.3333C30.3459 22 31.1667 21.1792 31.1667 20.1667C31.1667 19.1541 30.3459 18.3333 29.3333 18.3333H14.6667ZM12.8333 27.5C12.8333 26.4875 13.6541 25.6667 14.6667 25.6667H23.8333C24.8459 25.6667 25.6667 26.4875 25.6667 27.5C25.6667 28.5125 24.8459 29.3333 23.8333 29.3333H14.6667C13.6541 29.3333 12.8333 28.5125 12.8333 27.5Z" fill="#134AFF" />
<ellipse cx="1.14469" cy="1.14406" rx="1.14469" ry="1.14406" transform="matrix(1 0 -0.000135139 1 31.3379 27)" fill="#134AFF" />
<ellipse cx="1.14469" cy="1.14406" rx="1.14469" ry="1.14406" transform="matrix(1 0 -0.000135139 1 31.3379 29.7912)" fill="#134AFF" />
<ellipse cx="1.14469" cy="1.14406" rx="1.14469" ry="1.14406" transform="matrix(1 0 -0.000135139 1 31.3379 32.5959)" fill="#134AFF" />
<ellipse cx="1.14469" cy="1.14406" rx="1.14469" ry="1.14406" transform="matrix(1 0 -0.000135139 1 31.3379 35.3942)" fill="#134AFF" />
<ellipse cx="1.14469" cy="1.14406" rx="1.14469" ry="1.14406" transform="matrix(1 0 -0.000135139 1 31.3379 38.1913)" fill="#134AFF" />
<ellipse cx="1.14469" cy="1.14406" rx="1.14469" ry="1.14406" transform="matrix(1 0 -0.000135139 1 28.5391 29.7912)" fill="#134AFF" />
<ellipse cx="1.14469" cy="1.14406" rx="1.14469" ry="1.14406" transform="matrix(1 0 -0.000135242 1 26.002 32.5959)" fill="#134AFF" />
<ellipse cx="1.14469" cy="1.14406" rx="1.14469" ry="1.14406" transform="matrix(1 0 -0.000135139 1 36.7246 32.5959)" fill="#134AFF" />
<ellipse cx="1.14469" cy="1.14406" rx="1.14469" ry="1.14406" transform="matrix(1 0 -0.000135139 1 34.3926 29.7906)" fill="#134AFF" />
</symbol><symbol viewBox="0 0 44 44" fill="none" id="icon-upload-error">
<path fill-rule="evenodd" clip-rule="evenodd" d="M8 37V7H36V24.5C36 25.3284 36.6716 26 37.5 26C38.3284 26 39 25.3284 39 24.5V5.5C39 4.67157 38.3284 4 37.5 4H7.5C7.32468 4 7.15639 4.03008 7 4.08535C6.84361 4.03008 6.67532 4 6.5 4C5.67157 4 5 4.67157 5 5.5V38.5C5 39.3284 5.67157 40 6.5 40H22.5C23.3284 40 24 39.3284 24 38.5C24 37.6716 23.3284 37 22.5 37H8ZM12.833 12.8333C12.833 11.8208 13.6538 11 14.6663 11C15.6789 11 16.4997 11.8208 16.4997 12.8333C16.4997 13.8459 15.6789 14.6667 14.6663 14.6667C13.6538 14.6667 12.833 13.8459 12.833 12.8333ZM14.6663 18.333C13.6538 18.333 12.833 19.1538 12.833 20.1663C12.833 21.1789 13.6538 21.9997 14.6663 21.9997H29.333C30.3455 21.9997 31.1663 21.1789 31.1663 20.1663C31.1663 19.1538 30.3455 18.333 29.333 18.333H14.6663ZM12.833 27.4993C12.833 26.4868 13.6538 25.666 14.6663 25.666H23.833C24.8455 25.666 25.6663 26.4868 25.6663 27.4993C25.6663 28.5119 24.8455 29.3327 23.833 29.3327H14.6663C13.6538 29.3327 12.833 28.5119 12.833 27.4993Z" fill="#DF2E2E" />
<path d="M29.0535 32.819C29.265 33.0305 29.608 33.0305 29.8195 32.819C30.0311 32.6074 30.0311 32.2645 29.8195 32.0529C29.608 31.8414 29.265 31.8414 29.0535 32.0529C28.842 32.2645 28.842 32.6074 29.0535 32.819Z" fill="#DF2E2E" />
<path d="M35.9709 38.2034L31.3288 33.5612C31.1299 33.3624 30.8076 33.3624 30.6087 33.5612L30.5628 33.6072C30.3639 33.806 30.3639 34.1284 30.5628 34.3272L35.2049 38.9694C35.4038 39.1682 35.7261 39.1682 35.925 38.9694L35.9709 38.9234C36.1698 38.7246 36.1698 38.4022 35.9709 38.2034Z" fill="#DF2E2E" />
<path d="M35.2042 32.0302L29.03 38.2044C28.8311 38.4033 28.8311 38.7256 29.03 38.9245L29.0759 38.9705C29.2748 39.1693 29.5971 39.1693 29.796 38.9705L35.9702 32.7962C36.1691 32.5974 36.1691 32.275 35.9702 32.0762L35.9243 32.0302C35.7254 31.8313 35.403 31.8313 35.2042 32.0302Z" fill="#DF2E2E" />
</symbol></defs><use id="icon-arrow-down-usage" xlink:href="#icon-arrow-down" class="sprite-symbol-usage" /><use id="icon-arrow-right-usage" xlink:href="#icon-arrow-right" class="sprite-symbol-usage" /><use id="icon-play-usage" xlink:href="#icon-play" class="sprite-symbol-usage" /><use id="icon-rocket-usage" xlink:href="#icon-rocket" class="sprite-symbol-usage" /><use id="icon-rocket-start-usage" xlink:href="#icon-rocket-start" class="sprite-symbol-usage" /><use id="icon-upload-doc-usage" xlink:href="#icon-upload-doc" class="sprite-symbol-usage" /><use id="icon-upload-error-usage" xlink:href="#icon-upload-error" class="sprite-symbol-usage" /></svg>