<svg xmlns="http://www.w3.org/2000/svg" xmlns:xlink="http://www.w3.org/1999/xlink"><defs><style>
    .sprite-symbol-usage {display: none;}
    .sprite-symbol-usage:target {display: inline;}
  </style><symbol viewBox="0 0 25 25" fill="none" id="icon-arrow-down">
<ellipse cx="1.19169" cy="1.19157" rx="1.19169" ry="1.19157" transform="matrix(1 0 0 -1 16.6172 19)" fill="#134AFF" />
<ellipse cx="1.19169" cy="1.19157" rx="1.19169" ry="1.19157" transform="matrix(1 0 0 -1 16.6172 15.4282)" fill="#134AFF" />
<ellipse cx="1.19169" cy="1.19157" rx="1.19169" ry="1.19157" transform="matrix(1 0 0 -1 13.043 19)" fill="#134AFF" />
<ellipse cx="1.19169" cy="1.19157" rx="1.19169" ry="1.19157" transform="matrix(1 0 0 -1 13.043 15.4282)" fill="#134AFF" />
<ellipse cx="1.19169" cy="1.19157" rx="1.19169" ry="1.19157" transform="matrix(1 0 0 -1 10.3672 12.7446)" fill="#134AFF" />
<ellipse cx="1.19169" cy="1.19157" rx="1.19169" ry="1.19157" transform="matrix(1 0 0 -1 7.68359 10.0674)" fill="#134AFF" />
<ellipse cx="1.19169" cy="1.19157" rx="1.19169" ry="1.19157" transform="matrix(1 0 0 -1 5 7.3833)" fill="#134AFF" />
<ellipse cx="1.19169" cy="1.19157" rx="1.19169" ry="1.19157" transform="matrix(1 0 0 -1 9.46875 19)" fill="#134AFF" />
<ellipse cx="1.19169" cy="1.19157" rx="1.19169" ry="1.19157" transform="matrix(1 0 0 -1 5.89062 19)" fill="#134AFF" />
<ellipse cx="1.19169" cy="1.19157" rx="1.19169" ry="1.19157" transform="matrix(1 0 0 -1 16.6172 11.8501)" fill="#134AFF" />
<ellipse cx="1.19169" cy="1.19157" rx="1.19169" ry="1.19157" transform="matrix(1 0 0 -1 16.6172 8.27783)" fill="#134AFF" />
</symbol><symbol viewBox="0 0 53 53" fill="none" id="icon-arrow-right">
<ellipse cx="4.5" cy="4.49752" rx="4.5" ry="4.49752" transform="matrix(-4.37436e-08 1 -1 -0.000135183 53 21)" fill="white" />
<ellipse cx="4.5" cy="4.49752" rx="4.5" ry="4.49752" transform="matrix(-4.37436e-08 1 -1 -0.000135183 42.0029 21)" fill="white" />
<ellipse cx="4.5" cy="4.49752" rx="4.5" ry="4.49752" transform="matrix(-4.37436e-08 1 -1 -0.000135183 31 21)" fill="white" />
<ellipse cx="4.5" cy="4.49752" rx="4.5" ry="4.49752" transform="matrix(-4.37436e-08 1 -1 -0.000135183 20 21)" fill="white" />
<ellipse cx="4.5" cy="4.49752" rx="4.5" ry="4.49752" transform="matrix(-4.37436e-08 1 -1 -0.000135183 9 21)" fill="white" />
<ellipse cx="4.5" cy="4.49752" rx="4.5" ry="4.49752" transform="matrix(-4.37436e-08 1 -1 -0.000135183 42 10)" fill="white" />
<ellipse cx="4.5" cy="4.49752" rx="4.5" ry="4.49752" transform="matrix(-4.37114e-08 1 -1 -0.000135285 31 0.00390625)" fill="white" />
<ellipse cx="4.5" cy="4.49752" rx="4.5" ry="4.49752" transform="matrix(-4.37436e-08 1 -1 -0.000135183 31 44)" fill="white" />
<ellipse cx="4.5" cy="4.49752" rx="4.5" ry="4.49752" transform="matrix(-4.37436e-08 1 -1 -0.000135183 41 33)" fill="white" />
</symbol><symbol viewBox="0 0 35 52" fill="none" id="icon-play">
<circle cx="4.52649" cy="4.30878" r="3.76477" fill="white" />
<circle cx="4.52649" cy="13.0933" r="3.76477" fill="white" />
<circle cx="4.52649" cy="21.8777" r="3.76477" fill="white" />
<circle cx="4.52649" cy="30.6622" r="3.76477" fill="white" />
<circle cx="4.52649" cy="39.4467" r="3.76477" fill="white" />
<circle cx="4.52649" cy="48.2311" r="3.76477" fill="white" />
<circle cx="13.3107" cy="13.0933" r="3.76477" fill="white" />
<circle cx="13.3107" cy="21.8777" r="3.76477" fill="white" />
<circle cx="13.3107" cy="30.6622" r="3.76477" fill="white" />
<circle cx="13.3107" cy="39.4467" r="3.76477" fill="white" />
<circle cx="22.0958" cy="17.4855" r="3.76477" fill="white" />
<circle cx="22.0958" cy="26.27" r="3.76477" fill="white" />
<circle cx="22.0958" cy="35.0544" r="3.76477" fill="white" />
<circle cx="30.88" cy="26.27" r="3.76477" fill="white" />
</symbol><symbol viewBox="0 0 25 25" fill="none" id="icon-rocket">
<g clip-path="url(#icon-rocket_clip0_230_416)">
<circle cx="14.6499" cy="4.47655" r="0.813954" fill="#134AFF" />
<circle cx="0.813954" cy="0.813954" r="0.813954" transform="matrix(-1 0 0 1 12.208 3.6626)" fill="#134AFF" />
<circle cx="13.022" cy="2.84862" r="0.813954" fill="#134AFF" />
<circle cx="13.022" cy="18.314" r="0.813954" fill="#134AFF" />
<circle cx="13.022" cy="23.1977" r="0.813954" fill="#134AFF" />
<circle cx="12.0054" cy="20.7558" r="0.813954" fill="#134AFF" />
<circle cx="14.2417" cy="20.7558" r="0.813954" fill="#134AFF" />
<circle cx="10.9897" cy="18.314" r="0.813954" fill="#134AFF" />
<circle cx="15.0581" cy="18.314" r="0.813954" fill="#134AFF" />
<circle cx="16.2778" cy="6.10448" r="0.813954" fill="#134AFF" />
<circle cx="0.813954" cy="0.813954" r="0.813954" transform="matrix(-1 0 0 1 10.5801 5.29053)" fill="#134AFF" />
<circle cx="16.2778" cy="8.13915" r="0.813954" fill="#134AFF" />
<circle cx="0.813954" cy="0.813954" r="0.813954" transform="matrix(-1 0 0 1 10.5801 7.3252)" fill="#134AFF" />
<circle cx="16.2778" cy="10.1743" r="0.813954" fill="#134AFF" />
<circle cx="16.2778" cy="14.2436" r="0.813954" fill="#134AFF" />
<circle cx="16.2778" cy="16.2788" r="0.813954" fill="#134AFF" />
<circle cx="0.813954" cy="0.813954" r="0.813954" transform="matrix(-1 0 0 1 10.5801 9.36035)" fill="#134AFF" />
<circle cx="0.813954" cy="0.813954" r="0.813954" transform="matrix(-1 0 0 1 10.5801 13.4297)" fill="#134AFF" />
<circle cx="16.2778" cy="12.209" r="0.813954" fill="#134AFF" />
<circle cx="0.813954" cy="0.813954" r="0.813954" transform="matrix(-1 0 0 1 10.5801 11.395)" fill="#134AFF" />
<circle cx="0.813954" cy="0.813954" r="0.813954" transform="matrix(-1 0 0 1 8.13574 12.6162)" fill="#134AFF" />
<circle cx="18.7173" cy="13.4302" r="0.813954" fill="#134AFF" />
<circle opacity="0.9" cx="0.813954" cy="0.813954" r="0.813954" transform="matrix(-1 0 0 1 6.51172 14.2441)" fill="#134AFF" />
<circle opacity="0.9" cx="20.3462" cy="15.0581" r="0.813954" fill="#134AFF" />
<circle cx="0.813954" cy="0.813954" r="0.813954" transform="matrix(-1 0 0 1 10.5801 15.4648)" fill="#134AFF" />
<circle cx="0.813954" cy="0.813954" r="0.813954" transform="matrix(-1 0 0 1 12.8154 15.4648)" fill="#134AFF" />
<circle cx="0.813954" cy="0.813954" r="0.813954" transform="matrix(-1 0 0 1 15.0596 15.4648)" fill="#134AFF" />
</g>
<defs>

</defs>
</symbol><clipPath id="icon-rocket_clip0_230_416">
<rect width="25" height="25" fill="white" />
</clipPath><symbol viewBox="0 0 53 72" fill="none" id="icon-rocket-start">
<ellipse cx="31.8004" cy="8.00065" rx="2.65" ry="2.66667" fill="white" />
<ellipse cx="2.65" cy="2.66667" rx="2.65" ry="2.66667" transform="matrix(-1 0 0 1 23.8496 5.33398)" fill="white" />
<ellipse cx="26.4996" cy="2.66667" rx="2.65" ry="2.66667" fill="white" />
<ellipse opacity="0.4" cx="26.4996" cy="53.3327" rx="2.65" ry="2.66667" fill="white" />
<ellipse opacity="0.4" cx="26.4996" cy="69.3327" rx="2.65" ry="2.66667" fill="white" />
<ellipse opacity="0.4" cx="23.1871" cy="61.3327" rx="2.65" ry="2.66667" fill="white" />
<ellipse opacity="0.4" cx="30.4752" cy="61.3327" rx="2.65" ry="2.66667" fill="white" />
<ellipse opacity="0.4" cx="19.8756" cy="53.3327" rx="2.65" ry="2.66667" fill="white" />
<ellipse opacity="0.4" cx="33.1246" cy="53.3327" rx="2.65" ry="2.66667" fill="white" />
<ellipse cx="37.0992" cy="13.3327" rx="2.65" ry="2.66667" fill="white" />
<ellipse cx="2.65" cy="2.66667" rx="2.65" ry="2.66667" transform="matrix(-1 0 0 1 18.5498 10.666)" fill="white" />
<ellipse cx="37.0992" cy="20.0007" rx="2.65" ry="2.66667" fill="white" />
<ellipse cx="2.65" cy="2.66667" rx="2.65" ry="2.66667" transform="matrix(-1 0 0 1 18.5498 17.334)" fill="white" />
<ellipse cx="37.0992" cy="26.6667" rx="2.65" ry="2.66667" fill="white" />
<ellipse cx="37.0992" cy="40.0007" rx="2.65" ry="2.66667" fill="white" />
<ellipse cx="37.0992" cy="46.6667" rx="2.65" ry="2.66667" fill="white" />
<ellipse cx="2.65" cy="2.66667" rx="2.65" ry="2.66667" transform="matrix(-1 0 0 1 18.5498 24)" fill="white" />
<ellipse cx="2.65" cy="2.66667" rx="2.65" ry="2.66667" transform="matrix(-1 0 0 1 18.5498 37.334)" fill="white" />
<ellipse cx="37.0992" cy="33.3327" rx="2.65" ry="2.66667" fill="white" />
<ellipse cx="2.65" cy="2.66667" rx="2.65" ry="2.66667" transform="matrix(-1 0 0 1 18.5498 30.666)" fill="white" />
<ellipse cx="2.65" cy="2.66667" rx="2.65" ry="2.66667" transform="matrix(-1 0 0 1 10.6006 34.666)" fill="white" />
<ellipse cx="45.0494" cy="37.3327" rx="2.65" ry="2.66667" fill="white" />
<ellipse opacity="0.9" cx="2.65" cy="2.66667" rx="2.65" ry="2.66667" transform="matrix(-1 0 0 1 5.2998 40)" fill="white" />
<ellipse opacity="0.9" cx="50.3502" cy="42.6667" rx="2.65" ry="2.66667" fill="white" />
<ellipse cx="2.65" cy="2.66667" rx="2.65" ry="2.66667" transform="matrix(-1 0 0 1 18.5498 44)" fill="white" />
<ellipse cx="2.65" cy="2.66667" rx="2.65" ry="2.66667" transform="matrix(-1 0 0 1 25.8369 44)" fill="white" />
<ellipse cx="2.65" cy="2.66667" rx="2.65" ry="2.66667" transform="matrix(-1 0 0 1 33.125 44)" fill="white" />
</symbol></defs><use id="icon-arrow-down-usage" xlink:href="#icon-arrow-down" class="sprite-symbol-usage" /><use id="icon-arrow-right-usage" xlink:href="#icon-arrow-right" class="sprite-symbol-usage" /><use id="icon-play-usage" xlink:href="#icon-play" class="sprite-symbol-usage" /><use id="icon-rocket-usage" xlink:href="#icon-rocket" class="sprite-symbol-usage" /><use id="icon-rocket-start-usage" xlink:href="#icon-rocket-start" class="sprite-symbol-usage" /></svg>